%TF.GenerationSoftware,KiCad,Pcbnew,(5.1.12)-1*%
%TF.CreationDate,2022-03-07T16:27:54+09:00*%
%TF.ProjectId,RP2040CommandStation,52503230-3430-4436-9f6d-6d616e645374,rev?*%
%TF.SameCoordinates,PX6cb8080PY8d24d00*%
%TF.FileFunction,Soldermask,Bot*%
%TF.FilePolarity,Negative*%
%FSLAX46Y46*%
G04 Gerber Fmt 4.6, Leading zero omitted, Abs format (unit mm)*
G04 Created by KiCad (PCBNEW (5.1.12)-1) date 2022-03-07 16:27:54*
%MOMM*%
%LPD*%
G01*
G04 APERTURE LIST*
%ADD10C,2.000000*%
%ADD11C,1.600000*%
%ADD12C,1.400000*%
%ADD13R,1.600000X1.600000*%
%ADD14C,1.524000*%
%ADD15C,3.200000*%
%ADD16R,3.500120X3.500120*%
%ADD17R,2.200000X3.600000*%
%ADD18C,2.500000*%
%ADD19C,2.700000*%
%ADD20C,1.700000*%
%ADD21R,2.000000X2.000000*%
%ADD22R,1.400000X1.400000*%
%ADD23C,0.250000*%
%ADD24C,0.100000*%
G04 APERTURE END LIST*
D10*
%TO.C,REF\u002A\u002A*%
X3000000Y10000000D03*
%TD*%
%TO.C,REF\u002A\u002A*%
X92000000Y10000000D03*
%TD*%
%TO.C,REF\u002A\u002A*%
X3000000Y75000000D03*
%TD*%
%TO.C,REF\u002A\u002A*%
X92000000Y75000000D03*
%TD*%
D11*
%TO.C,C1*%
X81000000Y56500000D03*
X81000000Y61500000D03*
%TD*%
%TO.C,C3*%
X69500000Y33250000D03*
X69500000Y36750000D03*
%TD*%
D12*
%TO.C,C4*%
X78500000Y24000000D03*
X80500000Y24000000D03*
%TD*%
D11*
%TO.C,CN1*%
X35430000Y57000000D03*
X30350000Y57000000D03*
X27810000Y57000000D03*
X25270000Y57000000D03*
X22730000Y57000000D03*
X20190000Y57000000D03*
X17650000Y57000000D03*
X15110000Y57000000D03*
X11000000Y72730000D03*
X11000000Y75270000D03*
X37000000Y75270000D03*
X37000000Y72730000D03*
X32890000Y57000000D03*
D13*
X12570000Y57000000D03*
%TD*%
D14*
%TO.C,D5*%
X64270000Y5500000D03*
X61730000Y5500000D03*
%TD*%
%TO.C,D6*%
X72270000Y5500000D03*
X69730000Y5500000D03*
%TD*%
%TO.C,D7*%
X40730000Y72500000D03*
X43270000Y72500000D03*
%TD*%
D15*
%TO.C,H1*%
X92000000Y69000000D03*
%TD*%
%TO.C,H2*%
X92000000Y3000000D03*
%TD*%
%TO.C,H3*%
X3000000Y69000000D03*
%TD*%
%TO.C,H4*%
X3000000Y3000000D03*
%TD*%
D16*
%TO.C,J1*%
X83000000Y67799860D03*
X83000000Y73799340D03*
D17*
X78301000Y70799600D03*
%TD*%
D18*
%TO.C,J2*%
X71540000Y74600000D03*
X66460000Y74600000D03*
%TD*%
D14*
%TO.C,J3*%
X51750000Y66290000D03*
X54250000Y66290000D03*
X54250000Y68290000D03*
X51750000Y68290000D03*
D19*
X59020000Y71000000D03*
X46980000Y71000000D03*
%TD*%
D11*
%TO.C,J4*%
X5270000Y15490000D03*
X2730000Y15490000D03*
X5270000Y18030000D03*
X2730000Y18030000D03*
X5270000Y20570000D03*
X2730000Y20570000D03*
X5270000Y23110000D03*
X2730000Y23110000D03*
X5270000Y25650000D03*
X2730000Y25650000D03*
X5270000Y28190000D03*
X2730000Y28190000D03*
X5270000Y30730000D03*
X2730000Y30730000D03*
X5270000Y33270000D03*
X2730000Y33270000D03*
X5270000Y35810000D03*
X2730000Y35810000D03*
X5270000Y38350000D03*
X2730000Y38350000D03*
X5270000Y40890000D03*
X2730000Y40890000D03*
X5270000Y43430000D03*
X2730000Y43430000D03*
X5270000Y45970000D03*
X2730000Y45970000D03*
X5270000Y48510000D03*
D13*
X2730000Y48510000D03*
%TD*%
%TO.C,J5*%
X89730000Y48510000D03*
D11*
X92270000Y48510000D03*
X89730000Y45970000D03*
X92270000Y45970000D03*
X89730000Y43430000D03*
X92270000Y43430000D03*
X89730000Y40890000D03*
X92270000Y40890000D03*
X89730000Y38350000D03*
X92270000Y38350000D03*
X89730000Y35810000D03*
X92270000Y35810000D03*
X89730000Y33270000D03*
X92270000Y33270000D03*
X89730000Y30730000D03*
X92270000Y30730000D03*
X89730000Y28190000D03*
X92270000Y28190000D03*
X89730000Y25650000D03*
X92270000Y25650000D03*
X89730000Y23110000D03*
X92270000Y23110000D03*
X89730000Y20570000D03*
X92270000Y20570000D03*
X89730000Y18030000D03*
X92270000Y18030000D03*
X89730000Y15490000D03*
X92270000Y15490000D03*
%TD*%
D20*
%TO.C,SW1*%
X2250000Y55750000D03*
X2250000Y62250000D03*
X6750000Y55750000D03*
X6750000Y62250000D03*
%TD*%
%TO.C,SW2*%
X77750000Y9250000D03*
X84250000Y9250000D03*
X77750000Y4750000D03*
X84250000Y4750000D03*
%TD*%
D21*
%TO.C,U3*%
X57380000Y56000000D03*
D10*
X59920000Y56000000D03*
X62460000Y56000000D03*
X65000000Y56000000D03*
X67540000Y56000000D03*
X70080000Y56000000D03*
X72620000Y56000000D03*
%TD*%
D13*
%TO.C,U5*%
X67960000Y24000000D03*
D11*
X70500000Y24000000D03*
X73040000Y24000000D03*
%TD*%
D22*
%TO.C,U6*%
X36000000Y8000000D03*
D12*
X36000000Y10000000D03*
X36000000Y12000000D03*
X36000000Y14000000D03*
X36000000Y16000000D03*
X36000000Y18000000D03*
X36000000Y20000000D03*
X36000000Y22000000D03*
X36000000Y24000000D03*
X36000000Y26000000D03*
X14000000Y26000000D03*
X14000000Y24000000D03*
X14000000Y22000000D03*
X14000000Y20000000D03*
X14000000Y18000000D03*
X14000000Y16000000D03*
X14000000Y14000000D03*
X14000000Y12000000D03*
X14000000Y10000000D03*
X14000000Y8000000D03*
%TD*%
D11*
%TO.C,J6*%
X59040000Y23500000D03*
X56500000Y23500000D03*
D13*
X53960000Y23500000D03*
%TD*%
D20*
%TO.C,SW3*%
X49250000Y4750000D03*
X42750000Y4750000D03*
X49250000Y9250000D03*
X42750000Y9250000D03*
%TD*%
D14*
%TO.C,D8*%
X56270000Y5500000D03*
X53730000Y5500000D03*
%TD*%
D23*
X4441768Y5859417D02*
X4508188Y5815036D01*
X5815036Y4508188D01*
X5859417Y4441768D01*
X5875000Y4363426D01*
X5875000Y312310D01*
X5859417Y233968D01*
X5822012Y177988D01*
X5766032Y140583D01*
X5687690Y125000D01*
X312310Y125000D01*
X233968Y140583D01*
X177988Y177988D01*
X140583Y233968D01*
X125000Y312310D01*
X125000Y5687690D01*
X140583Y5766032D01*
X177988Y5822012D01*
X233968Y5859417D01*
X312310Y5875000D01*
X4363426Y5875000D01*
X4441768Y5859417D01*
D24*
G36*
X4441768Y5859417D02*
G01*
X4508188Y5815036D01*
X5815036Y4508188D01*
X5859417Y4441768D01*
X5875000Y4363426D01*
X5875000Y312310D01*
X5859417Y233968D01*
X5822012Y177988D01*
X5766032Y140583D01*
X5687690Y125000D01*
X312310Y125000D01*
X233968Y140583D01*
X177988Y177988D01*
X140583Y233968D01*
X125000Y312310D01*
X125000Y5687690D01*
X140583Y5766032D01*
X177988Y5822012D01*
X233968Y5859417D01*
X312310Y5875000D01*
X4363426Y5875000D01*
X4441768Y5859417D01*
G37*
D23*
X94766032Y5859417D02*
X94822012Y5822012D01*
X94859417Y5766032D01*
X94875000Y5687690D01*
X94875000Y312310D01*
X94859417Y233968D01*
X94822012Y177988D01*
X94766032Y140583D01*
X94687690Y125000D01*
X89312310Y125000D01*
X89233968Y140583D01*
X89177988Y177988D01*
X89140583Y233968D01*
X89125000Y312310D01*
X89125000Y4363426D01*
X89140583Y4441768D01*
X89184964Y4508188D01*
X90491812Y5815036D01*
X90558232Y5859417D01*
X90636574Y5875000D01*
X94687690Y5875000D01*
X94766032Y5859417D01*
D24*
G36*
X94766032Y5859417D02*
G01*
X94822012Y5822012D01*
X94859417Y5766032D01*
X94875000Y5687690D01*
X94875000Y312310D01*
X94859417Y233968D01*
X94822012Y177988D01*
X94766032Y140583D01*
X94687690Y125000D01*
X89312310Y125000D01*
X89233968Y140583D01*
X89177988Y177988D01*
X89140583Y233968D01*
X89125000Y312310D01*
X89125000Y4363426D01*
X89140583Y4441768D01*
X89184964Y4508188D01*
X90491812Y5815036D01*
X90558232Y5859417D01*
X90636574Y5875000D01*
X94687690Y5875000D01*
X94766032Y5859417D01*
G37*
D23*
X94766032Y71859417D02*
X94822012Y71822012D01*
X94859417Y71766032D01*
X94875000Y71687690D01*
X94875000Y66312310D01*
X94859417Y66233968D01*
X94822012Y66177988D01*
X94766032Y66140583D01*
X94687690Y66125000D01*
X90636574Y66125000D01*
X90558232Y66140583D01*
X90491812Y66184964D01*
X89184964Y67491812D01*
X89140583Y67558232D01*
X89125000Y67636574D01*
X89125000Y70363426D01*
X89140583Y70441768D01*
X89184964Y70508188D01*
X90491812Y71815036D01*
X90558232Y71859417D01*
X90636574Y71875000D01*
X94687690Y71875000D01*
X94766032Y71859417D01*
D24*
G36*
X94766032Y71859417D02*
G01*
X94822012Y71822012D01*
X94859417Y71766032D01*
X94875000Y71687690D01*
X94875000Y66312310D01*
X94859417Y66233968D01*
X94822012Y66177988D01*
X94766032Y66140583D01*
X94687690Y66125000D01*
X90636574Y66125000D01*
X90558232Y66140583D01*
X90491812Y66184964D01*
X89184964Y67491812D01*
X89140583Y67558232D01*
X89125000Y67636574D01*
X89125000Y70363426D01*
X89140583Y70441768D01*
X89184964Y70508188D01*
X90491812Y71815036D01*
X90558232Y71859417D01*
X90636574Y71875000D01*
X94687690Y71875000D01*
X94766032Y71859417D01*
G37*
D23*
X4441768Y71859417D02*
X4508188Y71815036D01*
X5815036Y70508188D01*
X5859417Y70441768D01*
X5875000Y70363426D01*
X5875000Y67636574D01*
X5859417Y67558232D01*
X5815036Y67491812D01*
X4508188Y66184964D01*
X4441768Y66140583D01*
X4363426Y66125000D01*
X312310Y66125000D01*
X233968Y66140583D01*
X177988Y66177988D01*
X140583Y66233968D01*
X125000Y66312310D01*
X125000Y71687690D01*
X140583Y71766032D01*
X177988Y71822012D01*
X233968Y71859417D01*
X312310Y71875000D01*
X4363426Y71875000D01*
X4441768Y71859417D01*
D24*
G36*
X4441768Y71859417D02*
G01*
X4508188Y71815036D01*
X5815036Y70508188D01*
X5859417Y70441768D01*
X5875000Y70363426D01*
X5875000Y67636574D01*
X5859417Y67558232D01*
X5815036Y67491812D01*
X4508188Y66184964D01*
X4441768Y66140583D01*
X4363426Y66125000D01*
X312310Y66125000D01*
X233968Y66140583D01*
X177988Y66177988D01*
X140583Y66233968D01*
X125000Y66312310D01*
X125000Y71687690D01*
X140583Y71766032D01*
X177988Y71822012D01*
X233968Y71859417D01*
X312310Y71875000D01*
X4363426Y71875000D01*
X4441768Y71859417D01*
G37*
M02*
