M48
; DRILL file {KiCad (5.1.12)-1} date 03/07/22 16:27:56
; FORMAT={-:-/ absolute / metric / decimal}
; #@! TF.CreationDate,2022-03-07T16:27:56+09:00
; #@! TF.GenerationSoftware,Kicad,Pcbnew,(5.1.12)-1
FMAT,2
METRIC
T1C0.300
T2C0.350
T3C0.400
T4C0.500
T5C0.700
T6C0.762
T7C0.800
T8C0.900
T9C1.000
T10C1.001
T11C1.300
T12C1.400
T13C2.300
T14C2.000
T15C3.200
%
G90
G05
T1
X22.7Y38.2
X28.8Y38.2
X40.2Y36.9
X40.2Y33.8
X40.5Y50.3
X41.0Y34.0
X41.9Y33.0
X42.5Y32.4
X46.75Y30.75
X52.4Y27.3
X53.1Y26.8
X53.6Y25.4
X57.3Y33.9
X57.4Y29.1
X57.75Y28.0
X58.1Y34.3
X58.3Y29.1
X59.0Y33.8
X59.1Y33.0
X59.2Y29.1
X60.1Y29.1
X60.6Y36.9
X61.2Y37.6
X61.7Y30.0
X61.9Y29.1
X62.0Y37.9
X62.3Y38.7
X63.0Y18.0
X64.25Y17.75
X65.4Y19.1
X65.5Y20.0
X65.6Y20.9
X66.5Y18.25
T2
X47.725Y34.275
X47.725Y33.0
X47.725Y31.725
X49.0Y34.275
X49.0Y33.0
X49.0Y31.725
X50.275Y34.275
X50.275Y33.0
X50.275Y31.725
T3
X29.25Y42.5
X40.5Y31.6
X41.5Y37.0
X44.4Y26.0
X44.5Y37.0
X45.0Y40.0
X46.5Y46.25
X48.6Y42.0
X49.4Y38.5
X53.0Y29.0
X53.75Y37.0
X54.5Y31.6
X60.0Y41.75
X62.25Y44.0
X62.75Y33.25
X71.25Y41.0
X73.25Y36.5
T4
X7.5Y76.0
X7.5Y66.0
X7.5Y66.0
X7.5Y44.75
X7.5Y37.0
X7.5Y16.75
X7.5Y6.0
X17.5Y45.5
X17.5Y36.0
X17.5Y26.0
X17.5Y16.0
X17.5Y8.0
X19.0Y60.0
X19.0Y53.0
X22.5Y8.0
X23.5Y45.5
X26.0Y60.0
X26.75Y45.5
X27.0Y53.0
X27.0Y50.0
X27.5Y36.0
X27.5Y26.0
X27.5Y16.0
X27.5Y8.0
X31.0Y53.0
X31.0Y44.0
X32.0Y50.0
X32.5Y8.0
X35.0Y53.0
X37.25Y49.25
X37.5Y66.0
X37.5Y14.5
X38.0Y60.0
X38.5Y41.5
X39.0Y57.0
X39.0Y53.0
X39.0Y17.5
X39.75Y9.25
X40.0Y47.5
X40.0Y26.0
X40.75Y12.5
X42.0Y43.75
X43.0Y57.0
X43.0Y53.0
X43.25Y43.75
X46.75Y52.0
X47.5Y76.0
X47.5Y66.0
X47.5Y15.5
X47.5Y6.0
X50.0Y57.0
X50.25Y46.25
X52.75Y57.25
X54.0Y42.0
X55.0Y26.25
X55.75Y43.0
X57.5Y76.0
X57.5Y66.0
X57.5Y53.25
X57.5Y46.0
X57.5Y15.5
X59.0Y2.5
X61.0Y32.0
X64.0Y15.5
X64.25Y41.5
X64.25Y29.25
X65.5Y34.75
X66.5Y2.5
X67.0Y29.0
X67.0Y27.25
X71.0Y52.0
X75.0Y52.0
X75.0Y29.0
X75.0Y22.0
X75.0Y2.5
X75.5Y14.0
X77.0Y56.0
X77.5Y76.0
X77.5Y66.0
X77.5Y26.0
X79.0Y52.0
X79.0Y41.5
X83.0Y52.0
X83.0Y41.5
X83.0Y29.0
X83.0Y22.0
X84.5Y32.0
X85.0Y56.0
X87.0Y52.0
X87.5Y76.0
X87.5Y7.5
X87.5Y2.5
X93.5Y7.5
T5
X78.5Y24.0
X80.5Y24.0
T6
X40.73Y72.5
X43.27Y72.5
X53.73Y5.5
X56.27Y5.5
X61.73Y5.5
X64.27Y5.5
X69.73Y5.5
X72.27Y5.5
T7
X2.73Y48.51
X2.73Y45.97
X2.73Y43.43
X2.73Y40.89
X2.73Y38.35
X2.73Y35.81
X2.73Y33.27
X2.73Y30.73
X2.73Y28.19
X2.73Y25.65
X2.73Y23.11
X2.73Y20.57
X2.73Y18.03
X2.73Y15.49
X5.27Y48.51
X5.27Y45.97
X5.27Y43.43
X5.27Y40.89
X5.27Y38.35
X5.27Y35.81
X5.27Y33.27
X5.27Y30.73
X5.27Y28.19
X5.27Y25.65
X5.27Y23.11
X5.27Y20.57
X5.27Y18.03
X5.27Y15.49
X14.0Y26.0
X14.0Y24.0
X14.0Y22.0
X14.0Y20.0
X14.0Y18.0
X14.0Y16.0
X14.0Y14.0
X14.0Y12.0
X14.0Y10.0
X14.0Y8.0
X36.0Y26.0
X36.0Y24.0
X36.0Y22.0
X36.0Y20.0
X36.0Y18.0
X36.0Y16.0
X36.0Y14.0
X36.0Y12.0
X36.0Y10.0
X36.0Y8.0
X51.75Y68.29
X51.75Y66.29
X54.25Y68.29
X54.25Y66.29
X67.96Y24.0
X69.5Y36.75
X69.5Y33.25
X70.5Y24.0
X73.04Y24.0
X81.0Y61.5
X81.0Y56.5
X89.73Y48.51
X89.73Y45.97
X89.73Y43.43
X89.73Y40.89
X89.73Y38.35
X89.73Y35.81
X89.73Y33.27
X89.73Y30.73
X89.73Y28.19
X89.73Y25.65
X89.73Y23.11
X89.73Y20.57
X89.73Y18.03
X89.73Y15.49
X92.27Y48.51
X92.27Y45.97
X92.27Y43.43
X92.27Y40.89
X92.27Y38.35
X92.27Y35.81
X92.27Y33.27
X92.27Y30.73
X92.27Y28.19
X92.27Y25.65
X92.27Y23.11
X92.27Y20.57
X92.27Y18.03
X92.27Y15.49
T8
X11.0Y75.27
X11.0Y72.73
X12.57Y57.0
X15.11Y57.0
X17.65Y57.0
X20.19Y57.0
X22.73Y57.0
X25.27Y57.0
X27.81Y57.0
X30.35Y57.0
X32.89Y57.0
X35.43Y57.0
X37.0Y75.27
X37.0Y72.73
X53.96Y23.5
X56.5Y23.5
X59.04Y23.5
T9
X2.25Y62.25
X2.25Y55.75
X6.75Y62.25
X6.75Y55.75
X42.75Y9.25
X42.75Y4.75
X49.25Y9.25
X49.25Y4.75
X77.75Y9.25
X77.75Y4.75
X84.25Y9.25
X84.25Y4.75
T11
X66.46Y74.6
X71.54Y74.6
T12
X57.38Y56.0
X59.92Y56.0
X62.46Y56.0
X65.0Y56.0
X67.54Y56.0
X70.08Y56.0
X72.62Y56.0
T13
X46.98Y71.0
X59.02Y71.0
T14
X3.0Y75.0
X3.0Y10.0
X92.0Y75.0
X92.0Y10.0
T15
X3.0Y69.0
X3.0Y3.0
X92.0Y69.0
X92.0Y3.0
T10
G00X78.301Y71.799
M15
G01X78.301Y69.8
M16
G05
G00X83.999Y73.799
M15
G01X82.001Y73.799
M16
G05
G00X83.999Y67.8
M15
G01X82.001Y67.8
M16
G05
T0
M30
