M48
; DRILL file {KiCad (5.1.12)-1} date 03/07/22 14:57:11
; FORMAT={-:-/ absolute / metric / decimal}
; #@! TF.CreationDate,2022-03-07T14:57:11+09:00
; #@! TF.GenerationSoftware,Kicad,Pcbnew,(5.1.12)-1
FMAT,2
METRIC
T1C0.500
T2C0.700
T3C0.762
T4C0.800
T5C0.900
T6C1.000
T7C1.100
T8C1.500
T9C1.800
T10C3.200
%
G90
G05
T1
X7.5Y66.0
X7.5Y56.0
X7.5Y37.0
X7.5Y26.0
X7.5Y14.5
X7.5Y6.0
X17.5Y66.0
X17.5Y56.0
X17.5Y47.5
X17.5Y37.5
X18.5Y24.5
X18.5Y15.0
X18.5Y6.0
X26.5Y24.5
X26.5Y15.0
X26.5Y6.0
X27.5Y66.0
X27.5Y56.0
X27.5Y37.5
X37.5Y66.0
X37.5Y56.0
X37.5Y37.5
X37.5Y24.5
X37.5Y15.0
X37.5Y6.0
X42.5Y47.5
X46.75Y40.5
X47.5Y66.0
X47.5Y56.0
X47.5Y37.5
X47.5Y24.5
X47.5Y15.0
X47.5Y6.0
X52.0Y6.0
X56.0Y34.5
X56.5Y26.0
X57.5Y46.0
X57.5Y16.0
X59.0Y34.5
X59.0Y26.0
X60.0Y16.0
X67.5Y36.0
X68.0Y18.0
X69.5Y45.0
X77.5Y36.0
X77.5Y26.0
X77.5Y16.0
X78.5Y45.0
X86.0Y16.0
X87.5Y46.0
X87.5Y26.0
X87.5Y6.0
T3
X57.73Y38.5
X58.73Y6.0
X60.27Y38.5
X61.27Y6.0
T4
X19.84Y45.0
X22.38Y45.0
X24.92Y45.0
X27.46Y45.0
X30.0Y45.0
X32.54Y45.0
X35.08Y45.0
X37.62Y45.0
X40.16Y45.0
T5
X2.73Y48.51
X2.73Y45.97
X2.73Y43.43
X2.73Y40.89
X2.73Y38.35
X2.73Y35.81
X2.73Y33.27
X2.73Y30.73
X2.73Y28.19
X2.73Y25.65
X2.73Y23.11
X2.73Y20.57
X2.73Y18.03
X2.73Y15.49
X5.27Y48.51
X5.27Y45.97
X5.27Y43.43
X5.27Y40.89
X5.27Y38.35
X5.27Y35.81
X5.27Y33.27
X5.27Y30.73
X5.27Y28.19
X5.27Y25.65
X5.27Y23.11
X5.27Y20.57
X5.27Y18.03
X5.27Y15.49
X89.73Y48.51
X89.73Y45.97
X89.73Y43.43
X89.73Y40.89
X89.73Y38.35
X89.73Y35.81
X89.73Y33.27
X89.73Y30.73
X89.73Y28.19
X89.73Y25.65
X89.73Y23.11
X89.73Y20.57
X89.73Y18.03
X89.73Y15.49
X92.27Y48.51
X92.27Y45.97
X92.27Y43.43
X92.27Y40.89
X92.27Y38.35
X92.27Y35.81
X92.27Y33.27
X92.27Y30.73
X92.27Y28.19
X92.27Y25.65
X92.27Y23.11
X92.27Y20.57
X92.27Y18.03
X92.27Y15.49
T6
X13.75Y35.25
X13.75Y30.75
X13.75Y26.25
X13.75Y21.75
X13.75Y17.25
X13.75Y12.75
X13.75Y8.25
X13.75Y3.75
X20.25Y35.25
X20.25Y30.75
X20.25Y26.25
X20.25Y21.75
X20.25Y17.25
X20.25Y12.75
X20.25Y8.25
X20.25Y3.75
X24.75Y35.25
X24.75Y30.75
X24.75Y26.25
X24.75Y21.75
X24.75Y17.25
X24.75Y12.75
X24.75Y8.25
X24.75Y3.75
X31.25Y35.25
X31.25Y30.75
X31.25Y26.25
X31.25Y21.75
X31.25Y17.25
X31.25Y12.75
X31.25Y8.25
X31.25Y3.75
X35.75Y35.25
X35.75Y30.75
X35.75Y26.25
X35.75Y21.75
X35.75Y17.25
X35.75Y12.75
X35.75Y8.25
X35.75Y3.75
X42.25Y35.25
X42.25Y30.75
X42.25Y26.25
X42.25Y21.75
X42.25Y17.25
X42.25Y12.75
X42.25Y8.25
X42.25Y3.75
X46.75Y35.25
X46.75Y30.75
X46.75Y26.25
X46.75Y21.75
X46.75Y17.25
X46.75Y12.75
X46.75Y8.25
X46.75Y3.75
X53.25Y35.25
X53.25Y30.75
X53.25Y26.25
X53.25Y21.75
X53.25Y17.25
X53.25Y12.75
X53.25Y8.25
X53.25Y3.75
X55.75Y49.25
X55.75Y44.75
X62.25Y49.25
X62.25Y44.75
T7
X67.46Y49.0
X70.0Y49.0
X72.54Y49.0
X79.46Y49.0
X82.0Y49.0
X84.54Y49.0
T8
X68.125Y40.5
X68.25Y5.5
X71.75Y40.5
X80.125Y40.5
X80.25Y5.5
X83.75Y40.5
T9
X8.9Y46.8
X51.1Y46.8
T10
X3.0Y69.0
X3.0Y3.0
X92.0Y3.0
T2
G00X11.15Y47.5
M15
G01X13.05Y47.5
M16
G05
G00X46.95Y47.5
M15
G01X48.85Y47.5
M16
G05
T0
M30
