%TF.GenerationSoftware,KiCad,Pcbnew,(5.1.12)-1*%
%TF.CreationDate,2022-03-07T14:57:08+09:00*%
%TF.ProjectId,RP2040CommandStationKeypad,52503230-3430-4436-9f6d-6d616e645374,rev?*%
%TF.SameCoordinates,PX4b571c0PY7cee6c0*%
%TF.FileFunction,Legend,Top*%
%TF.FilePolarity,Positive*%
%FSLAX46Y46*%
G04 Gerber Fmt 4.6, Leading zero omitted, Abs format (unit mm)*
G04 Created by KiCad (PCBNEW (5.1.12)-1) date 2022-03-07 14:57:08*
%MOMM*%
%LPD*%
G01*
G04 APERTURE LIST*
%ADD10C,0.300000*%
%ADD11C,0.200000*%
%ADD12C,0.180000*%
%ADD13C,0.120000*%
%ADD14C,0.150000*%
%ADD15C,0.140000*%
%ADD16C,1.800000*%
%ADD17O,3.200000X1.300000*%
%ADD18C,1.600000*%
%ADD19R,1.600000X1.600000*%
%ADD20C,1.524000*%
%ADD21R,0.800000X0.600000*%
%ADD22R,0.700000X0.900000*%
%ADD23R,0.900000X0.700000*%
%ADD24C,1.700000*%
%ADD25C,2.000000*%
%ADD26C,2.500000*%
%ADD27C,3.200000*%
%ADD28C,0.254000*%
%ADD29C,0.100000*%
G04 APERTURE END LIST*
D10*
X58607142Y2857143D02*
X58107142Y2857143D01*
X58107142Y2071429D02*
X58107142Y3571429D01*
X58821428Y3571429D01*
X59321428Y2500000D02*
X60035714Y2500000D01*
X59178571Y2071429D02*
X59678571Y3571429D01*
X60178571Y2071429D01*
X60678571Y2071429D02*
X60678571Y3571429D01*
X62107142Y2071429D02*
X61392857Y2071429D01*
X61392857Y3571429D01*
X4596428Y61590715D02*
X5310714Y62090715D01*
X4596428Y62447858D02*
X6096428Y62447858D01*
X6096428Y61876429D01*
X6025000Y61733572D01*
X5953571Y61662143D01*
X5810714Y61590715D01*
X5596428Y61590715D01*
X5453571Y61662143D01*
X5382142Y61733572D01*
X5310714Y61876429D01*
X5310714Y62447858D01*
X4667857Y60376429D02*
X4596428Y60519286D01*
X4596428Y60805000D01*
X4667857Y60947858D01*
X4810714Y61019286D01*
X5382142Y61019286D01*
X5525000Y60947858D01*
X5596428Y60805000D01*
X5596428Y60519286D01*
X5525000Y60376429D01*
X5382142Y60305000D01*
X5239285Y60305000D01*
X5096428Y61019286D01*
X5596428Y59805000D02*
X4596428Y59447858D01*
X5596428Y59090715D01*
X4739285Y58519286D02*
X4667857Y58447858D01*
X4596428Y58519286D01*
X4667857Y58590715D01*
X4739285Y58519286D01*
X4596428Y58519286D01*
X4596428Y57019286D02*
X4596428Y57876429D01*
X4596428Y57447858D02*
X6096428Y57447858D01*
X5882142Y57590715D01*
X5739285Y57733572D01*
X5667857Y57876429D01*
X3403571Y62519286D02*
X3475000Y62447858D01*
X3546428Y62305000D01*
X3546428Y61947858D01*
X3475000Y61805000D01*
X3403571Y61733572D01*
X3260714Y61662143D01*
X3117857Y61662143D01*
X2903571Y61733572D01*
X2046428Y62590715D01*
X2046428Y61662143D01*
X3546428Y60733572D02*
X3546428Y60590715D01*
X3475000Y60447858D01*
X3403571Y60376429D01*
X3260714Y60305000D01*
X2975000Y60233572D01*
X2617857Y60233572D01*
X2332142Y60305000D01*
X2189285Y60376429D01*
X2117857Y60447858D01*
X2046428Y60590715D01*
X2046428Y60733572D01*
X2117857Y60876429D01*
X2189285Y60947858D01*
X2332142Y61019286D01*
X2617857Y61090715D01*
X2975000Y61090715D01*
X3260714Y61019286D01*
X3403571Y60947858D01*
X3475000Y60876429D01*
X3546428Y60733572D01*
X3403571Y59662143D02*
X3475000Y59590715D01*
X3546428Y59447858D01*
X3546428Y59090715D01*
X3475000Y58947858D01*
X3403571Y58876429D01*
X3260714Y58805000D01*
X3117857Y58805000D01*
X2903571Y58876429D01*
X2046428Y59733572D01*
X2046428Y58805000D01*
X3403571Y58233572D02*
X3475000Y58162143D01*
X3546428Y58019286D01*
X3546428Y57662143D01*
X3475000Y57519286D01*
X3403571Y57447858D01*
X3260714Y57376429D01*
X3117857Y57376429D01*
X2903571Y57447858D01*
X2046428Y58305000D01*
X2046428Y57376429D01*
X2189285Y56733572D02*
X2117857Y56662143D01*
X2046428Y56733572D01*
X2117857Y56805000D01*
X2189285Y56733572D01*
X2046428Y56733572D01*
X3546428Y55733572D02*
X3546428Y55590715D01*
X3475000Y55447858D01*
X3403571Y55376429D01*
X3260714Y55305000D01*
X2975000Y55233572D01*
X2617857Y55233572D01*
X2332142Y55305000D01*
X2189285Y55376429D01*
X2117857Y55447858D01*
X2046428Y55590715D01*
X2046428Y55733572D01*
X2117857Y55876429D01*
X2189285Y55947858D01*
X2332142Y56019286D01*
X2617857Y56090715D01*
X2975000Y56090715D01*
X3260714Y56019286D01*
X3403571Y55947858D01*
X3475000Y55876429D01*
X3546428Y55733572D01*
X3546428Y54733572D02*
X3546428Y53805000D01*
X2975000Y54305000D01*
X2975000Y54090715D01*
X2903571Y53947858D01*
X2832142Y53876429D01*
X2689285Y53805000D01*
X2332142Y53805000D01*
X2189285Y53876429D01*
X2117857Y53947858D01*
X2046428Y54090715D01*
X2046428Y54519286D01*
X2117857Y54662143D01*
X2189285Y54733572D01*
X16347380Y39876191D02*
X17261666Y39876191D01*
X16804523Y38276191D02*
X16804523Y39876191D01*
X17795000Y38276191D02*
X17795000Y39876191D01*
X18480714Y38276191D02*
X18480714Y39114286D01*
X18404523Y39266667D01*
X18252142Y39342858D01*
X18023571Y39342858D01*
X17871190Y39266667D01*
X17795000Y39190477D01*
X19242619Y38276191D02*
X19242619Y39342858D01*
X19242619Y39038096D02*
X19318809Y39190477D01*
X19395000Y39266667D01*
X19547380Y39342858D01*
X19699761Y39342858D01*
X20461666Y38276191D02*
X20309285Y38352381D01*
X20233095Y38428572D01*
X20156904Y38580953D01*
X20156904Y39038096D01*
X20233095Y39190477D01*
X20309285Y39266667D01*
X20461666Y39342858D01*
X20690238Y39342858D01*
X20842619Y39266667D01*
X20918809Y39190477D01*
X20995000Y39038096D01*
X20995000Y38580953D01*
X20918809Y38428572D01*
X20842619Y38352381D01*
X20690238Y38276191D01*
X20461666Y38276191D01*
X21452142Y39342858D02*
X22061666Y39342858D01*
X21680714Y39876191D02*
X21680714Y38504762D01*
X21756904Y38352381D01*
X21909285Y38276191D01*
X22061666Y38276191D01*
X22366428Y39342858D02*
X22975952Y39342858D01*
X22595000Y39876191D02*
X22595000Y38504762D01*
X22671190Y38352381D01*
X22823571Y38276191D01*
X22975952Y38276191D01*
X23737857Y38276191D02*
X23585476Y38352381D01*
X23509285Y38504762D01*
X23509285Y39876191D01*
X24956904Y38352381D02*
X24804523Y38276191D01*
X24499761Y38276191D01*
X24347380Y38352381D01*
X24271190Y38504762D01*
X24271190Y39114286D01*
X24347380Y39266667D01*
X24499761Y39342858D01*
X24804523Y39342858D01*
X24956904Y39266667D01*
X25033095Y39114286D01*
X25033095Y38961905D01*
X24271190Y38809524D01*
X26937857Y39114286D02*
X27471190Y39114286D01*
X27699761Y38276191D02*
X26937857Y38276191D01*
X26937857Y39876191D01*
X27699761Y39876191D01*
X28233095Y38276191D02*
X29071190Y39342858D01*
X28233095Y39342858D02*
X29071190Y38276191D01*
X29452142Y39342858D02*
X30061666Y39342858D01*
X29680714Y39876191D02*
X29680714Y38504762D01*
X29756904Y38352381D01*
X29909285Y38276191D01*
X30061666Y38276191D01*
X31204523Y38352381D02*
X31052142Y38276191D01*
X30747380Y38276191D01*
X30595000Y38352381D01*
X30518809Y38504762D01*
X30518809Y39114286D01*
X30595000Y39266667D01*
X30747380Y39342858D01*
X31052142Y39342858D01*
X31204523Y39266667D01*
X31280714Y39114286D01*
X31280714Y38961905D01*
X30518809Y38809524D01*
X31966428Y39342858D02*
X31966428Y38276191D01*
X31966428Y39190477D02*
X32042619Y39266667D01*
X32195000Y39342858D01*
X32423571Y39342858D01*
X32575952Y39266667D01*
X32652142Y39114286D01*
X32652142Y38276191D01*
X33337857Y38352381D02*
X33490238Y38276191D01*
X33795000Y38276191D01*
X33947380Y38352381D01*
X34023571Y38504762D01*
X34023571Y38580953D01*
X33947380Y38733334D01*
X33795000Y38809524D01*
X33566428Y38809524D01*
X33414047Y38885715D01*
X33337857Y39038096D01*
X33337857Y39114286D01*
X33414047Y39266667D01*
X33566428Y39342858D01*
X33795000Y39342858D01*
X33947380Y39266667D01*
X34709285Y38276191D02*
X34709285Y39342858D01*
X34709285Y39876191D02*
X34633095Y39800000D01*
X34709285Y39723810D01*
X34785476Y39800000D01*
X34709285Y39876191D01*
X34709285Y39723810D01*
X35699761Y38276191D02*
X35547380Y38352381D01*
X35471190Y38428572D01*
X35395000Y38580953D01*
X35395000Y39038096D01*
X35471190Y39190477D01*
X35547380Y39266667D01*
X35699761Y39342858D01*
X35928333Y39342858D01*
X36080714Y39266667D01*
X36156904Y39190477D01*
X36233095Y39038096D01*
X36233095Y38580953D01*
X36156904Y38428572D01*
X36080714Y38352381D01*
X35928333Y38276191D01*
X35699761Y38276191D01*
X36918809Y39342858D02*
X36918809Y38276191D01*
X36918809Y39190477D02*
X36995000Y39266667D01*
X37147380Y39342858D01*
X37375952Y39342858D01*
X37528333Y39266667D01*
X37604523Y39114286D01*
X37604523Y38276191D01*
X40118809Y39114286D02*
X40347380Y39038096D01*
X40423571Y38961905D01*
X40499761Y38809524D01*
X40499761Y38580953D01*
X40423571Y38428572D01*
X40347380Y38352381D01*
X40195000Y38276191D01*
X39585476Y38276191D01*
X39585476Y39876191D01*
X40118809Y39876191D01*
X40271190Y39800000D01*
X40347380Y39723810D01*
X40423571Y39571429D01*
X40423571Y39419048D01*
X40347380Y39266667D01*
X40271190Y39190477D01*
X40118809Y39114286D01*
X39585476Y39114286D01*
X41414047Y38276191D02*
X41261666Y38352381D01*
X41185476Y38428572D01*
X41109285Y38580953D01*
X41109285Y39038096D01*
X41185476Y39190477D01*
X41261666Y39266667D01*
X41414047Y39342858D01*
X41642619Y39342858D01*
X41795000Y39266667D01*
X41871190Y39190477D01*
X41947380Y39038096D01*
X41947380Y38580953D01*
X41871190Y38428572D01*
X41795000Y38352381D01*
X41642619Y38276191D01*
X41414047Y38276191D01*
X43318809Y38276191D02*
X43318809Y39114286D01*
X43242619Y39266667D01*
X43090238Y39342858D01*
X42785476Y39342858D01*
X42633095Y39266667D01*
X43318809Y38352381D02*
X43166428Y38276191D01*
X42785476Y38276191D01*
X42633095Y38352381D01*
X42556904Y38504762D01*
X42556904Y38657143D01*
X42633095Y38809524D01*
X42785476Y38885715D01*
X43166428Y38885715D01*
X43318809Y38961905D01*
X44080714Y38276191D02*
X44080714Y39342858D01*
X44080714Y39038096D02*
X44156904Y39190477D01*
X44233095Y39266667D01*
X44385476Y39342858D01*
X44537857Y39342858D01*
X45756904Y38276191D02*
X45756904Y39876191D01*
X45756904Y38352381D02*
X45604523Y38276191D01*
X45299761Y38276191D01*
X45147380Y38352381D01*
X45071190Y38428572D01*
X44995000Y38580953D01*
X44995000Y39038096D01*
X45071190Y39190477D01*
X45147380Y39266667D01*
X45299761Y39342858D01*
X45604523Y39342858D01*
X45756904Y39266667D01*
X55535714Y41571429D02*
X55535714Y43071429D01*
X56107142Y43071429D01*
X56250000Y43000000D01*
X56321428Y42928572D01*
X56392857Y42785715D01*
X56392857Y42571429D01*
X56321428Y42428572D01*
X56250000Y42357143D01*
X56107142Y42285715D01*
X55535714Y42285715D01*
X57321428Y43071429D02*
X57607142Y43071429D01*
X57750000Y43000000D01*
X57892857Y42857143D01*
X57964285Y42571429D01*
X57964285Y42071429D01*
X57892857Y41785715D01*
X57750000Y41642858D01*
X57607142Y41571429D01*
X57321428Y41571429D01*
X57178571Y41642858D01*
X57035714Y41785715D01*
X56964285Y42071429D01*
X56964285Y42571429D01*
X57035714Y42857143D01*
X57178571Y43000000D01*
X57321428Y43071429D01*
X58464285Y43071429D02*
X58821428Y41571429D01*
X59107142Y42642858D01*
X59392857Y41571429D01*
X59750000Y43071429D01*
X60321428Y42357143D02*
X60821428Y42357143D01*
X61035714Y41571429D02*
X60321428Y41571429D01*
X60321428Y43071429D01*
X61035714Y43071429D01*
X62535714Y41571429D02*
X62035714Y42285715D01*
X61678571Y41571429D02*
X61678571Y43071429D01*
X62250000Y43071429D01*
X62392857Y43000000D01*
X62464285Y42928572D01*
X62535714Y42785715D01*
X62535714Y42571429D01*
X62464285Y42428572D01*
X62392857Y42357143D01*
X62250000Y42285715D01*
X61678571Y42285715D01*
X38500000Y29321429D02*
X39428571Y29321429D01*
X38928571Y28750000D01*
X39142857Y28750000D01*
X39285714Y28678572D01*
X39357142Y28607143D01*
X39428571Y28464286D01*
X39428571Y28107143D01*
X39357142Y27964286D01*
X39285714Y27892858D01*
X39142857Y27821429D01*
X38714285Y27821429D01*
X38571428Y27892858D01*
X38500000Y27964286D01*
X27571428Y29178572D02*
X27642857Y29250000D01*
X27785714Y29321429D01*
X28142857Y29321429D01*
X28285714Y29250000D01*
X28357142Y29178572D01*
X28428571Y29035715D01*
X28428571Y28892858D01*
X28357142Y28678572D01*
X27500000Y27821429D01*
X28428571Y27821429D01*
X17428571Y27821429D02*
X16571428Y27821429D01*
X17000000Y27821429D02*
X17000000Y29321429D01*
X16857142Y29107143D01*
X16714285Y28964286D01*
X16571428Y28892858D01*
X17285714Y19821429D02*
X17285714Y18821429D01*
X16928571Y20392858D02*
X16571428Y19321429D01*
X17500000Y19321429D01*
X28357142Y20321429D02*
X27642857Y20321429D01*
X27571428Y19607143D01*
X27642857Y19678572D01*
X27785714Y19750000D01*
X28142857Y19750000D01*
X28285714Y19678572D01*
X28357142Y19607143D01*
X28428571Y19464286D01*
X28428571Y19107143D01*
X28357142Y18964286D01*
X28285714Y18892858D01*
X28142857Y18821429D01*
X27785714Y18821429D01*
X27642857Y18892858D01*
X27571428Y18964286D01*
X39285714Y20321429D02*
X39000000Y20321429D01*
X38857142Y20250000D01*
X38785714Y20178572D01*
X38642857Y19964286D01*
X38571428Y19678572D01*
X38571428Y19107143D01*
X38642857Y18964286D01*
X38714285Y18892858D01*
X38857142Y18821429D01*
X39142857Y18821429D01*
X39285714Y18892858D01*
X39357142Y18964286D01*
X39428571Y19107143D01*
X39428571Y19464286D01*
X39357142Y19607143D01*
X39285714Y19678572D01*
X39142857Y19750000D01*
X38857142Y19750000D01*
X38714285Y19678572D01*
X38642857Y19607143D01*
X38571428Y19464286D01*
X38714285Y9821429D02*
X39000000Y9821429D01*
X39142857Y9892858D01*
X39214285Y9964286D01*
X39357142Y10178572D01*
X39428571Y10464286D01*
X39428571Y11035715D01*
X39357142Y11178572D01*
X39285714Y11250000D01*
X39142857Y11321429D01*
X38857142Y11321429D01*
X38714285Y11250000D01*
X38642857Y11178572D01*
X38571428Y11035715D01*
X38571428Y10678572D01*
X38642857Y10535715D01*
X38714285Y10464286D01*
X38857142Y10392858D01*
X39142857Y10392858D01*
X39285714Y10464286D01*
X39357142Y10535715D01*
X39428571Y10678572D01*
X27857142Y10678572D02*
X27714285Y10750000D01*
X27642857Y10821429D01*
X27571428Y10964286D01*
X27571428Y11035715D01*
X27642857Y11178572D01*
X27714285Y11250000D01*
X27857142Y11321429D01*
X28142857Y11321429D01*
X28285714Y11250000D01*
X28357142Y11178572D01*
X28428571Y11035715D01*
X28428571Y10964286D01*
X28357142Y10821429D01*
X28285714Y10750000D01*
X28142857Y10678572D01*
X27857142Y10678572D01*
X27714285Y10607143D01*
X27642857Y10535715D01*
X27571428Y10392858D01*
X27571428Y10107143D01*
X27642857Y9964286D01*
X27714285Y9892858D01*
X27857142Y9821429D01*
X28142857Y9821429D01*
X28285714Y9892858D01*
X28357142Y9964286D01*
X28428571Y10107143D01*
X28428571Y10392858D01*
X28357142Y10535715D01*
X28285714Y10607143D01*
X28142857Y10678572D01*
X16500000Y11321429D02*
X17500000Y11321429D01*
X16857142Y9821429D01*
X17000000Y2321429D02*
X17000000Y1964286D01*
X16642857Y2107143D02*
X17000000Y1964286D01*
X17357142Y2107143D01*
X16785714Y1678572D02*
X17000000Y1964286D01*
X17214285Y1678572D01*
X27928571Y2321429D02*
X28071428Y2321429D01*
X28214285Y2250000D01*
X28285714Y2178572D01*
X28357142Y2035715D01*
X28428571Y1750000D01*
X28428571Y1392858D01*
X28357142Y1107143D01*
X28285714Y964286D01*
X28214285Y892858D01*
X28071428Y821429D01*
X27928571Y821429D01*
X27785714Y892858D01*
X27714285Y964286D01*
X27642857Y1107143D01*
X27571428Y1392858D01*
X27571428Y1750000D01*
X27642857Y2035715D01*
X27714285Y2178572D01*
X27785714Y2250000D01*
X27928571Y2321429D01*
X38535714Y1821429D02*
X39607142Y1821429D01*
X38964285Y2464286D02*
X38535714Y535715D01*
X39464285Y1178572D02*
X38392857Y1178572D01*
X39035714Y535715D02*
X39464285Y2464286D01*
X47321428Y821429D02*
X47321428Y2321429D01*
X47892857Y2321429D01*
X48035714Y2250000D01*
X48107142Y2178572D01*
X48178571Y2035715D01*
X48178571Y1821429D01*
X48107142Y1678572D01*
X48035714Y1607143D01*
X47892857Y1535715D01*
X47321428Y1535715D01*
X49678571Y821429D02*
X49178571Y1535715D01*
X48821428Y821429D02*
X48821428Y2321429D01*
X49392857Y2321429D01*
X49535714Y2250000D01*
X49607142Y2178572D01*
X49678571Y2035715D01*
X49678571Y1821429D01*
X49607142Y1678572D01*
X49535714Y1607143D01*
X49392857Y1535715D01*
X48821428Y1535715D01*
X50607142Y2321429D02*
X50892857Y2321429D01*
X51035714Y2250000D01*
X51178571Y2107143D01*
X51250000Y1821429D01*
X51250000Y1321429D01*
X51178571Y1035715D01*
X51035714Y892858D01*
X50892857Y821429D01*
X50607142Y821429D01*
X50464285Y892858D01*
X50321428Y1035715D01*
X50250000Y1321429D01*
X50250000Y1821429D01*
X50321428Y2107143D01*
X50464285Y2250000D01*
X50607142Y2321429D01*
X52678571Y2250000D02*
X52535714Y2321429D01*
X52321428Y2321429D01*
X52107142Y2250000D01*
X51964285Y2107143D01*
X51892857Y1964286D01*
X51821428Y1678572D01*
X51821428Y1464286D01*
X51892857Y1178572D01*
X51964285Y1035715D01*
X52107142Y892858D01*
X52321428Y821429D01*
X52464285Y821429D01*
X52678571Y892858D01*
X52750000Y964286D01*
X52750000Y1464286D01*
X52464285Y1464286D01*
X46678571Y9892858D02*
X46892857Y9821429D01*
X47250000Y9821429D01*
X47392857Y9892858D01*
X47464285Y9964286D01*
X47535714Y10107143D01*
X47535714Y10250000D01*
X47464285Y10392858D01*
X47392857Y10464286D01*
X47250000Y10535715D01*
X46964285Y10607143D01*
X46821428Y10678572D01*
X46750000Y10750000D01*
X46678571Y10892858D01*
X46678571Y11035715D01*
X46750000Y11178572D01*
X46821428Y11250000D01*
X46964285Y11321429D01*
X47321428Y11321429D01*
X47535714Y11250000D01*
X48035714Y10821429D02*
X48321428Y9821429D01*
X48607142Y10535715D01*
X48892857Y9821429D01*
X49178571Y10821429D01*
X49750000Y9821429D02*
X49750000Y10821429D01*
X49750000Y11321429D02*
X49678571Y11250000D01*
X49750000Y11178572D01*
X49821428Y11250000D01*
X49750000Y11321429D01*
X49750000Y11178572D01*
X50250000Y10821429D02*
X50821428Y10821429D01*
X50464285Y11321429D02*
X50464285Y10035715D01*
X50535714Y9892858D01*
X50678571Y9821429D01*
X50821428Y9821429D01*
X51964285Y9892858D02*
X51821428Y9821429D01*
X51535714Y9821429D01*
X51392857Y9892858D01*
X51321428Y9964286D01*
X51250000Y10107143D01*
X51250000Y10535715D01*
X51321428Y10678572D01*
X51392857Y10750000D01*
X51535714Y10821429D01*
X51821428Y10821429D01*
X51964285Y10750000D01*
X52607142Y9821429D02*
X52607142Y11321429D01*
X53250000Y9821429D02*
X53250000Y10607143D01*
X53178571Y10750000D01*
X53035714Y10821429D01*
X52821428Y10821429D01*
X52678571Y10750000D01*
X52607142Y10678572D01*
X50107142Y19607143D02*
X50321428Y19535715D01*
X50392857Y19464286D01*
X50464285Y19321429D01*
X50464285Y19107143D01*
X50392857Y18964286D01*
X50321428Y18892858D01*
X50178571Y18821429D01*
X49607142Y18821429D01*
X49607142Y20321429D01*
X50107142Y20321429D01*
X50250000Y20250000D01*
X50321428Y20178572D01*
X50392857Y20035715D01*
X50392857Y19892858D01*
X50321428Y19750000D01*
X50250000Y19678572D01*
X50107142Y19607143D01*
X49607142Y19607143D01*
X49642857Y28250000D02*
X50357142Y28250000D01*
X49500000Y27821429D02*
X50000000Y29321429D01*
X50500000Y27821429D01*
D11*
%TO.C,U1*%
X8100000Y43700000D02*
X51900000Y43700000D01*
X8100000Y69370000D02*
X51900000Y69370000D01*
X8100000Y43700000D02*
X8100000Y69370000D01*
X51900000Y43700000D02*
X51900000Y69370000D01*
D12*
%TO.C,C1*%
X22900000Y42250000D02*
X22900000Y41250000D01*
X22100000Y41250000D02*
X22100000Y42250000D01*
%TO.C,C2*%
X26750000Y41850000D02*
X25750000Y41850000D01*
X25750000Y42650000D02*
X26750000Y42650000D01*
%TO.C,C3*%
X31750000Y41850000D02*
X30750000Y41850000D01*
X30750000Y42650000D02*
X31750000Y42650000D01*
D11*
%TO.C,D1*%
X60800000Y38500000D02*
G75*
G03*
X60800000Y38500000I-1800000J0D01*
G01*
X58600000Y37700000D02*
X58600000Y39300000D01*
X58600000Y39300000D02*
X59400000Y38500000D01*
X59400000Y38500000D02*
X58600000Y37700000D01*
%TO.C,D2*%
X60400000Y6000000D02*
X59600000Y5200000D01*
X59600000Y6800000D02*
X60400000Y6000000D01*
X59600000Y5200000D02*
X59600000Y6800000D01*
X61800000Y6000000D02*
G75*
G03*
X61800000Y6000000I-1800000J0D01*
G01*
%TO.C,Q1*%
X10000000Y36450000D02*
X9400000Y35850000D01*
X9400000Y36450000D02*
X9400000Y34050000D01*
X10600000Y34050000D02*
X10600000Y36450000D01*
X10600000Y36450000D02*
X9400000Y36450000D01*
X10600000Y34050000D02*
X9400000Y34050000D01*
%TO.C,Q2*%
X10600000Y25050000D02*
X9400000Y25050000D01*
X10600000Y27450000D02*
X9400000Y27450000D01*
X10600000Y25050000D02*
X10600000Y27450000D01*
X9400000Y27450000D02*
X9400000Y25050000D01*
X10000000Y27450000D02*
X9400000Y26850000D01*
%TO.C,Q3*%
X10000000Y18450000D02*
X9400000Y17850000D01*
X9400000Y18450000D02*
X9400000Y16050000D01*
X10600000Y16050000D02*
X10600000Y18450000D01*
X10600000Y18450000D02*
X9400000Y18450000D01*
X10600000Y16050000D02*
X9400000Y16050000D01*
%TO.C,Q4*%
X10600000Y7050000D02*
X9400000Y7050000D01*
X10600000Y9450000D02*
X9400000Y9450000D01*
X10600000Y7050000D02*
X10600000Y9450000D01*
X9400000Y9450000D02*
X9400000Y7050000D01*
X10000000Y9450000D02*
X9400000Y8850000D01*
D12*
%TO.C,R1*%
X54280000Y39420000D02*
X53450000Y39420000D01*
X54280000Y40580000D02*
X54280000Y39420000D01*
X53450000Y40580000D02*
X54280000Y40580000D01*
X51720000Y39420000D02*
X52550000Y39420000D01*
X51720000Y40580000D02*
X51720000Y39420000D01*
X52550000Y40580000D02*
X51720000Y40580000D01*
%TO.C,R2*%
X52550000Y38830000D02*
X51720000Y38830000D01*
X51720000Y38830000D02*
X51720000Y37670000D01*
X51720000Y37670000D02*
X52550000Y37670000D01*
X53450000Y38830000D02*
X54280000Y38830000D01*
X54280000Y38830000D02*
X54280000Y37670000D01*
X54280000Y37670000D02*
X53450000Y37670000D01*
%TO.C,R3*%
X11670000Y41050000D02*
X11670000Y40220000D01*
X11670000Y40220000D02*
X12830000Y40220000D01*
X12830000Y40220000D02*
X12830000Y41050000D01*
X11670000Y41950000D02*
X11670000Y42780000D01*
X11670000Y42780000D02*
X12830000Y42780000D01*
X12830000Y42780000D02*
X12830000Y41950000D01*
D13*
%TO.C,SW1*%
X13900000Y34350000D02*
X13900000Y31650000D01*
X13900000Y29900000D02*
X20100000Y29900000D01*
X20100000Y31650000D02*
X20100000Y34350000D01*
X20100000Y36100000D02*
X13900000Y36100000D01*
X18750000Y33000000D02*
G75*
G03*
X18750000Y33000000I-1750000J0D01*
G01*
%TO.C,SW2*%
X13900000Y25350000D02*
X13900000Y22650000D01*
X13900000Y20900000D02*
X20100000Y20900000D01*
X20100000Y22650000D02*
X20100000Y25350000D01*
X20100000Y27100000D02*
X13900000Y27100000D01*
X18750000Y24000000D02*
G75*
G03*
X18750000Y24000000I-1750000J0D01*
G01*
%TO.C,SW3*%
X18750000Y15000000D02*
G75*
G03*
X18750000Y15000000I-1750000J0D01*
G01*
X20100000Y18100000D02*
X13900000Y18100000D01*
X20100000Y13650000D02*
X20100000Y16350000D01*
X13900000Y11900000D02*
X20100000Y11900000D01*
X13900000Y16350000D02*
X13900000Y13650000D01*
%TO.C,SW4*%
X18750000Y6000000D02*
G75*
G03*
X18750000Y6000000I-1750000J0D01*
G01*
X20100000Y9100000D02*
X13900000Y9100000D01*
X20100000Y4650000D02*
X20100000Y7350000D01*
X13900000Y2900000D02*
X20100000Y2900000D01*
X13900000Y7350000D02*
X13900000Y4650000D01*
%TO.C,SW5*%
X29750000Y33000000D02*
G75*
G03*
X29750000Y33000000I-1750000J0D01*
G01*
X31100000Y36100000D02*
X24900000Y36100000D01*
X31100000Y31650000D02*
X31100000Y34350000D01*
X24900000Y29900000D02*
X31100000Y29900000D01*
X24900000Y34350000D02*
X24900000Y31650000D01*
%TO.C,SW6*%
X24900000Y25350000D02*
X24900000Y22650000D01*
X24900000Y20900000D02*
X31100000Y20900000D01*
X31100000Y22650000D02*
X31100000Y25350000D01*
X31100000Y27100000D02*
X24900000Y27100000D01*
X29750000Y24000000D02*
G75*
G03*
X29750000Y24000000I-1750000J0D01*
G01*
%TO.C,SW7*%
X24900000Y16350000D02*
X24900000Y13650000D01*
X24900000Y11900000D02*
X31100000Y11900000D01*
X31100000Y13650000D02*
X31100000Y16350000D01*
X31100000Y18100000D02*
X24900000Y18100000D01*
X29750000Y15000000D02*
G75*
G03*
X29750000Y15000000I-1750000J0D01*
G01*
%TO.C,SW8*%
X29750000Y6000000D02*
G75*
G03*
X29750000Y6000000I-1750000J0D01*
G01*
X31100000Y9100000D02*
X24900000Y9100000D01*
X31100000Y4650000D02*
X31100000Y7350000D01*
X24900000Y2900000D02*
X31100000Y2900000D01*
X24900000Y7350000D02*
X24900000Y4650000D01*
%TO.C,SW9*%
X35900000Y34350000D02*
X35900000Y31650000D01*
X35900000Y29900000D02*
X42100000Y29900000D01*
X42100000Y31650000D02*
X42100000Y34350000D01*
X42100000Y36100000D02*
X35900000Y36100000D01*
X40750000Y33000000D02*
G75*
G03*
X40750000Y33000000I-1750000J0D01*
G01*
%TO.C,SW10*%
X40750000Y24000000D02*
G75*
G03*
X40750000Y24000000I-1750000J0D01*
G01*
X42100000Y27100000D02*
X35900000Y27100000D01*
X42100000Y22650000D02*
X42100000Y25350000D01*
X35900000Y20900000D02*
X42100000Y20900000D01*
X35900000Y25350000D02*
X35900000Y22650000D01*
%TO.C,SW11*%
X40750000Y15000000D02*
G75*
G03*
X40750000Y15000000I-1750000J0D01*
G01*
X42100000Y18100000D02*
X35900000Y18100000D01*
X42100000Y13650000D02*
X42100000Y16350000D01*
X35900000Y11900000D02*
X42100000Y11900000D01*
X35900000Y16350000D02*
X35900000Y13650000D01*
%TO.C,SW12*%
X35900000Y7350000D02*
X35900000Y4650000D01*
X35900000Y2900000D02*
X42100000Y2900000D01*
X42100000Y4650000D02*
X42100000Y7350000D01*
X42100000Y9100000D02*
X35900000Y9100000D01*
X40750000Y6000000D02*
G75*
G03*
X40750000Y6000000I-1750000J0D01*
G01*
%TO.C,SW13*%
X51750000Y33000000D02*
G75*
G03*
X51750000Y33000000I-1750000J0D01*
G01*
X53100000Y36100000D02*
X46900000Y36100000D01*
X53100000Y31650000D02*
X53100000Y34350000D01*
X46900000Y29900000D02*
X53100000Y29900000D01*
X46900000Y34350000D02*
X46900000Y31650000D01*
%TO.C,SW14*%
X46900000Y25350000D02*
X46900000Y22650000D01*
X46900000Y20900000D02*
X53100000Y20900000D01*
X53100000Y22650000D02*
X53100000Y25350000D01*
X53100000Y27100000D02*
X46900000Y27100000D01*
X51750000Y24000000D02*
G75*
G03*
X51750000Y24000000I-1750000J0D01*
G01*
%TO.C,SW15*%
X46900000Y16350000D02*
X46900000Y13650000D01*
X46900000Y11900000D02*
X53100000Y11900000D01*
X53100000Y13650000D02*
X53100000Y16350000D01*
X53100000Y18100000D02*
X46900000Y18100000D01*
X51750000Y15000000D02*
G75*
G03*
X51750000Y15000000I-1750000J0D01*
G01*
%TO.C,SW16*%
X51750000Y6000000D02*
G75*
G03*
X51750000Y6000000I-1750000J0D01*
G01*
X53100000Y9100000D02*
X46900000Y9100000D01*
X53100000Y4650000D02*
X53100000Y7350000D01*
X46900000Y2900000D02*
X53100000Y2900000D01*
X46900000Y7350000D02*
X46900000Y4650000D01*
%TO.C,SW17*%
X60750000Y47000000D02*
G75*
G03*
X60750000Y47000000I-1750000J0D01*
G01*
X62100000Y50100000D02*
X55900000Y50100000D01*
X62100000Y45650000D02*
X62100000Y48350000D01*
X55900000Y43900000D02*
X62100000Y43900000D01*
X55900000Y48350000D02*
X55900000Y45650000D01*
D14*
%TO.C,SW18*%
X74050000Y51540000D02*
X74050000Y46460000D01*
X65950000Y51540000D02*
X65950000Y46460000D01*
X74050000Y51550000D02*
X65950000Y51550000D01*
X65950000Y46450000D02*
X74050000Y46450000D01*
%TO.C,SW19*%
X77950000Y46450000D02*
X86050000Y46450000D01*
X86050000Y51550000D02*
X77950000Y51550000D01*
X77950000Y51540000D02*
X77950000Y46460000D01*
X86050000Y51540000D02*
X86050000Y46460000D01*
%TO.C,VR1*%
X74000000Y500000D02*
X66000000Y500000D01*
X74000000Y45500000D02*
X74000000Y500000D01*
X66000000Y45500000D02*
X74000000Y45500000D01*
X66000000Y500000D02*
X66000000Y45500000D01*
X69000000Y4500000D02*
X69000000Y41500000D01*
X71000000Y4500000D02*
X69000000Y4500000D01*
X71000000Y41500000D02*
X71000000Y4500000D01*
X69000000Y41500000D02*
X71000000Y41500000D01*
X71000000Y2500000D02*
G75*
G03*
X71000000Y2500000I-1000000J0D01*
G01*
X71000000Y43500000D02*
G75*
G03*
X71000000Y43500000I-1000000J0D01*
G01*
%TO.C,VR2*%
X83000000Y43500000D02*
G75*
G03*
X83000000Y43500000I-1000000J0D01*
G01*
X83000000Y2500000D02*
G75*
G03*
X83000000Y2500000I-1000000J0D01*
G01*
X81000000Y41500000D02*
X83000000Y41500000D01*
X83000000Y41500000D02*
X83000000Y4500000D01*
X83000000Y4500000D02*
X81000000Y4500000D01*
X81000000Y4500000D02*
X81000000Y41500000D01*
X78000000Y500000D02*
X78000000Y45500000D01*
X78000000Y45500000D02*
X86000000Y45500000D01*
X86000000Y45500000D02*
X86000000Y500000D01*
X86000000Y500000D02*
X78000000Y500000D01*
%TO.C,U1*%
X8488095Y43047620D02*
X8488095Y42238096D01*
X8535714Y42142858D01*
X8583333Y42095239D01*
X8678571Y42047620D01*
X8869047Y42047620D01*
X8964285Y42095239D01*
X9011904Y42142858D01*
X9059523Y42238096D01*
X9059523Y43047620D01*
X10059523Y42047620D02*
X9488095Y42047620D01*
X9773809Y42047620D02*
X9773809Y43047620D01*
X9678571Y42904762D01*
X9583333Y42809524D01*
X9488095Y42761905D01*
%TO.C,J1*%
X3666666Y51547620D02*
X3666666Y50833334D01*
X3619047Y50690477D01*
X3523809Y50595239D01*
X3380952Y50547620D01*
X3285714Y50547620D01*
X4666666Y50547620D02*
X4095238Y50547620D01*
X4380952Y50547620D02*
X4380952Y51547620D01*
X4285714Y51404762D01*
X4190476Y51309524D01*
X4095238Y51261905D01*
%TO.C,J2*%
X90666666Y51547620D02*
X90666666Y50833334D01*
X90619047Y50690477D01*
X90523809Y50595239D01*
X90380952Y50547620D01*
X90285714Y50547620D01*
X91095238Y51452381D02*
X91142857Y51500000D01*
X91238095Y51547620D01*
X91476190Y51547620D01*
X91571428Y51500000D01*
X91619047Y51452381D01*
X91666666Y51357143D01*
X91666666Y51261905D01*
X91619047Y51119048D01*
X91047619Y50547620D01*
X91666666Y50547620D01*
%TO.C,C1*%
D15*
X21785714Y41616667D02*
X21823809Y41578572D01*
X21861904Y41464286D01*
X21861904Y41388096D01*
X21823809Y41273810D01*
X21747619Y41197620D01*
X21671428Y41159524D01*
X21519047Y41121429D01*
X21404761Y41121429D01*
X21252380Y41159524D01*
X21176190Y41197620D01*
X21100000Y41273810D01*
X21061904Y41388096D01*
X21061904Y41464286D01*
X21100000Y41578572D01*
X21138095Y41616667D01*
X21861904Y42378572D02*
X21861904Y41921429D01*
X21861904Y42150000D02*
X21061904Y42150000D01*
X21176190Y42073810D01*
X21252380Y41997620D01*
X21290476Y41921429D01*
%TO.C,C2*%
X26116666Y40714286D02*
X26078571Y40676191D01*
X25964285Y40638096D01*
X25888095Y40638096D01*
X25773809Y40676191D01*
X25697619Y40752381D01*
X25659523Y40828572D01*
X25621428Y40980953D01*
X25621428Y41095239D01*
X25659523Y41247620D01*
X25697619Y41323810D01*
X25773809Y41400000D01*
X25888095Y41438096D01*
X25964285Y41438096D01*
X26078571Y41400000D01*
X26116666Y41361905D01*
X26421428Y41361905D02*
X26459523Y41400000D01*
X26535714Y41438096D01*
X26726190Y41438096D01*
X26802380Y41400000D01*
X26840476Y41361905D01*
X26878571Y41285715D01*
X26878571Y41209524D01*
X26840476Y41095239D01*
X26383333Y40638096D01*
X26878571Y40638096D01*
%TO.C,C3*%
X31116666Y40864286D02*
X31078571Y40826191D01*
X30964285Y40788096D01*
X30888095Y40788096D01*
X30773809Y40826191D01*
X30697619Y40902381D01*
X30659523Y40978572D01*
X30621428Y41130953D01*
X30621428Y41245239D01*
X30659523Y41397620D01*
X30697619Y41473810D01*
X30773809Y41550000D01*
X30888095Y41588096D01*
X30964285Y41588096D01*
X31078571Y41550000D01*
X31116666Y41511905D01*
X31383333Y41588096D02*
X31878571Y41588096D01*
X31611904Y41283334D01*
X31726190Y41283334D01*
X31802380Y41245239D01*
X31840476Y41207143D01*
X31878571Y41130953D01*
X31878571Y40940477D01*
X31840476Y40864286D01*
X31802380Y40826191D01*
X31726190Y40788096D01*
X31497619Y40788096D01*
X31421428Y40826191D01*
X31383333Y40864286D01*
%TO.C,D1*%
D14*
X58261904Y35047620D02*
X58261904Y36047620D01*
X58500000Y36047620D01*
X58642857Y36000000D01*
X58738095Y35904762D01*
X58785714Y35809524D01*
X58833333Y35619048D01*
X58833333Y35476191D01*
X58785714Y35285715D01*
X58738095Y35190477D01*
X58642857Y35095239D01*
X58500000Y35047620D01*
X58261904Y35047620D01*
X59785714Y35047620D02*
X59214285Y35047620D01*
X59500000Y35047620D02*
X59500000Y36047620D01*
X59404761Y35904762D01*
X59309523Y35809524D01*
X59214285Y35761905D01*
%TO.C,D2*%
X59261904Y8347620D02*
X59261904Y9347620D01*
X59500000Y9347620D01*
X59642857Y9300000D01*
X59738095Y9204762D01*
X59785714Y9109524D01*
X59833333Y8919048D01*
X59833333Y8776191D01*
X59785714Y8585715D01*
X59738095Y8490477D01*
X59642857Y8395239D01*
X59500000Y8347620D01*
X59261904Y8347620D01*
X60214285Y9252381D02*
X60261904Y9300000D01*
X60357142Y9347620D01*
X60595238Y9347620D01*
X60690476Y9300000D01*
X60738095Y9252381D01*
X60785714Y9157143D01*
X60785714Y9061905D01*
X60738095Y8919048D01*
X60166666Y8347620D01*
X60785714Y8347620D01*
%TO.C,Q1*%
X9923809Y32811905D02*
X9847619Y32850000D01*
X9771428Y32926191D01*
X9657142Y33040477D01*
X9580952Y33078572D01*
X9504761Y33078572D01*
X9542857Y32888096D02*
X9466666Y32926191D01*
X9390476Y33002381D01*
X9352380Y33154762D01*
X9352380Y33421429D01*
X9390476Y33573810D01*
X9466666Y33650000D01*
X9542857Y33688096D01*
X9695238Y33688096D01*
X9771428Y33650000D01*
X9847619Y33573810D01*
X9885714Y33421429D01*
X9885714Y33154762D01*
X9847619Y33002381D01*
X9771428Y32926191D01*
X9695238Y32888096D01*
X9542857Y32888096D01*
X10647619Y32888096D02*
X10190476Y32888096D01*
X10419047Y32888096D02*
X10419047Y33688096D01*
X10342857Y33573810D01*
X10266666Y33497620D01*
X10190476Y33459524D01*
%TO.C,Q2*%
X9923809Y23811905D02*
X9847619Y23850000D01*
X9771428Y23926191D01*
X9657142Y24040477D01*
X9580952Y24078572D01*
X9504761Y24078572D01*
X9542857Y23888096D02*
X9466666Y23926191D01*
X9390476Y24002381D01*
X9352380Y24154762D01*
X9352380Y24421429D01*
X9390476Y24573810D01*
X9466666Y24650000D01*
X9542857Y24688096D01*
X9695238Y24688096D01*
X9771428Y24650000D01*
X9847619Y24573810D01*
X9885714Y24421429D01*
X9885714Y24154762D01*
X9847619Y24002381D01*
X9771428Y23926191D01*
X9695238Y23888096D01*
X9542857Y23888096D01*
X10190476Y24611905D02*
X10228571Y24650000D01*
X10304761Y24688096D01*
X10495238Y24688096D01*
X10571428Y24650000D01*
X10609523Y24611905D01*
X10647619Y24535715D01*
X10647619Y24459524D01*
X10609523Y24345239D01*
X10152380Y23888096D01*
X10647619Y23888096D01*
%TO.C,Q3*%
X9923809Y14811905D02*
X9847619Y14850000D01*
X9771428Y14926191D01*
X9657142Y15040477D01*
X9580952Y15078572D01*
X9504761Y15078572D01*
X9542857Y14888096D02*
X9466666Y14926191D01*
X9390476Y15002381D01*
X9352380Y15154762D01*
X9352380Y15421429D01*
X9390476Y15573810D01*
X9466666Y15650000D01*
X9542857Y15688096D01*
X9695238Y15688096D01*
X9771428Y15650000D01*
X9847619Y15573810D01*
X9885714Y15421429D01*
X9885714Y15154762D01*
X9847619Y15002381D01*
X9771428Y14926191D01*
X9695238Y14888096D01*
X9542857Y14888096D01*
X10152380Y15688096D02*
X10647619Y15688096D01*
X10380952Y15383334D01*
X10495238Y15383334D01*
X10571428Y15345239D01*
X10609523Y15307143D01*
X10647619Y15230953D01*
X10647619Y15040477D01*
X10609523Y14964286D01*
X10571428Y14926191D01*
X10495238Y14888096D01*
X10266666Y14888096D01*
X10190476Y14926191D01*
X10152380Y14964286D01*
%TO.C,Q4*%
X9923809Y5811905D02*
X9847619Y5850000D01*
X9771428Y5926191D01*
X9657142Y6040477D01*
X9580952Y6078572D01*
X9504761Y6078572D01*
X9542857Y5888096D02*
X9466666Y5926191D01*
X9390476Y6002381D01*
X9352380Y6154762D01*
X9352380Y6421429D01*
X9390476Y6573810D01*
X9466666Y6650000D01*
X9542857Y6688096D01*
X9695238Y6688096D01*
X9771428Y6650000D01*
X9847619Y6573810D01*
X9885714Y6421429D01*
X9885714Y6154762D01*
X9847619Y6002381D01*
X9771428Y5926191D01*
X9695238Y5888096D01*
X9542857Y5888096D01*
X10571428Y6421429D02*
X10571428Y5888096D01*
X10380952Y6726191D02*
X10190476Y6154762D01*
X10685714Y6154762D01*
%TO.C,R1*%
D15*
X51361904Y39866667D02*
X50980952Y39600000D01*
X51361904Y39409524D02*
X50561904Y39409524D01*
X50561904Y39714286D01*
X50600000Y39790477D01*
X50638095Y39828572D01*
X50714285Y39866667D01*
X50828571Y39866667D01*
X50904761Y39828572D01*
X50942857Y39790477D01*
X50980952Y39714286D01*
X50980952Y39409524D01*
X51361904Y40628572D02*
X51361904Y40171429D01*
X51361904Y40400000D02*
X50561904Y40400000D01*
X50676190Y40323810D01*
X50752380Y40247620D01*
X50790476Y40171429D01*
%TO.C,R2*%
X51361904Y38116667D02*
X50980952Y37850000D01*
X51361904Y37659524D02*
X50561904Y37659524D01*
X50561904Y37964286D01*
X50600000Y38040477D01*
X50638095Y38078572D01*
X50714285Y38116667D01*
X50828571Y38116667D01*
X50904761Y38078572D01*
X50942857Y38040477D01*
X50980952Y37964286D01*
X50980952Y37659524D01*
X50638095Y38421429D02*
X50600000Y38459524D01*
X50561904Y38535715D01*
X50561904Y38726191D01*
X50600000Y38802381D01*
X50638095Y38840477D01*
X50714285Y38878572D01*
X50790476Y38878572D01*
X50904761Y38840477D01*
X51361904Y38383334D01*
X51361904Y38878572D01*
%TO.C,R3*%
X13891904Y41366667D02*
X13510952Y41100000D01*
X13891904Y40909524D02*
X13091904Y40909524D01*
X13091904Y41214286D01*
X13130000Y41290477D01*
X13168095Y41328572D01*
X13244285Y41366667D01*
X13358571Y41366667D01*
X13434761Y41328572D01*
X13472857Y41290477D01*
X13510952Y41214286D01*
X13510952Y40909524D01*
X13091904Y41633334D02*
X13091904Y42128572D01*
X13396666Y41861905D01*
X13396666Y41976191D01*
X13434761Y42052381D01*
X13472857Y42090477D01*
X13549047Y42128572D01*
X13739523Y42128572D01*
X13815714Y42090477D01*
X13853809Y42052381D01*
X13891904Y41976191D01*
X13891904Y41747620D01*
X13853809Y41671429D01*
X13815714Y41633334D01*
%TO.C,SW1*%
D14*
X12904761Y31666667D02*
X12952380Y31809524D01*
X12952380Y32047620D01*
X12904761Y32142858D01*
X12857142Y32190477D01*
X12761904Y32238096D01*
X12666666Y32238096D01*
X12571428Y32190477D01*
X12523809Y32142858D01*
X12476190Y32047620D01*
X12428571Y31857143D01*
X12380952Y31761905D01*
X12333333Y31714286D01*
X12238095Y31666667D01*
X12142857Y31666667D01*
X12047619Y31714286D01*
X12000000Y31761905D01*
X11952380Y31857143D01*
X11952380Y32095239D01*
X12000000Y32238096D01*
X11952380Y32571429D02*
X12952380Y32809524D01*
X12238095Y33000000D01*
X12952380Y33190477D01*
X11952380Y33428572D01*
X12952380Y34333334D02*
X12952380Y33761905D01*
X12952380Y34047620D02*
X11952380Y34047620D01*
X12095238Y33952381D01*
X12190476Y33857143D01*
X12238095Y33761905D01*
%TO.C,SW2*%
X12904761Y22666667D02*
X12952380Y22809524D01*
X12952380Y23047620D01*
X12904761Y23142858D01*
X12857142Y23190477D01*
X12761904Y23238096D01*
X12666666Y23238096D01*
X12571428Y23190477D01*
X12523809Y23142858D01*
X12476190Y23047620D01*
X12428571Y22857143D01*
X12380952Y22761905D01*
X12333333Y22714286D01*
X12238095Y22666667D01*
X12142857Y22666667D01*
X12047619Y22714286D01*
X12000000Y22761905D01*
X11952380Y22857143D01*
X11952380Y23095239D01*
X12000000Y23238096D01*
X11952380Y23571429D02*
X12952380Y23809524D01*
X12238095Y24000000D01*
X12952380Y24190477D01*
X11952380Y24428572D01*
X12047619Y24761905D02*
X12000000Y24809524D01*
X11952380Y24904762D01*
X11952380Y25142858D01*
X12000000Y25238096D01*
X12047619Y25285715D01*
X12142857Y25333334D01*
X12238095Y25333334D01*
X12380952Y25285715D01*
X12952380Y24714286D01*
X12952380Y25333334D01*
%TO.C,SW3*%
X12904761Y13666667D02*
X12952380Y13809524D01*
X12952380Y14047620D01*
X12904761Y14142858D01*
X12857142Y14190477D01*
X12761904Y14238096D01*
X12666666Y14238096D01*
X12571428Y14190477D01*
X12523809Y14142858D01*
X12476190Y14047620D01*
X12428571Y13857143D01*
X12380952Y13761905D01*
X12333333Y13714286D01*
X12238095Y13666667D01*
X12142857Y13666667D01*
X12047619Y13714286D01*
X12000000Y13761905D01*
X11952380Y13857143D01*
X11952380Y14095239D01*
X12000000Y14238096D01*
X11952380Y14571429D02*
X12952380Y14809524D01*
X12238095Y15000000D01*
X12952380Y15190477D01*
X11952380Y15428572D01*
X11952380Y15714286D02*
X11952380Y16333334D01*
X12333333Y16000000D01*
X12333333Y16142858D01*
X12380952Y16238096D01*
X12428571Y16285715D01*
X12523809Y16333334D01*
X12761904Y16333334D01*
X12857142Y16285715D01*
X12904761Y16238096D01*
X12952380Y16142858D01*
X12952380Y15857143D01*
X12904761Y15761905D01*
X12857142Y15714286D01*
%TO.C,SW4*%
X12904761Y4666667D02*
X12952380Y4809524D01*
X12952380Y5047620D01*
X12904761Y5142858D01*
X12857142Y5190477D01*
X12761904Y5238096D01*
X12666666Y5238096D01*
X12571428Y5190477D01*
X12523809Y5142858D01*
X12476190Y5047620D01*
X12428571Y4857143D01*
X12380952Y4761905D01*
X12333333Y4714286D01*
X12238095Y4666667D01*
X12142857Y4666667D01*
X12047619Y4714286D01*
X12000000Y4761905D01*
X11952380Y4857143D01*
X11952380Y5095239D01*
X12000000Y5238096D01*
X11952380Y5571429D02*
X12952380Y5809524D01*
X12238095Y6000000D01*
X12952380Y6190477D01*
X11952380Y6428572D01*
X12285714Y7238096D02*
X12952380Y7238096D01*
X11904761Y7000000D02*
X12619047Y6761905D01*
X12619047Y7380953D01*
%TO.C,SW5*%
X23904761Y31666667D02*
X23952380Y31809524D01*
X23952380Y32047620D01*
X23904761Y32142858D01*
X23857142Y32190477D01*
X23761904Y32238096D01*
X23666666Y32238096D01*
X23571428Y32190477D01*
X23523809Y32142858D01*
X23476190Y32047620D01*
X23428571Y31857143D01*
X23380952Y31761905D01*
X23333333Y31714286D01*
X23238095Y31666667D01*
X23142857Y31666667D01*
X23047619Y31714286D01*
X23000000Y31761905D01*
X22952380Y31857143D01*
X22952380Y32095239D01*
X23000000Y32238096D01*
X22952380Y32571429D02*
X23952380Y32809524D01*
X23238095Y33000000D01*
X23952380Y33190477D01*
X22952380Y33428572D01*
X22952380Y34285715D02*
X22952380Y33809524D01*
X23428571Y33761905D01*
X23380952Y33809524D01*
X23333333Y33904762D01*
X23333333Y34142858D01*
X23380952Y34238096D01*
X23428571Y34285715D01*
X23523809Y34333334D01*
X23761904Y34333334D01*
X23857142Y34285715D01*
X23904761Y34238096D01*
X23952380Y34142858D01*
X23952380Y33904762D01*
X23904761Y33809524D01*
X23857142Y33761905D01*
%TO.C,SW6*%
X23904761Y22666667D02*
X23952380Y22809524D01*
X23952380Y23047620D01*
X23904761Y23142858D01*
X23857142Y23190477D01*
X23761904Y23238096D01*
X23666666Y23238096D01*
X23571428Y23190477D01*
X23523809Y23142858D01*
X23476190Y23047620D01*
X23428571Y22857143D01*
X23380952Y22761905D01*
X23333333Y22714286D01*
X23238095Y22666667D01*
X23142857Y22666667D01*
X23047619Y22714286D01*
X23000000Y22761905D01*
X22952380Y22857143D01*
X22952380Y23095239D01*
X23000000Y23238096D01*
X22952380Y23571429D02*
X23952380Y23809524D01*
X23238095Y24000000D01*
X23952380Y24190477D01*
X22952380Y24428572D01*
X22952380Y25238096D02*
X22952380Y25047620D01*
X23000000Y24952381D01*
X23047619Y24904762D01*
X23190476Y24809524D01*
X23380952Y24761905D01*
X23761904Y24761905D01*
X23857142Y24809524D01*
X23904761Y24857143D01*
X23952380Y24952381D01*
X23952380Y25142858D01*
X23904761Y25238096D01*
X23857142Y25285715D01*
X23761904Y25333334D01*
X23523809Y25333334D01*
X23428571Y25285715D01*
X23380952Y25238096D01*
X23333333Y25142858D01*
X23333333Y24952381D01*
X23380952Y24857143D01*
X23428571Y24809524D01*
X23523809Y24761905D01*
%TO.C,SW7*%
X23904761Y13666667D02*
X23952380Y13809524D01*
X23952380Y14047620D01*
X23904761Y14142858D01*
X23857142Y14190477D01*
X23761904Y14238096D01*
X23666666Y14238096D01*
X23571428Y14190477D01*
X23523809Y14142858D01*
X23476190Y14047620D01*
X23428571Y13857143D01*
X23380952Y13761905D01*
X23333333Y13714286D01*
X23238095Y13666667D01*
X23142857Y13666667D01*
X23047619Y13714286D01*
X23000000Y13761905D01*
X22952380Y13857143D01*
X22952380Y14095239D01*
X23000000Y14238096D01*
X22952380Y14571429D02*
X23952380Y14809524D01*
X23238095Y15000000D01*
X23952380Y15190477D01*
X22952380Y15428572D01*
X22952380Y15714286D02*
X22952380Y16380953D01*
X23952380Y15952381D01*
%TO.C,SW8*%
X23904761Y4666667D02*
X23952380Y4809524D01*
X23952380Y5047620D01*
X23904761Y5142858D01*
X23857142Y5190477D01*
X23761904Y5238096D01*
X23666666Y5238096D01*
X23571428Y5190477D01*
X23523809Y5142858D01*
X23476190Y5047620D01*
X23428571Y4857143D01*
X23380952Y4761905D01*
X23333333Y4714286D01*
X23238095Y4666667D01*
X23142857Y4666667D01*
X23047619Y4714286D01*
X23000000Y4761905D01*
X22952380Y4857143D01*
X22952380Y5095239D01*
X23000000Y5238096D01*
X22952380Y5571429D02*
X23952380Y5809524D01*
X23238095Y6000000D01*
X23952380Y6190477D01*
X22952380Y6428572D01*
X23380952Y6952381D02*
X23333333Y6857143D01*
X23285714Y6809524D01*
X23190476Y6761905D01*
X23142857Y6761905D01*
X23047619Y6809524D01*
X23000000Y6857143D01*
X22952380Y6952381D01*
X22952380Y7142858D01*
X23000000Y7238096D01*
X23047619Y7285715D01*
X23142857Y7333334D01*
X23190476Y7333334D01*
X23285714Y7285715D01*
X23333333Y7238096D01*
X23380952Y7142858D01*
X23380952Y6952381D01*
X23428571Y6857143D01*
X23476190Y6809524D01*
X23571428Y6761905D01*
X23761904Y6761905D01*
X23857142Y6809524D01*
X23904761Y6857143D01*
X23952380Y6952381D01*
X23952380Y7142858D01*
X23904761Y7238096D01*
X23857142Y7285715D01*
X23761904Y7333334D01*
X23571428Y7333334D01*
X23476190Y7285715D01*
X23428571Y7238096D01*
X23380952Y7142858D01*
%TO.C,SW9*%
X34904761Y31666667D02*
X34952380Y31809524D01*
X34952380Y32047620D01*
X34904761Y32142858D01*
X34857142Y32190477D01*
X34761904Y32238096D01*
X34666666Y32238096D01*
X34571428Y32190477D01*
X34523809Y32142858D01*
X34476190Y32047620D01*
X34428571Y31857143D01*
X34380952Y31761905D01*
X34333333Y31714286D01*
X34238095Y31666667D01*
X34142857Y31666667D01*
X34047619Y31714286D01*
X34000000Y31761905D01*
X33952380Y31857143D01*
X33952380Y32095239D01*
X34000000Y32238096D01*
X33952380Y32571429D02*
X34952380Y32809524D01*
X34238095Y33000000D01*
X34952380Y33190477D01*
X33952380Y33428572D01*
X34952380Y33857143D02*
X34952380Y34047620D01*
X34904761Y34142858D01*
X34857142Y34190477D01*
X34714285Y34285715D01*
X34523809Y34333334D01*
X34142857Y34333334D01*
X34047619Y34285715D01*
X34000000Y34238096D01*
X33952380Y34142858D01*
X33952380Y33952381D01*
X34000000Y33857143D01*
X34047619Y33809524D01*
X34142857Y33761905D01*
X34380952Y33761905D01*
X34476190Y33809524D01*
X34523809Y33857143D01*
X34571428Y33952381D01*
X34571428Y34142858D01*
X34523809Y34238096D01*
X34476190Y34285715D01*
X34380952Y34333334D01*
%TO.C,SW10*%
X34654761Y22190477D02*
X34702380Y22333334D01*
X34702380Y22571429D01*
X34654761Y22666667D01*
X34607142Y22714286D01*
X34511904Y22761905D01*
X34416666Y22761905D01*
X34321428Y22714286D01*
X34273809Y22666667D01*
X34226190Y22571429D01*
X34178571Y22380953D01*
X34130952Y22285715D01*
X34083333Y22238096D01*
X33988095Y22190477D01*
X33892857Y22190477D01*
X33797619Y22238096D01*
X33750000Y22285715D01*
X33702380Y22380953D01*
X33702380Y22619048D01*
X33750000Y22761905D01*
X33702380Y23095239D02*
X34702380Y23333334D01*
X33988095Y23523810D01*
X34702380Y23714286D01*
X33702380Y23952381D01*
X34702380Y24857143D02*
X34702380Y24285715D01*
X34702380Y24571429D02*
X33702380Y24571429D01*
X33845238Y24476191D01*
X33940476Y24380953D01*
X33988095Y24285715D01*
X33702380Y25476191D02*
X33702380Y25571429D01*
X33750000Y25666667D01*
X33797619Y25714286D01*
X33892857Y25761905D01*
X34083333Y25809524D01*
X34321428Y25809524D01*
X34511904Y25761905D01*
X34607142Y25714286D01*
X34654761Y25666667D01*
X34702380Y25571429D01*
X34702380Y25476191D01*
X34654761Y25380953D01*
X34607142Y25333334D01*
X34511904Y25285715D01*
X34321428Y25238096D01*
X34083333Y25238096D01*
X33892857Y25285715D01*
X33797619Y25333334D01*
X33750000Y25380953D01*
X33702380Y25476191D01*
%TO.C,SW11*%
X34654761Y13190477D02*
X34702380Y13333334D01*
X34702380Y13571429D01*
X34654761Y13666667D01*
X34607142Y13714286D01*
X34511904Y13761905D01*
X34416666Y13761905D01*
X34321428Y13714286D01*
X34273809Y13666667D01*
X34226190Y13571429D01*
X34178571Y13380953D01*
X34130952Y13285715D01*
X34083333Y13238096D01*
X33988095Y13190477D01*
X33892857Y13190477D01*
X33797619Y13238096D01*
X33750000Y13285715D01*
X33702380Y13380953D01*
X33702380Y13619048D01*
X33750000Y13761905D01*
X33702380Y14095239D02*
X34702380Y14333334D01*
X33988095Y14523810D01*
X34702380Y14714286D01*
X33702380Y14952381D01*
X34702380Y15857143D02*
X34702380Y15285715D01*
X34702380Y15571429D02*
X33702380Y15571429D01*
X33845238Y15476191D01*
X33940476Y15380953D01*
X33988095Y15285715D01*
X34702380Y16809524D02*
X34702380Y16238096D01*
X34702380Y16523810D02*
X33702380Y16523810D01*
X33845238Y16428572D01*
X33940476Y16333334D01*
X33988095Y16238096D01*
%TO.C,SW12*%
X34654761Y4190477D02*
X34702380Y4333334D01*
X34702380Y4571429D01*
X34654761Y4666667D01*
X34607142Y4714286D01*
X34511904Y4761905D01*
X34416666Y4761905D01*
X34321428Y4714286D01*
X34273809Y4666667D01*
X34226190Y4571429D01*
X34178571Y4380953D01*
X34130952Y4285715D01*
X34083333Y4238096D01*
X33988095Y4190477D01*
X33892857Y4190477D01*
X33797619Y4238096D01*
X33750000Y4285715D01*
X33702380Y4380953D01*
X33702380Y4619048D01*
X33750000Y4761905D01*
X33702380Y5095239D02*
X34702380Y5333334D01*
X33988095Y5523810D01*
X34702380Y5714286D01*
X33702380Y5952381D01*
X34702380Y6857143D02*
X34702380Y6285715D01*
X34702380Y6571429D02*
X33702380Y6571429D01*
X33845238Y6476191D01*
X33940476Y6380953D01*
X33988095Y6285715D01*
X33797619Y7238096D02*
X33750000Y7285715D01*
X33702380Y7380953D01*
X33702380Y7619048D01*
X33750000Y7714286D01*
X33797619Y7761905D01*
X33892857Y7809524D01*
X33988095Y7809524D01*
X34130952Y7761905D01*
X34702380Y7190477D01*
X34702380Y7809524D01*
%TO.C,SW13*%
X45654761Y31190477D02*
X45702380Y31333334D01*
X45702380Y31571429D01*
X45654761Y31666667D01*
X45607142Y31714286D01*
X45511904Y31761905D01*
X45416666Y31761905D01*
X45321428Y31714286D01*
X45273809Y31666667D01*
X45226190Y31571429D01*
X45178571Y31380953D01*
X45130952Y31285715D01*
X45083333Y31238096D01*
X44988095Y31190477D01*
X44892857Y31190477D01*
X44797619Y31238096D01*
X44750000Y31285715D01*
X44702380Y31380953D01*
X44702380Y31619048D01*
X44750000Y31761905D01*
X44702380Y32095239D02*
X45702380Y32333334D01*
X44988095Y32523810D01*
X45702380Y32714286D01*
X44702380Y32952381D01*
X45702380Y33857143D02*
X45702380Y33285715D01*
X45702380Y33571429D02*
X44702380Y33571429D01*
X44845238Y33476191D01*
X44940476Y33380953D01*
X44988095Y33285715D01*
X44702380Y34190477D02*
X44702380Y34809524D01*
X45083333Y34476191D01*
X45083333Y34619048D01*
X45130952Y34714286D01*
X45178571Y34761905D01*
X45273809Y34809524D01*
X45511904Y34809524D01*
X45607142Y34761905D01*
X45654761Y34714286D01*
X45702380Y34619048D01*
X45702380Y34333334D01*
X45654761Y34238096D01*
X45607142Y34190477D01*
%TO.C,SW14*%
X45654761Y22190477D02*
X45702380Y22333334D01*
X45702380Y22571429D01*
X45654761Y22666667D01*
X45607142Y22714286D01*
X45511904Y22761905D01*
X45416666Y22761905D01*
X45321428Y22714286D01*
X45273809Y22666667D01*
X45226190Y22571429D01*
X45178571Y22380953D01*
X45130952Y22285715D01*
X45083333Y22238096D01*
X44988095Y22190477D01*
X44892857Y22190477D01*
X44797619Y22238096D01*
X44750000Y22285715D01*
X44702380Y22380953D01*
X44702380Y22619048D01*
X44750000Y22761905D01*
X44702380Y23095239D02*
X45702380Y23333334D01*
X44988095Y23523810D01*
X45702380Y23714286D01*
X44702380Y23952381D01*
X45702380Y24857143D02*
X45702380Y24285715D01*
X45702380Y24571429D02*
X44702380Y24571429D01*
X44845238Y24476191D01*
X44940476Y24380953D01*
X44988095Y24285715D01*
X45035714Y25714286D02*
X45702380Y25714286D01*
X44654761Y25476191D02*
X45369047Y25238096D01*
X45369047Y25857143D01*
%TO.C,SW15*%
X45654761Y13190477D02*
X45702380Y13333334D01*
X45702380Y13571429D01*
X45654761Y13666667D01*
X45607142Y13714286D01*
X45511904Y13761905D01*
X45416666Y13761905D01*
X45321428Y13714286D01*
X45273809Y13666667D01*
X45226190Y13571429D01*
X45178571Y13380953D01*
X45130952Y13285715D01*
X45083333Y13238096D01*
X44988095Y13190477D01*
X44892857Y13190477D01*
X44797619Y13238096D01*
X44750000Y13285715D01*
X44702380Y13380953D01*
X44702380Y13619048D01*
X44750000Y13761905D01*
X44702380Y14095239D02*
X45702380Y14333334D01*
X44988095Y14523810D01*
X45702380Y14714286D01*
X44702380Y14952381D01*
X45702380Y15857143D02*
X45702380Y15285715D01*
X45702380Y15571429D02*
X44702380Y15571429D01*
X44845238Y15476191D01*
X44940476Y15380953D01*
X44988095Y15285715D01*
X44702380Y16761905D02*
X44702380Y16285715D01*
X45178571Y16238096D01*
X45130952Y16285715D01*
X45083333Y16380953D01*
X45083333Y16619048D01*
X45130952Y16714286D01*
X45178571Y16761905D01*
X45273809Y16809524D01*
X45511904Y16809524D01*
X45607142Y16761905D01*
X45654761Y16714286D01*
X45702380Y16619048D01*
X45702380Y16380953D01*
X45654761Y16285715D01*
X45607142Y16238096D01*
%TO.C,SW16*%
X45654761Y4190477D02*
X45702380Y4333334D01*
X45702380Y4571429D01*
X45654761Y4666667D01*
X45607142Y4714286D01*
X45511904Y4761905D01*
X45416666Y4761905D01*
X45321428Y4714286D01*
X45273809Y4666667D01*
X45226190Y4571429D01*
X45178571Y4380953D01*
X45130952Y4285715D01*
X45083333Y4238096D01*
X44988095Y4190477D01*
X44892857Y4190477D01*
X44797619Y4238096D01*
X44750000Y4285715D01*
X44702380Y4380953D01*
X44702380Y4619048D01*
X44750000Y4761905D01*
X44702380Y5095239D02*
X45702380Y5333334D01*
X44988095Y5523810D01*
X45702380Y5714286D01*
X44702380Y5952381D01*
X45702380Y6857143D02*
X45702380Y6285715D01*
X45702380Y6571429D02*
X44702380Y6571429D01*
X44845238Y6476191D01*
X44940476Y6380953D01*
X44988095Y6285715D01*
X44702380Y7714286D02*
X44702380Y7523810D01*
X44750000Y7428572D01*
X44797619Y7380953D01*
X44940476Y7285715D01*
X45130952Y7238096D01*
X45511904Y7238096D01*
X45607142Y7285715D01*
X45654761Y7333334D01*
X45702380Y7428572D01*
X45702380Y7619048D01*
X45654761Y7714286D01*
X45607142Y7761905D01*
X45511904Y7809524D01*
X45273809Y7809524D01*
X45178571Y7761905D01*
X45130952Y7714286D01*
X45083333Y7619048D01*
X45083333Y7428572D01*
X45130952Y7333334D01*
X45178571Y7285715D01*
X45273809Y7238096D01*
%TO.C,SW17*%
X57190476Y50595239D02*
X57333333Y50547620D01*
X57571428Y50547620D01*
X57666666Y50595239D01*
X57714285Y50642858D01*
X57761904Y50738096D01*
X57761904Y50833334D01*
X57714285Y50928572D01*
X57666666Y50976191D01*
X57571428Y51023810D01*
X57380952Y51071429D01*
X57285714Y51119048D01*
X57238095Y51166667D01*
X57190476Y51261905D01*
X57190476Y51357143D01*
X57238095Y51452381D01*
X57285714Y51500000D01*
X57380952Y51547620D01*
X57619047Y51547620D01*
X57761904Y51500000D01*
X58095238Y51547620D02*
X58333333Y50547620D01*
X58523809Y51261905D01*
X58714285Y50547620D01*
X58952380Y51547620D01*
X59857142Y50547620D02*
X59285714Y50547620D01*
X59571428Y50547620D02*
X59571428Y51547620D01*
X59476190Y51404762D01*
X59380952Y51309524D01*
X59285714Y51261905D01*
X60190476Y51547620D02*
X60857142Y51547620D01*
X60428571Y50547620D01*
%TO.C,SW18*%
D15*
X65573809Y47302381D02*
X65611904Y47416667D01*
X65611904Y47607143D01*
X65573809Y47683334D01*
X65535714Y47721429D01*
X65459523Y47759524D01*
X65383333Y47759524D01*
X65307142Y47721429D01*
X65269047Y47683334D01*
X65230952Y47607143D01*
X65192857Y47454762D01*
X65154761Y47378572D01*
X65116666Y47340477D01*
X65040476Y47302381D01*
X64964285Y47302381D01*
X64888095Y47340477D01*
X64850000Y47378572D01*
X64811904Y47454762D01*
X64811904Y47645239D01*
X64850000Y47759524D01*
X64811904Y48026191D02*
X65611904Y48216667D01*
X65040476Y48369048D01*
X65611904Y48521429D01*
X64811904Y48711905D01*
X65611904Y49435715D02*
X65611904Y48978572D01*
X65611904Y49207143D02*
X64811904Y49207143D01*
X64926190Y49130953D01*
X65002380Y49054762D01*
X65040476Y48978572D01*
X65154761Y49892858D02*
X65116666Y49816667D01*
X65078571Y49778572D01*
X65002380Y49740477D01*
X64964285Y49740477D01*
X64888095Y49778572D01*
X64850000Y49816667D01*
X64811904Y49892858D01*
X64811904Y50045239D01*
X64850000Y50121429D01*
X64888095Y50159524D01*
X64964285Y50197620D01*
X65002380Y50197620D01*
X65078571Y50159524D01*
X65116666Y50121429D01*
X65154761Y50045239D01*
X65154761Y49892858D01*
X65192857Y49816667D01*
X65230952Y49778572D01*
X65307142Y49740477D01*
X65459523Y49740477D01*
X65535714Y49778572D01*
X65573809Y49816667D01*
X65611904Y49892858D01*
X65611904Y50045239D01*
X65573809Y50121429D01*
X65535714Y50159524D01*
X65459523Y50197620D01*
X65307142Y50197620D01*
X65230952Y50159524D01*
X65192857Y50121429D01*
X65154761Y50045239D01*
%TO.C,SW19*%
X77573809Y47552381D02*
X77611904Y47666667D01*
X77611904Y47857143D01*
X77573809Y47933334D01*
X77535714Y47971429D01*
X77459523Y48009524D01*
X77383333Y48009524D01*
X77307142Y47971429D01*
X77269047Y47933334D01*
X77230952Y47857143D01*
X77192857Y47704762D01*
X77154761Y47628572D01*
X77116666Y47590477D01*
X77040476Y47552381D01*
X76964285Y47552381D01*
X76888095Y47590477D01*
X76850000Y47628572D01*
X76811904Y47704762D01*
X76811904Y47895239D01*
X76850000Y48009524D01*
X76811904Y48276191D02*
X77611904Y48466667D01*
X77040476Y48619048D01*
X77611904Y48771429D01*
X76811904Y48961905D01*
X77611904Y49685715D02*
X77611904Y49228572D01*
X77611904Y49457143D02*
X76811904Y49457143D01*
X76926190Y49380953D01*
X77002380Y49304762D01*
X77040476Y49228572D01*
X77611904Y50066667D02*
X77611904Y50219048D01*
X77573809Y50295239D01*
X77535714Y50333334D01*
X77421428Y50409524D01*
X77269047Y50447620D01*
X76964285Y50447620D01*
X76888095Y50409524D01*
X76850000Y50371429D01*
X76811904Y50295239D01*
X76811904Y50142858D01*
X76850000Y50066667D01*
X76888095Y50028572D01*
X76964285Y49990477D01*
X77154761Y49990477D01*
X77230952Y50028572D01*
X77269047Y50066667D01*
X77307142Y50142858D01*
X77307142Y50295239D01*
X77269047Y50371429D01*
X77230952Y50409524D01*
X77154761Y50447620D01*
%TO.C,VR1*%
X64866666Y43333334D02*
X65566666Y43566667D01*
X64866666Y43800000D01*
X65566666Y44433334D02*
X65233333Y44200000D01*
X65566666Y44033334D02*
X64866666Y44033334D01*
X64866666Y44300000D01*
X64900000Y44366667D01*
X64933333Y44400000D01*
X65000000Y44433334D01*
X65100000Y44433334D01*
X65166666Y44400000D01*
X65200000Y44366667D01*
X65233333Y44300000D01*
X65233333Y44033334D01*
X65566666Y45100000D02*
X65566666Y44700000D01*
X65566666Y44900000D02*
X64866666Y44900000D01*
X64966666Y44833334D01*
X65033333Y44766667D01*
X65066666Y44700000D01*
%TO.C,VR2*%
X76866666Y43333334D02*
X77566666Y43566667D01*
X76866666Y43800000D01*
X77566666Y44433334D02*
X77233333Y44200000D01*
X77566666Y44033334D02*
X76866666Y44033334D01*
X76866666Y44300000D01*
X76900000Y44366667D01*
X76933333Y44400000D01*
X77000000Y44433334D01*
X77100000Y44433334D01*
X77166666Y44400000D01*
X77200000Y44366667D01*
X77233333Y44300000D01*
X77233333Y44033334D01*
X76933333Y44700000D02*
X76900000Y44733334D01*
X76866666Y44800000D01*
X76866666Y44966667D01*
X76900000Y45033334D01*
X76933333Y45066667D01*
X77000000Y45100000D01*
X77066666Y45100000D01*
X77166666Y45066667D01*
X77566666Y44666667D01*
X77566666Y45100000D01*
%TD*%
%LPC*%
D16*
%TO.C,U1*%
X51100000Y46800000D03*
X8900000Y46800000D03*
D17*
X47900000Y47500000D03*
X12100000Y47500000D03*
D18*
X40160000Y45000000D03*
X37620000Y45000000D03*
X35080000Y45000000D03*
X32540000Y45000000D03*
X30000000Y45000000D03*
X27460000Y45000000D03*
X24920000Y45000000D03*
X22380000Y45000000D03*
D19*
X19840000Y45000000D03*
%TD*%
D18*
%TO.C,J1*%
X5270000Y15490000D03*
X2730000Y15490000D03*
X5270000Y18030000D03*
X2730000Y18030000D03*
X5270000Y20570000D03*
X2730000Y20570000D03*
X5270000Y23110000D03*
X2730000Y23110000D03*
X5270000Y25650000D03*
X2730000Y25650000D03*
X5270000Y28190000D03*
X2730000Y28190000D03*
X5270000Y30730000D03*
X2730000Y30730000D03*
X5270000Y33270000D03*
X2730000Y33270000D03*
X5270000Y35810000D03*
X2730000Y35810000D03*
X5270000Y38350000D03*
X2730000Y38350000D03*
X5270000Y40890000D03*
X2730000Y40890000D03*
X5270000Y43430000D03*
X2730000Y43430000D03*
X5270000Y45970000D03*
X2730000Y45970000D03*
X5270000Y48510000D03*
D19*
X2730000Y48510000D03*
%TD*%
D18*
%TO.C,J2*%
X92270000Y15490000D03*
X89730000Y15490000D03*
X92270000Y18030000D03*
X89730000Y18030000D03*
X92270000Y20570000D03*
X89730000Y20570000D03*
X92270000Y23110000D03*
X89730000Y23110000D03*
X92270000Y25650000D03*
X89730000Y25650000D03*
X92270000Y28190000D03*
X89730000Y28190000D03*
X92270000Y30730000D03*
X89730000Y30730000D03*
X92270000Y33270000D03*
X89730000Y33270000D03*
X92270000Y35810000D03*
X89730000Y35810000D03*
X92270000Y38350000D03*
X89730000Y38350000D03*
X92270000Y40890000D03*
X89730000Y40890000D03*
X92270000Y43430000D03*
X89730000Y43430000D03*
X92270000Y45970000D03*
X89730000Y45970000D03*
X92270000Y48510000D03*
D19*
X89730000Y48510000D03*
%TD*%
%TO.C,C1*%
G36*
G01*
X22750000Y40900000D02*
X22250000Y40900000D01*
G75*
G02*
X22150000Y41000000I0J100000D01*
G01*
X22150000Y41550000D01*
G75*
G02*
X22250000Y41650000I100000J0D01*
G01*
X22750000Y41650000D01*
G75*
G02*
X22850000Y41550000I0J-100000D01*
G01*
X22850000Y41000000D01*
G75*
G02*
X22750000Y40900000I-100000J0D01*
G01*
G37*
G36*
G01*
X22750000Y41850000D02*
X22250000Y41850000D01*
G75*
G02*
X22150000Y41950000I0J100000D01*
G01*
X22150000Y42500000D01*
G75*
G02*
X22250000Y42600000I100000J0D01*
G01*
X22750000Y42600000D01*
G75*
G02*
X22850000Y42500000I0J-100000D01*
G01*
X22850000Y41950000D01*
G75*
G02*
X22750000Y41850000I-100000J0D01*
G01*
G37*
%TD*%
%TO.C,C2*%
G36*
G01*
X26150000Y42500000D02*
X26150000Y42000000D01*
G75*
G02*
X26050000Y41900000I-100000J0D01*
G01*
X25500000Y41900000D01*
G75*
G02*
X25400000Y42000000I0J100000D01*
G01*
X25400000Y42500000D01*
G75*
G02*
X25500000Y42600000I100000J0D01*
G01*
X26050000Y42600000D01*
G75*
G02*
X26150000Y42500000I0J-100000D01*
G01*
G37*
G36*
G01*
X27100000Y42500000D02*
X27100000Y42000000D01*
G75*
G02*
X27000000Y41900000I-100000J0D01*
G01*
X26450000Y41900000D01*
G75*
G02*
X26350000Y42000000I0J100000D01*
G01*
X26350000Y42500000D01*
G75*
G02*
X26450000Y42600000I100000J0D01*
G01*
X27000000Y42600000D01*
G75*
G02*
X27100000Y42500000I0J-100000D01*
G01*
G37*
%TD*%
%TO.C,C3*%
G36*
G01*
X30400000Y42000000D02*
X30400000Y42500000D01*
G75*
G02*
X30500000Y42600000I100000J0D01*
G01*
X31050000Y42600000D01*
G75*
G02*
X31150000Y42500000I0J-100000D01*
G01*
X31150000Y42000000D01*
G75*
G02*
X31050000Y41900000I-100000J0D01*
G01*
X30500000Y41900000D01*
G75*
G02*
X30400000Y42000000I0J100000D01*
G01*
G37*
G36*
G01*
X31350000Y42000000D02*
X31350000Y42500000D01*
G75*
G02*
X31450000Y42600000I100000J0D01*
G01*
X32000000Y42600000D01*
G75*
G02*
X32100000Y42500000I0J-100000D01*
G01*
X32100000Y42000000D01*
G75*
G02*
X32000000Y41900000I-100000J0D01*
G01*
X31450000Y41900000D01*
G75*
G02*
X31350000Y42000000I0J100000D01*
G01*
G37*
%TD*%
D20*
%TO.C,D1*%
X60270000Y38500000D03*
X57730000Y38500000D03*
%TD*%
%TO.C,D2*%
X58730000Y6000000D03*
X61270000Y6000000D03*
%TD*%
D21*
%TO.C,Q1*%
X10950000Y35250000D03*
X9050000Y34600000D03*
X9050000Y35900000D03*
%TD*%
%TO.C,Q2*%
X9050000Y26900000D03*
X9050000Y25600000D03*
X10950000Y26250000D03*
%TD*%
%TO.C,Q3*%
X10950000Y17250000D03*
X9050000Y16600000D03*
X9050000Y17900000D03*
%TD*%
%TO.C,Q4*%
X9050000Y8900000D03*
X9050000Y7600000D03*
X10950000Y8250000D03*
%TD*%
D22*
%TO.C,R1*%
X53800000Y40000000D03*
X52200000Y40000000D03*
%TD*%
%TO.C,R2*%
X52200000Y38250000D03*
X53800000Y38250000D03*
%TD*%
D23*
%TO.C,R3*%
X12250000Y40700000D03*
X12250000Y42300000D03*
%TD*%
D24*
%TO.C,SW1*%
X20250000Y30750000D03*
X13750000Y30750000D03*
X20250000Y35250000D03*
X13750000Y35250000D03*
%TD*%
%TO.C,SW2*%
X20250000Y21750000D03*
X13750000Y21750000D03*
X20250000Y26250000D03*
X13750000Y26250000D03*
%TD*%
%TO.C,SW3*%
X13750000Y17250000D03*
X20250000Y17250000D03*
X13750000Y12750000D03*
X20250000Y12750000D03*
%TD*%
%TO.C,SW4*%
X13750000Y8250000D03*
X20250000Y8250000D03*
X13750000Y3750000D03*
X20250000Y3750000D03*
%TD*%
%TO.C,SW5*%
X24750000Y35250000D03*
X31250000Y35250000D03*
X24750000Y30750000D03*
X31250000Y30750000D03*
%TD*%
%TO.C,SW6*%
X31250000Y21750000D03*
X24750000Y21750000D03*
X31250000Y26250000D03*
X24750000Y26250000D03*
%TD*%
%TO.C,SW7*%
X31250000Y12750000D03*
X24750000Y12750000D03*
X31250000Y17250000D03*
X24750000Y17250000D03*
%TD*%
%TO.C,SW8*%
X24750000Y8250000D03*
X31250000Y8250000D03*
X24750000Y3750000D03*
X31250000Y3750000D03*
%TD*%
%TO.C,SW9*%
X42250000Y30750000D03*
X35750000Y30750000D03*
X42250000Y35250000D03*
X35750000Y35250000D03*
%TD*%
%TO.C,SW10*%
X35750000Y26250000D03*
X42250000Y26250000D03*
X35750000Y21750000D03*
X42250000Y21750000D03*
%TD*%
%TO.C,SW11*%
X35750000Y17250000D03*
X42250000Y17250000D03*
X35750000Y12750000D03*
X42250000Y12750000D03*
%TD*%
%TO.C,SW12*%
X42250000Y3750000D03*
X35750000Y3750000D03*
X42250000Y8250000D03*
X35750000Y8250000D03*
%TD*%
%TO.C,SW13*%
X46750000Y35250000D03*
X53250000Y35250000D03*
X46750000Y30750000D03*
X53250000Y30750000D03*
%TD*%
%TO.C,SW14*%
X53250000Y21750000D03*
X46750000Y21750000D03*
X53250000Y26250000D03*
X46750000Y26250000D03*
%TD*%
%TO.C,SW15*%
X53250000Y12750000D03*
X46750000Y12750000D03*
X53250000Y17250000D03*
X46750000Y17250000D03*
%TD*%
%TO.C,SW16*%
X46750000Y8250000D03*
X53250000Y8250000D03*
X46750000Y3750000D03*
X53250000Y3750000D03*
%TD*%
%TO.C,SW17*%
X55750000Y49250000D03*
X62250000Y49250000D03*
X55750000Y44750000D03*
X62250000Y44750000D03*
%TD*%
D25*
%TO.C,SW18*%
X67460000Y49000000D03*
X70000000Y49000000D03*
X72540000Y49000000D03*
%TD*%
%TO.C,SW19*%
X84540000Y49000000D03*
X82000000Y49000000D03*
X79460000Y49000000D03*
%TD*%
D26*
%TO.C,VR1*%
X68125000Y40500000D03*
X71750000Y40500000D03*
X68250000Y5500000D03*
%TD*%
%TO.C,VR2*%
X80250000Y5500000D03*
X83750000Y40500000D03*
X80125000Y40500000D03*
%TD*%
D27*
%TO.C,H1*%
X3000000Y3000000D03*
%TD*%
%TO.C,H2*%
X92000000Y3000000D03*
%TD*%
%TO.C,H3*%
X3000000Y69000000D03*
%TD*%
D28*
X5873000Y4447394D02*
X5873000Y127000D01*
X127000Y127000D01*
X127000Y5873000D01*
X4447394Y5873000D01*
X5873000Y4447394D01*
D29*
G36*
X5873000Y4447394D02*
G01*
X5873000Y127000D01*
X127000Y127000D01*
X127000Y5873000D01*
X4447394Y5873000D01*
X5873000Y4447394D01*
G37*
D28*
X94873000Y127000D02*
X89127000Y127000D01*
X89127000Y4447394D01*
X90552606Y5873000D01*
X94873000Y5873000D01*
X94873000Y127000D01*
D29*
G36*
X94873000Y127000D02*
G01*
X89127000Y127000D01*
X89127000Y4447394D01*
X90552606Y5873000D01*
X94873000Y5873000D01*
X94873000Y127000D01*
G37*
D28*
X5873000Y67552606D02*
X4447394Y66127000D01*
X127000Y66127000D01*
X127000Y71873000D01*
X5873000Y71873000D01*
X5873000Y67552606D01*
D29*
G36*
X5873000Y67552606D02*
G01*
X4447394Y66127000D01*
X127000Y66127000D01*
X127000Y71873000D01*
X5873000Y71873000D01*
X5873000Y67552606D01*
G37*
M02*
