M48
; DRILL file {KiCad (6.0.11)} date Wed May 10 01:59:27 2023
; FORMAT={-:-/ absolute / metric / decimal}
; #@! TF.CreationDate,2023-05-10T01:59:27+09:00
; #@! TF.GenerationSoftware,Kicad,Pcbnew,(6.0.11)
; #@! TF.FileFunction,Plated,1,2,PTH
FMAT,2
METRIC
; #@! TA.AperFunction,Plated,PTH,ViaDrill
T1C0.300
; #@! TA.AperFunction,Plated,PTH,ComponentDrill
T2C0.350
; #@! TA.AperFunction,Plated,PTH,ViaDrill
T3C0.400
; #@! TA.AperFunction,Plated,PTH,ViaDrill
T4C0.500
; #@! TA.AperFunction,Plated,PTH,ViaDrill
T5C0.700
; #@! TA.AperFunction,Plated,PTH,ComponentDrill
T6C0.700
; #@! TA.AperFunction,Plated,PTH,ComponentDrill
T7C0.762
; #@! TA.AperFunction,Plated,PTH,ViaDrill
T8C0.800
; #@! TA.AperFunction,Plated,PTH,ComponentDrill
T9C0.800
; #@! TA.AperFunction,Plated,PTH,ComponentDrill
T10C0.900
; #@! TA.AperFunction,Plated,PTH,ComponentDrill
T11C1.000
; #@! TA.AperFunction,Plated,PTH,ComponentDrill
T12C1.001
; #@! TA.AperFunction,Plated,PTH,ComponentDrill
T13C1.300
; #@! TA.AperFunction,Plated,PTH,ComponentDrill
T14C2.300
%
G90
G05
T1
X127.5Y-109.0
X131.5Y-109.0
X137.0Y-107.75
X137.5Y-107.0
X139.0Y-107.5
X139.75Y-107.0
X144.0Y-96.25
X148.9Y-111.7
X149.75Y-111.5
X150.1Y-113.6
X152.005Y-119.245
X152.5Y-105.5
X153.0Y-104.75
X153.0Y-123.0
X153.75Y-106.5
X154.0Y-104.75
X155.25Y-102.75
X155.25Y-109.25
X155.25Y-124.0
X155.5Y-108.25
X156.25Y-119.25
X156.75Y-109.75
X157.0Y-105.5
X158.75Y-101.0
X158.75Y-102.0
X161.25Y-123.5
X166.0Y-126.0
X166.5Y-126.75
T2
X144.225Y-104.725
X144.225Y-106.0
X144.225Y-107.275
X145.5Y-104.725
X145.5Y-106.0
X145.5Y-107.275
X146.775Y-104.725
X146.775Y-106.0
X146.775Y-107.275
T3
X124.5Y-100.5
X124.75Y-99.25
X125.0Y-114.25
X125.5Y-111.0
X126.75Y-98.0
X127.0Y-96.25
X127.25Y-119.75
X129.75Y-95.0
X130.75Y-95.0
X132.25Y-111.5
X132.25Y-114.25
X132.5Y-106.75
X133.5Y-100.5
X134.25Y-105.5
X135.25Y-109.25
X137.25Y-118.5
X138.0Y-113.0
X138.05Y-102.0
X139.75Y-102.9
X140.9Y-113.0
X141.25Y-102.0
X145.1Y-97.0
X145.9Y-100.5
X148.0Y-94.5
X148.0Y-118.0
X149.5Y-110.0
X150.25Y-102.0
X150.5Y-97.0
X151.0Y-93.0
X151.0Y-107.4
X151.0Y-111.5
X151.25Y-95.75
X153.0Y-118.0
X153.5Y-84.75
X154.5Y-95.5
X154.75Y-99.75
X155.25Y-105.5
X157.0Y-108.75
X158.0Y-86.75
X158.0Y-99.75
X158.5Y-103.5
X159.0Y-135.5
X160.0Y-100.75
X160.25Y-135.5
X160.5Y-94.75
X160.5Y-98.25
X161.25Y-109.5
X161.25Y-110.5
X162.0Y-106.0
X162.0Y-107.0
X163.0Y-136.25
X163.25Y-83.5
X164.25Y-136.25
X164.75Y-85.75
X166.75Y-90.25
X166.75Y-93.0
X166.75Y-96.0
X167.5Y-122.0
X172.75Y-113.75
X172.75Y-115.75
X172.75Y-117.75
X175.25Y-113.75
X175.25Y-115.75
X175.25Y-117.75
X178.5Y-122.0
X182.75Y-113.75
X182.75Y-115.75
X182.75Y-117.75
X185.25Y-113.75
X185.25Y-115.75
X185.25Y-117.75
X193.5Y-133.25
T4
X121.5Y-103.25
X121.5Y-111.0
X121.5Y-131.25
X121.5Y-142.0
X122.75Y-145.5
X124.0Y-82.0
X124.0Y-82.0
X124.5Y-106.0
X125.5Y-140.0
X128.5Y-101.25
X131.25Y-105.5
X131.5Y-122.0
X131.5Y-132.0
X131.5Y-140.0
X133.0Y-88.0
X134.0Y-140.0
X136.5Y-140.0
X139.0Y-140.0
X139.75Y-95.75
X140.0Y-99.25
X141.25Y-99.25
X141.5Y-122.0
X141.5Y-132.0
X141.5Y-140.0
X144.0Y-140.0
X150.0Y-82.0
X150.0Y-85.75
X151.25Y-98.75
X152.0Y-88.0
X153.25Y-91.0
X154.25Y-126.0
X154.25Y-132.5
X154.25Y-138.5
X155.25Y-145.5
X155.5Y-72.0
X156.0Y-136.0
X156.25Y-97.0
X156.25Y-140.75
X156.52Y-79.48
X156.75Y-121.75
X157.5Y-97.0
X157.5Y-140.75
X161.0Y-126.0
X161.75Y-132.5
X162.25Y-121.0
X162.75Y-108.75
X164.75Y-88.5
X165.5Y-72.0
X165.5Y-82.0
X165.5Y-145.5
X165.75Y-136.0
X166.0Y-124.5
X166.25Y-84.0
X168.0Y-72.25
X168.0Y-81.5
X171.5Y-132.5
X171.5Y-136.0
X173.0Y-145.5
X178.0Y-132.5
X178.0Y-136.0
X180.5Y-138.5
X180.5Y-145.5
X181.25Y-72.0
X184.75Y-76.75
X185.25Y-135.5
X185.5Y-129.5
X187.25Y-128.25
X187.25Y-129.5
X188.75Y-135.5
X189.0Y-145.5
X192.0Y-108.25
X192.0Y-113.25
X192.0Y-118.0
X193.0Y-104.5
X193.5Y-126.0
X194.0Y-72.0
X195.25Y-113.25
X195.25Y-118.0
X195.75Y-104.5
X197.0Y-108.25
X197.5Y-126.25
X198.0Y-134.0
X198.5Y-113.5
X200.0Y-118.5
X201.5Y-72.0
X201.5Y-145.5
X207.5Y-135.0
X207.5Y-140.5
T5
X169.5Y-105.25
X169.5Y-107.25
X169.5Y-109.25
X169.5Y-111.25
X169.5Y-113.25
X169.5Y-115.25
X169.5Y-117.25
X171.75Y-107.25
X171.75Y-109.25
X171.75Y-111.25
X174.0Y-103.25
X174.0Y-105.25
X174.0Y-107.25
X174.0Y-109.25
X174.0Y-111.25
X176.25Y-107.25
X176.25Y-109.25
X176.25Y-111.25
X179.5Y-105.25
X179.5Y-107.25
X179.5Y-109.25
X179.5Y-111.25
X179.5Y-113.25
X179.5Y-115.25
X179.5Y-117.25
X181.75Y-107.25
X181.75Y-109.25
X181.75Y-111.25
X184.0Y-103.25
X184.0Y-105.25
X184.0Y-107.25
X184.0Y-109.25
X184.0Y-111.25
X186.25Y-107.25
X186.25Y-109.25
X186.25Y-111.25
T6
X169.0Y-86.0
X169.0Y-91.25
X171.0Y-86.0
X171.0Y-91.25
T7
X119.23Y-73.0
X121.77Y-73.0
X167.73Y-142.5
X170.27Y-142.5
X175.73Y-142.5
X178.27Y-142.5
X183.73Y-142.5
X186.27Y-142.5
T8
X190.0Y-93.5
X190.0Y-97.0
X193.5Y-93.5
X193.5Y-97.0
X197.5Y-93.5
X197.5Y-97.0
X201.0Y-93.5
X201.0Y-97.0
T9
X116.73Y-99.49
X116.73Y-102.03
X116.73Y-104.57
X116.73Y-107.11
X116.73Y-109.65
X116.73Y-112.19
X116.73Y-114.73
X116.73Y-117.27
X116.73Y-119.81
X116.73Y-122.35
X116.73Y-124.89
X116.73Y-127.43
X116.73Y-129.97
X116.73Y-132.51
X119.27Y-99.49
X119.27Y-102.03
X119.27Y-104.57
X119.27Y-107.11
X119.27Y-109.65
X119.27Y-112.19
X119.27Y-114.73
X119.27Y-117.27
X119.27Y-119.81
X119.27Y-122.35
X119.27Y-124.89
X119.27Y-127.43
X119.27Y-129.97
X119.27Y-132.51
X128.0Y-122.0
X128.0Y-124.0
X128.0Y-126.0
X128.0Y-128.0
X128.0Y-130.0
X128.0Y-132.0
X128.0Y-134.0
X128.0Y-136.0
X128.0Y-138.0
X128.0Y-140.0
X150.0Y-122.0
X150.0Y-124.0
X150.0Y-126.0
X150.0Y-128.0
X150.0Y-130.0
X150.0Y-132.0
X150.0Y-134.0
X150.0Y-136.0
X150.0Y-138.0
X150.0Y-140.0
X158.21Y-90.375
X159.75Y-79.71
X159.75Y-81.71
X160.75Y-90.375
X162.25Y-79.71
X162.25Y-81.71
X163.29Y-90.375
X180.0Y-87.25
X180.0Y-90.75
X201.75Y-86.5
X201.75Y-91.5
X203.73Y-99.49
X203.73Y-102.03
X203.73Y-104.57
X203.73Y-107.11
X203.73Y-109.65
X203.73Y-112.19
X203.73Y-114.73
X203.73Y-117.27
X203.73Y-119.81
X203.73Y-122.35
X203.73Y-124.89
X203.73Y-127.43
X203.73Y-129.97
X203.73Y-132.51
X206.27Y-99.49
X206.27Y-102.03
X206.27Y-104.57
X206.27Y-107.11
X206.27Y-109.65
X206.27Y-112.19
X206.27Y-114.73
X206.27Y-117.27
X206.27Y-119.81
X206.27Y-122.35
X206.27Y-124.89
X206.27Y-127.43
X206.27Y-129.97
X206.27Y-132.51
T10
X125.0Y-72.73
X125.0Y-75.27
X126.57Y-91.0
X129.11Y-91.0
X131.65Y-91.0
X134.19Y-91.0
X136.73Y-91.0
X139.27Y-91.0
X141.81Y-91.0
X144.35Y-91.0
X146.89Y-91.0
X149.43Y-91.0
X150.46Y-115.5
X151.0Y-72.73
X151.0Y-75.27
X153.0Y-115.5
X155.54Y-115.5
T11
X116.25Y-85.75
X116.25Y-92.25
X120.75Y-85.75
X120.75Y-92.25
X156.75Y-138.75
X156.75Y-143.25
X163.25Y-138.75
X163.25Y-143.25
X191.75Y-138.75
X191.75Y-143.25
X198.25Y-138.75
X198.25Y-143.25
T13
X171.71Y-73.4
X176.79Y-73.4
X183.46Y-73.4
X188.54Y-73.4
T14
X154.98Y-77.0
X167.02Y-77.0
T12
G00X193.051Y-76.201
M15
G01X193.051Y-78.2
M16
G05
G00X198.749Y-74.201
M15
G01X196.751Y-74.201
M16
G05
G00X198.749Y-80.2
M15
G01X196.751Y-80.2
M16
G05
T0
M30
