G04 #@! TF.GenerationSoftware,KiCad,Pcbnew,(6.0.11)*
G04 #@! TF.CreationDate,2023-05-10T01:59:27+09:00*
G04 #@! TF.ProjectId,RP2040CommandStation,52503230-3430-4436-9f6d-6d616e645374,rev?*
G04 #@! TF.SameCoordinates,PX6cb8080PY8d24d00*
G04 #@! TF.FileFunction,Legend,Top*
G04 #@! TF.FilePolarity,Positive*
%FSLAX46Y46*%
G04 Gerber Fmt 4.6, Leading zero omitted, Abs format (unit mm)*
G04 Created by KiCad (PCBNEW (6.0.11)) date 2023-05-10 01:59:27*
%MOMM*%
%LPD*%
G01*
G04 APERTURE LIST*
G04 Aperture macros list*
%AMRoundRect*
0 Rectangle with rounded corners*
0 $1 Rounding radius*
0 $2 $3 $4 $5 $6 $7 $8 $9 X,Y pos of 4 corners*
0 Add a 4 corners polygon primitive as box body*
4,1,4,$2,$3,$4,$5,$6,$7,$8,$9,$2,$3,0*
0 Add four circle primitives for the rounded corners*
1,1,$1+$1,$2,$3*
1,1,$1+$1,$4,$5*
1,1,$1+$1,$6,$7*
1,1,$1+$1,$8,$9*
0 Add four rect primitives between the rounded corners*
20,1,$1+$1,$2,$3,$4,$5,0*
20,1,$1+$1,$4,$5,$6,$7,0*
20,1,$1+$1,$6,$7,$8,$9,0*
20,1,$1+$1,$8,$9,$2,$3,0*%
G04 Aperture macros list end*
%ADD10C,0.100000*%
%ADD11C,0.200000*%
%ADD12C,0.320000*%
%ADD13C,0.180000*%
%ADD14C,0.350000*%
%ADD15C,0.330000*%
%ADD16C,0.300000*%
%ADD17C,0.140000*%
%ADD18C,0.150000*%
%ADD19C,0.203200*%
%ADD20C,0.120000*%
%ADD21C,0.381000*%
%ADD22C,0.250000*%
%ADD23C,2.000000*%
%ADD24R,0.900000X0.700000*%
%ADD25C,1.600000*%
%ADD26R,0.500000X0.550000*%
%ADD27C,1.400000*%
%ADD28R,1.600000X1.600000*%
%ADD29R,3.360000X4.860000*%
%ADD30R,1.390000X1.400000*%
%ADD31R,1.200000X0.850000*%
%ADD32C,1.524000*%
%ADD33C,7.000000*%
%ADD34R,3.500120X3.500120*%
%ADD35R,2.200000X3.600000*%
%ADD36C,2.500000*%
%ADD37C,2.700000*%
%ADD38R,1.000000X0.800000*%
%ADD39R,0.800000X1.000000*%
%ADD40R,1.500000X3.200000*%
%ADD41R,0.700000X0.900000*%
%ADD42C,1.700000*%
%ADD43R,1.400000X1.400000*%
%ADD44R,1.000000X0.700000*%
%ADD45R,1.400000X1.100000*%
%ADD46R,0.800000X1.300000*%
%ADD47RoundRect,0.050000X-0.387500X-0.050000X0.387500X-0.050000X0.387500X0.050000X-0.387500X0.050000X0*%
%ADD48RoundRect,0.050000X-0.050000X-0.387500X0.050000X-0.387500X0.050000X0.387500X-0.050000X0.387500X0*%
%ADD49RoundRect,0.144000X-1.456000X-1.456000X1.456000X-1.456000X1.456000X1.456000X-1.456000X1.456000X0*%
%ADD50R,0.550000X0.500000*%
%ADD51R,0.400000X1.900000*%
%ADD52R,0.850000X1.200000*%
%ADD53R,1.600000X3.000000*%
%ADD54R,6.000000X6.000000*%
%ADD55R,1.300000X0.800000*%
G04 APERTURE END LIST*
D10*
G36*
X208500000Y-103250000D02*
G01*
X205000000Y-103250000D01*
X205000000Y-95750000D01*
X208500000Y-95750000D01*
X208500000Y-103250000D01*
G37*
X208500000Y-103250000D02*
X205000000Y-103250000D01*
X205000000Y-95750000D01*
X208500000Y-95750000D01*
X208500000Y-103250000D01*
D11*
X121891904Y-129500000D02*
X121796666Y-129452380D01*
X121653809Y-129452380D01*
X121510952Y-129500000D01*
X121415714Y-129595238D01*
X121368095Y-129690476D01*
X121320476Y-129880952D01*
X121320476Y-130023809D01*
X121368095Y-130214285D01*
X121415714Y-130309523D01*
X121510952Y-130404761D01*
X121653809Y-130452380D01*
X121749047Y-130452380D01*
X121891904Y-130404761D01*
X121939523Y-130357142D01*
X121939523Y-130023809D01*
X121749047Y-130023809D01*
X122368095Y-130452380D02*
X122368095Y-129452380D01*
X122749047Y-129452380D01*
X122844285Y-129500000D01*
X122891904Y-129547619D01*
X122939523Y-129642857D01*
X122939523Y-129785714D01*
X122891904Y-129880952D01*
X122844285Y-129928571D01*
X122749047Y-129976190D01*
X122368095Y-129976190D01*
X123891904Y-130452380D02*
X123320476Y-130452380D01*
X123606190Y-130452380D02*
X123606190Y-129452380D01*
X123510952Y-129595238D01*
X123415714Y-129690476D01*
X123320476Y-129738095D01*
X124749047Y-129785714D02*
X124749047Y-130452380D01*
X124510952Y-129404761D02*
X124272857Y-130119047D01*
X124891904Y-130119047D01*
X121891904Y-127000000D02*
X121796666Y-126952380D01*
X121653809Y-126952380D01*
X121510952Y-127000000D01*
X121415714Y-127095238D01*
X121368095Y-127190476D01*
X121320476Y-127380952D01*
X121320476Y-127523809D01*
X121368095Y-127714285D01*
X121415714Y-127809523D01*
X121510952Y-127904761D01*
X121653809Y-127952380D01*
X121749047Y-127952380D01*
X121891904Y-127904761D01*
X121939523Y-127857142D01*
X121939523Y-127523809D01*
X121749047Y-127523809D01*
X122368095Y-127952380D02*
X122368095Y-126952380D01*
X122749047Y-126952380D01*
X122844285Y-127000000D01*
X122891904Y-127047619D01*
X122939523Y-127142857D01*
X122939523Y-127285714D01*
X122891904Y-127380952D01*
X122844285Y-127428571D01*
X122749047Y-127476190D01*
X122368095Y-127476190D01*
X123891904Y-127952380D02*
X123320476Y-127952380D01*
X123606190Y-127952380D02*
X123606190Y-126952380D01*
X123510952Y-127095238D01*
X123415714Y-127190476D01*
X123320476Y-127238095D01*
X124225238Y-126952380D02*
X124844285Y-126952380D01*
X124510952Y-127333333D01*
X124653809Y-127333333D01*
X124749047Y-127380952D01*
X124796666Y-127428571D01*
X124844285Y-127523809D01*
X124844285Y-127761904D01*
X124796666Y-127857142D01*
X124749047Y-127904761D01*
X124653809Y-127952380D01*
X124368095Y-127952380D01*
X124272857Y-127904761D01*
X124225238Y-127857142D01*
X121891904Y-124500000D02*
X121796666Y-124452380D01*
X121653809Y-124452380D01*
X121510952Y-124500000D01*
X121415714Y-124595238D01*
X121368095Y-124690476D01*
X121320476Y-124880952D01*
X121320476Y-125023809D01*
X121368095Y-125214285D01*
X121415714Y-125309523D01*
X121510952Y-125404761D01*
X121653809Y-125452380D01*
X121749047Y-125452380D01*
X121891904Y-125404761D01*
X121939523Y-125357142D01*
X121939523Y-125023809D01*
X121749047Y-125023809D01*
X122368095Y-125452380D02*
X122368095Y-124452380D01*
X122749047Y-124452380D01*
X122844285Y-124500000D01*
X122891904Y-124547619D01*
X122939523Y-124642857D01*
X122939523Y-124785714D01*
X122891904Y-124880952D01*
X122844285Y-124928571D01*
X122749047Y-124976190D01*
X122368095Y-124976190D01*
X123891904Y-125452380D02*
X123320476Y-125452380D01*
X123606190Y-125452380D02*
X123606190Y-124452380D01*
X123510952Y-124595238D01*
X123415714Y-124690476D01*
X123320476Y-124738095D01*
X124272857Y-124547619D02*
X124320476Y-124500000D01*
X124415714Y-124452380D01*
X124653809Y-124452380D01*
X124749047Y-124500000D01*
X124796666Y-124547619D01*
X124844285Y-124642857D01*
X124844285Y-124738095D01*
X124796666Y-124880952D01*
X124225238Y-125452380D01*
X124844285Y-125452380D01*
X121891904Y-122000000D02*
X121796666Y-121952380D01*
X121653809Y-121952380D01*
X121510952Y-122000000D01*
X121415714Y-122095238D01*
X121368095Y-122190476D01*
X121320476Y-122380952D01*
X121320476Y-122523809D01*
X121368095Y-122714285D01*
X121415714Y-122809523D01*
X121510952Y-122904761D01*
X121653809Y-122952380D01*
X121749047Y-122952380D01*
X121891904Y-122904761D01*
X121939523Y-122857142D01*
X121939523Y-122523809D01*
X121749047Y-122523809D01*
X122368095Y-122952380D02*
X122368095Y-121952380D01*
X122749047Y-121952380D01*
X122844285Y-122000000D01*
X122891904Y-122047619D01*
X122939523Y-122142857D01*
X122939523Y-122285714D01*
X122891904Y-122380952D01*
X122844285Y-122428571D01*
X122749047Y-122476190D01*
X122368095Y-122476190D01*
X123891904Y-122952380D02*
X123320476Y-122952380D01*
X123606190Y-122952380D02*
X123606190Y-121952380D01*
X123510952Y-122095238D01*
X123415714Y-122190476D01*
X123320476Y-122238095D01*
X124844285Y-122952380D02*
X124272857Y-122952380D01*
X124558571Y-122952380D02*
X124558571Y-121952380D01*
X124463333Y-122095238D01*
X124368095Y-122190476D01*
X124272857Y-122238095D01*
X121891904Y-119500000D02*
X121796666Y-119452380D01*
X121653809Y-119452380D01*
X121510952Y-119500000D01*
X121415714Y-119595238D01*
X121368095Y-119690476D01*
X121320476Y-119880952D01*
X121320476Y-120023809D01*
X121368095Y-120214285D01*
X121415714Y-120309523D01*
X121510952Y-120404761D01*
X121653809Y-120452380D01*
X121749047Y-120452380D01*
X121891904Y-120404761D01*
X121939523Y-120357142D01*
X121939523Y-120023809D01*
X121749047Y-120023809D01*
X122368095Y-120452380D02*
X122368095Y-119452380D01*
X122749047Y-119452380D01*
X122844285Y-119500000D01*
X122891904Y-119547619D01*
X122939523Y-119642857D01*
X122939523Y-119785714D01*
X122891904Y-119880952D01*
X122844285Y-119928571D01*
X122749047Y-119976190D01*
X122368095Y-119976190D01*
X123891904Y-120452380D02*
X123320476Y-120452380D01*
X123606190Y-120452380D02*
X123606190Y-119452380D01*
X123510952Y-119595238D01*
X123415714Y-119690476D01*
X123320476Y-119738095D01*
X124510952Y-119452380D02*
X124606190Y-119452380D01*
X124701428Y-119500000D01*
X124749047Y-119547619D01*
X124796666Y-119642857D01*
X124844285Y-119833333D01*
X124844285Y-120071428D01*
X124796666Y-120261904D01*
X124749047Y-120357142D01*
X124701428Y-120404761D01*
X124606190Y-120452380D01*
X124510952Y-120452380D01*
X124415714Y-120404761D01*
X124368095Y-120357142D01*
X124320476Y-120261904D01*
X124272857Y-120071428D01*
X124272857Y-119833333D01*
X124320476Y-119642857D01*
X124368095Y-119547619D01*
X124415714Y-119500000D01*
X124510952Y-119452380D01*
X121891904Y-116750000D02*
X121796666Y-116702380D01*
X121653809Y-116702380D01*
X121510952Y-116750000D01*
X121415714Y-116845238D01*
X121368095Y-116940476D01*
X121320476Y-117130952D01*
X121320476Y-117273809D01*
X121368095Y-117464285D01*
X121415714Y-117559523D01*
X121510952Y-117654761D01*
X121653809Y-117702380D01*
X121749047Y-117702380D01*
X121891904Y-117654761D01*
X121939523Y-117607142D01*
X121939523Y-117273809D01*
X121749047Y-117273809D01*
X122368095Y-117702380D02*
X122368095Y-116702380D01*
X122749047Y-116702380D01*
X122844285Y-116750000D01*
X122891904Y-116797619D01*
X122939523Y-116892857D01*
X122939523Y-117035714D01*
X122891904Y-117130952D01*
X122844285Y-117178571D01*
X122749047Y-117226190D01*
X122368095Y-117226190D01*
X123415714Y-117702380D02*
X123606190Y-117702380D01*
X123701428Y-117654761D01*
X123749047Y-117607142D01*
X123844285Y-117464285D01*
X123891904Y-117273809D01*
X123891904Y-116892857D01*
X123844285Y-116797619D01*
X123796666Y-116750000D01*
X123701428Y-116702380D01*
X123510952Y-116702380D01*
X123415714Y-116750000D01*
X123368095Y-116797619D01*
X123320476Y-116892857D01*
X123320476Y-117130952D01*
X123368095Y-117226190D01*
X123415714Y-117273809D01*
X123510952Y-117321428D01*
X123701428Y-117321428D01*
X123796666Y-117273809D01*
X123844285Y-117226190D01*
X123891904Y-117130952D01*
X121891904Y-114250000D02*
X121796666Y-114202380D01*
X121653809Y-114202380D01*
X121510952Y-114250000D01*
X121415714Y-114345238D01*
X121368095Y-114440476D01*
X121320476Y-114630952D01*
X121320476Y-114773809D01*
X121368095Y-114964285D01*
X121415714Y-115059523D01*
X121510952Y-115154761D01*
X121653809Y-115202380D01*
X121749047Y-115202380D01*
X121891904Y-115154761D01*
X121939523Y-115107142D01*
X121939523Y-114773809D01*
X121749047Y-114773809D01*
X122368095Y-115202380D02*
X122368095Y-114202380D01*
X122749047Y-114202380D01*
X122844285Y-114250000D01*
X122891904Y-114297619D01*
X122939523Y-114392857D01*
X122939523Y-114535714D01*
X122891904Y-114630952D01*
X122844285Y-114678571D01*
X122749047Y-114726190D01*
X122368095Y-114726190D01*
X123510952Y-114630952D02*
X123415714Y-114583333D01*
X123368095Y-114535714D01*
X123320476Y-114440476D01*
X123320476Y-114392857D01*
X123368095Y-114297619D01*
X123415714Y-114250000D01*
X123510952Y-114202380D01*
X123701428Y-114202380D01*
X123796666Y-114250000D01*
X123844285Y-114297619D01*
X123891904Y-114392857D01*
X123891904Y-114440476D01*
X123844285Y-114535714D01*
X123796666Y-114583333D01*
X123701428Y-114630952D01*
X123510952Y-114630952D01*
X123415714Y-114678571D01*
X123368095Y-114726190D01*
X123320476Y-114821428D01*
X123320476Y-115011904D01*
X123368095Y-115107142D01*
X123415714Y-115154761D01*
X123510952Y-115202380D01*
X123701428Y-115202380D01*
X123796666Y-115154761D01*
X123844285Y-115107142D01*
X123891904Y-115011904D01*
X123891904Y-114821428D01*
X123844285Y-114726190D01*
X123796666Y-114678571D01*
X123701428Y-114630952D01*
X121891904Y-111750000D02*
X121796666Y-111702380D01*
X121653809Y-111702380D01*
X121510952Y-111750000D01*
X121415714Y-111845238D01*
X121368095Y-111940476D01*
X121320476Y-112130952D01*
X121320476Y-112273809D01*
X121368095Y-112464285D01*
X121415714Y-112559523D01*
X121510952Y-112654761D01*
X121653809Y-112702380D01*
X121749047Y-112702380D01*
X121891904Y-112654761D01*
X121939523Y-112607142D01*
X121939523Y-112273809D01*
X121749047Y-112273809D01*
X122368095Y-112702380D02*
X122368095Y-111702380D01*
X122939523Y-112702380D01*
X122939523Y-111702380D01*
X123415714Y-112702380D02*
X123415714Y-111702380D01*
X123653809Y-111702380D01*
X123796666Y-111750000D01*
X123891904Y-111845238D01*
X123939523Y-111940476D01*
X123987142Y-112130952D01*
X123987142Y-112273809D01*
X123939523Y-112464285D01*
X123891904Y-112559523D01*
X123796666Y-112654761D01*
X123653809Y-112702380D01*
X123415714Y-112702380D01*
X121891904Y-109250000D02*
X121796666Y-109202380D01*
X121653809Y-109202380D01*
X121510952Y-109250000D01*
X121415714Y-109345238D01*
X121368095Y-109440476D01*
X121320476Y-109630952D01*
X121320476Y-109773809D01*
X121368095Y-109964285D01*
X121415714Y-110059523D01*
X121510952Y-110154761D01*
X121653809Y-110202380D01*
X121749047Y-110202380D01*
X121891904Y-110154761D01*
X121939523Y-110107142D01*
X121939523Y-109773809D01*
X121749047Y-109773809D01*
X122368095Y-110202380D02*
X122368095Y-109202380D01*
X122749047Y-109202380D01*
X122844285Y-109250000D01*
X122891904Y-109297619D01*
X122939523Y-109392857D01*
X122939523Y-109535714D01*
X122891904Y-109630952D01*
X122844285Y-109678571D01*
X122749047Y-109726190D01*
X122368095Y-109726190D01*
X123272857Y-109202380D02*
X123891904Y-109202380D01*
X123558571Y-109583333D01*
X123701428Y-109583333D01*
X123796666Y-109630952D01*
X123844285Y-109678571D01*
X123891904Y-109773809D01*
X123891904Y-110011904D01*
X123844285Y-110107142D01*
X123796666Y-110154761D01*
X123701428Y-110202380D01*
X123415714Y-110202380D01*
X123320476Y-110154761D01*
X123272857Y-110107142D01*
X125034761Y-110154761D02*
X125177619Y-110202380D01*
X125415714Y-110202380D01*
X125510952Y-110154761D01*
X125558571Y-110107142D01*
X125606190Y-110011904D01*
X125606190Y-109916666D01*
X125558571Y-109821428D01*
X125510952Y-109773809D01*
X125415714Y-109726190D01*
X125225238Y-109678571D01*
X125130000Y-109630952D01*
X125082380Y-109583333D01*
X125034761Y-109488095D01*
X125034761Y-109392857D01*
X125082380Y-109297619D01*
X125130000Y-109250000D01*
X125225238Y-109202380D01*
X125463333Y-109202380D01*
X125606190Y-109250000D01*
X126606190Y-110107142D02*
X126558571Y-110154761D01*
X126415714Y-110202380D01*
X126320476Y-110202380D01*
X126177619Y-110154761D01*
X126082380Y-110059523D01*
X126034761Y-109964285D01*
X125987142Y-109773809D01*
X125987142Y-109630952D01*
X126034761Y-109440476D01*
X126082380Y-109345238D01*
X126177619Y-109250000D01*
X126320476Y-109202380D01*
X126415714Y-109202380D01*
X126558571Y-109250000D01*
X126606190Y-109297619D01*
X127510952Y-110202380D02*
X127034761Y-110202380D01*
X127034761Y-109202380D01*
X121891904Y-106750000D02*
X121796666Y-106702380D01*
X121653809Y-106702380D01*
X121510952Y-106750000D01*
X121415714Y-106845238D01*
X121368095Y-106940476D01*
X121320476Y-107130952D01*
X121320476Y-107273809D01*
X121368095Y-107464285D01*
X121415714Y-107559523D01*
X121510952Y-107654761D01*
X121653809Y-107702380D01*
X121749047Y-107702380D01*
X121891904Y-107654761D01*
X121939523Y-107607142D01*
X121939523Y-107273809D01*
X121749047Y-107273809D01*
X122368095Y-107702380D02*
X122368095Y-106702380D01*
X122749047Y-106702380D01*
X122844285Y-106750000D01*
X122891904Y-106797619D01*
X122939523Y-106892857D01*
X122939523Y-107035714D01*
X122891904Y-107130952D01*
X122844285Y-107178571D01*
X122749047Y-107226190D01*
X122368095Y-107226190D01*
X123320476Y-106797619D02*
X123368095Y-106750000D01*
X123463333Y-106702380D01*
X123701428Y-106702380D01*
X123796666Y-106750000D01*
X123844285Y-106797619D01*
X123891904Y-106892857D01*
X123891904Y-106988095D01*
X123844285Y-107130952D01*
X123272857Y-107702380D01*
X123891904Y-107702380D01*
X125034761Y-107654761D02*
X125177619Y-107702380D01*
X125415714Y-107702380D01*
X125510952Y-107654761D01*
X125558571Y-107607142D01*
X125606190Y-107511904D01*
X125606190Y-107416666D01*
X125558571Y-107321428D01*
X125510952Y-107273809D01*
X125415714Y-107226190D01*
X125225238Y-107178571D01*
X125130000Y-107130952D01*
X125082380Y-107083333D01*
X125034761Y-106988095D01*
X125034761Y-106892857D01*
X125082380Y-106797619D01*
X125130000Y-106750000D01*
X125225238Y-106702380D01*
X125463333Y-106702380D01*
X125606190Y-106750000D01*
X126034761Y-107702380D02*
X126034761Y-106702380D01*
X126272857Y-106702380D01*
X126415714Y-106750000D01*
X126510952Y-106845238D01*
X126558571Y-106940476D01*
X126606190Y-107130952D01*
X126606190Y-107273809D01*
X126558571Y-107464285D01*
X126510952Y-107559523D01*
X126415714Y-107654761D01*
X126272857Y-107702380D01*
X126034761Y-107702380D01*
X126987142Y-107416666D02*
X127463333Y-107416666D01*
X126891904Y-107702380D02*
X127225238Y-106702380D01*
X127558571Y-107702380D01*
X121891904Y-104250000D02*
X121796666Y-104202380D01*
X121653809Y-104202380D01*
X121510952Y-104250000D01*
X121415714Y-104345238D01*
X121368095Y-104440476D01*
X121320476Y-104630952D01*
X121320476Y-104773809D01*
X121368095Y-104964285D01*
X121415714Y-105059523D01*
X121510952Y-105154761D01*
X121653809Y-105202380D01*
X121749047Y-105202380D01*
X121891904Y-105154761D01*
X121939523Y-105107142D01*
X121939523Y-104773809D01*
X121749047Y-104773809D01*
X122368095Y-105202380D02*
X122368095Y-104202380D01*
X122749047Y-104202380D01*
X122844285Y-104250000D01*
X122891904Y-104297619D01*
X122939523Y-104392857D01*
X122939523Y-104535714D01*
X122891904Y-104630952D01*
X122844285Y-104678571D01*
X122749047Y-104726190D01*
X122368095Y-104726190D01*
X123891904Y-105202380D02*
X123320476Y-105202380D01*
X123606190Y-105202380D02*
X123606190Y-104202380D01*
X123510952Y-104345238D01*
X123415714Y-104440476D01*
X123320476Y-104488095D01*
X121891904Y-101500000D02*
X121796666Y-101452380D01*
X121653809Y-101452380D01*
X121510952Y-101500000D01*
X121415714Y-101595238D01*
X121368095Y-101690476D01*
X121320476Y-101880952D01*
X121320476Y-102023809D01*
X121368095Y-102214285D01*
X121415714Y-102309523D01*
X121510952Y-102404761D01*
X121653809Y-102452380D01*
X121749047Y-102452380D01*
X121891904Y-102404761D01*
X121939523Y-102357142D01*
X121939523Y-102023809D01*
X121749047Y-102023809D01*
X122368095Y-102452380D02*
X122368095Y-101452380D01*
X122939523Y-102452380D01*
X122939523Y-101452380D01*
X123415714Y-102452380D02*
X123415714Y-101452380D01*
X123653809Y-101452380D01*
X123796666Y-101500000D01*
X123891904Y-101595238D01*
X123939523Y-101690476D01*
X123987142Y-101880952D01*
X123987142Y-102023809D01*
X123939523Y-102214285D01*
X123891904Y-102309523D01*
X123796666Y-102404761D01*
X123653809Y-102452380D01*
X123415714Y-102452380D01*
X121272857Y-98952380D02*
X121891904Y-98952380D01*
X121558571Y-99333333D01*
X121701428Y-99333333D01*
X121796666Y-99380952D01*
X121844285Y-99428571D01*
X121891904Y-99523809D01*
X121891904Y-99761904D01*
X121844285Y-99857142D01*
X121796666Y-99904761D01*
X121701428Y-99952380D01*
X121415714Y-99952380D01*
X121320476Y-99904761D01*
X121272857Y-99857142D01*
X122177619Y-98952380D02*
X122510952Y-99952380D01*
X122844285Y-98952380D01*
X123082380Y-98952380D02*
X123701428Y-98952380D01*
X123368095Y-99333333D01*
X123510952Y-99333333D01*
X123606190Y-99380952D01*
X123653809Y-99428571D01*
X123701428Y-99523809D01*
X123701428Y-99761904D01*
X123653809Y-99857142D01*
X123606190Y-99904761D01*
X123510952Y-99952380D01*
X123225238Y-99952380D01*
X123130000Y-99904761D01*
X123082380Y-99857142D01*
X198727142Y-132000000D02*
X198631904Y-131952380D01*
X198489047Y-131952380D01*
X198346190Y-132000000D01*
X198250952Y-132095238D01*
X198203333Y-132190476D01*
X198155714Y-132380952D01*
X198155714Y-132523809D01*
X198203333Y-132714285D01*
X198250952Y-132809523D01*
X198346190Y-132904761D01*
X198489047Y-132952380D01*
X198584285Y-132952380D01*
X198727142Y-132904761D01*
X198774761Y-132857142D01*
X198774761Y-132523809D01*
X198584285Y-132523809D01*
X199203333Y-132952380D02*
X199203333Y-131952380D01*
X199584285Y-131952380D01*
X199679523Y-132000000D01*
X199727142Y-132047619D01*
X199774761Y-132142857D01*
X199774761Y-132285714D01*
X199727142Y-132380952D01*
X199679523Y-132428571D01*
X199584285Y-132476190D01*
X199203333Y-132476190D01*
X200155714Y-132047619D02*
X200203333Y-132000000D01*
X200298571Y-131952380D01*
X200536666Y-131952380D01*
X200631904Y-132000000D01*
X200679523Y-132047619D01*
X200727142Y-132142857D01*
X200727142Y-132238095D01*
X200679523Y-132380952D01*
X200108095Y-132952380D01*
X200727142Y-132952380D01*
X201631904Y-131952380D02*
X201155714Y-131952380D01*
X201108095Y-132428571D01*
X201155714Y-132380952D01*
X201250952Y-132333333D01*
X201489047Y-132333333D01*
X201584285Y-132380952D01*
X201631904Y-132428571D01*
X201679523Y-132523809D01*
X201679523Y-132761904D01*
X201631904Y-132857142D01*
X201584285Y-132904761D01*
X201489047Y-132952380D01*
X201250952Y-132952380D01*
X201155714Y-132904761D01*
X201108095Y-132857142D01*
X198108095Y-129928571D02*
X197774761Y-129928571D01*
X197774761Y-130452380D02*
X197774761Y-129452380D01*
X198250952Y-129452380D01*
X198393809Y-130547619D02*
X199155714Y-130547619D01*
X199870000Y-130452380D02*
X199393809Y-130452380D01*
X199393809Y-129452380D01*
X200203333Y-129928571D02*
X200536666Y-129928571D01*
X200679523Y-130452380D02*
X200203333Y-130452380D01*
X200203333Y-129452380D01*
X200679523Y-129452380D01*
X201108095Y-130452380D02*
X201108095Y-129452380D01*
X201346190Y-129452380D01*
X201489047Y-129500000D01*
X201584285Y-129595238D01*
X201631904Y-129690476D01*
X201679523Y-129880952D01*
X201679523Y-130023809D01*
X201631904Y-130214285D01*
X201584285Y-130309523D01*
X201489047Y-130404761D01*
X201346190Y-130452380D01*
X201108095Y-130452380D01*
X197631904Y-127952380D02*
X197631904Y-126952380D01*
X198012857Y-126952380D01*
X198108095Y-127000000D01*
X198155714Y-127047619D01*
X198203333Y-127142857D01*
X198203333Y-127285714D01*
X198155714Y-127380952D01*
X198108095Y-127428571D01*
X198012857Y-127476190D01*
X197631904Y-127476190D01*
X198393809Y-128047619D02*
X199155714Y-128047619D01*
X199870000Y-127952380D02*
X199393809Y-127952380D01*
X199393809Y-126952380D01*
X200203333Y-127428571D02*
X200536666Y-127428571D01*
X200679523Y-127952380D02*
X200203333Y-127952380D01*
X200203333Y-126952380D01*
X200679523Y-126952380D01*
X201108095Y-127952380D02*
X201108095Y-126952380D01*
X201346190Y-126952380D01*
X201489047Y-127000000D01*
X201584285Y-127095238D01*
X201631904Y-127190476D01*
X201679523Y-127380952D01*
X201679523Y-127523809D01*
X201631904Y-127714285D01*
X201584285Y-127809523D01*
X201489047Y-127904761D01*
X201346190Y-127952380D01*
X201108095Y-127952380D01*
X198727142Y-124500000D02*
X198631904Y-124452380D01*
X198489047Y-124452380D01*
X198346190Y-124500000D01*
X198250952Y-124595238D01*
X198203333Y-124690476D01*
X198155714Y-124880952D01*
X198155714Y-125023809D01*
X198203333Y-125214285D01*
X198250952Y-125309523D01*
X198346190Y-125404761D01*
X198489047Y-125452380D01*
X198584285Y-125452380D01*
X198727142Y-125404761D01*
X198774761Y-125357142D01*
X198774761Y-125023809D01*
X198584285Y-125023809D01*
X199203333Y-125452380D02*
X199203333Y-124452380D01*
X199584285Y-124452380D01*
X199679523Y-124500000D01*
X199727142Y-124547619D01*
X199774761Y-124642857D01*
X199774761Y-124785714D01*
X199727142Y-124880952D01*
X199679523Y-124928571D01*
X199584285Y-124976190D01*
X199203333Y-124976190D01*
X200155714Y-124547619D02*
X200203333Y-124500000D01*
X200298571Y-124452380D01*
X200536666Y-124452380D01*
X200631904Y-124500000D01*
X200679523Y-124547619D01*
X200727142Y-124642857D01*
X200727142Y-124738095D01*
X200679523Y-124880952D01*
X200108095Y-125452380D01*
X200727142Y-125452380D01*
X201346190Y-124452380D02*
X201441428Y-124452380D01*
X201536666Y-124500000D01*
X201584285Y-124547619D01*
X201631904Y-124642857D01*
X201679523Y-124833333D01*
X201679523Y-125071428D01*
X201631904Y-125261904D01*
X201584285Y-125357142D01*
X201536666Y-125404761D01*
X201441428Y-125452380D01*
X201346190Y-125452380D01*
X201250952Y-125404761D01*
X201203333Y-125357142D01*
X201155714Y-125261904D01*
X201108095Y-125071428D01*
X201108095Y-124833333D01*
X201155714Y-124642857D01*
X201203333Y-124547619D01*
X201250952Y-124500000D01*
X201346190Y-124452380D01*
X198727142Y-122000000D02*
X198631904Y-121952380D01*
X198489047Y-121952380D01*
X198346190Y-122000000D01*
X198250952Y-122095238D01*
X198203333Y-122190476D01*
X198155714Y-122380952D01*
X198155714Y-122523809D01*
X198203333Y-122714285D01*
X198250952Y-122809523D01*
X198346190Y-122904761D01*
X198489047Y-122952380D01*
X198584285Y-122952380D01*
X198727142Y-122904761D01*
X198774761Y-122857142D01*
X198774761Y-122523809D01*
X198584285Y-122523809D01*
X199203333Y-122952380D02*
X199203333Y-121952380D01*
X199584285Y-121952380D01*
X199679523Y-122000000D01*
X199727142Y-122047619D01*
X199774761Y-122142857D01*
X199774761Y-122285714D01*
X199727142Y-122380952D01*
X199679523Y-122428571D01*
X199584285Y-122476190D01*
X199203333Y-122476190D01*
X200155714Y-122047619D02*
X200203333Y-122000000D01*
X200298571Y-121952380D01*
X200536666Y-121952380D01*
X200631904Y-122000000D01*
X200679523Y-122047619D01*
X200727142Y-122142857D01*
X200727142Y-122238095D01*
X200679523Y-122380952D01*
X200108095Y-122952380D01*
X200727142Y-122952380D01*
X201679523Y-122952380D02*
X201108095Y-122952380D01*
X201393809Y-122952380D02*
X201393809Y-121952380D01*
X201298571Y-122095238D01*
X201203333Y-122190476D01*
X201108095Y-122238095D01*
X198727142Y-119500000D02*
X198631904Y-119452380D01*
X198489047Y-119452380D01*
X198346190Y-119500000D01*
X198250952Y-119595238D01*
X198203333Y-119690476D01*
X198155714Y-119880952D01*
X198155714Y-120023809D01*
X198203333Y-120214285D01*
X198250952Y-120309523D01*
X198346190Y-120404761D01*
X198489047Y-120452380D01*
X198584285Y-120452380D01*
X198727142Y-120404761D01*
X198774761Y-120357142D01*
X198774761Y-120023809D01*
X198584285Y-120023809D01*
X199203333Y-120452380D02*
X199203333Y-119452380D01*
X199584285Y-119452380D01*
X199679523Y-119500000D01*
X199727142Y-119547619D01*
X199774761Y-119642857D01*
X199774761Y-119785714D01*
X199727142Y-119880952D01*
X199679523Y-119928571D01*
X199584285Y-119976190D01*
X199203333Y-119976190D01*
X200155714Y-119547619D02*
X200203333Y-119500000D01*
X200298571Y-119452380D01*
X200536666Y-119452380D01*
X200631904Y-119500000D01*
X200679523Y-119547619D01*
X200727142Y-119642857D01*
X200727142Y-119738095D01*
X200679523Y-119880952D01*
X200108095Y-120452380D01*
X200727142Y-120452380D01*
X201108095Y-119547619D02*
X201155714Y-119500000D01*
X201250952Y-119452380D01*
X201489047Y-119452380D01*
X201584285Y-119500000D01*
X201631904Y-119547619D01*
X201679523Y-119642857D01*
X201679523Y-119738095D01*
X201631904Y-119880952D01*
X201060476Y-120452380D01*
X201679523Y-120452380D01*
X198727142Y-116750000D02*
X198631904Y-116702380D01*
X198489047Y-116702380D01*
X198346190Y-116750000D01*
X198250952Y-116845238D01*
X198203333Y-116940476D01*
X198155714Y-117130952D01*
X198155714Y-117273809D01*
X198203333Y-117464285D01*
X198250952Y-117559523D01*
X198346190Y-117654761D01*
X198489047Y-117702380D01*
X198584285Y-117702380D01*
X198727142Y-117654761D01*
X198774761Y-117607142D01*
X198774761Y-117273809D01*
X198584285Y-117273809D01*
X199203333Y-117702380D02*
X199203333Y-116702380D01*
X199584285Y-116702380D01*
X199679523Y-116750000D01*
X199727142Y-116797619D01*
X199774761Y-116892857D01*
X199774761Y-117035714D01*
X199727142Y-117130952D01*
X199679523Y-117178571D01*
X199584285Y-117226190D01*
X199203333Y-117226190D01*
X200155714Y-116797619D02*
X200203333Y-116750000D01*
X200298571Y-116702380D01*
X200536666Y-116702380D01*
X200631904Y-116750000D01*
X200679523Y-116797619D01*
X200727142Y-116892857D01*
X200727142Y-116988095D01*
X200679523Y-117130952D01*
X200108095Y-117702380D01*
X200727142Y-117702380D01*
X201060476Y-116702380D02*
X201679523Y-116702380D01*
X201346190Y-117083333D01*
X201489047Y-117083333D01*
X201584285Y-117130952D01*
X201631904Y-117178571D01*
X201679523Y-117273809D01*
X201679523Y-117511904D01*
X201631904Y-117607142D01*
X201584285Y-117654761D01*
X201489047Y-117702380D01*
X201203333Y-117702380D01*
X201108095Y-117654761D01*
X201060476Y-117607142D01*
X198727142Y-114250000D02*
X198631904Y-114202380D01*
X198489047Y-114202380D01*
X198346190Y-114250000D01*
X198250952Y-114345238D01*
X198203333Y-114440476D01*
X198155714Y-114630952D01*
X198155714Y-114773809D01*
X198203333Y-114964285D01*
X198250952Y-115059523D01*
X198346190Y-115154761D01*
X198489047Y-115202380D01*
X198584285Y-115202380D01*
X198727142Y-115154761D01*
X198774761Y-115107142D01*
X198774761Y-114773809D01*
X198584285Y-114773809D01*
X199203333Y-115202380D02*
X199203333Y-114202380D01*
X199584285Y-114202380D01*
X199679523Y-114250000D01*
X199727142Y-114297619D01*
X199774761Y-114392857D01*
X199774761Y-114535714D01*
X199727142Y-114630952D01*
X199679523Y-114678571D01*
X199584285Y-114726190D01*
X199203333Y-114726190D01*
X200155714Y-114297619D02*
X200203333Y-114250000D01*
X200298571Y-114202380D01*
X200536666Y-114202380D01*
X200631904Y-114250000D01*
X200679523Y-114297619D01*
X200727142Y-114392857D01*
X200727142Y-114488095D01*
X200679523Y-114630952D01*
X200108095Y-115202380D01*
X200727142Y-115202380D01*
X201298571Y-114630952D02*
X201203333Y-114583333D01*
X201155714Y-114535714D01*
X201108095Y-114440476D01*
X201108095Y-114392857D01*
X201155714Y-114297619D01*
X201203333Y-114250000D01*
X201298571Y-114202380D01*
X201489047Y-114202380D01*
X201584285Y-114250000D01*
X201631904Y-114297619D01*
X201679523Y-114392857D01*
X201679523Y-114440476D01*
X201631904Y-114535714D01*
X201584285Y-114583333D01*
X201489047Y-114630952D01*
X201298571Y-114630952D01*
X201203333Y-114678571D01*
X201155714Y-114726190D01*
X201108095Y-114821428D01*
X201108095Y-115011904D01*
X201155714Y-115107142D01*
X201203333Y-115154761D01*
X201298571Y-115202380D01*
X201489047Y-115202380D01*
X201584285Y-115154761D01*
X201631904Y-115107142D01*
X201679523Y-115011904D01*
X201679523Y-114821428D01*
X201631904Y-114726190D01*
X201584285Y-114678571D01*
X201489047Y-114630952D01*
X198727142Y-111750000D02*
X198631904Y-111702380D01*
X198489047Y-111702380D01*
X198346190Y-111750000D01*
X198250952Y-111845238D01*
X198203333Y-111940476D01*
X198155714Y-112130952D01*
X198155714Y-112273809D01*
X198203333Y-112464285D01*
X198250952Y-112559523D01*
X198346190Y-112654761D01*
X198489047Y-112702380D01*
X198584285Y-112702380D01*
X198727142Y-112654761D01*
X198774761Y-112607142D01*
X198774761Y-112273809D01*
X198584285Y-112273809D01*
X199203333Y-112702380D02*
X199203333Y-111702380D01*
X199584285Y-111702380D01*
X199679523Y-111750000D01*
X199727142Y-111797619D01*
X199774761Y-111892857D01*
X199774761Y-112035714D01*
X199727142Y-112130952D01*
X199679523Y-112178571D01*
X199584285Y-112226190D01*
X199203333Y-112226190D01*
X200155714Y-111797619D02*
X200203333Y-111750000D01*
X200298571Y-111702380D01*
X200536666Y-111702380D01*
X200631904Y-111750000D01*
X200679523Y-111797619D01*
X200727142Y-111892857D01*
X200727142Y-111988095D01*
X200679523Y-112130952D01*
X200108095Y-112702380D01*
X200727142Y-112702380D01*
X201203333Y-112702380D02*
X201393809Y-112702380D01*
X201489047Y-112654761D01*
X201536666Y-112607142D01*
X201631904Y-112464285D01*
X201679523Y-112273809D01*
X201679523Y-111892857D01*
X201631904Y-111797619D01*
X201584285Y-111750000D01*
X201489047Y-111702380D01*
X201298571Y-111702380D01*
X201203333Y-111750000D01*
X201155714Y-111797619D01*
X201108095Y-111892857D01*
X201108095Y-112130952D01*
X201155714Y-112226190D01*
X201203333Y-112273809D01*
X201298571Y-112321428D01*
X201489047Y-112321428D01*
X201584285Y-112273809D01*
X201631904Y-112226190D01*
X201679523Y-112130952D01*
X199250952Y-109202380D02*
X199870000Y-109202380D01*
X199536666Y-109583333D01*
X199679523Y-109583333D01*
X199774761Y-109630952D01*
X199822380Y-109678571D01*
X199870000Y-109773809D01*
X199870000Y-110011904D01*
X199822380Y-110107142D01*
X199774761Y-110154761D01*
X199679523Y-110202380D01*
X199393809Y-110202380D01*
X199298571Y-110154761D01*
X199250952Y-110107142D01*
X200155714Y-109202380D02*
X200489047Y-110202380D01*
X200822380Y-109202380D01*
X201060476Y-109202380D02*
X201679523Y-109202380D01*
X201346190Y-109583333D01*
X201489047Y-109583333D01*
X201584285Y-109630952D01*
X201631904Y-109678571D01*
X201679523Y-109773809D01*
X201679523Y-110011904D01*
X201631904Y-110107142D01*
X201584285Y-110154761D01*
X201489047Y-110202380D01*
X201203333Y-110202380D01*
X201108095Y-110154761D01*
X201060476Y-110107142D01*
X198727142Y-106750000D02*
X198631904Y-106702380D01*
X198489047Y-106702380D01*
X198346190Y-106750000D01*
X198250952Y-106845238D01*
X198203333Y-106940476D01*
X198155714Y-107130952D01*
X198155714Y-107273809D01*
X198203333Y-107464285D01*
X198250952Y-107559523D01*
X198346190Y-107654761D01*
X198489047Y-107702380D01*
X198584285Y-107702380D01*
X198727142Y-107654761D01*
X198774761Y-107607142D01*
X198774761Y-107273809D01*
X198584285Y-107273809D01*
X199203333Y-107702380D02*
X199203333Y-106702380D01*
X199584285Y-106702380D01*
X199679523Y-106750000D01*
X199727142Y-106797619D01*
X199774761Y-106892857D01*
X199774761Y-107035714D01*
X199727142Y-107130952D01*
X199679523Y-107178571D01*
X199584285Y-107226190D01*
X199203333Y-107226190D01*
X200727142Y-107702380D02*
X200155714Y-107702380D01*
X200441428Y-107702380D02*
X200441428Y-106702380D01*
X200346190Y-106845238D01*
X200250952Y-106940476D01*
X200155714Y-106988095D01*
X201203333Y-107702380D02*
X201393809Y-107702380D01*
X201489047Y-107654761D01*
X201536666Y-107607142D01*
X201631904Y-107464285D01*
X201679523Y-107273809D01*
X201679523Y-106892857D01*
X201631904Y-106797619D01*
X201584285Y-106750000D01*
X201489047Y-106702380D01*
X201298571Y-106702380D01*
X201203333Y-106750000D01*
X201155714Y-106797619D01*
X201108095Y-106892857D01*
X201108095Y-107130952D01*
X201155714Y-107226190D01*
X201203333Y-107273809D01*
X201298571Y-107321428D01*
X201489047Y-107321428D01*
X201584285Y-107273809D01*
X201631904Y-107226190D01*
X201679523Y-107130952D01*
X198727142Y-104000000D02*
X198631904Y-103952380D01*
X198489047Y-103952380D01*
X198346190Y-104000000D01*
X198250952Y-104095238D01*
X198203333Y-104190476D01*
X198155714Y-104380952D01*
X198155714Y-104523809D01*
X198203333Y-104714285D01*
X198250952Y-104809523D01*
X198346190Y-104904761D01*
X198489047Y-104952380D01*
X198584285Y-104952380D01*
X198727142Y-104904761D01*
X198774761Y-104857142D01*
X198774761Y-104523809D01*
X198584285Y-104523809D01*
X199203333Y-104952380D02*
X199203333Y-103952380D01*
X199584285Y-103952380D01*
X199679523Y-104000000D01*
X199727142Y-104047619D01*
X199774761Y-104142857D01*
X199774761Y-104285714D01*
X199727142Y-104380952D01*
X199679523Y-104428571D01*
X199584285Y-104476190D01*
X199203333Y-104476190D01*
X200727142Y-104952380D02*
X200155714Y-104952380D01*
X200441428Y-104952380D02*
X200441428Y-103952380D01*
X200346190Y-104095238D01*
X200250952Y-104190476D01*
X200155714Y-104238095D01*
X201298571Y-104380952D02*
X201203333Y-104333333D01*
X201155714Y-104285714D01*
X201108095Y-104190476D01*
X201108095Y-104142857D01*
X201155714Y-104047619D01*
X201203333Y-104000000D01*
X201298571Y-103952380D01*
X201489047Y-103952380D01*
X201584285Y-104000000D01*
X201631904Y-104047619D01*
X201679523Y-104142857D01*
X201679523Y-104190476D01*
X201631904Y-104285714D01*
X201584285Y-104333333D01*
X201489047Y-104380952D01*
X201298571Y-104380952D01*
X201203333Y-104428571D01*
X201155714Y-104476190D01*
X201108095Y-104571428D01*
X201108095Y-104761904D01*
X201155714Y-104857142D01*
X201203333Y-104904761D01*
X201298571Y-104952380D01*
X201489047Y-104952380D01*
X201584285Y-104904761D01*
X201631904Y-104857142D01*
X201679523Y-104761904D01*
X201679523Y-104571428D01*
X201631904Y-104476190D01*
X201584285Y-104428571D01*
X201489047Y-104380952D01*
X198298571Y-102452380D02*
X197965238Y-101976190D01*
X197727142Y-102452380D02*
X197727142Y-101452380D01*
X198108095Y-101452380D01*
X198203333Y-101500000D01*
X198250952Y-101547619D01*
X198298571Y-101642857D01*
X198298571Y-101785714D01*
X198250952Y-101880952D01*
X198203333Y-101928571D01*
X198108095Y-101976190D01*
X197727142Y-101976190D01*
X198679523Y-102166666D02*
X199155714Y-102166666D01*
X198584285Y-102452380D02*
X198917619Y-101452380D01*
X199250952Y-102452380D01*
X199584285Y-102452380D02*
X199584285Y-101452380D01*
X200536666Y-102452380D02*
X200060476Y-102452380D01*
X200060476Y-101452380D01*
X200870000Y-102071428D02*
X201631904Y-102071428D01*
X198298571Y-99952380D02*
X197965238Y-99476190D01*
X197727142Y-99952380D02*
X197727142Y-98952380D01*
X198108095Y-98952380D01*
X198203333Y-99000000D01*
X198250952Y-99047619D01*
X198298571Y-99142857D01*
X198298571Y-99285714D01*
X198250952Y-99380952D01*
X198203333Y-99428571D01*
X198108095Y-99476190D01*
X197727142Y-99476190D01*
X198679523Y-99666666D02*
X199155714Y-99666666D01*
X198584285Y-99952380D02*
X198917619Y-98952380D01*
X199250952Y-99952380D01*
X199584285Y-99952380D02*
X199584285Y-98952380D01*
X200536666Y-99952380D02*
X200060476Y-99952380D01*
X200060476Y-98952380D01*
X200870000Y-99571428D02*
X201631904Y-99571428D01*
X201250952Y-99952380D02*
X201250952Y-99190476D01*
D12*
X191304761Y-146723809D02*
X191304761Y-145123809D01*
X191914285Y-145123809D01*
X192066666Y-145200000D01*
X192142857Y-145276190D01*
X192219047Y-145428571D01*
X192219047Y-145657142D01*
X192142857Y-145809523D01*
X192066666Y-145885714D01*
X191914285Y-145961904D01*
X191304761Y-145961904D01*
X193209523Y-145123809D02*
X193514285Y-145123809D01*
X193666666Y-145200000D01*
X193819047Y-145352380D01*
X193895238Y-145657142D01*
X193895238Y-146190476D01*
X193819047Y-146495238D01*
X193666666Y-146647619D01*
X193514285Y-146723809D01*
X193209523Y-146723809D01*
X193057142Y-146647619D01*
X192904761Y-146495238D01*
X192828571Y-146190476D01*
X192828571Y-145657142D01*
X192904761Y-145352380D01*
X193057142Y-145200000D01*
X193209523Y-145123809D01*
X194428571Y-145123809D02*
X194809523Y-146723809D01*
X195114285Y-145580952D01*
X195419047Y-146723809D01*
X195800000Y-145123809D01*
X196409523Y-145885714D02*
X196942857Y-145885714D01*
X197171428Y-146723809D02*
X196409523Y-146723809D01*
X196409523Y-145123809D01*
X197171428Y-145123809D01*
X198771428Y-146723809D02*
X198238095Y-145961904D01*
X197857142Y-146723809D02*
X197857142Y-145123809D01*
X198466666Y-145123809D01*
X198619047Y-145200000D01*
X198695238Y-145276190D01*
X198771428Y-145428571D01*
X198771428Y-145657142D01*
X198695238Y-145809523D01*
X198619047Y-145885714D01*
X198466666Y-145961904D01*
X197857142Y-145961904D01*
X181457142Y-145123809D02*
X182371428Y-145123809D01*
X181914285Y-146723809D02*
X181914285Y-145123809D01*
X183819047Y-146723809D02*
X183285714Y-145961904D01*
X182904761Y-146723809D02*
X182904761Y-145123809D01*
X183514285Y-145123809D01*
X183666666Y-145200000D01*
X183742857Y-145276190D01*
X183819047Y-145428571D01*
X183819047Y-145657142D01*
X183742857Y-145809523D01*
X183666666Y-145885714D01*
X183514285Y-145961904D01*
X182904761Y-145961904D01*
X184428571Y-146266666D02*
X185190476Y-146266666D01*
X184276190Y-146723809D02*
X184809523Y-145123809D01*
X185342857Y-146723809D01*
X186790476Y-146571428D02*
X186714285Y-146647619D01*
X186485714Y-146723809D01*
X186333333Y-146723809D01*
X186104761Y-146647619D01*
X185952380Y-146495238D01*
X185876190Y-146342857D01*
X185800000Y-146038095D01*
X185800000Y-145809523D01*
X185876190Y-145504761D01*
X185952380Y-145352380D01*
X186104761Y-145200000D01*
X186333333Y-145123809D01*
X186485714Y-145123809D01*
X186714285Y-145200000D01*
X186790476Y-145276190D01*
X187476190Y-146723809D02*
X187476190Y-145123809D01*
X188390476Y-146723809D02*
X187704761Y-145809523D01*
X188390476Y-145123809D02*
X187476190Y-146038095D01*
X175514285Y-145885714D02*
X174980952Y-145885714D01*
X174980952Y-146723809D02*
X174980952Y-145123809D01*
X175742857Y-145123809D01*
X176276190Y-146266666D02*
X177038095Y-146266666D01*
X176123809Y-146723809D02*
X176657142Y-145123809D01*
X177190476Y-146723809D01*
X177723809Y-146723809D02*
X177723809Y-145123809D01*
X179247619Y-146723809D02*
X178485714Y-146723809D01*
X178485714Y-145123809D01*
X121178571Y-76328571D02*
X121102380Y-76252380D01*
X121026190Y-76023809D01*
X121026190Y-75871428D01*
X121102380Y-75642857D01*
X121254761Y-75490476D01*
X121407142Y-75414285D01*
X121711904Y-75338095D01*
X121940476Y-75338095D01*
X122245238Y-75414285D01*
X122397619Y-75490476D01*
X122550000Y-75642857D01*
X122626190Y-75871428D01*
X122626190Y-76023809D01*
X122550000Y-76252380D01*
X122473809Y-76328571D01*
X122626190Y-77319047D02*
X122626190Y-77623809D01*
X122550000Y-77776190D01*
X122397619Y-77928571D01*
X122092857Y-78004761D01*
X121559523Y-78004761D01*
X121254761Y-77928571D01*
X121102380Y-77776190D01*
X121026190Y-77623809D01*
X121026190Y-77319047D01*
X121102380Y-77166666D01*
X121254761Y-77014285D01*
X121559523Y-76938095D01*
X122092857Y-76938095D01*
X122397619Y-77014285D01*
X122550000Y-77166666D01*
X122626190Y-77319047D01*
X121026190Y-78690476D02*
X122626190Y-78690476D01*
X121483333Y-79223809D01*
X122626190Y-79757142D01*
X121026190Y-79757142D01*
X121026190Y-80519047D02*
X122626190Y-80519047D01*
X121483333Y-81052380D01*
X122626190Y-81585714D01*
X121026190Y-81585714D01*
D13*
X146325857Y-136407142D02*
X146325857Y-135507142D01*
X146540142Y-135507142D01*
X146668714Y-135550000D01*
X146754428Y-135635714D01*
X146797285Y-135721428D01*
X146840142Y-135892857D01*
X146840142Y-136021428D01*
X146797285Y-136192857D01*
X146754428Y-136278571D01*
X146668714Y-136364285D01*
X146540142Y-136407142D01*
X146325857Y-136407142D01*
X147225857Y-136407142D02*
X147225857Y-135507142D01*
X147654428Y-136407142D02*
X147654428Y-135507142D01*
X148168714Y-136407142D01*
X148168714Y-135507142D01*
X146325857Y-121550000D02*
X146240142Y-121507142D01*
X146111571Y-121507142D01*
X145983000Y-121550000D01*
X145897285Y-121635714D01*
X145854428Y-121721428D01*
X145811571Y-121892857D01*
X145811571Y-122021428D01*
X145854428Y-122192857D01*
X145897285Y-122278571D01*
X145983000Y-122364285D01*
X146111571Y-122407142D01*
X146197285Y-122407142D01*
X146325857Y-122364285D01*
X146368714Y-122321428D01*
X146368714Y-122021428D01*
X146197285Y-122021428D01*
X146754428Y-122407142D02*
X146754428Y-121507142D01*
X147268714Y-122407142D01*
X147268714Y-121507142D01*
X147697285Y-122407142D02*
X147697285Y-121507142D01*
X147911571Y-121507142D01*
X148040142Y-121550000D01*
X148125857Y-121635714D01*
X148168714Y-121721428D01*
X148211571Y-121892857D01*
X148211571Y-122021428D01*
X148168714Y-122192857D01*
X148125857Y-122278571D01*
X148040142Y-122364285D01*
X147911571Y-122407142D01*
X147697285Y-122407142D01*
X145897285Y-139507142D02*
X146197285Y-140407142D01*
X146497285Y-139507142D01*
X147311571Y-140321428D02*
X147268714Y-140364285D01*
X147140142Y-140407142D01*
X147054428Y-140407142D01*
X146925857Y-140364285D01*
X146840142Y-140278571D01*
X146797285Y-140192857D01*
X146754428Y-140021428D01*
X146754428Y-139892857D01*
X146797285Y-139721428D01*
X146840142Y-139635714D01*
X146925857Y-139550000D01*
X147054428Y-139507142D01*
X147140142Y-139507142D01*
X147268714Y-139550000D01*
X147311571Y-139592857D01*
X148211571Y-140321428D02*
X148168714Y-140364285D01*
X148040142Y-140407142D01*
X147954428Y-140407142D01*
X147825857Y-140364285D01*
X147740142Y-140278571D01*
X147697285Y-140192857D01*
X147654428Y-140021428D01*
X147654428Y-139892857D01*
X147697285Y-139721428D01*
X147740142Y-139635714D01*
X147825857Y-139550000D01*
X147954428Y-139507142D01*
X148040142Y-139507142D01*
X148168714Y-139550000D01*
X148211571Y-139592857D01*
D14*
X187814285Y-79378571D02*
X189185714Y-79378571D01*
X188500000Y-80064285D02*
X188500000Y-78692857D01*
X181878571Y-78350000D02*
X181707142Y-78264285D01*
X181450000Y-78264285D01*
X181192857Y-78350000D01*
X181021428Y-78521428D01*
X180935714Y-78692857D01*
X180850000Y-79035714D01*
X180850000Y-79292857D01*
X180935714Y-79635714D01*
X181021428Y-79807142D01*
X181192857Y-79978571D01*
X181450000Y-80064285D01*
X181621428Y-80064285D01*
X181878571Y-79978571D01*
X181964285Y-79892857D01*
X181964285Y-79292857D01*
X181621428Y-79292857D01*
X182735714Y-80064285D02*
X182735714Y-78264285D01*
X183764285Y-80064285D01*
X183764285Y-78264285D01*
X184621428Y-80064285D02*
X184621428Y-78264285D01*
X185050000Y-78264285D01*
X185307142Y-78350000D01*
X185478571Y-78521428D01*
X185564285Y-78692857D01*
X185650000Y-79035714D01*
X185650000Y-79292857D01*
X185564285Y-79635714D01*
X185478571Y-79807142D01*
X185307142Y-79978571D01*
X185050000Y-80064285D01*
X184621428Y-80064285D01*
D13*
X115809523Y-94428571D02*
X115952380Y-94476190D01*
X116000000Y-94523809D01*
X116047619Y-94619047D01*
X116047619Y-94761904D01*
X116000000Y-94857142D01*
X115952380Y-94904761D01*
X115857142Y-94952380D01*
X115476190Y-94952380D01*
X115476190Y-93952380D01*
X115809523Y-93952380D01*
X115904761Y-94000000D01*
X115952380Y-94047619D01*
X116000000Y-94142857D01*
X116000000Y-94238095D01*
X115952380Y-94333333D01*
X115904761Y-94380952D01*
X115809523Y-94428571D01*
X115476190Y-94428571D01*
X116666666Y-93952380D02*
X116857142Y-93952380D01*
X116952380Y-94000000D01*
X117047619Y-94095238D01*
X117095238Y-94285714D01*
X117095238Y-94619047D01*
X117047619Y-94809523D01*
X116952380Y-94904761D01*
X116857142Y-94952380D01*
X116666666Y-94952380D01*
X116571428Y-94904761D01*
X116476190Y-94809523D01*
X116428571Y-94619047D01*
X116428571Y-94285714D01*
X116476190Y-94095238D01*
X116571428Y-94000000D01*
X116666666Y-93952380D01*
X117714285Y-93952380D02*
X117904761Y-93952380D01*
X118000000Y-94000000D01*
X118095238Y-94095238D01*
X118142857Y-94285714D01*
X118142857Y-94619047D01*
X118095238Y-94809523D01*
X118000000Y-94904761D01*
X117904761Y-94952380D01*
X117714285Y-94952380D01*
X117619047Y-94904761D01*
X117523809Y-94809523D01*
X117476190Y-94619047D01*
X117476190Y-94285714D01*
X117523809Y-94095238D01*
X117619047Y-94000000D01*
X117714285Y-93952380D01*
X118428571Y-93952380D02*
X119000000Y-93952380D01*
X118714285Y-94952380D02*
X118714285Y-93952380D01*
X119285714Y-94904761D02*
X119428571Y-94952380D01*
X119666666Y-94952380D01*
X119761904Y-94904761D01*
X119809523Y-94857142D01*
X119857142Y-94761904D01*
X119857142Y-94666666D01*
X119809523Y-94571428D01*
X119761904Y-94523809D01*
X119666666Y-94476190D01*
X119476190Y-94428571D01*
X119380952Y-94380952D01*
X119333333Y-94333333D01*
X119285714Y-94238095D01*
X119285714Y-94142857D01*
X119333333Y-94047619D01*
X119380952Y-94000000D01*
X119476190Y-93952380D01*
X119714285Y-93952380D01*
X119857142Y-94000000D01*
X120285714Y-94428571D02*
X120619047Y-94428571D01*
X120761904Y-94952380D02*
X120285714Y-94952380D01*
X120285714Y-93952380D01*
X120761904Y-93952380D01*
X121666666Y-94952380D02*
X121190476Y-94952380D01*
X121190476Y-93952380D01*
D15*
X153083547Y-130151190D02*
X153083547Y-131405952D01*
X153157357Y-131553571D01*
X153231166Y-131627380D01*
X153378785Y-131701190D01*
X153674023Y-131701190D01*
X153821642Y-131627380D01*
X153895452Y-131553571D01*
X153969261Y-131405952D01*
X153969261Y-130151190D01*
X154928785Y-131701190D02*
X154781166Y-131627380D01*
X154707357Y-131479761D01*
X154707357Y-130151190D01*
X155297833Y-130667857D02*
X155888309Y-130667857D01*
X155519261Y-130151190D02*
X155519261Y-131479761D01*
X155593071Y-131627380D01*
X155740690Y-131701190D01*
X155888309Y-131701190D01*
X156404976Y-131701190D02*
X156404976Y-130667857D01*
X156404976Y-130963095D02*
X156478785Y-130815476D01*
X156552595Y-130741666D01*
X156700214Y-130667857D01*
X156847833Y-130667857D01*
X158028785Y-131701190D02*
X158028785Y-130889285D01*
X157954976Y-130741666D01*
X157807357Y-130667857D01*
X157512119Y-130667857D01*
X157364500Y-130741666D01*
X158028785Y-131627380D02*
X157881166Y-131701190D01*
X157512119Y-131701190D01*
X157364500Y-131627380D01*
X157290690Y-131479761D01*
X157290690Y-131332142D01*
X157364500Y-131184523D01*
X157512119Y-131110714D01*
X157881166Y-131110714D01*
X158028785Y-131036904D01*
X158766880Y-131110714D02*
X159947833Y-131110714D01*
X160685928Y-131701190D02*
X160685928Y-130151190D01*
X161276404Y-130151190D01*
X161424023Y-130225000D01*
X161497833Y-130298809D01*
X161571642Y-130446428D01*
X161571642Y-130667857D01*
X161497833Y-130815476D01*
X161424023Y-130889285D01*
X161276404Y-130963095D01*
X160685928Y-130963095D01*
X162457357Y-131701190D02*
X162309738Y-131627380D01*
X162235928Y-131553571D01*
X162162119Y-131405952D01*
X162162119Y-130963095D01*
X162235928Y-130815476D01*
X162309738Y-130741666D01*
X162457357Y-130667857D01*
X162678785Y-130667857D01*
X162826404Y-130741666D01*
X162900214Y-130815476D01*
X162974023Y-130963095D01*
X162974023Y-131405952D01*
X162900214Y-131553571D01*
X162826404Y-131627380D01*
X162678785Y-131701190D01*
X162457357Y-131701190D01*
X163490690Y-130667857D02*
X163785928Y-131701190D01*
X164081166Y-130963095D01*
X164376404Y-131701190D01*
X164671642Y-130667857D01*
X165852595Y-131627380D02*
X165704976Y-131701190D01*
X165409738Y-131701190D01*
X165262119Y-131627380D01*
X165188309Y-131479761D01*
X165188309Y-130889285D01*
X165262119Y-130741666D01*
X165409738Y-130667857D01*
X165704976Y-130667857D01*
X165852595Y-130741666D01*
X165926404Y-130889285D01*
X165926404Y-131036904D01*
X165188309Y-131184523D01*
X166590690Y-131701190D02*
X166590690Y-130667857D01*
X166590690Y-130963095D02*
X166664500Y-130815476D01*
X166738309Y-130741666D01*
X166885928Y-130667857D01*
X167033547Y-130667857D01*
X169616880Y-131553571D02*
X169543071Y-131627380D01*
X169321642Y-131701190D01*
X169174023Y-131701190D01*
X168952595Y-131627380D01*
X168804976Y-131479761D01*
X168731166Y-131332142D01*
X168657357Y-131036904D01*
X168657357Y-130815476D01*
X168731166Y-130520238D01*
X168804976Y-130372619D01*
X168952595Y-130225000D01*
X169174023Y-130151190D01*
X169321642Y-130151190D01*
X169543071Y-130225000D01*
X169616880Y-130298809D01*
X170502595Y-131701190D02*
X170354976Y-131627380D01*
X170281166Y-131553571D01*
X170207357Y-131405952D01*
X170207357Y-130963095D01*
X170281166Y-130815476D01*
X170354976Y-130741666D01*
X170502595Y-130667857D01*
X170724023Y-130667857D01*
X170871642Y-130741666D01*
X170945452Y-130815476D01*
X171019261Y-130963095D01*
X171019261Y-131405952D01*
X170945452Y-131553571D01*
X170871642Y-131627380D01*
X170724023Y-131701190D01*
X170502595Y-131701190D01*
X171683547Y-131701190D02*
X171683547Y-130667857D01*
X171683547Y-130815476D02*
X171757357Y-130741666D01*
X171904976Y-130667857D01*
X172126404Y-130667857D01*
X172274023Y-130741666D01*
X172347833Y-130889285D01*
X172347833Y-131701190D01*
X172347833Y-130889285D02*
X172421642Y-130741666D01*
X172569261Y-130667857D01*
X172790690Y-130667857D01*
X172938309Y-130741666D01*
X173012119Y-130889285D01*
X173012119Y-131701190D01*
X173750214Y-131701190D02*
X173750214Y-130667857D01*
X173750214Y-130815476D02*
X173824023Y-130741666D01*
X173971642Y-130667857D01*
X174193071Y-130667857D01*
X174340690Y-130741666D01*
X174414500Y-130889285D01*
X174414500Y-131701190D01*
X174414500Y-130889285D02*
X174488309Y-130741666D01*
X174635928Y-130667857D01*
X174857357Y-130667857D01*
X175004976Y-130741666D01*
X175078785Y-130889285D01*
X175078785Y-131701190D01*
X176481166Y-131701190D02*
X176481166Y-130889285D01*
X176407357Y-130741666D01*
X176259738Y-130667857D01*
X175964500Y-130667857D01*
X175816880Y-130741666D01*
X176481166Y-131627380D02*
X176333547Y-131701190D01*
X175964500Y-131701190D01*
X175816880Y-131627380D01*
X175743071Y-131479761D01*
X175743071Y-131332142D01*
X175816880Y-131184523D01*
X175964500Y-131110714D01*
X176333547Y-131110714D01*
X176481166Y-131036904D01*
X177219261Y-130667857D02*
X177219261Y-131701190D01*
X177219261Y-130815476D02*
X177293071Y-130741666D01*
X177440690Y-130667857D01*
X177662119Y-130667857D01*
X177809738Y-130741666D01*
X177883547Y-130889285D01*
X177883547Y-131701190D01*
X179285928Y-131701190D02*
X179285928Y-130151190D01*
X179285928Y-131627380D02*
X179138309Y-131701190D01*
X178843071Y-131701190D01*
X178695452Y-131627380D01*
X178621642Y-131553571D01*
X178547833Y-131405952D01*
X178547833Y-130963095D01*
X178621642Y-130815476D01*
X178695452Y-130741666D01*
X178843071Y-130667857D01*
X179138309Y-130667857D01*
X179285928Y-130741666D01*
X179950214Y-131627380D02*
X180171642Y-131701190D01*
X180540690Y-131701190D01*
X180688309Y-131627380D01*
X180762119Y-131553571D01*
X180835928Y-131405952D01*
X180835928Y-131258333D01*
X180762119Y-131110714D01*
X180688309Y-131036904D01*
X180540690Y-130963095D01*
X180245452Y-130889285D01*
X180097833Y-130815476D01*
X180024023Y-130741666D01*
X179950214Y-130594047D01*
X179950214Y-130446428D01*
X180024023Y-130298809D01*
X180097833Y-130225000D01*
X180245452Y-130151190D01*
X180614500Y-130151190D01*
X180835928Y-130225000D01*
X181278785Y-130667857D02*
X181869261Y-130667857D01*
X181500214Y-130151190D02*
X181500214Y-131479761D01*
X181574023Y-131627380D01*
X181721642Y-131701190D01*
X181869261Y-131701190D01*
X183050214Y-131701190D02*
X183050214Y-130889285D01*
X182976404Y-130741666D01*
X182828785Y-130667857D01*
X182533547Y-130667857D01*
X182385928Y-130741666D01*
X183050214Y-131627380D02*
X182902595Y-131701190D01*
X182533547Y-131701190D01*
X182385928Y-131627380D01*
X182312119Y-131479761D01*
X182312119Y-131332142D01*
X182385928Y-131184523D01*
X182533547Y-131110714D01*
X182902595Y-131110714D01*
X183050214Y-131036904D01*
X183566880Y-130667857D02*
X184157357Y-130667857D01*
X183788309Y-130151190D02*
X183788309Y-131479761D01*
X183862119Y-131627380D01*
X184009738Y-131701190D01*
X184157357Y-131701190D01*
X184674023Y-131701190D02*
X184674023Y-130667857D01*
X184674023Y-130151190D02*
X184600214Y-130225000D01*
X184674023Y-130298809D01*
X184747833Y-130225000D01*
X184674023Y-130151190D01*
X184674023Y-130298809D01*
X185633547Y-131701190D02*
X185485928Y-131627380D01*
X185412119Y-131553571D01*
X185338309Y-131405952D01*
X185338309Y-130963095D01*
X185412119Y-130815476D01*
X185485928Y-130741666D01*
X185633547Y-130667857D01*
X185854976Y-130667857D01*
X186002595Y-130741666D01*
X186076404Y-130815476D01*
X186150214Y-130963095D01*
X186150214Y-131405952D01*
X186076404Y-131553571D01*
X186002595Y-131627380D01*
X185854976Y-131701190D01*
X185633547Y-131701190D01*
X186814500Y-130667857D02*
X186814500Y-131701190D01*
X186814500Y-130815476D02*
X186888309Y-130741666D01*
X187035928Y-130667857D01*
X187257357Y-130667857D01*
X187404976Y-130741666D01*
X187478785Y-130889285D01*
X187478785Y-131701190D01*
X153083547Y-128701190D02*
X153083547Y-127151190D01*
X153600214Y-128258333D01*
X154116880Y-127151190D01*
X154116880Y-128701190D01*
X154633547Y-127151190D02*
X155519261Y-127151190D01*
X155076404Y-128701190D02*
X155076404Y-127151190D01*
X156700214Y-127667857D02*
X156700214Y-128701190D01*
X156331166Y-127077380D02*
X155962119Y-128184523D01*
X156921642Y-128184523D01*
X157807357Y-127151190D02*
X157954976Y-127151190D01*
X158102595Y-127225000D01*
X158176404Y-127298809D01*
X158250214Y-127446428D01*
X158324023Y-127741666D01*
X158324023Y-128110714D01*
X158250214Y-128405952D01*
X158176404Y-128553571D01*
X158102595Y-128627380D01*
X157954976Y-128701190D01*
X157807357Y-128701190D01*
X157659738Y-128627380D01*
X157585928Y-128553571D01*
X157512119Y-128405952D01*
X157438309Y-128110714D01*
X157438309Y-127741666D01*
X157512119Y-127446428D01*
X157585928Y-127298809D01*
X157659738Y-127225000D01*
X157807357Y-127151190D01*
X160169261Y-128701190D02*
X160169261Y-127151190D01*
X160538309Y-127151190D01*
X160759738Y-127225000D01*
X160907357Y-127372619D01*
X160981166Y-127520238D01*
X161054976Y-127815476D01*
X161054976Y-128036904D01*
X160981166Y-128332142D01*
X160907357Y-128479761D01*
X160759738Y-128627380D01*
X160538309Y-128701190D01*
X160169261Y-128701190D01*
X162604976Y-128553571D02*
X162531166Y-128627380D01*
X162309738Y-128701190D01*
X162162119Y-128701190D01*
X161940690Y-128627380D01*
X161793071Y-128479761D01*
X161719261Y-128332142D01*
X161645452Y-128036904D01*
X161645452Y-127815476D01*
X161719261Y-127520238D01*
X161793071Y-127372619D01*
X161940690Y-127225000D01*
X162162119Y-127151190D01*
X162309738Y-127151190D01*
X162531166Y-127225000D01*
X162604976Y-127298809D01*
X164154976Y-128553571D02*
X164081166Y-128627380D01*
X163859738Y-128701190D01*
X163712119Y-128701190D01*
X163490690Y-128627380D01*
X163343071Y-128479761D01*
X163269261Y-128332142D01*
X163195452Y-128036904D01*
X163195452Y-127815476D01*
X163269261Y-127520238D01*
X163343071Y-127372619D01*
X163490690Y-127225000D01*
X163712119Y-127151190D01*
X163859738Y-127151190D01*
X164081166Y-127225000D01*
X164154976Y-127298809D01*
X166885928Y-128553571D02*
X166812119Y-128627380D01*
X166590690Y-128701190D01*
X166443071Y-128701190D01*
X166221642Y-128627380D01*
X166074023Y-128479761D01*
X166000214Y-128332142D01*
X165926404Y-128036904D01*
X165926404Y-127815476D01*
X166000214Y-127520238D01*
X166074023Y-127372619D01*
X166221642Y-127225000D01*
X166443071Y-127151190D01*
X166590690Y-127151190D01*
X166812119Y-127225000D01*
X166885928Y-127298809D01*
X167771642Y-128701190D02*
X167624023Y-128627380D01*
X167550214Y-128553571D01*
X167476404Y-128405952D01*
X167476404Y-127963095D01*
X167550214Y-127815476D01*
X167624023Y-127741666D01*
X167771642Y-127667857D01*
X167993071Y-127667857D01*
X168140690Y-127741666D01*
X168214500Y-127815476D01*
X168288309Y-127963095D01*
X168288309Y-128405952D01*
X168214500Y-128553571D01*
X168140690Y-128627380D01*
X167993071Y-128701190D01*
X167771642Y-128701190D01*
X168952595Y-127667857D02*
X168952595Y-128701190D01*
X168952595Y-127815476D02*
X169026404Y-127741666D01*
X169174023Y-127667857D01*
X169395452Y-127667857D01*
X169543071Y-127741666D01*
X169616880Y-127889285D01*
X169616880Y-128701190D01*
X170133547Y-127667857D02*
X170724023Y-127667857D01*
X170354976Y-127151190D02*
X170354976Y-128479761D01*
X170428785Y-128627380D01*
X170576404Y-128701190D01*
X170724023Y-128701190D01*
X171240690Y-128701190D02*
X171240690Y-127667857D01*
X171240690Y-127963095D02*
X171314500Y-127815476D01*
X171388309Y-127741666D01*
X171535928Y-127667857D01*
X171683547Y-127667857D01*
X172421642Y-128701190D02*
X172274023Y-128627380D01*
X172200214Y-128553571D01*
X172126404Y-128405952D01*
X172126404Y-127963095D01*
X172200214Y-127815476D01*
X172274023Y-127741666D01*
X172421642Y-127667857D01*
X172643071Y-127667857D01*
X172790690Y-127741666D01*
X172864500Y-127815476D01*
X172938309Y-127963095D01*
X172938309Y-128405952D01*
X172864500Y-128553571D01*
X172790690Y-128627380D01*
X172643071Y-128701190D01*
X172421642Y-128701190D01*
X173824023Y-128701190D02*
X173676404Y-128627380D01*
X173602595Y-128479761D01*
X173602595Y-127151190D01*
X175521642Y-128627380D02*
X175743071Y-128701190D01*
X176112119Y-128701190D01*
X176259738Y-128627380D01*
X176333547Y-128553571D01*
X176407357Y-128405952D01*
X176407357Y-128258333D01*
X176333547Y-128110714D01*
X176259738Y-128036904D01*
X176112119Y-127963095D01*
X175816880Y-127889285D01*
X175669261Y-127815476D01*
X175595452Y-127741666D01*
X175521642Y-127594047D01*
X175521642Y-127446428D01*
X175595452Y-127298809D01*
X175669261Y-127225000D01*
X175816880Y-127151190D01*
X176185928Y-127151190D01*
X176407357Y-127225000D01*
X176924023Y-127667857D02*
X177293071Y-128701190D01*
X177662119Y-127667857D02*
X177293071Y-128701190D01*
X177145452Y-129070238D01*
X177071642Y-129144047D01*
X176924023Y-129217857D01*
X178178785Y-128627380D02*
X178326404Y-128701190D01*
X178621642Y-128701190D01*
X178769261Y-128627380D01*
X178843071Y-128479761D01*
X178843071Y-128405952D01*
X178769261Y-128258333D01*
X178621642Y-128184523D01*
X178400214Y-128184523D01*
X178252595Y-128110714D01*
X178178785Y-127963095D01*
X178178785Y-127889285D01*
X178252595Y-127741666D01*
X178400214Y-127667857D01*
X178621642Y-127667857D01*
X178769261Y-127741666D01*
X179285928Y-127667857D02*
X179876404Y-127667857D01*
X179507357Y-127151190D02*
X179507357Y-128479761D01*
X179581166Y-128627380D01*
X179728785Y-128701190D01*
X179876404Y-128701190D01*
X180983547Y-128627380D02*
X180835928Y-128701190D01*
X180540690Y-128701190D01*
X180393071Y-128627380D01*
X180319261Y-128479761D01*
X180319261Y-127889285D01*
X180393071Y-127741666D01*
X180540690Y-127667857D01*
X180835928Y-127667857D01*
X180983547Y-127741666D01*
X181057357Y-127889285D01*
X181057357Y-128036904D01*
X180319261Y-128184523D01*
X181721642Y-128701190D02*
X181721642Y-127667857D01*
X181721642Y-127815476D02*
X181795452Y-127741666D01*
X181943071Y-127667857D01*
X182164500Y-127667857D01*
X182312119Y-127741666D01*
X182385928Y-127889285D01*
X182385928Y-128701190D01*
X182385928Y-127889285D02*
X182459738Y-127741666D01*
X182607357Y-127667857D01*
X182828785Y-127667857D01*
X182976404Y-127741666D01*
X183050214Y-127889285D01*
X183050214Y-128701190D01*
D12*
X157676190Y-146723809D02*
X157142857Y-145961904D01*
X156761904Y-146723809D02*
X156761904Y-145123809D01*
X157371428Y-145123809D01*
X157523809Y-145200000D01*
X157600000Y-145276190D01*
X157676190Y-145428571D01*
X157676190Y-145657142D01*
X157600000Y-145809523D01*
X157523809Y-145885714D01*
X157371428Y-145961904D01*
X156761904Y-145961904D01*
X158361904Y-145885714D02*
X158895238Y-145885714D01*
X159123809Y-146723809D02*
X158361904Y-146723809D01*
X158361904Y-145123809D01*
X159123809Y-145123809D01*
X159733333Y-146647619D02*
X159961904Y-146723809D01*
X160342857Y-146723809D01*
X160495238Y-146647619D01*
X160571428Y-146571428D01*
X160647619Y-146419047D01*
X160647619Y-146266666D01*
X160571428Y-146114285D01*
X160495238Y-146038095D01*
X160342857Y-145961904D01*
X160038095Y-145885714D01*
X159885714Y-145809523D01*
X159809523Y-145733333D01*
X159733333Y-145580952D01*
X159733333Y-145428571D01*
X159809523Y-145276190D01*
X159885714Y-145200000D01*
X160038095Y-145123809D01*
X160419047Y-145123809D01*
X160647619Y-145200000D01*
X161333333Y-145885714D02*
X161866666Y-145885714D01*
X162095238Y-146723809D02*
X161333333Y-146723809D01*
X161333333Y-145123809D01*
X162095238Y-145123809D01*
X162552380Y-145123809D02*
X163466666Y-145123809D01*
X163009523Y-146723809D02*
X163009523Y-145123809D01*
D14*
X180900000Y-82769047D02*
X180900000Y-81069047D01*
X181466666Y-82283333D01*
X182033333Y-81069047D01*
X182033333Y-82769047D01*
X182761904Y-82283333D02*
X183571428Y-82283333D01*
X182600000Y-82769047D02*
X183166666Y-81069047D01*
X183733333Y-82769047D01*
X184138095Y-81069047D02*
X185271428Y-82769047D01*
X185271428Y-81069047D02*
X184138095Y-82769047D01*
X188104761Y-82769047D02*
X187133333Y-82769047D01*
X187619047Y-82769047D02*
X187619047Y-81069047D01*
X187457142Y-81311904D01*
X187295238Y-81473809D01*
X187133333Y-81554761D01*
X189157142Y-81069047D02*
X189319047Y-81069047D01*
X189480952Y-81150000D01*
X189561904Y-81230952D01*
X189642857Y-81392857D01*
X189723809Y-81716666D01*
X189723809Y-82121428D01*
X189642857Y-82445238D01*
X189561904Y-82607142D01*
X189480952Y-82688095D01*
X189319047Y-82769047D01*
X189157142Y-82769047D01*
X188995238Y-82688095D01*
X188914285Y-82607142D01*
X188833333Y-82445238D01*
X188752380Y-82121428D01*
X188752380Y-81716666D01*
X188833333Y-81392857D01*
X188914285Y-81230952D01*
X188995238Y-81150000D01*
X189157142Y-81069047D01*
X190371428Y-82283333D02*
X191180952Y-82283333D01*
X190209523Y-82769047D02*
X190776190Y-81069047D01*
X191342857Y-82769047D01*
D16*
X153278333Y-134633333D02*
X153278333Y-133233333D01*
X153811666Y-133233333D01*
X153945000Y-133300000D01*
X154011666Y-133366666D01*
X154078333Y-133500000D01*
X154078333Y-133700000D01*
X154011666Y-133833333D01*
X153945000Y-133900000D01*
X153811666Y-133966666D01*
X153278333Y-133966666D01*
X155478333Y-134500000D02*
X155411666Y-134566666D01*
X155211666Y-134633333D01*
X155078333Y-134633333D01*
X154878333Y-134566666D01*
X154745000Y-134433333D01*
X154678333Y-134300000D01*
X154611666Y-134033333D01*
X154611666Y-133833333D01*
X154678333Y-133566666D01*
X154745000Y-133433333D01*
X154878333Y-133300000D01*
X155078333Y-133233333D01*
X155211666Y-133233333D01*
X155411666Y-133300000D01*
X155478333Y-133366666D01*
X156545000Y-133900000D02*
X156745000Y-133966666D01*
X156811666Y-134033333D01*
X156878333Y-134166666D01*
X156878333Y-134366666D01*
X156811666Y-134500000D01*
X156745000Y-134566666D01*
X156611666Y-134633333D01*
X156078333Y-134633333D01*
X156078333Y-133233333D01*
X156545000Y-133233333D01*
X156678333Y-133300000D01*
X156745000Y-133366666D01*
X156811666Y-133500000D01*
X156811666Y-133633333D01*
X156745000Y-133766666D01*
X156678333Y-133833333D01*
X156545000Y-133900000D01*
X156078333Y-133900000D01*
X159345000Y-134633333D02*
X158878333Y-133966666D01*
X158545000Y-134633333D02*
X158545000Y-133233333D01*
X159078333Y-133233333D01*
X159211666Y-133300000D01*
X159278333Y-133366666D01*
X159345000Y-133500000D01*
X159345000Y-133700000D01*
X159278333Y-133833333D01*
X159211666Y-133900000D01*
X159078333Y-133966666D01*
X158545000Y-133966666D01*
X160478333Y-134566666D02*
X160345000Y-134633333D01*
X160078333Y-134633333D01*
X159945000Y-134566666D01*
X159878333Y-134433333D01*
X159878333Y-133900000D01*
X159945000Y-133766666D01*
X160078333Y-133700000D01*
X160345000Y-133700000D01*
X160478333Y-133766666D01*
X160545000Y-133900000D01*
X160545000Y-134033333D01*
X159878333Y-134166666D01*
X161011666Y-133700000D02*
X161345000Y-134633333D01*
X161678333Y-133700000D01*
X162211666Y-134500000D02*
X162278333Y-134566666D01*
X162211666Y-134633333D01*
X162145000Y-134566666D01*
X162211666Y-134500000D01*
X162211666Y-134633333D01*
X163611666Y-134633333D02*
X162811666Y-134633333D01*
X163211666Y-134633333D02*
X163211666Y-133233333D01*
X163078333Y-133433333D01*
X162945000Y-133566666D01*
X162811666Y-133633333D01*
X165211666Y-133366666D02*
X165278333Y-133300000D01*
X165411666Y-133233333D01*
X165745000Y-133233333D01*
X165878333Y-133300000D01*
X165945000Y-133366666D01*
X166011666Y-133500000D01*
X166011666Y-133633333D01*
X165945000Y-133833333D01*
X165145000Y-134633333D01*
X166011666Y-134633333D01*
X166878333Y-133233333D02*
X167011666Y-133233333D01*
X167145000Y-133300000D01*
X167211666Y-133366666D01*
X167278333Y-133500000D01*
X167345000Y-133766666D01*
X167345000Y-134100000D01*
X167278333Y-134366666D01*
X167211666Y-134500000D01*
X167145000Y-134566666D01*
X167011666Y-134633333D01*
X166878333Y-134633333D01*
X166745000Y-134566666D01*
X166678333Y-134500000D01*
X166611666Y-134366666D01*
X166545000Y-134100000D01*
X166545000Y-133766666D01*
X166611666Y-133500000D01*
X166678333Y-133366666D01*
X166745000Y-133300000D01*
X166878333Y-133233333D01*
X167878333Y-133366666D02*
X167945000Y-133300000D01*
X168078333Y-133233333D01*
X168411666Y-133233333D01*
X168545000Y-133300000D01*
X168611666Y-133366666D01*
X168678333Y-133500000D01*
X168678333Y-133633333D01*
X168611666Y-133833333D01*
X167811666Y-134633333D01*
X168678333Y-134633333D01*
X169145000Y-133233333D02*
X170011666Y-133233333D01*
X169545000Y-133766666D01*
X169745000Y-133766666D01*
X169878333Y-133833333D01*
X169945000Y-133900000D01*
X170011666Y-134033333D01*
X170011666Y-134366666D01*
X169945000Y-134500000D01*
X169878333Y-134566666D01*
X169745000Y-134633333D01*
X169345000Y-134633333D01*
X169211666Y-134566666D01*
X169145000Y-134500000D01*
X170611666Y-134500000D02*
X170678333Y-134566666D01*
X170611666Y-134633333D01*
X170545000Y-134566666D01*
X170611666Y-134500000D01*
X170611666Y-134633333D01*
X171545000Y-133233333D02*
X171678333Y-133233333D01*
X171811666Y-133300000D01*
X171878333Y-133366666D01*
X171945000Y-133500000D01*
X172011666Y-133766666D01*
X172011666Y-134100000D01*
X171945000Y-134366666D01*
X171878333Y-134500000D01*
X171811666Y-134566666D01*
X171678333Y-134633333D01*
X171545000Y-134633333D01*
X171411666Y-134566666D01*
X171345000Y-134500000D01*
X171278333Y-134366666D01*
X171211666Y-134100000D01*
X171211666Y-133766666D01*
X171278333Y-133500000D01*
X171345000Y-133366666D01*
X171411666Y-133300000D01*
X171545000Y-133233333D01*
X173278333Y-133233333D02*
X172611666Y-133233333D01*
X172545000Y-133900000D01*
X172611666Y-133833333D01*
X172745000Y-133766666D01*
X173078333Y-133766666D01*
X173211666Y-133833333D01*
X173278333Y-133900000D01*
X173345000Y-134033333D01*
X173345000Y-134366666D01*
X173278333Y-134500000D01*
X173211666Y-134566666D01*
X173078333Y-134633333D01*
X172745000Y-134633333D01*
X172611666Y-134566666D01*
X172545000Y-134500000D01*
X149928571Y-113178571D02*
X149928571Y-111678571D01*
X150285714Y-111678571D01*
X150500000Y-111750000D01*
X150642857Y-111892857D01*
X150714285Y-112035714D01*
X150785714Y-112321428D01*
X150785714Y-112535714D01*
X150714285Y-112821428D01*
X150642857Y-112964285D01*
X150500000Y-113107142D01*
X150285714Y-113178571D01*
X149928571Y-113178571D01*
X152000000Y-113107142D02*
X151857142Y-113178571D01*
X151571428Y-113178571D01*
X151428571Y-113107142D01*
X151357142Y-112964285D01*
X151357142Y-112392857D01*
X151428571Y-112250000D01*
X151571428Y-112178571D01*
X151857142Y-112178571D01*
X152000000Y-112250000D01*
X152071428Y-112392857D01*
X152071428Y-112535714D01*
X151357142Y-112678571D01*
X152714285Y-113178571D02*
X152714285Y-111678571D01*
X152714285Y-112250000D02*
X152857142Y-112178571D01*
X153142857Y-112178571D01*
X153285714Y-112250000D01*
X153357142Y-112321428D01*
X153428571Y-112464285D01*
X153428571Y-112892857D01*
X153357142Y-113035714D01*
X153285714Y-113107142D01*
X153142857Y-113178571D01*
X152857142Y-113178571D01*
X152714285Y-113107142D01*
X154714285Y-112178571D02*
X154714285Y-113178571D01*
X154071428Y-112178571D02*
X154071428Y-112964285D01*
X154142857Y-113107142D01*
X154285714Y-113178571D01*
X154500000Y-113178571D01*
X154642857Y-113107142D01*
X154714285Y-113035714D01*
X156071428Y-112178571D02*
X156071428Y-113392857D01*
X156000000Y-113535714D01*
X155928571Y-113607142D01*
X155785714Y-113678571D01*
X155571428Y-113678571D01*
X155428571Y-113607142D01*
X156071428Y-113107142D02*
X155928571Y-113178571D01*
X155642857Y-113178571D01*
X155500000Y-113107142D01*
X155428571Y-113035714D01*
X155357142Y-112892857D01*
X155357142Y-112464285D01*
X155428571Y-112321428D01*
X155500000Y-112250000D01*
X155642857Y-112178571D01*
X155928571Y-112178571D01*
X156071428Y-112250000D01*
D12*
X167780952Y-146723809D02*
X167780952Y-145123809D01*
X168161904Y-145123809D01*
X168390476Y-145200000D01*
X168542857Y-145352380D01*
X168619047Y-145504761D01*
X168695238Y-145809523D01*
X168695238Y-146038095D01*
X168619047Y-146342857D01*
X168542857Y-146495238D01*
X168390476Y-146647619D01*
X168161904Y-146723809D01*
X167780952Y-146723809D01*
X170295238Y-146571428D02*
X170219047Y-146647619D01*
X169990476Y-146723809D01*
X169838095Y-146723809D01*
X169609523Y-146647619D01*
X169457142Y-146495238D01*
X169380952Y-146342857D01*
X169304761Y-146038095D01*
X169304761Y-145809523D01*
X169380952Y-145504761D01*
X169457142Y-145352380D01*
X169609523Y-145200000D01*
X169838095Y-145123809D01*
X169990476Y-145123809D01*
X170219047Y-145200000D01*
X170295238Y-145276190D01*
D13*
X145125857Y-138407142D02*
X145125857Y-137507142D01*
X145340142Y-137507142D01*
X145468714Y-137550000D01*
X145554428Y-137635714D01*
X145597285Y-137721428D01*
X145640142Y-137892857D01*
X145640142Y-138021428D01*
X145597285Y-138192857D01*
X145554428Y-138278571D01*
X145468714Y-138364285D01*
X145340142Y-138407142D01*
X145125857Y-138407142D01*
X146197285Y-137507142D02*
X146368714Y-137507142D01*
X146454428Y-137550000D01*
X146540142Y-137635714D01*
X146583000Y-137807142D01*
X146583000Y-138107142D01*
X146540142Y-138278571D01*
X146454428Y-138364285D01*
X146368714Y-138407142D01*
X146197285Y-138407142D01*
X146111571Y-138364285D01*
X146025857Y-138278571D01*
X145983000Y-138107142D01*
X145983000Y-137807142D01*
X146025857Y-137635714D01*
X146111571Y-137550000D01*
X146197285Y-137507142D01*
X146968714Y-137507142D02*
X146968714Y-138235714D01*
X147011571Y-138321428D01*
X147054428Y-138364285D01*
X147140142Y-138407142D01*
X147311571Y-138407142D01*
X147397285Y-138364285D01*
X147440142Y-138321428D01*
X147483000Y-138235714D01*
X147483000Y-137507142D01*
X147783000Y-137507142D02*
X148297285Y-137507142D01*
X148040142Y-138407142D02*
X148040142Y-137507142D01*
D14*
X172878571Y-79814285D02*
X172278571Y-78957142D01*
X171850000Y-79814285D02*
X171850000Y-78014285D01*
X172535714Y-78014285D01*
X172707142Y-78100000D01*
X172792857Y-78185714D01*
X172878571Y-78357142D01*
X172878571Y-78614285D01*
X172792857Y-78785714D01*
X172707142Y-78871428D01*
X172535714Y-78957142D01*
X171850000Y-78957142D01*
X173564285Y-79300000D02*
X174421428Y-79300000D01*
X173392857Y-79814285D02*
X173992857Y-78014285D01*
X174592857Y-79814285D01*
X175192857Y-79814285D02*
X175192857Y-78014285D01*
X176907142Y-79814285D02*
X176050000Y-79814285D01*
X176050000Y-78014285D01*
D11*
X121891904Y-132000000D02*
X121796666Y-131952380D01*
X121653809Y-131952380D01*
X121510952Y-132000000D01*
X121415714Y-132095238D01*
X121368095Y-132190476D01*
X121320476Y-132380952D01*
X121320476Y-132523809D01*
X121368095Y-132714285D01*
X121415714Y-132809523D01*
X121510952Y-132904761D01*
X121653809Y-132952380D01*
X121749047Y-132952380D01*
X121891904Y-132904761D01*
X121939523Y-132857142D01*
X121939523Y-132523809D01*
X121749047Y-132523809D01*
X122368095Y-132952380D02*
X122368095Y-131952380D01*
X122749047Y-131952380D01*
X122844285Y-132000000D01*
X122891904Y-132047619D01*
X122939523Y-132142857D01*
X122939523Y-132285714D01*
X122891904Y-132380952D01*
X122844285Y-132428571D01*
X122749047Y-132476190D01*
X122368095Y-132476190D01*
X123891904Y-132952380D02*
X123320476Y-132952380D01*
X123606190Y-132952380D02*
X123606190Y-131952380D01*
X123510952Y-132095238D01*
X123415714Y-132190476D01*
X123320476Y-132238095D01*
X124796666Y-131952380D02*
X124320476Y-131952380D01*
X124272857Y-132428571D01*
X124320476Y-132380952D01*
X124415714Y-132333333D01*
X124653809Y-132333333D01*
X124749047Y-132380952D01*
X124796666Y-132428571D01*
X124844285Y-132523809D01*
X124844285Y-132761904D01*
X124796666Y-132857142D01*
X124749047Y-132904761D01*
X124653809Y-132952380D01*
X124415714Y-132952380D01*
X124320476Y-132904761D01*
X124272857Y-132857142D01*
D13*
X204914285Y-95064285D02*
X205600000Y-95064285D01*
X205257142Y-95407142D02*
X205257142Y-94721428D01*
X206500000Y-95407142D02*
X205985714Y-95407142D01*
X206242857Y-95407142D02*
X206242857Y-94507142D01*
X206157142Y-94635714D01*
X206071428Y-94721428D01*
X205985714Y-94764285D01*
X206842857Y-94592857D02*
X206885714Y-94550000D01*
X206971428Y-94507142D01*
X207185714Y-94507142D01*
X207271428Y-94550000D01*
X207314285Y-94592857D01*
X207357142Y-94678571D01*
X207357142Y-94764285D01*
X207314285Y-94892857D01*
X206800000Y-95407142D01*
X207357142Y-95407142D01*
X207614285Y-94507142D02*
X207914285Y-95407142D01*
X208214285Y-94507142D01*
D17*
X169235714Y-126361904D02*
X168969047Y-125980952D01*
X168778571Y-126361904D02*
X168778571Y-125561904D01*
X169083333Y-125561904D01*
X169159523Y-125600000D01*
X169197619Y-125638095D01*
X169235714Y-125714285D01*
X169235714Y-125828571D01*
X169197619Y-125904761D01*
X169159523Y-125942857D01*
X169083333Y-125980952D01*
X168778571Y-125980952D01*
X169540476Y-125638095D02*
X169578571Y-125600000D01*
X169654761Y-125561904D01*
X169845238Y-125561904D01*
X169921428Y-125600000D01*
X169959523Y-125638095D01*
X169997619Y-125714285D01*
X169997619Y-125790476D01*
X169959523Y-125904761D01*
X169502380Y-126361904D01*
X169997619Y-126361904D01*
X170683333Y-125561904D02*
X170530952Y-125561904D01*
X170454761Y-125600000D01*
X170416666Y-125638095D01*
X170340476Y-125752380D01*
X170302380Y-125904761D01*
X170302380Y-126209523D01*
X170340476Y-126285714D01*
X170378571Y-126323809D01*
X170454761Y-126361904D01*
X170607142Y-126361904D01*
X170683333Y-126323809D01*
X170721428Y-126285714D01*
X170759523Y-126209523D01*
X170759523Y-126019047D01*
X170721428Y-125942857D01*
X170683333Y-125904761D01*
X170607142Y-125866666D01*
X170454761Y-125866666D01*
X170378571Y-125904761D01*
X170340476Y-125942857D01*
X170302380Y-126019047D01*
X168611904Y-100264285D02*
X168230952Y-100530952D01*
X168611904Y-100721428D02*
X167811904Y-100721428D01*
X167811904Y-100416666D01*
X167850000Y-100340476D01*
X167888095Y-100302380D01*
X167964285Y-100264285D01*
X168078571Y-100264285D01*
X168154761Y-100302380D01*
X168192857Y-100340476D01*
X168230952Y-100416666D01*
X168230952Y-100721428D01*
X167888095Y-99959523D02*
X167850000Y-99921428D01*
X167811904Y-99845238D01*
X167811904Y-99654761D01*
X167850000Y-99578571D01*
X167888095Y-99540476D01*
X167964285Y-99502380D01*
X168040476Y-99502380D01*
X168154761Y-99540476D01*
X168611904Y-99997619D01*
X168611904Y-99502380D01*
X167811904Y-98778571D02*
X167811904Y-99159523D01*
X168192857Y-99197619D01*
X168154761Y-99159523D01*
X168116666Y-99083333D01*
X168116666Y-98892857D01*
X168154761Y-98816666D01*
X168192857Y-98778571D01*
X168269047Y-98740476D01*
X168459523Y-98740476D01*
X168535714Y-98778571D01*
X168573809Y-98816666D01*
X168611904Y-98892857D01*
X168611904Y-99083333D01*
X168573809Y-99159523D01*
X168535714Y-99197619D01*
X179235714Y-124611904D02*
X178969047Y-124230952D01*
X178778571Y-124611904D02*
X178778571Y-123811904D01*
X179083333Y-123811904D01*
X179159523Y-123850000D01*
X179197619Y-123888095D01*
X179235714Y-123964285D01*
X179235714Y-124078571D01*
X179197619Y-124154761D01*
X179159523Y-124192857D01*
X179083333Y-124230952D01*
X178778571Y-124230952D01*
X179540476Y-123888095D02*
X179578571Y-123850000D01*
X179654761Y-123811904D01*
X179845238Y-123811904D01*
X179921428Y-123850000D01*
X179959523Y-123888095D01*
X179997619Y-123964285D01*
X179997619Y-124040476D01*
X179959523Y-124154761D01*
X179502380Y-124611904D01*
X179997619Y-124611904D01*
X180683333Y-124078571D02*
X180683333Y-124611904D01*
X180492857Y-123773809D02*
X180302380Y-124345238D01*
X180797619Y-124345238D01*
X179361904Y-100264285D02*
X178980952Y-100530952D01*
X179361904Y-100721428D02*
X178561904Y-100721428D01*
X178561904Y-100416666D01*
X178600000Y-100340476D01*
X178638095Y-100302380D01*
X178714285Y-100264285D01*
X178828571Y-100264285D01*
X178904761Y-100302380D01*
X178942857Y-100340476D01*
X178980952Y-100416666D01*
X178980952Y-100721428D01*
X178638095Y-99959523D02*
X178600000Y-99921428D01*
X178561904Y-99845238D01*
X178561904Y-99654761D01*
X178600000Y-99578571D01*
X178638095Y-99540476D01*
X178714285Y-99502380D01*
X178790476Y-99502380D01*
X178904761Y-99540476D01*
X179361904Y-99997619D01*
X179361904Y-99502380D01*
X178561904Y-99235714D02*
X178561904Y-98740476D01*
X178866666Y-99007142D01*
X178866666Y-98892857D01*
X178904761Y-98816666D01*
X178942857Y-98778571D01*
X179019047Y-98740476D01*
X179209523Y-98740476D01*
X179285714Y-98778571D01*
X179323809Y-98816666D01*
X179361904Y-98892857D01*
X179361904Y-99121428D01*
X179323809Y-99197619D01*
X179285714Y-99235714D01*
X196133333Y-84500000D02*
X196100000Y-84533333D01*
X196000000Y-84566666D01*
X195933333Y-84566666D01*
X195833333Y-84533333D01*
X195766666Y-84466666D01*
X195733333Y-84400000D01*
X195700000Y-84266666D01*
X195700000Y-84166666D01*
X195733333Y-84033333D01*
X195766666Y-83966666D01*
X195833333Y-83900000D01*
X195933333Y-83866666D01*
X196000000Y-83866666D01*
X196100000Y-83900000D01*
X196133333Y-83933333D01*
X196800000Y-84566666D02*
X196400000Y-84566666D01*
X196600000Y-84566666D02*
X196600000Y-83866666D01*
X196533333Y-83966666D01*
X196466666Y-84033333D01*
X196400000Y-84066666D01*
X190866666Y-93285714D02*
X190828571Y-93323809D01*
X190714285Y-93361904D01*
X190638095Y-93361904D01*
X190523809Y-93323809D01*
X190447619Y-93247619D01*
X190409523Y-93171428D01*
X190371428Y-93019047D01*
X190371428Y-92904761D01*
X190409523Y-92752380D01*
X190447619Y-92676190D01*
X190523809Y-92600000D01*
X190638095Y-92561904D01*
X190714285Y-92561904D01*
X190828571Y-92600000D01*
X190866666Y-92638095D01*
X191171428Y-92638095D02*
X191209523Y-92600000D01*
X191285714Y-92561904D01*
X191476190Y-92561904D01*
X191552380Y-92600000D01*
X191590476Y-92638095D01*
X191628571Y-92714285D01*
X191628571Y-92790476D01*
X191590476Y-92904761D01*
X191133333Y-93361904D01*
X191628571Y-93361904D01*
X173500000Y-86116666D02*
X173533333Y-86150000D01*
X173566666Y-86250000D01*
X173566666Y-86316666D01*
X173533333Y-86416666D01*
X173466666Y-86483333D01*
X173400000Y-86516666D01*
X173266666Y-86550000D01*
X173166666Y-86550000D01*
X173033333Y-86516666D01*
X172966666Y-86483333D01*
X172900000Y-86416666D01*
X172866666Y-86316666D01*
X172866666Y-86250000D01*
X172900000Y-86150000D01*
X172933333Y-86116666D01*
X173100000Y-85516666D02*
X173566666Y-85516666D01*
X172833333Y-85683333D02*
X173333333Y-85850000D01*
X173333333Y-85416666D01*
X190116666Y-135535714D02*
X190078571Y-135573809D01*
X189964285Y-135611904D01*
X189888095Y-135611904D01*
X189773809Y-135573809D01*
X189697619Y-135497619D01*
X189659523Y-135421428D01*
X189621428Y-135269047D01*
X189621428Y-135154761D01*
X189659523Y-135002380D01*
X189697619Y-134926190D01*
X189773809Y-134850000D01*
X189888095Y-134811904D01*
X189964285Y-134811904D01*
X190078571Y-134850000D01*
X190116666Y-134888095D01*
X190840476Y-134811904D02*
X190459523Y-134811904D01*
X190421428Y-135192857D01*
X190459523Y-135154761D01*
X190535714Y-135116666D01*
X190726190Y-135116666D01*
X190802380Y-135154761D01*
X190840476Y-135192857D01*
X190878571Y-135269047D01*
X190878571Y-135459523D01*
X190840476Y-135535714D01*
X190802380Y-135573809D01*
X190726190Y-135611904D01*
X190535714Y-135611904D01*
X190459523Y-135573809D01*
X190421428Y-135535714D01*
D18*
X150559523Y-94357142D02*
X150511904Y-94404761D01*
X150369047Y-94452380D01*
X150273809Y-94452380D01*
X150130952Y-94404761D01*
X150035714Y-94309523D01*
X149988095Y-94214285D01*
X149940476Y-94023809D01*
X149940476Y-93880952D01*
X149988095Y-93690476D01*
X150035714Y-93595238D01*
X150130952Y-93500000D01*
X150273809Y-93452380D01*
X150369047Y-93452380D01*
X150511904Y-93500000D01*
X150559523Y-93547619D01*
X150988095Y-94452380D02*
X150988095Y-93452380D01*
X151559523Y-94452380D01*
X151559523Y-93452380D01*
X152559523Y-94452380D02*
X151988095Y-94452380D01*
X152273809Y-94452380D02*
X152273809Y-93452380D01*
X152178571Y-93595238D01*
X152083333Y-93690476D01*
X151988095Y-93738095D01*
X143740476Y-88650000D02*
X143664285Y-88611904D01*
X143550000Y-88611904D01*
X143435714Y-88650000D01*
X143359523Y-88726190D01*
X143321428Y-88802380D01*
X143283333Y-88954761D01*
X143283333Y-89069047D01*
X143321428Y-89221428D01*
X143359523Y-89297619D01*
X143435714Y-89373809D01*
X143550000Y-89411904D01*
X143626190Y-89411904D01*
X143740476Y-89373809D01*
X143778571Y-89335714D01*
X143778571Y-89069047D01*
X143626190Y-89069047D01*
X144121428Y-89411904D02*
X144121428Y-88611904D01*
X144578571Y-89411904D01*
X144578571Y-88611904D01*
X144959523Y-89411904D02*
X144959523Y-88611904D01*
X145150000Y-88611904D01*
X145264285Y-88650000D01*
X145340476Y-88726190D01*
X145378571Y-88802380D01*
X145416666Y-88954761D01*
X145416666Y-89069047D01*
X145378571Y-89221428D01*
X145340476Y-89297619D01*
X145264285Y-89373809D01*
X145150000Y-89411904D01*
X144959523Y-89411904D01*
X141314761Y-89411904D02*
X140857619Y-89411904D01*
X141086190Y-89411904D02*
X141086190Y-88611904D01*
X141010000Y-88726190D01*
X140933809Y-88802380D01*
X140857619Y-88840476D01*
X141619523Y-88688095D02*
X141657619Y-88650000D01*
X141733809Y-88611904D01*
X141924285Y-88611904D01*
X142000476Y-88650000D01*
X142038571Y-88688095D01*
X142076666Y-88764285D01*
X142076666Y-88840476D01*
X142038571Y-88954761D01*
X141581428Y-89411904D01*
X142076666Y-89411904D01*
X142305238Y-88611904D02*
X142571904Y-89411904D01*
X142838571Y-88611904D01*
X136120476Y-88611904D02*
X136577619Y-88611904D01*
X136349047Y-89411904D02*
X136349047Y-88611904D01*
X136768095Y-88611904D02*
X137301428Y-89411904D01*
X137301428Y-88611904D02*
X136768095Y-89411904D01*
X126322380Y-89411904D02*
X126055714Y-89030952D01*
X125865238Y-89411904D02*
X125865238Y-88611904D01*
X126170000Y-88611904D01*
X126246190Y-88650000D01*
X126284285Y-88688095D01*
X126322380Y-88764285D01*
X126322380Y-88878571D01*
X126284285Y-88954761D01*
X126246190Y-88992857D01*
X126170000Y-89030952D01*
X125865238Y-89030952D01*
X126665238Y-89107142D02*
X127274761Y-89107142D01*
X126970000Y-89411904D02*
X126970000Y-88802380D01*
X148839523Y-89411904D02*
X148839523Y-88611904D01*
X149030000Y-88611904D01*
X149144285Y-88650000D01*
X149220476Y-88726190D01*
X149258571Y-88802380D01*
X149296666Y-88954761D01*
X149296666Y-89069047D01*
X149258571Y-89221428D01*
X149220476Y-89297619D01*
X149144285Y-89373809D01*
X149030000Y-89411904D01*
X148839523Y-89411904D01*
X149601428Y-88688095D02*
X149639523Y-88650000D01*
X149715714Y-88611904D01*
X149906190Y-88611904D01*
X149982380Y-88650000D01*
X150020476Y-88688095D01*
X150058571Y-88764285D01*
X150058571Y-88840476D01*
X150020476Y-88954761D01*
X149563333Y-89411904D01*
X150058571Y-89411904D01*
X131040476Y-88650000D02*
X130964285Y-88611904D01*
X130850000Y-88611904D01*
X130735714Y-88650000D01*
X130659523Y-88726190D01*
X130621428Y-88802380D01*
X130583333Y-88954761D01*
X130583333Y-89069047D01*
X130621428Y-89221428D01*
X130659523Y-89297619D01*
X130735714Y-89373809D01*
X130850000Y-89411904D01*
X130926190Y-89411904D01*
X131040476Y-89373809D01*
X131078571Y-89335714D01*
X131078571Y-89069047D01*
X130926190Y-89069047D01*
X131421428Y-89411904D02*
X131421428Y-88611904D01*
X131878571Y-89411904D01*
X131878571Y-88611904D01*
X132259523Y-89411904D02*
X132259523Y-88611904D01*
X132450000Y-88611904D01*
X132564285Y-88650000D01*
X132640476Y-88726190D01*
X132678571Y-88802380D01*
X132716666Y-88954761D01*
X132716666Y-89069047D01*
X132678571Y-89221428D01*
X132640476Y-89297619D01*
X132564285Y-89373809D01*
X132450000Y-89411904D01*
X132259523Y-89411904D01*
X146299523Y-89411904D02*
X146299523Y-88611904D01*
X146490000Y-88611904D01*
X146604285Y-88650000D01*
X146680476Y-88726190D01*
X146718571Y-88802380D01*
X146756666Y-88954761D01*
X146756666Y-89069047D01*
X146718571Y-89221428D01*
X146680476Y-89297619D01*
X146604285Y-89373809D01*
X146490000Y-89411904D01*
X146299523Y-89411904D01*
X147518571Y-89411904D02*
X147061428Y-89411904D01*
X147290000Y-89411904D02*
X147290000Y-88611904D01*
X147213809Y-88726190D01*
X147137619Y-88802380D01*
X147061428Y-88840476D01*
X138279523Y-88611904D02*
X138774761Y-88611904D01*
X138508095Y-88916666D01*
X138622380Y-88916666D01*
X138698571Y-88954761D01*
X138736666Y-88992857D01*
X138774761Y-89069047D01*
X138774761Y-89259523D01*
X138736666Y-89335714D01*
X138698571Y-89373809D01*
X138622380Y-89411904D01*
X138393809Y-89411904D01*
X138317619Y-89373809D01*
X138279523Y-89335714D01*
X139003333Y-88611904D02*
X139270000Y-89411904D01*
X139536666Y-88611904D01*
X139727142Y-88611904D02*
X140222380Y-88611904D01*
X139955714Y-88916666D01*
X140070000Y-88916666D01*
X140146190Y-88954761D01*
X140184285Y-88992857D01*
X140222380Y-89069047D01*
X140222380Y-89259523D01*
X140184285Y-89335714D01*
X140146190Y-89373809D01*
X140070000Y-89411904D01*
X139841428Y-89411904D01*
X139765238Y-89373809D01*
X139727142Y-89335714D01*
X134056666Y-89411904D02*
X133790000Y-89030952D01*
X133599523Y-89411904D02*
X133599523Y-88611904D01*
X133904285Y-88611904D01*
X133980476Y-88650000D01*
X134018571Y-88688095D01*
X134056666Y-88764285D01*
X134056666Y-88878571D01*
X134018571Y-88954761D01*
X133980476Y-88992857D01*
X133904285Y-89030952D01*
X133599523Y-89030952D01*
X134323333Y-88611904D02*
X134856666Y-89411904D01*
X134856666Y-88611904D02*
X134323333Y-89411904D01*
X128862380Y-89411904D02*
X128595714Y-89030952D01*
X128405238Y-89411904D02*
X128405238Y-88611904D01*
X128710000Y-88611904D01*
X128786190Y-88650000D01*
X128824285Y-88688095D01*
X128862380Y-88764285D01*
X128862380Y-88878571D01*
X128824285Y-88954761D01*
X128786190Y-88992857D01*
X128710000Y-89030952D01*
X128405238Y-89030952D01*
X129205238Y-89107142D02*
X129814761Y-89107142D01*
X187011904Y-91702380D02*
X187011904Y-90702380D01*
X187250000Y-90702380D01*
X187392857Y-90750000D01*
X187488095Y-90845238D01*
X187535714Y-90940476D01*
X187583333Y-91130952D01*
X187583333Y-91273809D01*
X187535714Y-91464285D01*
X187488095Y-91559523D01*
X187392857Y-91654761D01*
X187250000Y-91702380D01*
X187011904Y-91702380D01*
X188535714Y-91702380D02*
X187964285Y-91702380D01*
X188250000Y-91702380D02*
X188250000Y-90702380D01*
X188154761Y-90845238D01*
X188059523Y-90940476D01*
X187964285Y-90988095D01*
X202659523Y-135361904D02*
X202659523Y-134561904D01*
X202850000Y-134561904D01*
X202964285Y-134600000D01*
X203040476Y-134676190D01*
X203078571Y-134752380D01*
X203116666Y-134904761D01*
X203116666Y-135019047D01*
X203078571Y-135171428D01*
X203040476Y-135247619D01*
X202964285Y-135323809D01*
X202850000Y-135361904D01*
X202659523Y-135361904D01*
X203383333Y-134561904D02*
X203878571Y-134561904D01*
X203611904Y-134866666D01*
X203726190Y-134866666D01*
X203802380Y-134904761D01*
X203840476Y-134942857D01*
X203878571Y-135019047D01*
X203878571Y-135209523D01*
X203840476Y-135285714D01*
X203802380Y-135323809D01*
X203726190Y-135361904D01*
X203497619Y-135361904D01*
X203421428Y-135323809D01*
X203383333Y-135285714D01*
X200409523Y-135361904D02*
X200409523Y-134561904D01*
X200600000Y-134561904D01*
X200714285Y-134600000D01*
X200790476Y-134676190D01*
X200828571Y-134752380D01*
X200866666Y-134904761D01*
X200866666Y-135019047D01*
X200828571Y-135171428D01*
X200790476Y-135247619D01*
X200714285Y-135323809D01*
X200600000Y-135361904D01*
X200409523Y-135361904D01*
X201552380Y-134828571D02*
X201552380Y-135361904D01*
X201361904Y-134523809D02*
X201171428Y-135095238D01*
X201666666Y-135095238D01*
X180452380Y-143238095D02*
X179452380Y-143238095D01*
X179452380Y-143000000D01*
X179500000Y-142857142D01*
X179595238Y-142761904D01*
X179690476Y-142714285D01*
X179880952Y-142666666D01*
X180023809Y-142666666D01*
X180214285Y-142714285D01*
X180309523Y-142761904D01*
X180404761Y-142857142D01*
X180452380Y-143000000D01*
X180452380Y-143238095D01*
X179452380Y-141761904D02*
X179452380Y-142238095D01*
X179928571Y-142285714D01*
X179880952Y-142238095D01*
X179833333Y-142142857D01*
X179833333Y-141904761D01*
X179880952Y-141809523D01*
X179928571Y-141761904D01*
X180023809Y-141714285D01*
X180261904Y-141714285D01*
X180357142Y-141761904D01*
X180404761Y-141809523D01*
X180452380Y-141904761D01*
X180452380Y-142142857D01*
X180404761Y-142238095D01*
X180357142Y-142285714D01*
X117511904Y-71702380D02*
X117511904Y-70702380D01*
X117750000Y-70702380D01*
X117892857Y-70750000D01*
X117988095Y-70845238D01*
X118035714Y-70940476D01*
X118083333Y-71130952D01*
X118083333Y-71273809D01*
X118035714Y-71464285D01*
X117988095Y-71559523D01*
X117892857Y-71654761D01*
X117750000Y-71702380D01*
X117511904Y-71702380D01*
X118416666Y-70702380D02*
X119083333Y-70702380D01*
X118654761Y-71702380D01*
D19*
X203193619Y-73338666D02*
X203919333Y-73338666D01*
X204064476Y-73387047D01*
X204161238Y-73483809D01*
X204209619Y-73628952D01*
X204209619Y-73725714D01*
X204209619Y-72322666D02*
X204209619Y-72903238D01*
X204209619Y-72612952D02*
X203193619Y-72612952D01*
X203338761Y-72709714D01*
X203435523Y-72806476D01*
X203483904Y-72903238D01*
D17*
X169733333Y-78061904D02*
X169733333Y-78633333D01*
X169695238Y-78747619D01*
X169619047Y-78823809D01*
X169504761Y-78861904D01*
X169428571Y-78861904D01*
X170076190Y-78138095D02*
X170114285Y-78100000D01*
X170190476Y-78061904D01*
X170380952Y-78061904D01*
X170457142Y-78100000D01*
X170495238Y-78138095D01*
X170533333Y-78214285D01*
X170533333Y-78290476D01*
X170495238Y-78404761D01*
X170038095Y-78861904D01*
X170533333Y-78861904D01*
D18*
X155416666Y-83452380D02*
X155416666Y-84166666D01*
X155369047Y-84309523D01*
X155273809Y-84404761D01*
X155130952Y-84452380D01*
X155035714Y-84452380D01*
X155797619Y-83452380D02*
X156416666Y-83452380D01*
X156083333Y-83833333D01*
X156226190Y-83833333D01*
X156321428Y-83880952D01*
X156369047Y-83928571D01*
X156416666Y-84023809D01*
X156416666Y-84261904D01*
X156369047Y-84357142D01*
X156321428Y-84404761D01*
X156226190Y-84452380D01*
X155940476Y-84452380D01*
X155845238Y-84404761D01*
X155797619Y-84357142D01*
X117666666Y-96452380D02*
X117666666Y-97166666D01*
X117619047Y-97309523D01*
X117523809Y-97404761D01*
X117380952Y-97452380D01*
X117285714Y-97452380D01*
X118571428Y-96785714D02*
X118571428Y-97452380D01*
X118333333Y-96404761D02*
X118095238Y-97119047D01*
X118714285Y-97119047D01*
X202666666Y-96452380D02*
X202666666Y-97166666D01*
X202619047Y-97309523D01*
X202523809Y-97404761D01*
X202380952Y-97452380D01*
X202285714Y-97452380D01*
X203619047Y-96452380D02*
X203142857Y-96452380D01*
X203095238Y-96928571D01*
X203142857Y-96880952D01*
X203238095Y-96833333D01*
X203476190Y-96833333D01*
X203571428Y-96880952D01*
X203619047Y-96928571D01*
X203666666Y-97023809D01*
X203666666Y-97261904D01*
X203619047Y-97357142D01*
X203571428Y-97404761D01*
X203476190Y-97452380D01*
X203238095Y-97452380D01*
X203142857Y-97404761D01*
X203095238Y-97357142D01*
D17*
X188423809Y-136938095D02*
X188347619Y-136900000D01*
X188271428Y-136823809D01*
X188157142Y-136709523D01*
X188080952Y-136671428D01*
X188004761Y-136671428D01*
X188042857Y-136861904D02*
X187966666Y-136823809D01*
X187890476Y-136747619D01*
X187852380Y-136595238D01*
X187852380Y-136328571D01*
X187890476Y-136176190D01*
X187966666Y-136100000D01*
X188042857Y-136061904D01*
X188195238Y-136061904D01*
X188271428Y-136100000D01*
X188347619Y-136176190D01*
X188385714Y-136328571D01*
X188385714Y-136595238D01*
X188347619Y-136747619D01*
X188271428Y-136823809D01*
X188195238Y-136861904D01*
X188042857Y-136861904D01*
X189147619Y-136861904D02*
X188690476Y-136861904D01*
X188919047Y-136861904D02*
X188919047Y-136061904D01*
X188842857Y-136176190D01*
X188766666Y-136252380D01*
X188690476Y-136290476D01*
X156673809Y-123438095D02*
X156597619Y-123400000D01*
X156521428Y-123323809D01*
X156407142Y-123209523D01*
X156330952Y-123171428D01*
X156254761Y-123171428D01*
X156292857Y-123361904D02*
X156216666Y-123323809D01*
X156140476Y-123247619D01*
X156102380Y-123095238D01*
X156102380Y-122828571D01*
X156140476Y-122676190D01*
X156216666Y-122600000D01*
X156292857Y-122561904D01*
X156445238Y-122561904D01*
X156521428Y-122600000D01*
X156597619Y-122676190D01*
X156635714Y-122828571D01*
X156635714Y-123095238D01*
X156597619Y-123247619D01*
X156521428Y-123323809D01*
X156445238Y-123361904D01*
X156292857Y-123361904D01*
X156940476Y-122638095D02*
X156978571Y-122600000D01*
X157054761Y-122561904D01*
X157245238Y-122561904D01*
X157321428Y-122600000D01*
X157359523Y-122638095D01*
X157397619Y-122714285D01*
X157397619Y-122790476D01*
X157359523Y-122904761D01*
X156902380Y-123361904D01*
X157397619Y-123361904D01*
X122173809Y-97938095D02*
X122097619Y-97900000D01*
X122021428Y-97823809D01*
X121907142Y-97709523D01*
X121830952Y-97671428D01*
X121754761Y-97671428D01*
X121792857Y-97861904D02*
X121716666Y-97823809D01*
X121640476Y-97747619D01*
X121602380Y-97595238D01*
X121602380Y-97328571D01*
X121640476Y-97176190D01*
X121716666Y-97100000D01*
X121792857Y-97061904D01*
X121945238Y-97061904D01*
X122021428Y-97100000D01*
X122097619Y-97176190D01*
X122135714Y-97328571D01*
X122135714Y-97595238D01*
X122097619Y-97747619D01*
X122021428Y-97823809D01*
X121945238Y-97861904D01*
X121792857Y-97861904D01*
X122402380Y-97061904D02*
X122897619Y-97061904D01*
X122630952Y-97366666D01*
X122745238Y-97366666D01*
X122821428Y-97404761D01*
X122859523Y-97442857D01*
X122897619Y-97519047D01*
X122897619Y-97709523D01*
X122859523Y-97785714D01*
X122821428Y-97823809D01*
X122745238Y-97861904D01*
X122516666Y-97861904D01*
X122440476Y-97823809D01*
X122402380Y-97785714D01*
X192866666Y-121361904D02*
X192600000Y-120980952D01*
X192409523Y-121361904D02*
X192409523Y-120561904D01*
X192714285Y-120561904D01*
X192790476Y-120600000D01*
X192828571Y-120638095D01*
X192866666Y-120714285D01*
X192866666Y-120828571D01*
X192828571Y-120904761D01*
X192790476Y-120942857D01*
X192714285Y-120980952D01*
X192409523Y-120980952D01*
X193628571Y-121361904D02*
X193171428Y-121361904D01*
X193400000Y-121361904D02*
X193400000Y-120561904D01*
X193323809Y-120676190D01*
X193247619Y-120752380D01*
X193171428Y-120790476D01*
X188616666Y-134611904D02*
X188350000Y-134230952D01*
X188159523Y-134611904D02*
X188159523Y-133811904D01*
X188464285Y-133811904D01*
X188540476Y-133850000D01*
X188578571Y-133888095D01*
X188616666Y-133964285D01*
X188616666Y-134078571D01*
X188578571Y-134154761D01*
X188540476Y-134192857D01*
X188464285Y-134230952D01*
X188159523Y-134230952D01*
X189302380Y-134078571D02*
X189302380Y-134611904D01*
X189111904Y-133773809D02*
X188921428Y-134345238D01*
X189416666Y-134345238D01*
X195616666Y-134111904D02*
X195350000Y-133730952D01*
X195159523Y-134111904D02*
X195159523Y-133311904D01*
X195464285Y-133311904D01*
X195540476Y-133350000D01*
X195578571Y-133388095D01*
X195616666Y-133464285D01*
X195616666Y-133578571D01*
X195578571Y-133654761D01*
X195540476Y-133692857D01*
X195464285Y-133730952D01*
X195159523Y-133730952D01*
X196340476Y-133311904D02*
X195959523Y-133311904D01*
X195921428Y-133692857D01*
X195959523Y-133654761D01*
X196035714Y-133616666D01*
X196226190Y-133616666D01*
X196302380Y-133654761D01*
X196340476Y-133692857D01*
X196378571Y-133769047D01*
X196378571Y-133959523D01*
X196340476Y-134035714D01*
X196302380Y-134073809D01*
X196226190Y-134111904D01*
X196035714Y-134111904D01*
X195959523Y-134073809D01*
X195921428Y-134035714D01*
X140611904Y-94883333D02*
X140230952Y-95150000D01*
X140611904Y-95340476D02*
X139811904Y-95340476D01*
X139811904Y-95035714D01*
X139850000Y-94959523D01*
X139888095Y-94921428D01*
X139964285Y-94883333D01*
X140078571Y-94883333D01*
X140154761Y-94921428D01*
X140192857Y-94959523D01*
X140230952Y-95035714D01*
X140230952Y-95340476D01*
X139811904Y-94197619D02*
X139811904Y-94350000D01*
X139850000Y-94426190D01*
X139888095Y-94464285D01*
X140002380Y-94540476D01*
X140154761Y-94578571D01*
X140459523Y-94578571D01*
X140535714Y-94540476D01*
X140573809Y-94502380D01*
X140611904Y-94426190D01*
X140611904Y-94273809D01*
X140573809Y-94197619D01*
X140535714Y-94159523D01*
X140459523Y-94121428D01*
X140269047Y-94121428D01*
X140192857Y-94159523D01*
X140154761Y-94197619D01*
X140116666Y-94273809D01*
X140116666Y-94426190D01*
X140154761Y-94502380D01*
X140192857Y-94540476D01*
X140269047Y-94578571D01*
X144611904Y-94883333D02*
X144230952Y-95150000D01*
X144611904Y-95340476D02*
X143811904Y-95340476D01*
X143811904Y-95035714D01*
X143850000Y-94959523D01*
X143888095Y-94921428D01*
X143964285Y-94883333D01*
X144078571Y-94883333D01*
X144154761Y-94921428D01*
X144192857Y-94959523D01*
X144230952Y-95035714D01*
X144230952Y-95340476D01*
X143811904Y-94616666D02*
X143811904Y-94083333D01*
X144611904Y-94426190D01*
X129111904Y-113014285D02*
X128730952Y-113280952D01*
X129111904Y-113471428D02*
X128311904Y-113471428D01*
X128311904Y-113166666D01*
X128350000Y-113090476D01*
X128388095Y-113052380D01*
X128464285Y-113014285D01*
X128578571Y-113014285D01*
X128654761Y-113052380D01*
X128692857Y-113090476D01*
X128730952Y-113166666D01*
X128730952Y-113471428D01*
X129111904Y-112252380D02*
X129111904Y-112709523D01*
X129111904Y-112480952D02*
X128311904Y-112480952D01*
X128426190Y-112557142D01*
X128502380Y-112633333D01*
X128540476Y-112709523D01*
X128311904Y-111985714D02*
X128311904Y-111490476D01*
X128616666Y-111757142D01*
X128616666Y-111642857D01*
X128654761Y-111566666D01*
X128692857Y-111528571D01*
X128769047Y-111490476D01*
X128959523Y-111490476D01*
X129035714Y-111528571D01*
X129073809Y-111566666D01*
X129111904Y-111642857D01*
X129111904Y-111871428D01*
X129073809Y-111947619D01*
X129035714Y-111985714D01*
X130611904Y-113014285D02*
X130230952Y-113280952D01*
X130611904Y-113471428D02*
X129811904Y-113471428D01*
X129811904Y-113166666D01*
X129850000Y-113090476D01*
X129888095Y-113052380D01*
X129964285Y-113014285D01*
X130078571Y-113014285D01*
X130154761Y-113052380D01*
X130192857Y-113090476D01*
X130230952Y-113166666D01*
X130230952Y-113471428D01*
X130611904Y-112252380D02*
X130611904Y-112709523D01*
X130611904Y-112480952D02*
X129811904Y-112480952D01*
X129926190Y-112557142D01*
X130002380Y-112633333D01*
X130040476Y-112709523D01*
X130078571Y-111566666D02*
X130611904Y-111566666D01*
X129773809Y-111757142D02*
X130345238Y-111947619D01*
X130345238Y-111452380D01*
X176485714Y-138111904D02*
X176219047Y-137730952D01*
X176028571Y-138111904D02*
X176028571Y-137311904D01*
X176333333Y-137311904D01*
X176409523Y-137350000D01*
X176447619Y-137388095D01*
X176485714Y-137464285D01*
X176485714Y-137578571D01*
X176447619Y-137654761D01*
X176409523Y-137692857D01*
X176333333Y-137730952D01*
X176028571Y-137730952D01*
X177247619Y-138111904D02*
X176790476Y-138111904D01*
X177019047Y-138111904D02*
X177019047Y-137311904D01*
X176942857Y-137426190D01*
X176866666Y-137502380D01*
X176790476Y-137540476D01*
X177971428Y-137311904D02*
X177590476Y-137311904D01*
X177552380Y-137692857D01*
X177590476Y-137654761D01*
X177666666Y-137616666D01*
X177857142Y-137616666D01*
X177933333Y-137654761D01*
X177971428Y-137692857D01*
X178009523Y-137769047D01*
X178009523Y-137959523D01*
X177971428Y-138035714D01*
X177933333Y-138073809D01*
X177857142Y-138111904D01*
X177666666Y-138111904D01*
X177590476Y-138073809D01*
X177552380Y-138035714D01*
X184485714Y-138111904D02*
X184219047Y-137730952D01*
X184028571Y-138111904D02*
X184028571Y-137311904D01*
X184333333Y-137311904D01*
X184409523Y-137350000D01*
X184447619Y-137388095D01*
X184485714Y-137464285D01*
X184485714Y-137578571D01*
X184447619Y-137654761D01*
X184409523Y-137692857D01*
X184333333Y-137730952D01*
X184028571Y-137730952D01*
X185247619Y-138111904D02*
X184790476Y-138111904D01*
X185019047Y-138111904D02*
X185019047Y-137311904D01*
X184942857Y-137426190D01*
X184866666Y-137502380D01*
X184790476Y-137540476D01*
X185933333Y-137311904D02*
X185780952Y-137311904D01*
X185704761Y-137350000D01*
X185666666Y-137388095D01*
X185590476Y-137502380D01*
X185552380Y-137654761D01*
X185552380Y-137959523D01*
X185590476Y-138035714D01*
X185628571Y-138073809D01*
X185704761Y-138111904D01*
X185857142Y-138111904D01*
X185933333Y-138073809D01*
X185971428Y-138035714D01*
X186009523Y-137959523D01*
X186009523Y-137769047D01*
X185971428Y-137692857D01*
X185933333Y-137654761D01*
X185857142Y-137616666D01*
X185704761Y-137616666D01*
X185628571Y-137654761D01*
X185590476Y-137692857D01*
X185552380Y-137769047D01*
X200485714Y-143611904D02*
X200219047Y-143230952D01*
X200028571Y-143611904D02*
X200028571Y-142811904D01*
X200333333Y-142811904D01*
X200409523Y-142850000D01*
X200447619Y-142888095D01*
X200485714Y-142964285D01*
X200485714Y-143078571D01*
X200447619Y-143154761D01*
X200409523Y-143192857D01*
X200333333Y-143230952D01*
X200028571Y-143230952D01*
X201247619Y-143611904D02*
X200790476Y-143611904D01*
X201019047Y-143611904D02*
X201019047Y-142811904D01*
X200942857Y-142926190D01*
X200866666Y-143002380D01*
X200790476Y-143040476D01*
X201514285Y-142811904D02*
X202047619Y-142811904D01*
X201704761Y-143611904D01*
X126985714Y-95611904D02*
X126719047Y-95230952D01*
X126528571Y-95611904D02*
X126528571Y-94811904D01*
X126833333Y-94811904D01*
X126909523Y-94850000D01*
X126947619Y-94888095D01*
X126985714Y-94964285D01*
X126985714Y-95078571D01*
X126947619Y-95154761D01*
X126909523Y-95192857D01*
X126833333Y-95230952D01*
X126528571Y-95230952D01*
X127747619Y-95611904D02*
X127290476Y-95611904D01*
X127519047Y-95611904D02*
X127519047Y-94811904D01*
X127442857Y-94926190D01*
X127366666Y-95002380D01*
X127290476Y-95040476D01*
X128204761Y-95154761D02*
X128128571Y-95116666D01*
X128090476Y-95078571D01*
X128052380Y-95002380D01*
X128052380Y-94964285D01*
X128090476Y-94888095D01*
X128128571Y-94850000D01*
X128204761Y-94811904D01*
X128357142Y-94811904D01*
X128433333Y-94850000D01*
X128471428Y-94888095D01*
X128509523Y-94964285D01*
X128509523Y-95002380D01*
X128471428Y-95078571D01*
X128433333Y-95116666D01*
X128357142Y-95154761D01*
X128204761Y-95154761D01*
X128128571Y-95192857D01*
X128090476Y-95230952D01*
X128052380Y-95307142D01*
X128052380Y-95459523D01*
X128090476Y-95535714D01*
X128128571Y-95573809D01*
X128204761Y-95611904D01*
X128357142Y-95611904D01*
X128433333Y-95573809D01*
X128471428Y-95535714D01*
X128509523Y-95459523D01*
X128509523Y-95307142D01*
X128471428Y-95230952D01*
X128433333Y-95192857D01*
X128357142Y-95154761D01*
D18*
X117166666Y-84404761D02*
X117309523Y-84452380D01*
X117547619Y-84452380D01*
X117642857Y-84404761D01*
X117690476Y-84357142D01*
X117738095Y-84261904D01*
X117738095Y-84166666D01*
X117690476Y-84071428D01*
X117642857Y-84023809D01*
X117547619Y-83976190D01*
X117357142Y-83928571D01*
X117261904Y-83880952D01*
X117214285Y-83833333D01*
X117166666Y-83738095D01*
X117166666Y-83642857D01*
X117214285Y-83547619D01*
X117261904Y-83500000D01*
X117357142Y-83452380D01*
X117595238Y-83452380D01*
X117738095Y-83500000D01*
X118071428Y-83452380D02*
X118309523Y-84452380D01*
X118500000Y-83738095D01*
X118690476Y-84452380D01*
X118928571Y-83452380D01*
X119833333Y-84452380D02*
X119261904Y-84452380D01*
X119547619Y-84452380D02*
X119547619Y-83452380D01*
X119452380Y-83595238D01*
X119357142Y-83690476D01*
X119261904Y-83738095D01*
X193666666Y-137404761D02*
X193809523Y-137452380D01*
X194047619Y-137452380D01*
X194142857Y-137404761D01*
X194190476Y-137357142D01*
X194238095Y-137261904D01*
X194238095Y-137166666D01*
X194190476Y-137071428D01*
X194142857Y-137023809D01*
X194047619Y-136976190D01*
X193857142Y-136928571D01*
X193761904Y-136880952D01*
X193714285Y-136833333D01*
X193666666Y-136738095D01*
X193666666Y-136642857D01*
X193714285Y-136547619D01*
X193761904Y-136500000D01*
X193857142Y-136452380D01*
X194095238Y-136452380D01*
X194238095Y-136500000D01*
X194571428Y-136452380D02*
X194809523Y-137452380D01*
X195000000Y-136738095D01*
X195190476Y-137452380D01*
X195428571Y-136452380D01*
X195761904Y-136547619D02*
X195809523Y-136500000D01*
X195904761Y-136452380D01*
X196142857Y-136452380D01*
X196238095Y-136500000D01*
X196285714Y-136547619D01*
X196333333Y-136642857D01*
X196333333Y-136738095D01*
X196285714Y-136880952D01*
X195714285Y-137452380D01*
X196333333Y-137452380D01*
X127238095Y-118452380D02*
X127238095Y-119261904D01*
X127285714Y-119357142D01*
X127333333Y-119404761D01*
X127428571Y-119452380D01*
X127619047Y-119452380D01*
X127714285Y-119404761D01*
X127761904Y-119357142D01*
X127809523Y-119261904D01*
X127809523Y-118452380D01*
X128714285Y-118452380D02*
X128523809Y-118452380D01*
X128428571Y-118500000D01*
X128380952Y-118547619D01*
X128285714Y-118690476D01*
X128238095Y-118880952D01*
X128238095Y-119261904D01*
X128285714Y-119357142D01*
X128333333Y-119404761D01*
X128428571Y-119452380D01*
X128619047Y-119452380D01*
X128714285Y-119404761D01*
X128761904Y-119357142D01*
X128809523Y-119261904D01*
X128809523Y-119023809D01*
X128761904Y-118928571D01*
X128714285Y-118880952D01*
X128619047Y-118833333D01*
X128428571Y-118833333D01*
X128333333Y-118880952D01*
X128285714Y-118928571D01*
X128238095Y-119023809D01*
X149880952Y-119452380D02*
X149547619Y-118976190D01*
X149309523Y-119452380D02*
X149309523Y-118452380D01*
X149690476Y-118452380D01*
X149785714Y-118500000D01*
X149833333Y-118547619D01*
X149880952Y-118642857D01*
X149880952Y-118785714D01*
X149833333Y-118880952D01*
X149785714Y-118928571D01*
X149690476Y-118976190D01*
X149309523Y-118976190D01*
X150642857Y-118928571D02*
X150309523Y-118928571D01*
X150309523Y-119452380D02*
X150309523Y-118452380D01*
X150785714Y-118452380D01*
D17*
X191640476Y-133061904D02*
X191640476Y-133709523D01*
X191678571Y-133785714D01*
X191716666Y-133823809D01*
X191792857Y-133861904D01*
X191945238Y-133861904D01*
X192021428Y-133823809D01*
X192059523Y-133785714D01*
X192097619Y-133709523D01*
X192097619Y-133061904D01*
X192821428Y-133328571D02*
X192821428Y-133861904D01*
X192630952Y-133023809D02*
X192440476Y-133595238D01*
X192935714Y-133595238D01*
X195361904Y-130383333D02*
X194980952Y-130650000D01*
X195361904Y-130840476D02*
X194561904Y-130840476D01*
X194561904Y-130535714D01*
X194600000Y-130459523D01*
X194638095Y-130421428D01*
X194714285Y-130383333D01*
X194828571Y-130383333D01*
X194904761Y-130421428D01*
X194942857Y-130459523D01*
X194980952Y-130535714D01*
X194980952Y-130840476D01*
X194561904Y-130116666D02*
X194561904Y-129621428D01*
X194866666Y-129888095D01*
X194866666Y-129773809D01*
X194904761Y-129697619D01*
X194942857Y-129659523D01*
X195019047Y-129621428D01*
X195209523Y-129621428D01*
X195285714Y-129659523D01*
X195323809Y-129697619D01*
X195361904Y-129773809D01*
X195361904Y-130002380D01*
X195323809Y-130078571D01*
X195285714Y-130116666D01*
D18*
X158666666Y-137404761D02*
X158809523Y-137452380D01*
X159047619Y-137452380D01*
X159142857Y-137404761D01*
X159190476Y-137357142D01*
X159238095Y-137261904D01*
X159238095Y-137166666D01*
X159190476Y-137071428D01*
X159142857Y-137023809D01*
X159047619Y-136976190D01*
X158857142Y-136928571D01*
X158761904Y-136880952D01*
X158714285Y-136833333D01*
X158666666Y-136738095D01*
X158666666Y-136642857D01*
X158714285Y-136547619D01*
X158761904Y-136500000D01*
X158857142Y-136452380D01*
X159095238Y-136452380D01*
X159238095Y-136500000D01*
X159571428Y-136452380D02*
X159809523Y-137452380D01*
X160000000Y-136738095D01*
X160190476Y-137452380D01*
X160428571Y-136452380D01*
X160714285Y-136452380D02*
X161333333Y-136452380D01*
X161000000Y-136833333D01*
X161142857Y-136833333D01*
X161238095Y-136880952D01*
X161285714Y-136928571D01*
X161333333Y-137023809D01*
X161333333Y-137261904D01*
X161285714Y-137357142D01*
X161238095Y-137404761D01*
X161142857Y-137452380D01*
X160857142Y-137452380D01*
X160761904Y-137404761D01*
X160714285Y-137357142D01*
X155988095Y-97452380D02*
X155988095Y-98261904D01*
X156035714Y-98357142D01*
X156083333Y-98404761D01*
X156178571Y-98452380D01*
X156369047Y-98452380D01*
X156464285Y-98404761D01*
X156511904Y-98357142D01*
X156559523Y-98261904D01*
X156559523Y-97452380D01*
X157511904Y-97452380D02*
X157035714Y-97452380D01*
X156988095Y-97928571D01*
X157035714Y-97880952D01*
X157130952Y-97833333D01*
X157369047Y-97833333D01*
X157464285Y-97880952D01*
X157511904Y-97928571D01*
X157559523Y-98023809D01*
X157559523Y-98261904D01*
X157511904Y-98357142D01*
X157464285Y-98404761D01*
X157369047Y-98452380D01*
X157130952Y-98452380D01*
X157035714Y-98404761D01*
X156988095Y-98357142D01*
D17*
X145116666Y-111611904D02*
X144850000Y-111230952D01*
X144659523Y-111611904D02*
X144659523Y-110811904D01*
X144964285Y-110811904D01*
X145040476Y-110850000D01*
X145078571Y-110888095D01*
X145116666Y-110964285D01*
X145116666Y-111078571D01*
X145078571Y-111154761D01*
X145040476Y-111192857D01*
X144964285Y-111230952D01*
X144659523Y-111230952D01*
X145573809Y-111154761D02*
X145497619Y-111116666D01*
X145459523Y-111078571D01*
X145421428Y-111002380D01*
X145421428Y-110964285D01*
X145459523Y-110888095D01*
X145497619Y-110850000D01*
X145573809Y-110811904D01*
X145726190Y-110811904D01*
X145802380Y-110850000D01*
X145840476Y-110888095D01*
X145878571Y-110964285D01*
X145878571Y-111002380D01*
X145840476Y-111078571D01*
X145802380Y-111116666D01*
X145726190Y-111154761D01*
X145573809Y-111154761D01*
X145497619Y-111192857D01*
X145459523Y-111230952D01*
X145421428Y-111307142D01*
X145421428Y-111459523D01*
X145459523Y-111535714D01*
X145497619Y-111573809D01*
X145573809Y-111611904D01*
X145726190Y-111611904D01*
X145802380Y-111573809D01*
X145840476Y-111535714D01*
X145878571Y-111459523D01*
X145878571Y-111307142D01*
X145840476Y-111230952D01*
X145802380Y-111192857D01*
X145726190Y-111154761D01*
X149111904Y-97014285D02*
X148730952Y-97280952D01*
X149111904Y-97471428D02*
X148311904Y-97471428D01*
X148311904Y-97166666D01*
X148350000Y-97090476D01*
X148388095Y-97052380D01*
X148464285Y-97014285D01*
X148578571Y-97014285D01*
X148654761Y-97052380D01*
X148692857Y-97090476D01*
X148730952Y-97166666D01*
X148730952Y-97471428D01*
X149111904Y-96252380D02*
X149111904Y-96709523D01*
X149111904Y-96480952D02*
X148311904Y-96480952D01*
X148426190Y-96557142D01*
X148502380Y-96633333D01*
X148540476Y-96709523D01*
X148388095Y-95947619D02*
X148350000Y-95909523D01*
X148311904Y-95833333D01*
X148311904Y-95642857D01*
X148350000Y-95566666D01*
X148388095Y-95528571D01*
X148464285Y-95490476D01*
X148540476Y-95490476D01*
X148654761Y-95528571D01*
X149111904Y-95985714D01*
X149111904Y-95490476D01*
X147611904Y-97014285D02*
X147230952Y-97280952D01*
X147611904Y-97471428D02*
X146811904Y-97471428D01*
X146811904Y-97166666D01*
X146850000Y-97090476D01*
X146888095Y-97052380D01*
X146964285Y-97014285D01*
X147078571Y-97014285D01*
X147154761Y-97052380D01*
X147192857Y-97090476D01*
X147230952Y-97166666D01*
X147230952Y-97471428D01*
X147611904Y-96252380D02*
X147611904Y-96709523D01*
X147611904Y-96480952D02*
X146811904Y-96480952D01*
X146926190Y-96557142D01*
X147002380Y-96633333D01*
X147040476Y-96709523D01*
X147611904Y-95490476D02*
X147611904Y-95947619D01*
X147611904Y-95719047D02*
X146811904Y-95719047D01*
X146926190Y-95795238D01*
X147002380Y-95871428D01*
X147040476Y-95947619D01*
X126116666Y-103861904D02*
X125850000Y-103480952D01*
X125659523Y-103861904D02*
X125659523Y-103061904D01*
X125964285Y-103061904D01*
X126040476Y-103100000D01*
X126078571Y-103138095D01*
X126116666Y-103214285D01*
X126116666Y-103328571D01*
X126078571Y-103404761D01*
X126040476Y-103442857D01*
X125964285Y-103480952D01*
X125659523Y-103480952D01*
X126497619Y-103861904D02*
X126650000Y-103861904D01*
X126726190Y-103823809D01*
X126764285Y-103785714D01*
X126840476Y-103671428D01*
X126878571Y-103519047D01*
X126878571Y-103214285D01*
X126840476Y-103138095D01*
X126802380Y-103100000D01*
X126726190Y-103061904D01*
X126573809Y-103061904D01*
X126497619Y-103100000D01*
X126459523Y-103138095D01*
X126421428Y-103214285D01*
X126421428Y-103404761D01*
X126459523Y-103480952D01*
X126497619Y-103519047D01*
X126573809Y-103557142D01*
X126726190Y-103557142D01*
X126802380Y-103519047D01*
X126840476Y-103480952D01*
X126878571Y-103404761D01*
X126111904Y-100514285D02*
X125730952Y-100780952D01*
X126111904Y-100971428D02*
X125311904Y-100971428D01*
X125311904Y-100666666D01*
X125350000Y-100590476D01*
X125388095Y-100552380D01*
X125464285Y-100514285D01*
X125578571Y-100514285D01*
X125654761Y-100552380D01*
X125692857Y-100590476D01*
X125730952Y-100666666D01*
X125730952Y-100971428D01*
X126111904Y-99752380D02*
X126111904Y-100209523D01*
X126111904Y-99980952D02*
X125311904Y-99980952D01*
X125426190Y-100057142D01*
X125502380Y-100133333D01*
X125540476Y-100209523D01*
X125311904Y-99257142D02*
X125311904Y-99180952D01*
X125350000Y-99104761D01*
X125388095Y-99066666D01*
X125464285Y-99028571D01*
X125616666Y-98990476D01*
X125807142Y-98990476D01*
X125959523Y-99028571D01*
X126035714Y-99066666D01*
X126073809Y-99104761D01*
X126111904Y-99180952D01*
X126111904Y-99257142D01*
X126073809Y-99333333D01*
X126035714Y-99371428D01*
X125959523Y-99409523D01*
X125807142Y-99447619D01*
X125616666Y-99447619D01*
X125464285Y-99409523D01*
X125388095Y-99371428D01*
X125350000Y-99333333D01*
X125311904Y-99257142D01*
D18*
X141723809Y-112726190D02*
X141723809Y-113202380D01*
X141390476Y-112202380D02*
X141723809Y-112726190D01*
X142057142Y-112202380D01*
X142914285Y-113202380D02*
X142342857Y-113202380D01*
X142628571Y-113202380D02*
X142628571Y-112202380D01*
X142533333Y-112345238D01*
X142438095Y-112440476D01*
X142342857Y-112488095D01*
X155666666Y-117202380D02*
X155666666Y-117916666D01*
X155619047Y-118059523D01*
X155523809Y-118154761D01*
X155380952Y-118202380D01*
X155285714Y-118202380D01*
X156571428Y-117202380D02*
X156380952Y-117202380D01*
X156285714Y-117250000D01*
X156238095Y-117297619D01*
X156142857Y-117440476D01*
X156095238Y-117630952D01*
X156095238Y-118011904D01*
X156142857Y-118107142D01*
X156190476Y-118154761D01*
X156285714Y-118202380D01*
X156476190Y-118202380D01*
X156571428Y-118154761D01*
X156619047Y-118107142D01*
X156666666Y-118011904D01*
X156666666Y-117773809D01*
X156619047Y-117678571D01*
X156571428Y-117630952D01*
X156476190Y-117583333D01*
X156285714Y-117583333D01*
X156190476Y-117630952D01*
X156142857Y-117678571D01*
X156095238Y-117773809D01*
D17*
X135061904Y-100109523D02*
X135709523Y-100109523D01*
X135785714Y-100071428D01*
X135823809Y-100033333D01*
X135861904Y-99957142D01*
X135861904Y-99804761D01*
X135823809Y-99728571D01*
X135785714Y-99690476D01*
X135709523Y-99652380D01*
X135061904Y-99652380D01*
X135138095Y-99309523D02*
X135100000Y-99271428D01*
X135061904Y-99195238D01*
X135061904Y-99004761D01*
X135100000Y-98928571D01*
X135138095Y-98890476D01*
X135214285Y-98852380D01*
X135290476Y-98852380D01*
X135404761Y-98890476D01*
X135861904Y-99347619D01*
X135861904Y-98852380D01*
X128785714Y-97514285D02*
X128823809Y-97552380D01*
X128861904Y-97666666D01*
X128861904Y-97742857D01*
X128823809Y-97857142D01*
X128747619Y-97933333D01*
X128671428Y-97971428D01*
X128519047Y-98009523D01*
X128404761Y-98009523D01*
X128252380Y-97971428D01*
X128176190Y-97933333D01*
X128100000Y-97857142D01*
X128061904Y-97742857D01*
X128061904Y-97666666D01*
X128100000Y-97552380D01*
X128138095Y-97514285D01*
X128861904Y-96752380D02*
X128861904Y-97209523D01*
X128861904Y-96980952D02*
X128061904Y-96980952D01*
X128176190Y-97057142D01*
X128252380Y-97133333D01*
X128290476Y-97209523D01*
X128861904Y-96371428D02*
X128861904Y-96219047D01*
X128823809Y-96142857D01*
X128785714Y-96104761D01*
X128671428Y-96028571D01*
X128519047Y-95990476D01*
X128214285Y-95990476D01*
X128138095Y-96028571D01*
X128100000Y-96066666D01*
X128061904Y-96142857D01*
X128061904Y-96295238D01*
X128100000Y-96371428D01*
X128138095Y-96409523D01*
X128214285Y-96447619D01*
X128404761Y-96447619D01*
X128480952Y-96409523D01*
X128519047Y-96371428D01*
X128557142Y-96295238D01*
X128557142Y-96142857D01*
X128519047Y-96066666D01*
X128480952Y-96028571D01*
X128404761Y-95990476D01*
D18*
X141738095Y-100452380D02*
X141738095Y-101261904D01*
X141785714Y-101357142D01*
X141833333Y-101404761D01*
X141928571Y-101452380D01*
X142119047Y-101452380D01*
X142214285Y-101404761D01*
X142261904Y-101357142D01*
X142309523Y-101261904D01*
X142309523Y-100452380D01*
X143309523Y-101452380D02*
X142738095Y-101452380D01*
X143023809Y-101452380D02*
X143023809Y-100452380D01*
X142928571Y-100595238D01*
X142833333Y-100690476D01*
X142738095Y-100738095D01*
D17*
X151985714Y-108785714D02*
X151947619Y-108823809D01*
X151833333Y-108861904D01*
X151757142Y-108861904D01*
X151642857Y-108823809D01*
X151566666Y-108747619D01*
X151528571Y-108671428D01*
X151490476Y-108519047D01*
X151490476Y-108404761D01*
X151528571Y-108252380D01*
X151566666Y-108176190D01*
X151642857Y-108100000D01*
X151757142Y-108061904D01*
X151833333Y-108061904D01*
X151947619Y-108100000D01*
X151985714Y-108138095D01*
X152747619Y-108861904D02*
X152290476Y-108861904D01*
X152519047Y-108861904D02*
X152519047Y-108061904D01*
X152442857Y-108176190D01*
X152366666Y-108252380D01*
X152290476Y-108290476D01*
X153471428Y-108061904D02*
X153090476Y-108061904D01*
X153052380Y-108442857D01*
X153090476Y-108404761D01*
X153166666Y-108366666D01*
X153357142Y-108366666D01*
X153433333Y-108404761D01*
X153471428Y-108442857D01*
X153509523Y-108519047D01*
X153509523Y-108709523D01*
X153471428Y-108785714D01*
X153433333Y-108823809D01*
X153357142Y-108861904D01*
X153166666Y-108861904D01*
X153090476Y-108823809D01*
X153052380Y-108785714D01*
X143535714Y-99514285D02*
X143573809Y-99552380D01*
X143611904Y-99666666D01*
X143611904Y-99742857D01*
X143573809Y-99857142D01*
X143497619Y-99933333D01*
X143421428Y-99971428D01*
X143269047Y-100009523D01*
X143154761Y-100009523D01*
X143002380Y-99971428D01*
X142926190Y-99933333D01*
X142850000Y-99857142D01*
X142811904Y-99742857D01*
X142811904Y-99666666D01*
X142850000Y-99552380D01*
X142888095Y-99514285D01*
X143611904Y-98752380D02*
X143611904Y-99209523D01*
X143611904Y-98980952D02*
X142811904Y-98980952D01*
X142926190Y-99057142D01*
X143002380Y-99133333D01*
X143040476Y-99209523D01*
X142811904Y-98257142D02*
X142811904Y-98180952D01*
X142850000Y-98104761D01*
X142888095Y-98066666D01*
X142964285Y-98028571D01*
X143116666Y-97990476D01*
X143307142Y-97990476D01*
X143459523Y-98028571D01*
X143535714Y-98066666D01*
X143573809Y-98104761D01*
X143611904Y-98180952D01*
X143611904Y-98257142D01*
X143573809Y-98333333D01*
X143535714Y-98371428D01*
X143459523Y-98409523D01*
X143307142Y-98447619D01*
X143116666Y-98447619D01*
X142964285Y-98409523D01*
X142888095Y-98371428D01*
X142850000Y-98333333D01*
X142811904Y-98257142D01*
X137735714Y-109885714D02*
X137697619Y-109923809D01*
X137583333Y-109961904D01*
X137507142Y-109961904D01*
X137392857Y-109923809D01*
X137316666Y-109847619D01*
X137278571Y-109771428D01*
X137240476Y-109619047D01*
X137240476Y-109504761D01*
X137278571Y-109352380D01*
X137316666Y-109276190D01*
X137392857Y-109200000D01*
X137507142Y-109161904D01*
X137583333Y-109161904D01*
X137697619Y-109200000D01*
X137735714Y-109238095D01*
X138497619Y-109961904D02*
X138040476Y-109961904D01*
X138269047Y-109961904D02*
X138269047Y-109161904D01*
X138192857Y-109276190D01*
X138116666Y-109352380D01*
X138040476Y-109390476D01*
X138764285Y-109161904D02*
X139259523Y-109161904D01*
X138992857Y-109466666D01*
X139107142Y-109466666D01*
X139183333Y-109504761D01*
X139221428Y-109542857D01*
X139259523Y-109619047D01*
X139259523Y-109809523D01*
X139221428Y-109885714D01*
X139183333Y-109923809D01*
X139107142Y-109961904D01*
X138878571Y-109961904D01*
X138802380Y-109923809D01*
X138764285Y-109885714D01*
X146035714Y-97264285D02*
X146073809Y-97302380D01*
X146111904Y-97416666D01*
X146111904Y-97492857D01*
X146073809Y-97607142D01*
X145997619Y-97683333D01*
X145921428Y-97721428D01*
X145769047Y-97759523D01*
X145654761Y-97759523D01*
X145502380Y-97721428D01*
X145426190Y-97683333D01*
X145350000Y-97607142D01*
X145311904Y-97492857D01*
X145311904Y-97416666D01*
X145350000Y-97302380D01*
X145388095Y-97264285D01*
X146111904Y-96502380D02*
X146111904Y-96959523D01*
X146111904Y-96730952D02*
X145311904Y-96730952D01*
X145426190Y-96807142D01*
X145502380Y-96883333D01*
X145540476Y-96959523D01*
X146111904Y-95740476D02*
X146111904Y-96197619D01*
X146111904Y-95969047D02*
X145311904Y-95969047D01*
X145426190Y-96045238D01*
X145502380Y-96121428D01*
X145540476Y-96197619D01*
X138985714Y-100785714D02*
X138947619Y-100823809D01*
X138833333Y-100861904D01*
X138757142Y-100861904D01*
X138642857Y-100823809D01*
X138566666Y-100747619D01*
X138528571Y-100671428D01*
X138490476Y-100519047D01*
X138490476Y-100404761D01*
X138528571Y-100252380D01*
X138566666Y-100176190D01*
X138642857Y-100100000D01*
X138757142Y-100061904D01*
X138833333Y-100061904D01*
X138947619Y-100100000D01*
X138985714Y-100138095D01*
X139747619Y-100861904D02*
X139290476Y-100861904D01*
X139519047Y-100861904D02*
X139519047Y-100061904D01*
X139442857Y-100176190D01*
X139366666Y-100252380D01*
X139290476Y-100290476D01*
X140052380Y-100138095D02*
X140090476Y-100100000D01*
X140166666Y-100061904D01*
X140357142Y-100061904D01*
X140433333Y-100100000D01*
X140471428Y-100138095D01*
X140509523Y-100214285D01*
X140509523Y-100290476D01*
X140471428Y-100404761D01*
X140014285Y-100861904D01*
X140509523Y-100861904D01*
X146785714Y-129514285D02*
X146823809Y-129552380D01*
X146861904Y-129666666D01*
X146861904Y-129742857D01*
X146823809Y-129857142D01*
X146747619Y-129933333D01*
X146671428Y-129971428D01*
X146519047Y-130009523D01*
X146404761Y-130009523D01*
X146252380Y-129971428D01*
X146176190Y-129933333D01*
X146100000Y-129857142D01*
X146061904Y-129742857D01*
X146061904Y-129666666D01*
X146100000Y-129552380D01*
X146138095Y-129514285D01*
X146861904Y-128752380D02*
X146861904Y-129209523D01*
X146861904Y-128980952D02*
X146061904Y-128980952D01*
X146176190Y-129057142D01*
X146252380Y-129133333D01*
X146290476Y-129209523D01*
X146404761Y-128295238D02*
X146366666Y-128371428D01*
X146328571Y-128409523D01*
X146252380Y-128447619D01*
X146214285Y-128447619D01*
X146138095Y-128409523D01*
X146100000Y-128371428D01*
X146061904Y-128295238D01*
X146061904Y-128142857D01*
X146100000Y-128066666D01*
X146138095Y-128028571D01*
X146214285Y-127990476D01*
X146252380Y-127990476D01*
X146328571Y-128028571D01*
X146366666Y-128066666D01*
X146404761Y-128142857D01*
X146404761Y-128295238D01*
X146442857Y-128371428D01*
X146480952Y-128409523D01*
X146557142Y-128447619D01*
X146709523Y-128447619D01*
X146785714Y-128409523D01*
X146823809Y-128371428D01*
X146861904Y-128295238D01*
X146861904Y-128142857D01*
X146823809Y-128066666D01*
X146785714Y-128028571D01*
X146709523Y-127990476D01*
X146557142Y-127990476D01*
X146480952Y-128028571D01*
X146442857Y-128066666D01*
X146404761Y-128142857D01*
X150535714Y-98383333D02*
X150573809Y-98421428D01*
X150611904Y-98535714D01*
X150611904Y-98611904D01*
X150573809Y-98726190D01*
X150497619Y-98802380D01*
X150421428Y-98840476D01*
X150269047Y-98878571D01*
X150154761Y-98878571D01*
X150002380Y-98840476D01*
X149926190Y-98802380D01*
X149850000Y-98726190D01*
X149811904Y-98611904D01*
X149811904Y-98535714D01*
X149850000Y-98421428D01*
X149888095Y-98383333D01*
X150611904Y-98002380D02*
X150611904Y-97850000D01*
X150573809Y-97773809D01*
X150535714Y-97735714D01*
X150421428Y-97659523D01*
X150269047Y-97621428D01*
X149964285Y-97621428D01*
X149888095Y-97659523D01*
X149850000Y-97697619D01*
X149811904Y-97773809D01*
X149811904Y-97926190D01*
X149850000Y-98002380D01*
X149888095Y-98040476D01*
X149964285Y-98078571D01*
X150154761Y-98078571D01*
X150230952Y-98040476D01*
X150269047Y-98002380D01*
X150307142Y-97926190D01*
X150307142Y-97773809D01*
X150269047Y-97697619D01*
X150230952Y-97659523D01*
X150154761Y-97621428D01*
X153485714Y-101035714D02*
X153447619Y-101073809D01*
X153333333Y-101111904D01*
X153257142Y-101111904D01*
X153142857Y-101073809D01*
X153066666Y-100997619D01*
X153028571Y-100921428D01*
X152990476Y-100769047D01*
X152990476Y-100654761D01*
X153028571Y-100502380D01*
X153066666Y-100426190D01*
X153142857Y-100350000D01*
X153257142Y-100311904D01*
X153333333Y-100311904D01*
X153447619Y-100350000D01*
X153485714Y-100388095D01*
X154247619Y-101111904D02*
X153790476Y-101111904D01*
X154019047Y-101111904D02*
X154019047Y-100311904D01*
X153942857Y-100426190D01*
X153866666Y-100502380D01*
X153790476Y-100540476D01*
X154514285Y-100311904D02*
X155047619Y-100311904D01*
X154704761Y-101111904D01*
X148285714Y-116383333D02*
X148323809Y-116421428D01*
X148361904Y-116535714D01*
X148361904Y-116611904D01*
X148323809Y-116726190D01*
X148247619Y-116802380D01*
X148171428Y-116840476D01*
X148019047Y-116878571D01*
X147904761Y-116878571D01*
X147752380Y-116840476D01*
X147676190Y-116802380D01*
X147600000Y-116726190D01*
X147561904Y-116611904D01*
X147561904Y-116535714D01*
X147600000Y-116421428D01*
X147638095Y-116383333D01*
X147904761Y-115926190D02*
X147866666Y-116002380D01*
X147828571Y-116040476D01*
X147752380Y-116078571D01*
X147714285Y-116078571D01*
X147638095Y-116040476D01*
X147600000Y-116002380D01*
X147561904Y-115926190D01*
X147561904Y-115773809D01*
X147600000Y-115697619D01*
X147638095Y-115659523D01*
X147714285Y-115621428D01*
X147752380Y-115621428D01*
X147828571Y-115659523D01*
X147866666Y-115697619D01*
X147904761Y-115773809D01*
X147904761Y-115926190D01*
X147942857Y-116002380D01*
X147980952Y-116040476D01*
X148057142Y-116078571D01*
X148209523Y-116078571D01*
X148285714Y-116040476D01*
X148323809Y-116002380D01*
X148361904Y-115926190D01*
X148361904Y-115773809D01*
X148323809Y-115697619D01*
X148285714Y-115659523D01*
X148209523Y-115621428D01*
X148057142Y-115621428D01*
X147980952Y-115659523D01*
X147942857Y-115697619D01*
X147904761Y-115773809D01*
X145535714Y-117633333D02*
X145573809Y-117671428D01*
X145611904Y-117785714D01*
X145611904Y-117861904D01*
X145573809Y-117976190D01*
X145497619Y-118052380D01*
X145421428Y-118090476D01*
X145269047Y-118128571D01*
X145154761Y-118128571D01*
X145002380Y-118090476D01*
X144926190Y-118052380D01*
X144850000Y-117976190D01*
X144811904Y-117861904D01*
X144811904Y-117785714D01*
X144850000Y-117671428D01*
X144888095Y-117633333D01*
X144811904Y-117366666D02*
X144811904Y-116833333D01*
X145611904Y-117176190D01*
X138285714Y-115633333D02*
X138323809Y-115671428D01*
X138361904Y-115785714D01*
X138361904Y-115861904D01*
X138323809Y-115976190D01*
X138247619Y-116052380D01*
X138171428Y-116090476D01*
X138019047Y-116128571D01*
X137904761Y-116128571D01*
X137752380Y-116090476D01*
X137676190Y-116052380D01*
X137600000Y-115976190D01*
X137561904Y-115861904D01*
X137561904Y-115785714D01*
X137600000Y-115671428D01*
X137638095Y-115633333D01*
X137561904Y-114947619D02*
X137561904Y-115100000D01*
X137600000Y-115176190D01*
X137638095Y-115214285D01*
X137752380Y-115290476D01*
X137904761Y-115328571D01*
X138209523Y-115328571D01*
X138285714Y-115290476D01*
X138323809Y-115252380D01*
X138361904Y-115176190D01*
X138361904Y-115023809D01*
X138323809Y-114947619D01*
X138285714Y-114909523D01*
X138209523Y-114871428D01*
X138019047Y-114871428D01*
X137942857Y-114909523D01*
X137904761Y-114947619D01*
X137866666Y-115023809D01*
X137866666Y-115176190D01*
X137904761Y-115252380D01*
X137942857Y-115290476D01*
X138019047Y-115328571D01*
X147035714Y-117264285D02*
X147073809Y-117302380D01*
X147111904Y-117416666D01*
X147111904Y-117492857D01*
X147073809Y-117607142D01*
X146997619Y-117683333D01*
X146921428Y-117721428D01*
X146769047Y-117759523D01*
X146654761Y-117759523D01*
X146502380Y-117721428D01*
X146426190Y-117683333D01*
X146350000Y-117607142D01*
X146311904Y-117492857D01*
X146311904Y-117416666D01*
X146350000Y-117302380D01*
X146388095Y-117264285D01*
X147111904Y-116502380D02*
X147111904Y-116959523D01*
X147111904Y-116730952D02*
X146311904Y-116730952D01*
X146426190Y-116807142D01*
X146502380Y-116883333D01*
X146540476Y-116959523D01*
X146578571Y-115816666D02*
X147111904Y-115816666D01*
X146273809Y-116007142D02*
X146845238Y-116197619D01*
X146845238Y-115702380D01*
X153485714Y-102285714D02*
X153447619Y-102323809D01*
X153333333Y-102361904D01*
X153257142Y-102361904D01*
X153142857Y-102323809D01*
X153066666Y-102247619D01*
X153028571Y-102171428D01*
X152990476Y-102019047D01*
X152990476Y-101904761D01*
X153028571Y-101752380D01*
X153066666Y-101676190D01*
X153142857Y-101600000D01*
X153257142Y-101561904D01*
X153333333Y-101561904D01*
X153447619Y-101600000D01*
X153485714Y-101638095D01*
X154247619Y-102361904D02*
X153790476Y-102361904D01*
X154019047Y-102361904D02*
X154019047Y-101561904D01*
X153942857Y-101676190D01*
X153866666Y-101752380D01*
X153790476Y-101790476D01*
X154933333Y-101561904D02*
X154780952Y-101561904D01*
X154704761Y-101600000D01*
X154666666Y-101638095D01*
X154590476Y-101752380D01*
X154552380Y-101904761D01*
X154552380Y-102209523D01*
X154590476Y-102285714D01*
X154628571Y-102323809D01*
X154704761Y-102361904D01*
X154857142Y-102361904D01*
X154933333Y-102323809D01*
X154971428Y-102285714D01*
X155009523Y-102209523D01*
X155009523Y-102019047D01*
X154971428Y-101942857D01*
X154933333Y-101904761D01*
X154857142Y-101866666D01*
X154704761Y-101866666D01*
X154628571Y-101904761D01*
X154590476Y-101942857D01*
X154552380Y-102019047D01*
X188616666Y-127611904D02*
X188350000Y-127230952D01*
X188159523Y-127611904D02*
X188159523Y-126811904D01*
X188464285Y-126811904D01*
X188540476Y-126850000D01*
X188578571Y-126888095D01*
X188616666Y-126964285D01*
X188616666Y-127078571D01*
X188578571Y-127154761D01*
X188540476Y-127192857D01*
X188464285Y-127230952D01*
X188159523Y-127230952D01*
X188921428Y-126888095D02*
X188959523Y-126850000D01*
X189035714Y-126811904D01*
X189226190Y-126811904D01*
X189302380Y-126850000D01*
X189340476Y-126888095D01*
X189378571Y-126964285D01*
X189378571Y-127040476D01*
X189340476Y-127154761D01*
X188883333Y-127611904D01*
X189378571Y-127611904D01*
D18*
X174409523Y-82111904D02*
X174409523Y-81311904D01*
X174600000Y-81311904D01*
X174714285Y-81350000D01*
X174790476Y-81426190D01*
X174828571Y-81502380D01*
X174866666Y-81654761D01*
X174866666Y-81769047D01*
X174828571Y-81921428D01*
X174790476Y-81997619D01*
X174714285Y-82073809D01*
X174600000Y-82111904D01*
X174409523Y-82111904D01*
X175171428Y-81388095D02*
X175209523Y-81350000D01*
X175285714Y-81311904D01*
X175476190Y-81311904D01*
X175552380Y-81350000D01*
X175590476Y-81388095D01*
X175628571Y-81464285D01*
X175628571Y-81540476D01*
X175590476Y-81654761D01*
X175133333Y-82111904D01*
X175628571Y-82111904D01*
D17*
X175500000Y-89116666D02*
X175533333Y-89150000D01*
X175566666Y-89250000D01*
X175566666Y-89316666D01*
X175533333Y-89416666D01*
X175466666Y-89483333D01*
X175400000Y-89516666D01*
X175266666Y-89550000D01*
X175166666Y-89550000D01*
X175033333Y-89516666D01*
X174966666Y-89483333D01*
X174900000Y-89416666D01*
X174866666Y-89316666D01*
X174866666Y-89250000D01*
X174900000Y-89150000D01*
X174933333Y-89116666D01*
X174866666Y-88883333D02*
X174866666Y-88450000D01*
X175133333Y-88683333D01*
X175133333Y-88583333D01*
X175166666Y-88516666D01*
X175200000Y-88483333D01*
X175266666Y-88450000D01*
X175433333Y-88450000D01*
X175500000Y-88483333D01*
X175533333Y-88516666D01*
X175566666Y-88583333D01*
X175566666Y-88783333D01*
X175533333Y-88850000D01*
X175500000Y-88883333D01*
D18*
X188452380Y-143238095D02*
X187452380Y-143238095D01*
X187452380Y-143000000D01*
X187500000Y-142857142D01*
X187595238Y-142761904D01*
X187690476Y-142714285D01*
X187880952Y-142666666D01*
X188023809Y-142666666D01*
X188214285Y-142714285D01*
X188309523Y-142761904D01*
X188404761Y-142857142D01*
X188452380Y-143000000D01*
X188452380Y-143238095D01*
X187452380Y-141809523D02*
X187452380Y-142000000D01*
X187500000Y-142095238D01*
X187547619Y-142142857D01*
X187690476Y-142238095D01*
X187880952Y-142285714D01*
X188261904Y-142285714D01*
X188357142Y-142238095D01*
X188404761Y-142190476D01*
X188452380Y-142095238D01*
X188452380Y-141904761D01*
X188404761Y-141809523D01*
X188357142Y-141761904D01*
X188261904Y-141714285D01*
X188023809Y-141714285D01*
X187928571Y-141761904D01*
X187880952Y-141809523D01*
X187833333Y-141904761D01*
X187833333Y-142095238D01*
X187880952Y-142190476D01*
X187928571Y-142238095D01*
X188023809Y-142285714D01*
X172452380Y-143238095D02*
X171452380Y-143238095D01*
X171452380Y-143000000D01*
X171500000Y-142857142D01*
X171595238Y-142761904D01*
X171690476Y-142714285D01*
X171880952Y-142666666D01*
X172023809Y-142666666D01*
X172214285Y-142714285D01*
X172309523Y-142761904D01*
X172404761Y-142857142D01*
X172452380Y-143000000D01*
X172452380Y-143238095D01*
X171880952Y-142095238D02*
X171833333Y-142190476D01*
X171785714Y-142238095D01*
X171690476Y-142285714D01*
X171642857Y-142285714D01*
X171547619Y-142238095D01*
X171500000Y-142190476D01*
X171452380Y-142095238D01*
X171452380Y-141904761D01*
X171500000Y-141809523D01*
X171547619Y-141761904D01*
X171642857Y-141714285D01*
X171690476Y-141714285D01*
X171785714Y-141761904D01*
X171833333Y-141809523D01*
X171880952Y-141904761D01*
X171880952Y-142095238D01*
X171928571Y-142190476D01*
X171976190Y-142238095D01*
X172071428Y-142285714D01*
X172261904Y-142285714D01*
X172357142Y-142238095D01*
X172404761Y-142190476D01*
X172452380Y-142095238D01*
X172452380Y-141904761D01*
X172404761Y-141809523D01*
X172357142Y-141761904D01*
X172261904Y-141714285D01*
X172071428Y-141714285D01*
X171976190Y-141761904D01*
X171928571Y-141809523D01*
X171880952Y-141904761D01*
D17*
X168485714Y-138081904D02*
X168219047Y-137700952D01*
X168028571Y-138081904D02*
X168028571Y-137281904D01*
X168333333Y-137281904D01*
X168409523Y-137320000D01*
X168447619Y-137358095D01*
X168485714Y-137434285D01*
X168485714Y-137548571D01*
X168447619Y-137624761D01*
X168409523Y-137662857D01*
X168333333Y-137700952D01*
X168028571Y-137700952D01*
X169247619Y-138081904D02*
X168790476Y-138081904D01*
X169019047Y-138081904D02*
X169019047Y-137281904D01*
X168942857Y-137396190D01*
X168866666Y-137472380D01*
X168790476Y-137510476D01*
X169628571Y-138081904D02*
X169780952Y-138081904D01*
X169857142Y-138043809D01*
X169895238Y-138005714D01*
X169971428Y-137891428D01*
X170009523Y-137739047D01*
X170009523Y-137434285D01*
X169971428Y-137358095D01*
X169933333Y-137320000D01*
X169857142Y-137281904D01*
X169704761Y-137281904D01*
X169628571Y-137320000D01*
X169590476Y-137358095D01*
X169552380Y-137434285D01*
X169552380Y-137624761D01*
X169590476Y-137700952D01*
X169628571Y-137739047D01*
X169704761Y-137777142D01*
X169857142Y-137777142D01*
X169933333Y-137739047D01*
X169971428Y-137700952D01*
X170009523Y-137624761D01*
D18*
X158111904Y-86090476D02*
X157311904Y-86090476D01*
X157311904Y-85900000D01*
X157350000Y-85785714D01*
X157426190Y-85709523D01*
X157502380Y-85671428D01*
X157654761Y-85633333D01*
X157769047Y-85633333D01*
X157921428Y-85671428D01*
X157997619Y-85709523D01*
X158073809Y-85785714D01*
X158111904Y-85900000D01*
X158111904Y-86090476D01*
X158111904Y-85252380D02*
X158111904Y-85100000D01*
X158073809Y-85023809D01*
X158035714Y-84985714D01*
X157921428Y-84909523D01*
X157769047Y-84871428D01*
X157464285Y-84871428D01*
X157388095Y-84909523D01*
X157350000Y-84947619D01*
X157311904Y-85023809D01*
X157311904Y-85176190D01*
X157350000Y-85252380D01*
X157388095Y-85290476D01*
X157464285Y-85328571D01*
X157654761Y-85328571D01*
X157730952Y-85290476D01*
X157769047Y-85252380D01*
X157807142Y-85176190D01*
X157807142Y-85023809D01*
X157769047Y-84947619D01*
X157730952Y-84909523D01*
X157654761Y-84871428D01*
X139819047Y-118380952D02*
X139819047Y-118761904D01*
X139552380Y-117961904D02*
X139819047Y-118380952D01*
X140085714Y-117961904D01*
X140314285Y-118038095D02*
X140352380Y-118000000D01*
X140428571Y-117961904D01*
X140619047Y-117961904D01*
X140695238Y-118000000D01*
X140733333Y-118038095D01*
X140771428Y-118114285D01*
X140771428Y-118190476D01*
X140733333Y-118304761D01*
X140276190Y-118761904D01*
X140771428Y-118761904D01*
X160361904Y-113721428D02*
X159561904Y-113721428D01*
X159561904Y-113530952D01*
X159600000Y-113416666D01*
X159676190Y-113340476D01*
X159752380Y-113302380D01*
X159904761Y-113264285D01*
X160019047Y-113264285D01*
X160171428Y-113302380D01*
X160247619Y-113340476D01*
X160323809Y-113416666D01*
X160361904Y-113530952D01*
X160361904Y-113721428D01*
X160361904Y-112502380D02*
X160361904Y-112959523D01*
X160361904Y-112730952D02*
X159561904Y-112730952D01*
X159676190Y-112807142D01*
X159752380Y-112883333D01*
X159790476Y-112959523D01*
X160361904Y-111740476D02*
X160361904Y-112197619D01*
X160361904Y-111969047D02*
X159561904Y-111969047D01*
X159676190Y-112045238D01*
X159752380Y-112121428D01*
X159790476Y-112197619D01*
D17*
X173542857Y-94188095D02*
X173466666Y-94150000D01*
X173390476Y-94073809D01*
X173276190Y-93959523D01*
X173200000Y-93921428D01*
X173123809Y-93921428D01*
X173161904Y-94111904D02*
X173085714Y-94073809D01*
X173009523Y-93997619D01*
X172971428Y-93845238D01*
X172971428Y-93578571D01*
X173009523Y-93426190D01*
X173085714Y-93350000D01*
X173161904Y-93311904D01*
X173314285Y-93311904D01*
X173390476Y-93350000D01*
X173466666Y-93426190D01*
X173504761Y-93578571D01*
X173504761Y-93845238D01*
X173466666Y-93997619D01*
X173390476Y-94073809D01*
X173314285Y-94111904D01*
X173161904Y-94111904D01*
X174266666Y-94111904D02*
X173809523Y-94111904D01*
X174038095Y-94111904D02*
X174038095Y-93311904D01*
X173961904Y-93426190D01*
X173885714Y-93502380D01*
X173809523Y-93540476D01*
X174533333Y-93311904D02*
X175028571Y-93311904D01*
X174761904Y-93616666D01*
X174876190Y-93616666D01*
X174952380Y-93654761D01*
X174990476Y-93692857D01*
X175028571Y-93769047D01*
X175028571Y-93959523D01*
X174990476Y-94035714D01*
X174952380Y-94073809D01*
X174876190Y-94111904D01*
X174647619Y-94111904D01*
X174571428Y-94073809D01*
X174533333Y-94035714D01*
X165735714Y-111785714D02*
X165697619Y-111823809D01*
X165583333Y-111861904D01*
X165507142Y-111861904D01*
X165392857Y-111823809D01*
X165316666Y-111747619D01*
X165278571Y-111671428D01*
X165240476Y-111519047D01*
X165240476Y-111404761D01*
X165278571Y-111252380D01*
X165316666Y-111176190D01*
X165392857Y-111100000D01*
X165507142Y-111061904D01*
X165583333Y-111061904D01*
X165697619Y-111100000D01*
X165735714Y-111138095D01*
X166040476Y-111138095D02*
X166078571Y-111100000D01*
X166154761Y-111061904D01*
X166345238Y-111061904D01*
X166421428Y-111100000D01*
X166459523Y-111138095D01*
X166497619Y-111214285D01*
X166497619Y-111290476D01*
X166459523Y-111404761D01*
X166002380Y-111861904D01*
X166497619Y-111861904D01*
X167259523Y-111861904D02*
X166802380Y-111861904D01*
X167030952Y-111861904D02*
X167030952Y-111061904D01*
X166954761Y-111176190D01*
X166878571Y-111252380D01*
X166802380Y-111290476D01*
D18*
X161611904Y-99971428D02*
X160811904Y-99971428D01*
X160811904Y-99780952D01*
X160850000Y-99666666D01*
X160926190Y-99590476D01*
X161002380Y-99552380D01*
X161154761Y-99514285D01*
X161269047Y-99514285D01*
X161421428Y-99552380D01*
X161497619Y-99590476D01*
X161573809Y-99666666D01*
X161611904Y-99780952D01*
X161611904Y-99971428D01*
X161611904Y-98752380D02*
X161611904Y-99209523D01*
X161611904Y-98980952D02*
X160811904Y-98980952D01*
X160926190Y-99057142D01*
X161002380Y-99133333D01*
X161040476Y-99209523D01*
X160811904Y-98485714D02*
X160811904Y-97990476D01*
X161116666Y-98257142D01*
X161116666Y-98142857D01*
X161154761Y-98066666D01*
X161192857Y-98028571D01*
X161269047Y-97990476D01*
X161459523Y-97990476D01*
X161535714Y-98028571D01*
X161573809Y-98066666D01*
X161611904Y-98142857D01*
X161611904Y-98371428D01*
X161573809Y-98447619D01*
X161535714Y-98485714D01*
D17*
X195361904Y-127764285D02*
X194980952Y-128030952D01*
X195361904Y-128221428D02*
X194561904Y-128221428D01*
X194561904Y-127916666D01*
X194600000Y-127840476D01*
X194638095Y-127802380D01*
X194714285Y-127764285D01*
X194828571Y-127764285D01*
X194904761Y-127802380D01*
X194942857Y-127840476D01*
X194980952Y-127916666D01*
X194980952Y-128221428D01*
X194638095Y-127459523D02*
X194600000Y-127421428D01*
X194561904Y-127345238D01*
X194561904Y-127154761D01*
X194600000Y-127078571D01*
X194638095Y-127040476D01*
X194714285Y-127002380D01*
X194790476Y-127002380D01*
X194904761Y-127040476D01*
X195361904Y-127497619D01*
X195361904Y-127002380D01*
X194638095Y-126697619D02*
X194600000Y-126659523D01*
X194561904Y-126583333D01*
X194561904Y-126392857D01*
X194600000Y-126316666D01*
X194638095Y-126278571D01*
X194714285Y-126240476D01*
X194790476Y-126240476D01*
X194904761Y-126278571D01*
X195361904Y-126735714D01*
X195361904Y-126240476D01*
X183542857Y-124688095D02*
X183466666Y-124650000D01*
X183390476Y-124573809D01*
X183276190Y-124459523D01*
X183200000Y-124421428D01*
X183123809Y-124421428D01*
X183161904Y-124611904D02*
X183085714Y-124573809D01*
X183009523Y-124497619D01*
X182971428Y-124345238D01*
X182971428Y-124078571D01*
X183009523Y-123926190D01*
X183085714Y-123850000D01*
X183161904Y-123811904D01*
X183314285Y-123811904D01*
X183390476Y-123850000D01*
X183466666Y-123926190D01*
X183504761Y-124078571D01*
X183504761Y-124345238D01*
X183466666Y-124497619D01*
X183390476Y-124573809D01*
X183314285Y-124611904D01*
X183161904Y-124611904D01*
X184266666Y-124611904D02*
X183809523Y-124611904D01*
X184038095Y-124611904D02*
X184038095Y-123811904D01*
X183961904Y-123926190D01*
X183885714Y-124002380D01*
X183809523Y-124040476D01*
X184571428Y-123888095D02*
X184609523Y-123850000D01*
X184685714Y-123811904D01*
X184876190Y-123811904D01*
X184952380Y-123850000D01*
X184990476Y-123888095D01*
X185028571Y-123964285D01*
X185028571Y-124040476D01*
X184990476Y-124154761D01*
X184533333Y-124611904D01*
X185028571Y-124611904D01*
X173542857Y-124688095D02*
X173466666Y-124650000D01*
X173390476Y-124573809D01*
X173276190Y-124459523D01*
X173200000Y-124421428D01*
X173123809Y-124421428D01*
X173161904Y-124611904D02*
X173085714Y-124573809D01*
X173009523Y-124497619D01*
X172971428Y-124345238D01*
X172971428Y-124078571D01*
X173009523Y-123926190D01*
X173085714Y-123850000D01*
X173161904Y-123811904D01*
X173314285Y-123811904D01*
X173390476Y-123850000D01*
X173466666Y-123926190D01*
X173504761Y-124078571D01*
X173504761Y-124345238D01*
X173466666Y-124497619D01*
X173390476Y-124573809D01*
X173314285Y-124611904D01*
X173161904Y-124611904D01*
X174266666Y-124611904D02*
X173809523Y-124611904D01*
X174038095Y-124611904D02*
X174038095Y-123811904D01*
X173961904Y-123926190D01*
X173885714Y-124002380D01*
X173809523Y-124040476D01*
X174952380Y-124078571D02*
X174952380Y-124611904D01*
X174761904Y-123773809D02*
X174571428Y-124345238D01*
X175066666Y-124345238D01*
D18*
X160361904Y-103471428D02*
X159561904Y-103471428D01*
X159561904Y-103280952D01*
X159600000Y-103166666D01*
X159676190Y-103090476D01*
X159752380Y-103052380D01*
X159904761Y-103014285D01*
X160019047Y-103014285D01*
X160171428Y-103052380D01*
X160247619Y-103090476D01*
X160323809Y-103166666D01*
X160361904Y-103280952D01*
X160361904Y-103471428D01*
X160361904Y-102252380D02*
X160361904Y-102709523D01*
X160361904Y-102480952D02*
X159561904Y-102480952D01*
X159676190Y-102557142D01*
X159752380Y-102633333D01*
X159790476Y-102709523D01*
X159638095Y-101947619D02*
X159600000Y-101909523D01*
X159561904Y-101833333D01*
X159561904Y-101642857D01*
X159600000Y-101566666D01*
X159638095Y-101528571D01*
X159714285Y-101490476D01*
X159790476Y-101490476D01*
X159904761Y-101528571D01*
X160361904Y-101985714D01*
X160361904Y-101490476D01*
X191535714Y-91702380D02*
X191535714Y-90702380D01*
X191773809Y-90702380D01*
X191916666Y-90750000D01*
X192011904Y-90845238D01*
X192059523Y-90940476D01*
X192107142Y-91130952D01*
X192107142Y-91273809D01*
X192059523Y-91464285D01*
X192011904Y-91559523D01*
X191916666Y-91654761D01*
X191773809Y-91702380D01*
X191535714Y-91702380D01*
X192488095Y-90797619D02*
X192535714Y-90750000D01*
X192630952Y-90702380D01*
X192869047Y-90702380D01*
X192964285Y-90750000D01*
X193011904Y-90797619D01*
X193059523Y-90892857D01*
X193059523Y-90988095D01*
X193011904Y-91130952D01*
X192440476Y-91702380D01*
X193059523Y-91702380D01*
X194011904Y-91702380D02*
X193440476Y-91702380D01*
X193726190Y-91702380D02*
X193726190Y-90702380D01*
X193630952Y-90845238D01*
X193535714Y-90940476D01*
X193440476Y-90988095D01*
D17*
X192061904Y-72766666D02*
X192633333Y-72766666D01*
X192747619Y-72804761D01*
X192823809Y-72880952D01*
X192861904Y-72995238D01*
X192861904Y-73071428D01*
X192061904Y-72461904D02*
X192061904Y-71928571D01*
X192861904Y-72271428D01*
X161759523Y-109561904D02*
X161759523Y-110209523D01*
X161797619Y-110285714D01*
X161835714Y-110323809D01*
X161911904Y-110361904D01*
X162064285Y-110361904D01*
X162140476Y-110323809D01*
X162178571Y-110285714D01*
X162216666Y-110209523D01*
X162216666Y-109561904D01*
X163016666Y-110361904D02*
X162559523Y-110361904D01*
X162788095Y-110361904D02*
X162788095Y-109561904D01*
X162711904Y-109676190D01*
X162635714Y-109752380D01*
X162559523Y-109790476D01*
X163321428Y-109638095D02*
X163359523Y-109600000D01*
X163435714Y-109561904D01*
X163626190Y-109561904D01*
X163702380Y-109600000D01*
X163740476Y-109638095D01*
X163778571Y-109714285D01*
X163778571Y-109790476D01*
X163740476Y-109904761D01*
X163283333Y-110361904D01*
X163778571Y-110361904D01*
X192235714Y-127535714D02*
X192197619Y-127573809D01*
X192083333Y-127611904D01*
X192007142Y-127611904D01*
X191892857Y-127573809D01*
X191816666Y-127497619D01*
X191778571Y-127421428D01*
X191740476Y-127269047D01*
X191740476Y-127154761D01*
X191778571Y-127002380D01*
X191816666Y-126926190D01*
X191892857Y-126850000D01*
X192007142Y-126811904D01*
X192083333Y-126811904D01*
X192197619Y-126850000D01*
X192235714Y-126888095D01*
X192540476Y-126888095D02*
X192578571Y-126850000D01*
X192654761Y-126811904D01*
X192845238Y-126811904D01*
X192921428Y-126850000D01*
X192959523Y-126888095D01*
X192997619Y-126964285D01*
X192997619Y-127040476D01*
X192959523Y-127154761D01*
X192502380Y-127611904D01*
X192997619Y-127611904D01*
X193683333Y-127078571D02*
X193683333Y-127611904D01*
X193492857Y-126773809D02*
X193302380Y-127345238D01*
X193797619Y-127345238D01*
X173500000Y-91700000D02*
X173533333Y-91733333D01*
X173566666Y-91833333D01*
X173566666Y-91900000D01*
X173533333Y-92000000D01*
X173466666Y-92066666D01*
X173400000Y-92100000D01*
X173266666Y-92133333D01*
X173166666Y-92133333D01*
X173033333Y-92100000D01*
X172966666Y-92066666D01*
X172900000Y-92000000D01*
X172866666Y-91900000D01*
X172866666Y-91833333D01*
X172900000Y-91733333D01*
X172933333Y-91700000D01*
X172933333Y-91433333D02*
X172900000Y-91400000D01*
X172866666Y-91333333D01*
X172866666Y-91166666D01*
X172900000Y-91100000D01*
X172933333Y-91066666D01*
X173000000Y-91033333D01*
X173066666Y-91033333D01*
X173166666Y-91066666D01*
X173566666Y-91466666D01*
X173566666Y-91033333D01*
X172866666Y-90800000D02*
X172866666Y-90366666D01*
X173133333Y-90600000D01*
X173133333Y-90500000D01*
X173166666Y-90433333D01*
X173200000Y-90400000D01*
X173266666Y-90366666D01*
X173433333Y-90366666D01*
X173500000Y-90400000D01*
X173533333Y-90433333D01*
X173566666Y-90500000D01*
X173566666Y-90700000D01*
X173533333Y-90766666D01*
X173500000Y-90800000D01*
X161759523Y-119811904D02*
X161759523Y-120459523D01*
X161797619Y-120535714D01*
X161835714Y-120573809D01*
X161911904Y-120611904D01*
X162064285Y-120611904D01*
X162140476Y-120573809D01*
X162178571Y-120535714D01*
X162216666Y-120459523D01*
X162216666Y-119811904D01*
X163016666Y-120611904D02*
X162559523Y-120611904D01*
X162788095Y-120611904D02*
X162788095Y-119811904D01*
X162711904Y-119926190D01*
X162635714Y-120002380D01*
X162559523Y-120040476D01*
X163778571Y-120611904D02*
X163321428Y-120611904D01*
X163550000Y-120611904D02*
X163550000Y-119811904D01*
X163473809Y-119926190D01*
X163397619Y-120002380D01*
X163321428Y-120040476D01*
X183542857Y-94188095D02*
X183466666Y-94150000D01*
X183390476Y-94073809D01*
X183276190Y-93959523D01*
X183200000Y-93921428D01*
X183123809Y-93921428D01*
X183161904Y-94111904D02*
X183085714Y-94073809D01*
X183009523Y-93997619D01*
X182971428Y-93845238D01*
X182971428Y-93578571D01*
X183009523Y-93426190D01*
X183085714Y-93350000D01*
X183161904Y-93311904D01*
X183314285Y-93311904D01*
X183390476Y-93350000D01*
X183466666Y-93426190D01*
X183504761Y-93578571D01*
X183504761Y-93845238D01*
X183466666Y-93997619D01*
X183390476Y-94073809D01*
X183314285Y-94111904D01*
X183161904Y-94111904D01*
X184266666Y-94111904D02*
X183809523Y-94111904D01*
X184038095Y-94111904D02*
X184038095Y-93311904D01*
X183961904Y-93426190D01*
X183885714Y-93502380D01*
X183809523Y-93540476D01*
X185028571Y-94111904D02*
X184571428Y-94111904D01*
X184800000Y-94111904D02*
X184800000Y-93311904D01*
X184723809Y-93426190D01*
X184647619Y-93502380D01*
X184571428Y-93540476D01*
X189985714Y-126611904D02*
X189719047Y-126230952D01*
X189528571Y-126611904D02*
X189528571Y-125811904D01*
X189833333Y-125811904D01*
X189909523Y-125850000D01*
X189947619Y-125888095D01*
X189985714Y-125964285D01*
X189985714Y-126078571D01*
X189947619Y-126154761D01*
X189909523Y-126192857D01*
X189833333Y-126230952D01*
X189528571Y-126230952D01*
X190290476Y-125888095D02*
X190328571Y-125850000D01*
X190404761Y-125811904D01*
X190595238Y-125811904D01*
X190671428Y-125850000D01*
X190709523Y-125888095D01*
X190747619Y-125964285D01*
X190747619Y-126040476D01*
X190709523Y-126154761D01*
X190252380Y-126611904D01*
X190747619Y-126611904D01*
X191509523Y-126611904D02*
X191052380Y-126611904D01*
X191280952Y-126611904D02*
X191280952Y-125811904D01*
X191204761Y-125926190D01*
X191128571Y-126002380D01*
X191052380Y-126040476D01*
X165735714Y-101535714D02*
X165697619Y-101573809D01*
X165583333Y-101611904D01*
X165507142Y-101611904D01*
X165392857Y-101573809D01*
X165316666Y-101497619D01*
X165278571Y-101421428D01*
X165240476Y-101269047D01*
X165240476Y-101154761D01*
X165278571Y-101002380D01*
X165316666Y-100926190D01*
X165392857Y-100850000D01*
X165507142Y-100811904D01*
X165583333Y-100811904D01*
X165697619Y-100850000D01*
X165735714Y-100888095D01*
X166040476Y-100888095D02*
X166078571Y-100850000D01*
X166154761Y-100811904D01*
X166345238Y-100811904D01*
X166421428Y-100850000D01*
X166459523Y-100888095D01*
X166497619Y-100964285D01*
X166497619Y-101040476D01*
X166459523Y-101154761D01*
X166002380Y-101611904D01*
X166497619Y-101611904D01*
X166802380Y-100888095D02*
X166840476Y-100850000D01*
X166916666Y-100811904D01*
X167107142Y-100811904D01*
X167183333Y-100850000D01*
X167221428Y-100888095D01*
X167259523Y-100964285D01*
X167259523Y-101040476D01*
X167221428Y-101154761D01*
X166764285Y-101611904D01*
X167259523Y-101611904D01*
D13*
X170330000Y-122720000D02*
X169170000Y-122720000D01*
X170330000Y-123550000D02*
X170330000Y-122720000D01*
X169170000Y-125280000D02*
X169170000Y-124450000D01*
X169170000Y-122720000D02*
X169170000Y-123550000D01*
X170330000Y-124450000D02*
X170330000Y-125280000D01*
X170330000Y-125280000D02*
X169170000Y-125280000D01*
X168830000Y-103780000D02*
X167670000Y-103780000D01*
X168830000Y-102950000D02*
X168830000Y-103780000D01*
X167670000Y-101220000D02*
X167670000Y-102050000D01*
X167670000Y-103780000D02*
X167670000Y-102950000D01*
X168830000Y-102050000D02*
X168830000Y-101220000D01*
X168830000Y-101220000D02*
X167670000Y-101220000D01*
X180330000Y-123530000D02*
X179170000Y-123530000D01*
X180330000Y-122700000D02*
X180330000Y-123530000D01*
X179170000Y-120970000D02*
X179170000Y-121800000D01*
X179170000Y-123530000D02*
X179170000Y-122700000D01*
X180330000Y-121800000D02*
X180330000Y-120970000D01*
X180330000Y-120970000D02*
X179170000Y-120970000D01*
X179580000Y-103780000D02*
X178420000Y-103780000D01*
X179580000Y-102950000D02*
X179580000Y-103780000D01*
X178420000Y-101220000D02*
X178420000Y-102050000D01*
X178420000Y-103780000D02*
X178420000Y-102950000D01*
X179580000Y-102050000D02*
X179580000Y-101220000D01*
X179580000Y-101220000D02*
X178420000Y-101220000D01*
D11*
X207500000Y-83750000D02*
X206500000Y-83750000D01*
X205950000Y-93600000D02*
X197550000Y-93600000D01*
X207000000Y-83250000D02*
X207000000Y-84250000D01*
X208000000Y-89000000D02*
G75*
G03*
X208000000Y-89000000I-6250000J0D01*
G01*
D13*
X190650000Y-91000000D02*
X190650000Y-92000000D01*
X189850000Y-92000000D02*
X189850000Y-91000000D01*
D18*
X167750000Y-83375000D02*
X167750000Y-84125000D01*
X167375000Y-83750000D02*
X168125000Y-83750000D01*
X171750000Y-84250000D02*
X171750000Y-87750000D01*
X172500000Y-86000000D02*
G75*
G03*
X172500000Y-86000000I-2500000J0D01*
G01*
D13*
X189850000Y-134250000D02*
X189850000Y-133250000D01*
X190650000Y-133250000D02*
X190650000Y-134250000D01*
D20*
X123700000Y-71350000D02*
X126300000Y-71350000D01*
X126300000Y-71350000D02*
X126300000Y-76650000D01*
X149700000Y-71350000D02*
X152300000Y-71350000D01*
X127200000Y-86800000D02*
X148800000Y-86800000D01*
X127900000Y-89700000D02*
X127900000Y-92300000D01*
X127200000Y-70000000D02*
X127200000Y-86800000D01*
X125200000Y-89700000D02*
X125200000Y-92300000D01*
X123700000Y-76650000D02*
X123700000Y-71350000D01*
X152300000Y-71350000D02*
X152300000Y-76650000D01*
X152300000Y-76650000D02*
X149700000Y-76650000D01*
X153000000Y-70000000D02*
X123000000Y-70000000D01*
X126300000Y-76650000D02*
X123700000Y-76650000D01*
X150800000Y-89700000D02*
X125200000Y-89700000D01*
X148800000Y-86800000D02*
X148800000Y-70000000D01*
X150800000Y-92300000D02*
X150800000Y-89700000D01*
X149700000Y-76650000D02*
X149700000Y-71350000D01*
X123000000Y-93000000D02*
X153000000Y-93000000D01*
X123000000Y-70000000D02*
X123000000Y-93000000D01*
X153000000Y-93000000D02*
X153000000Y-70000000D01*
X125200000Y-92300000D02*
X150800000Y-92300000D01*
X189850000Y-89550000D02*
X189500000Y-89550000D01*
X189850000Y-83950000D02*
X189850000Y-89550000D01*
X189850000Y-83950000D02*
X189450000Y-83950000D01*
X186000000Y-88250000D02*
X185650000Y-88250000D01*
X185650000Y-83950000D02*
X186050000Y-83950000D01*
X185650000Y-83950000D02*
X185650000Y-89550000D01*
X189850000Y-88250000D02*
X189500000Y-88250000D01*
X187600000Y-83950000D02*
X187900000Y-83950000D01*
X185650000Y-89550000D02*
X186000000Y-89550000D01*
D11*
X204150000Y-138250000D02*
X202350000Y-138250000D01*
X204150000Y-136100000D02*
X202350000Y-136100000D01*
X204150000Y-136100000D02*
X204150000Y-139300000D01*
X203950000Y-138250000D02*
X203950000Y-138900000D01*
X202350000Y-136100000D02*
X202350000Y-139300000D01*
X202550000Y-138250000D02*
X202550000Y-138900000D01*
X204150000Y-139100000D02*
X202350000Y-139100000D01*
X204150000Y-138900000D02*
X202350000Y-138900000D01*
X204150000Y-139300000D02*
X202350000Y-139300000D01*
X201700000Y-138250000D02*
X201700000Y-138900000D01*
X200300000Y-138250000D02*
X200300000Y-138900000D01*
X201900000Y-139300000D02*
X200100000Y-139300000D01*
X201900000Y-139100000D02*
X200100000Y-139100000D01*
X201900000Y-136100000D02*
X201900000Y-139300000D01*
X201900000Y-138900000D02*
X200100000Y-138900000D01*
X201900000Y-136100000D02*
X200100000Y-136100000D01*
X201900000Y-138250000D02*
X200100000Y-138250000D01*
X200100000Y-136100000D02*
X200100000Y-139300000D01*
X177400000Y-142500000D02*
X176600000Y-143300000D01*
X176600000Y-143300000D02*
X176600000Y-141700000D01*
X176600000Y-141700000D02*
X177400000Y-142500000D01*
X178800000Y-142500000D02*
G75*
G03*
X178800000Y-142500000I-1800000J0D01*
G01*
X120900000Y-72200000D02*
X120900000Y-73800000D01*
X120100000Y-73000000D02*
X120900000Y-72200000D01*
X120900000Y-73800000D02*
X120100000Y-73000000D01*
X122300000Y-73000000D02*
G75*
G03*
X122300000Y-73000000I-1800000J0D01*
G01*
D21*
X202250880Y-69999500D02*
X193249120Y-69999500D01*
X202250880Y-66499380D02*
X193249120Y-66499380D01*
X193249120Y-81000240D02*
X202250880Y-81000240D01*
X202250880Y-81000240D02*
X202250880Y-66499380D01*
X193249120Y-66499380D02*
X193249120Y-81000240D01*
D11*
X179830000Y-70000000D02*
X179830000Y-77600000D01*
X179830000Y-70750000D02*
X168670000Y-70750000D01*
X179830000Y-76000000D02*
X168670000Y-76000000D01*
X179830000Y-77600000D02*
X168670000Y-77600000D01*
X168670000Y-70000000D02*
X168670000Y-77600000D01*
X179830000Y-70000000D02*
X168670000Y-70000000D01*
D22*
X167100000Y-82900000D02*
X167100000Y-66500000D01*
X154900000Y-82900000D02*
X154900000Y-66500000D01*
X167100000Y-66500000D02*
X154900000Y-66500000D01*
X167100000Y-82900000D02*
X154900000Y-82900000D01*
X120600000Y-98000000D02*
X120600000Y-134000000D01*
X115400000Y-134000000D02*
X115400000Y-98000000D01*
X120600000Y-134000000D02*
X115400000Y-134000000D01*
X115400000Y-98000000D02*
X120600000Y-98000000D01*
X202400000Y-98000000D02*
X207600000Y-98000000D01*
X207600000Y-98000000D02*
X207600000Y-134000000D01*
X207600000Y-134000000D02*
X202400000Y-134000000D01*
X202400000Y-134000000D02*
X202400000Y-98000000D01*
D18*
X187800000Y-137400000D02*
X187800000Y-140600000D01*
X189200000Y-140600000D02*
X189200000Y-137400000D01*
X187800000Y-140600000D02*
X189200000Y-140600000D01*
X189200000Y-137400000D02*
X187800000Y-137400000D01*
X153650000Y-120800000D02*
X153650000Y-122200000D01*
X156850000Y-122200000D02*
X156850000Y-120800000D01*
X153650000Y-122200000D02*
X156850000Y-122200000D01*
X156850000Y-120800000D02*
X153650000Y-120800000D01*
X124700000Y-94650000D02*
X123300000Y-94650000D01*
X124700000Y-97850000D02*
X124700000Y-94650000D01*
X123300000Y-97850000D02*
X124700000Y-97850000D01*
X123300000Y-94650000D02*
X123300000Y-97850000D01*
X197150000Y-121700000D02*
X197150000Y-125300000D01*
X195500000Y-125300000D02*
X197150000Y-125300000D01*
X188850000Y-125300000D02*
X188850000Y-121700000D01*
X188850000Y-121700000D02*
X190500000Y-121700000D01*
X190500000Y-125300000D02*
X188850000Y-125300000D01*
X195500000Y-121700000D02*
X197150000Y-121700000D01*
D13*
X189330000Y-131800000D02*
X189330000Y-130970000D01*
X189330000Y-130970000D02*
X188170000Y-130970000D01*
X189330000Y-133530000D02*
X188170000Y-133530000D01*
X189330000Y-132700000D02*
X189330000Y-133530000D01*
X188170000Y-130970000D02*
X188170000Y-131800000D01*
X188170000Y-133530000D02*
X188170000Y-132700000D01*
X196200000Y-131920000D02*
X197030000Y-131920000D01*
X195300000Y-131920000D02*
X194470000Y-131920000D01*
X197030000Y-133080000D02*
X196200000Y-133080000D01*
X197030000Y-131920000D02*
X197030000Y-133080000D01*
X194470000Y-133080000D02*
X195300000Y-133080000D01*
X194470000Y-131920000D02*
X194470000Y-133080000D01*
X142080000Y-94300000D02*
X142080000Y-93470000D01*
X142080000Y-95200000D02*
X142080000Y-96030000D01*
X142080000Y-96030000D02*
X140920000Y-96030000D01*
X142080000Y-93470000D02*
X140920000Y-93470000D01*
X140920000Y-93470000D02*
X140920000Y-94300000D01*
X140920000Y-96030000D02*
X140920000Y-95200000D01*
X143580000Y-96030000D02*
X143580000Y-95200000D01*
X142420000Y-93470000D02*
X143580000Y-93470000D01*
X142420000Y-94300000D02*
X142420000Y-93470000D01*
X142420000Y-95200000D02*
X142420000Y-96030000D01*
X142420000Y-96030000D02*
X143580000Y-96030000D01*
X143580000Y-93470000D02*
X143580000Y-94300000D01*
X128170000Y-108470000D02*
X128170000Y-109300000D01*
X129330000Y-109300000D02*
X129330000Y-108470000D01*
X129330000Y-110200000D02*
X129330000Y-111030000D01*
X128170000Y-111030000D02*
X128170000Y-110200000D01*
X129330000Y-111030000D02*
X128170000Y-111030000D01*
X129330000Y-108470000D02*
X128170000Y-108470000D01*
X130830000Y-109300000D02*
X130830000Y-108470000D01*
X129670000Y-108470000D02*
X129670000Y-109300000D01*
X130830000Y-108470000D02*
X129670000Y-108470000D01*
X130830000Y-110200000D02*
X130830000Y-111030000D01*
X129670000Y-111030000D02*
X129670000Y-110200000D01*
X130830000Y-111030000D02*
X129670000Y-111030000D01*
X178280000Y-138420000D02*
X177450000Y-138420000D01*
X178280000Y-139580000D02*
X178280000Y-138420000D01*
X175720000Y-138420000D02*
X176550000Y-138420000D01*
X176550000Y-139580000D02*
X175720000Y-139580000D01*
X175720000Y-139580000D02*
X175720000Y-138420000D01*
X177450000Y-139580000D02*
X178280000Y-139580000D01*
X183720000Y-139580000D02*
X183720000Y-138420000D01*
X186280000Y-138420000D02*
X185450000Y-138420000D01*
X186280000Y-139580000D02*
X186280000Y-138420000D01*
X183720000Y-138420000D02*
X184550000Y-138420000D01*
X185450000Y-139580000D02*
X186280000Y-139580000D01*
X184550000Y-139580000D02*
X183720000Y-139580000D01*
X200420000Y-142530000D02*
X200420000Y-141700000D01*
X200420000Y-139970000D02*
X200420000Y-140800000D01*
X201580000Y-142530000D02*
X200420000Y-142530000D01*
X201580000Y-140800000D02*
X201580000Y-139970000D01*
X201580000Y-139970000D02*
X200420000Y-139970000D01*
X201580000Y-141700000D02*
X201580000Y-142530000D01*
X128780000Y-94580000D02*
X128780000Y-93420000D01*
X126220000Y-94580000D02*
X126220000Y-93420000D01*
X127050000Y-94580000D02*
X126220000Y-94580000D01*
X126220000Y-93420000D02*
X127050000Y-93420000D01*
X127950000Y-94580000D02*
X128780000Y-94580000D01*
X128780000Y-93420000D02*
X127950000Y-93420000D01*
D20*
X117150000Y-92100000D02*
X119850000Y-92100000D01*
X121600000Y-92100000D02*
X121600000Y-85900000D01*
X115400000Y-85900000D02*
X115400000Y-92100000D01*
X119850000Y-85900000D02*
X117150000Y-85900000D01*
X120250000Y-89000000D02*
G75*
G03*
X120250000Y-89000000I-1750000J0D01*
G01*
X198100000Y-142350000D02*
X198100000Y-139650000D01*
X198100000Y-137900000D02*
X191900000Y-137900000D01*
X191900000Y-144100000D02*
X198100000Y-144100000D01*
X191900000Y-139650000D02*
X191900000Y-142350000D01*
X196750000Y-141000000D02*
G75*
G03*
X196750000Y-141000000I-1750000J0D01*
G01*
D18*
X151500000Y-141000000D02*
X144000000Y-147500000D01*
X151500000Y-120000000D02*
X151500000Y-141000000D01*
X126500000Y-141000000D02*
X134000000Y-147500000D01*
X126500000Y-120000000D02*
X126500000Y-141000000D01*
X144000000Y-147500000D02*
X134000000Y-147500000D01*
X126500000Y-120000000D02*
X151500000Y-120000000D01*
D13*
X191500000Y-132750000D02*
X193000000Y-132750000D01*
X191500000Y-132750000D02*
X191500000Y-129750000D01*
X193000000Y-129750000D02*
X193000000Y-132750000D01*
X191500000Y-129750000D02*
X193000000Y-129750000D01*
X192250000Y-132750000D02*
X193000000Y-132000000D01*
X195670000Y-131530000D02*
X195670000Y-130700000D01*
X195670000Y-128970000D02*
X195670000Y-129800000D01*
X196830000Y-130700000D02*
X196830000Y-131530000D01*
X196830000Y-128970000D02*
X195670000Y-128970000D01*
X196830000Y-131530000D02*
X195670000Y-131530000D01*
X196830000Y-129800000D02*
X196830000Y-128970000D01*
D20*
X163100000Y-137900000D02*
X156900000Y-137900000D01*
X163100000Y-142350000D02*
X163100000Y-139650000D01*
X156900000Y-144100000D02*
X163100000Y-144100000D01*
X156900000Y-139650000D02*
X156900000Y-142350000D01*
X161750000Y-141000000D02*
G75*
G03*
X161750000Y-141000000I-1750000J0D01*
G01*
D18*
X156000000Y-96625000D02*
X156000000Y-87875000D01*
X155000000Y-87875000D02*
X155750000Y-87875000D01*
X165500000Y-96625000D02*
X165500000Y-87875000D01*
X155750000Y-87875000D02*
X165750000Y-87875000D01*
X155000000Y-96625000D02*
X155000000Y-87875000D01*
X165750000Y-87875000D02*
X166500000Y-87875000D01*
X155750000Y-96625000D02*
X155000000Y-96625000D01*
X166500000Y-87875000D02*
X166500000Y-96625000D01*
X166500000Y-96625000D02*
X165750000Y-96625000D01*
X165750000Y-96625000D02*
X155750000Y-96625000D01*
D13*
X145830000Y-113700000D02*
X145830000Y-114530000D01*
X145830000Y-111970000D02*
X144670000Y-111970000D01*
X145830000Y-112800000D02*
X145830000Y-111970000D01*
X144670000Y-114530000D02*
X144670000Y-113700000D01*
X144670000Y-111970000D02*
X144670000Y-112800000D01*
X145830000Y-114530000D02*
X144670000Y-114530000D01*
X149330000Y-100530000D02*
X148170000Y-100530000D01*
X149330000Y-97970000D02*
X148170000Y-97970000D01*
X148170000Y-100530000D02*
X148170000Y-99700000D01*
X148170000Y-97970000D02*
X148170000Y-98800000D01*
X149330000Y-98800000D02*
X149330000Y-97970000D01*
X149330000Y-99700000D02*
X149330000Y-100530000D01*
X146670000Y-100530000D02*
X146670000Y-99700000D01*
X146670000Y-97970000D02*
X146670000Y-98800000D01*
X147830000Y-97970000D02*
X146670000Y-97970000D01*
X147830000Y-100530000D02*
X146670000Y-100530000D01*
X147830000Y-99700000D02*
X147830000Y-100530000D01*
X147830000Y-98800000D02*
X147830000Y-97970000D01*
X127530000Y-101670000D02*
X126700000Y-101670000D01*
X124970000Y-101670000D02*
X125800000Y-101670000D01*
X127530000Y-102830000D02*
X127530000Y-101670000D01*
X125800000Y-102830000D02*
X124970000Y-102830000D01*
X126700000Y-102830000D02*
X127530000Y-102830000D01*
X124970000Y-102830000D02*
X124970000Y-101670000D01*
X126420000Y-98720000D02*
X126420000Y-99550000D01*
X127580000Y-100450000D02*
X127580000Y-101280000D01*
X127580000Y-98720000D02*
X126420000Y-98720000D01*
X126420000Y-101280000D02*
X126420000Y-100450000D01*
X127580000Y-99550000D02*
X127580000Y-98720000D01*
X127580000Y-101280000D02*
X126420000Y-101280000D01*
D11*
X144100000Y-116700000D02*
X144100000Y-113700000D01*
X144100000Y-113700000D02*
X140300000Y-113700000D01*
X140300000Y-116700000D02*
X144100000Y-116700000D01*
X140300000Y-113700000D02*
X140300000Y-116700000D01*
D13*
X149150000Y-114200000D02*
X149150000Y-116800000D01*
X156850000Y-114200000D02*
X149150000Y-114200000D01*
X156850000Y-116800000D02*
X156850000Y-114200000D01*
X149150000Y-116800000D02*
X156850000Y-116800000D01*
X151750000Y-114250000D02*
X151750000Y-116750000D01*
D11*
X134650000Y-101550000D02*
X129350000Y-101550000D01*
X134650000Y-97450000D02*
X134650000Y-101550000D01*
X129350000Y-101550000D02*
X129350000Y-97450000D01*
X129350000Y-97450000D02*
X134650000Y-97450000D01*
X130750000Y-100750000D02*
G75*
G03*
X130750000Y-100750000I-500000J0D01*
G01*
D13*
X128100000Y-99750000D02*
X128100000Y-98750000D01*
X128900000Y-98750000D02*
X128900000Y-99750000D01*
D20*
X141890000Y-109610000D02*
X141890000Y-108960000D01*
X148460000Y-109610000D02*
X149110000Y-109610000D01*
X142540000Y-102390000D02*
X141890000Y-102390000D01*
X142540000Y-109610000D02*
X141890000Y-109610000D01*
X149110000Y-102390000D02*
X149110000Y-103040000D01*
X148460000Y-102390000D02*
X149110000Y-102390000D01*
X149110000Y-109610000D02*
X149110000Y-108960000D01*
D13*
X153000000Y-107800000D02*
X152000000Y-107800000D01*
X152000000Y-107000000D02*
X153000000Y-107000000D01*
X144900000Y-98500000D02*
X144900000Y-99500000D01*
X144100000Y-99500000D02*
X144100000Y-98500000D01*
X137750000Y-108100000D02*
X138750000Y-108100000D01*
X138750000Y-108900000D02*
X137750000Y-108900000D01*
X146150000Y-98500000D02*
X146150000Y-99500000D01*
X145350000Y-99500000D02*
X145350000Y-98500000D01*
X139000000Y-101350000D02*
X140000000Y-101350000D01*
X140000000Y-102150000D02*
X139000000Y-102150000D01*
X147350000Y-129500000D02*
X147350000Y-128500000D01*
X148150000Y-128500000D02*
X148150000Y-129500000D01*
X150650000Y-99500000D02*
X150650000Y-100500000D01*
X149850000Y-100500000D02*
X149850000Y-99500000D01*
X152500000Y-101150000D02*
X151500000Y-101150000D01*
X151500000Y-100350000D02*
X152500000Y-100350000D01*
X148400000Y-114000000D02*
X148400000Y-115000000D01*
X147600000Y-115000000D02*
X147600000Y-114000000D01*
X144850000Y-116250000D02*
X144850000Y-115250000D01*
X145650000Y-115250000D02*
X145650000Y-116250000D01*
X139650000Y-115000000D02*
X139650000Y-116000000D01*
X138850000Y-116000000D02*
X138850000Y-115000000D01*
X146350000Y-115000000D02*
X146350000Y-114000000D01*
X147150000Y-114000000D02*
X147150000Y-115000000D01*
X152500000Y-102400000D02*
X151500000Y-102400000D01*
X151500000Y-101600000D02*
X152500000Y-101600000D01*
X189330000Y-130530000D02*
X188170000Y-130530000D01*
X189330000Y-127970000D02*
X188170000Y-127970000D01*
X189330000Y-128800000D02*
X189330000Y-127970000D01*
X188170000Y-127970000D02*
X188170000Y-128800000D01*
X189330000Y-129700000D02*
X189330000Y-130530000D01*
X188170000Y-130530000D02*
X188170000Y-129700000D01*
D11*
X175900000Y-83100000D02*
X175900000Y-86300000D01*
X175900000Y-85250000D02*
X174100000Y-85250000D01*
X174300000Y-85250000D02*
X174300000Y-85900000D01*
X174100000Y-83100000D02*
X174100000Y-86300000D01*
X175700000Y-85250000D02*
X175700000Y-85900000D01*
X175900000Y-85900000D02*
X174100000Y-85900000D01*
X175900000Y-83100000D02*
X174100000Y-83100000D01*
X175900000Y-86100000D02*
X174100000Y-86100000D01*
X175900000Y-86300000D02*
X174100000Y-86300000D01*
X182900000Y-91750000D02*
X177100000Y-91750000D01*
X183500000Y-85000000D02*
X183500000Y-86000000D01*
X184000000Y-85500000D02*
X183000000Y-85500000D01*
X184000000Y-89000000D02*
G75*
G03*
X184000000Y-89000000I-4000000J0D01*
G01*
X184600000Y-141700000D02*
X185400000Y-142500000D01*
X184600000Y-143300000D02*
X184600000Y-141700000D01*
X185400000Y-142500000D02*
X184600000Y-143300000D01*
X186800000Y-142500000D02*
G75*
G03*
X186800000Y-142500000I-1800000J0D01*
G01*
X168600000Y-141700000D02*
X169400000Y-142500000D01*
X168600000Y-143300000D02*
X168600000Y-141700000D01*
X169400000Y-142500000D02*
X168600000Y-143300000D01*
X170800000Y-142500000D02*
G75*
G03*
X170800000Y-142500000I-1800000J0D01*
G01*
D13*
X167720000Y-138420000D02*
X168550000Y-138420000D01*
X167720000Y-139580000D02*
X167720000Y-138420000D01*
X170280000Y-139580000D02*
X170280000Y-138420000D01*
X168550000Y-139580000D02*
X167720000Y-139580000D01*
X170280000Y-138420000D02*
X169450000Y-138420000D01*
X169450000Y-139580000D02*
X170280000Y-139580000D01*
D11*
X160400000Y-86900000D02*
X158600000Y-86900000D01*
X158600000Y-84100000D02*
X158600000Y-87300000D01*
X160400000Y-87100000D02*
X158600000Y-87100000D01*
X158800000Y-86250000D02*
X158800000Y-86900000D01*
X160400000Y-84100000D02*
X158600000Y-84100000D01*
X160400000Y-87300000D02*
X158600000Y-87300000D01*
X160400000Y-86250000D02*
X158600000Y-86250000D01*
X160200000Y-86250000D02*
X160200000Y-86900000D01*
X160400000Y-84100000D02*
X160400000Y-87300000D01*
D20*
X141800000Y-117700000D02*
X142600000Y-117700000D01*
X141150000Y-117700000D02*
X141400000Y-117700000D01*
X143800000Y-119100000D02*
X143000000Y-119100000D01*
X141400000Y-119100000D02*
X141150000Y-119100000D01*
X142600000Y-119100000D02*
X141800000Y-119100000D01*
X143000000Y-117700000D02*
X143800000Y-117700000D01*
X144450000Y-117700000D02*
X144450000Y-119100000D01*
X144200000Y-117700000D02*
X144450000Y-117700000D01*
X141150000Y-119100000D02*
X141150000Y-117700000D01*
X144450000Y-119100000D02*
X144200000Y-119100000D01*
D11*
X161350000Y-111850000D02*
X161350000Y-113650000D01*
X164550000Y-111850000D02*
X164550000Y-113650000D01*
X163500000Y-113450000D02*
X164150000Y-113450000D01*
X163500000Y-112050000D02*
X164150000Y-112050000D01*
X163500000Y-111850000D02*
X163500000Y-113650000D01*
X164350000Y-111850000D02*
X164350000Y-113650000D01*
X164150000Y-111850000D02*
X164150000Y-113650000D01*
X161350000Y-113650000D02*
X164550000Y-113650000D01*
X161350000Y-111850000D02*
X164550000Y-111850000D01*
D18*
X170600000Y-95500000D02*
X170600000Y-101000000D01*
X177400000Y-101000000D02*
X177400000Y-95500000D01*
X177400000Y-95500000D02*
X177100000Y-95500000D01*
X170900000Y-95500000D02*
X170600000Y-95500000D01*
X170600000Y-101000000D02*
X177400000Y-101000000D01*
D13*
X166750000Y-113150000D02*
X165750000Y-113150000D01*
X165750000Y-112350000D02*
X166750000Y-112350000D01*
D11*
X165400000Y-99900000D02*
X165400000Y-98100000D01*
X163250000Y-99900000D02*
X163250000Y-98100000D01*
X162400000Y-99900000D02*
X162400000Y-98100000D01*
X162200000Y-99900000D02*
X162200000Y-98100000D01*
X165400000Y-99900000D02*
X162200000Y-99900000D01*
X163250000Y-98300000D02*
X162600000Y-98300000D01*
X162600000Y-99900000D02*
X162600000Y-98100000D01*
X165400000Y-98100000D02*
X162200000Y-98100000D01*
X163250000Y-99700000D02*
X162600000Y-99700000D01*
D13*
X196830000Y-127700000D02*
X196830000Y-128530000D01*
X195670000Y-125970000D02*
X195670000Y-126800000D01*
X196830000Y-128530000D02*
X195670000Y-128530000D01*
X196830000Y-126800000D02*
X196830000Y-125970000D01*
X195670000Y-128530000D02*
X195670000Y-127700000D01*
X196830000Y-125970000D02*
X195670000Y-125970000D01*
D18*
X180900000Y-113500000D02*
X180600000Y-113500000D01*
X187400000Y-113500000D02*
X187100000Y-113500000D01*
X187400000Y-119000000D02*
X187400000Y-113500000D01*
X180600000Y-119000000D02*
X187400000Y-119000000D01*
X180600000Y-113500000D02*
X180600000Y-119000000D01*
X177400000Y-113500000D02*
X177100000Y-113500000D01*
X177400000Y-119000000D02*
X177400000Y-113500000D01*
X170600000Y-113500000D02*
X170600000Y-119000000D01*
X170600000Y-119000000D02*
X177400000Y-119000000D01*
X170900000Y-113500000D02*
X170600000Y-113500000D01*
D11*
X164150000Y-101600000D02*
X164150000Y-103400000D01*
X161350000Y-103400000D02*
X164550000Y-103400000D01*
X163500000Y-101600000D02*
X163500000Y-103400000D01*
X164350000Y-101600000D02*
X164350000Y-103400000D01*
X163500000Y-101800000D02*
X164150000Y-101800000D01*
X161350000Y-101600000D02*
X161350000Y-103400000D01*
X161350000Y-101600000D02*
X164550000Y-101600000D01*
X163500000Y-103200000D02*
X164150000Y-103200000D01*
X164550000Y-101600000D02*
X164550000Y-103400000D01*
D20*
X194850000Y-88250000D02*
X194500000Y-88250000D01*
X194850000Y-89550000D02*
X194500000Y-89550000D01*
X190650000Y-89550000D02*
X191000000Y-89550000D01*
X194850000Y-83950000D02*
X194450000Y-83950000D01*
X191000000Y-88250000D02*
X190650000Y-88250000D01*
X194850000Y-83950000D02*
X194850000Y-89550000D01*
X190650000Y-83950000D02*
X190650000Y-89550000D01*
X192600000Y-83950000D02*
X192900000Y-83950000D01*
X190650000Y-83950000D02*
X191050000Y-83950000D01*
D11*
X191580000Y-70750000D02*
X180420000Y-70750000D01*
X191580000Y-76000000D02*
X180420000Y-76000000D01*
X191580000Y-70000000D02*
X191580000Y-77600000D01*
X191580000Y-70000000D02*
X180420000Y-70000000D01*
X180420000Y-70000000D02*
X180420000Y-77600000D01*
X191580000Y-77600000D02*
X180420000Y-77600000D01*
X164800000Y-109150000D02*
X160700000Y-109150000D01*
X160700000Y-103850000D02*
X164800000Y-103850000D01*
X160700000Y-109150000D02*
X160700000Y-103850000D01*
X164800000Y-103850000D02*
X164800000Y-109150000D01*
X162000000Y-104750000D02*
G75*
G03*
X162000000Y-104750000I-500000J0D01*
G01*
D13*
X193250000Y-128650000D02*
X192250000Y-128650000D01*
X192250000Y-127850000D02*
X193250000Y-127850000D01*
D18*
X167375000Y-89000000D02*
X168125000Y-89000000D01*
X167750000Y-88625000D02*
X167750000Y-89375000D01*
X171750000Y-89500000D02*
X171750000Y-93000000D01*
X172500000Y-91250000D02*
G75*
G03*
X172500000Y-91250000I-2500000J0D01*
G01*
D11*
X160700000Y-114100000D02*
X164800000Y-114100000D01*
X160700000Y-119400000D02*
X160700000Y-114100000D01*
X164800000Y-119400000D02*
X160700000Y-119400000D01*
X164800000Y-114100000D02*
X164800000Y-119400000D01*
X162000000Y-115000000D02*
G75*
G03*
X162000000Y-115000000I-500000J0D01*
G01*
D18*
X180900000Y-95500000D02*
X180600000Y-95500000D01*
X180600000Y-101000000D02*
X187400000Y-101000000D01*
X187400000Y-101000000D02*
X187400000Y-95500000D01*
X187400000Y-95500000D02*
X187100000Y-95500000D01*
X180600000Y-95500000D02*
X180600000Y-101000000D01*
D13*
X189920000Y-129530000D02*
X189920000Y-128700000D01*
X191080000Y-128700000D02*
X191080000Y-129530000D01*
X189920000Y-126970000D02*
X189920000Y-127800000D01*
X191080000Y-127800000D02*
X191080000Y-126970000D01*
X191080000Y-126970000D02*
X189920000Y-126970000D01*
X191080000Y-129530000D02*
X189920000Y-129530000D01*
X166750000Y-102900000D02*
X165750000Y-102900000D01*
X165750000Y-102100000D02*
X166750000Y-102100000D01*
%LPC*%
D23*
X206000000Y-73000000D03*
X206000000Y-138000000D03*
X117000000Y-138000000D03*
X117000000Y-73000000D03*
D24*
X169750000Y-124800000D03*
X169750000Y-123200000D03*
X168250000Y-101700000D03*
X168250000Y-103300000D03*
X179750000Y-121450000D03*
X179750000Y-123050000D03*
X179000000Y-101700000D03*
X179000000Y-103300000D03*
D25*
X201750000Y-86500000D03*
X201750000Y-91500000D03*
D26*
X190250000Y-91025000D03*
X190250000Y-91975000D03*
D27*
X169000000Y-86000000D03*
X171000000Y-86000000D03*
D26*
X190250000Y-133275000D03*
X190250000Y-134225000D03*
D28*
X126570000Y-91000000D03*
D25*
X129110000Y-91000000D03*
X131650000Y-91000000D03*
X134190000Y-91000000D03*
X136730000Y-91000000D03*
X139270000Y-91000000D03*
X141810000Y-91000000D03*
X144350000Y-91000000D03*
X146890000Y-91000000D03*
X149430000Y-91000000D03*
X151000000Y-75270000D03*
X151000000Y-72730000D03*
X125000000Y-72730000D03*
X125000000Y-75270000D03*
D29*
X187750000Y-87870000D03*
D30*
X186830000Y-83888000D03*
X188670000Y-83888000D03*
D31*
X203250000Y-139025000D03*
X203250000Y-135975000D03*
X201000000Y-139025000D03*
X201000000Y-135975000D03*
D32*
X178270000Y-142500000D03*
X175730000Y-142500000D03*
X119230000Y-73000000D03*
X121770000Y-73000000D03*
D33*
X206000000Y-79000000D03*
X206000000Y-145000000D03*
X117000000Y-79000000D03*
X117000000Y-145000000D03*
D34*
X197750000Y-80200140D03*
X197750000Y-74200660D03*
D35*
X193051000Y-77200400D03*
D36*
X176790000Y-73400000D03*
X171710000Y-73400000D03*
D32*
X159750000Y-81710000D03*
X162250000Y-81710000D03*
X162250000Y-79710000D03*
X159750000Y-79710000D03*
D37*
X154980000Y-77000000D03*
X167020000Y-77000000D03*
D28*
X116730000Y-99490000D03*
D25*
X119270000Y-99490000D03*
X116730000Y-102030000D03*
X119270000Y-102030000D03*
X116730000Y-104570000D03*
X119270000Y-104570000D03*
X116730000Y-107110000D03*
X119270000Y-107110000D03*
X116730000Y-109650000D03*
X119270000Y-109650000D03*
X116730000Y-112190000D03*
X119270000Y-112190000D03*
X116730000Y-114730000D03*
X119270000Y-114730000D03*
X116730000Y-117270000D03*
X119270000Y-117270000D03*
X116730000Y-119810000D03*
X119270000Y-119810000D03*
X116730000Y-122350000D03*
X119270000Y-122350000D03*
X116730000Y-124890000D03*
X119270000Y-124890000D03*
X116730000Y-127430000D03*
X119270000Y-127430000D03*
X116730000Y-129970000D03*
X119270000Y-129970000D03*
X116730000Y-132510000D03*
X119270000Y-132510000D03*
D28*
X203730000Y-99490000D03*
D25*
X206270000Y-99490000D03*
X203730000Y-102030000D03*
X206270000Y-102030000D03*
X203730000Y-104570000D03*
X206270000Y-104570000D03*
X203730000Y-107110000D03*
X206270000Y-107110000D03*
X203730000Y-109650000D03*
X206270000Y-109650000D03*
X203730000Y-112190000D03*
X206270000Y-112190000D03*
X203730000Y-114730000D03*
X206270000Y-114730000D03*
X203730000Y-117270000D03*
X206270000Y-117270000D03*
X203730000Y-119810000D03*
X206270000Y-119810000D03*
X203730000Y-122350000D03*
X206270000Y-122350000D03*
X203730000Y-124890000D03*
X206270000Y-124890000D03*
X203730000Y-127430000D03*
X206270000Y-127430000D03*
X203730000Y-129970000D03*
X206270000Y-129970000D03*
X203730000Y-132510000D03*
X206270000Y-132510000D03*
D38*
X189550000Y-139950000D03*
X189550000Y-138050000D03*
X187450000Y-139000000D03*
D39*
X156200000Y-120450000D03*
X154300000Y-120450000D03*
X155250000Y-122550000D03*
D38*
X125050000Y-97200000D03*
X125050000Y-95300000D03*
X122950000Y-96250000D03*
D40*
X189800000Y-123500000D03*
X196200000Y-123500000D03*
D24*
X188750000Y-131450000D03*
X188750000Y-133050000D03*
D41*
X194950000Y-132500000D03*
X196550000Y-132500000D03*
D24*
X141500000Y-93950000D03*
X141500000Y-95550000D03*
X143000000Y-95550000D03*
X143000000Y-93950000D03*
X128750000Y-108950000D03*
X128750000Y-110550000D03*
X130250000Y-108950000D03*
X130250000Y-110550000D03*
D41*
X177800000Y-139000000D03*
X176200000Y-139000000D03*
X185800000Y-139000000D03*
X184200000Y-139000000D03*
D24*
X201000000Y-140450000D03*
X201000000Y-142050000D03*
D41*
X128300000Y-94000000D03*
X126700000Y-94000000D03*
D42*
X116250000Y-92250000D03*
X116250000Y-85750000D03*
X120750000Y-92250000D03*
X120750000Y-85750000D03*
X198250000Y-143250000D03*
X191750000Y-143250000D03*
X198250000Y-138750000D03*
X191750000Y-138750000D03*
D43*
X150000000Y-140000000D03*
D27*
X150000000Y-138000000D03*
X150000000Y-136000000D03*
X150000000Y-134000000D03*
X150000000Y-132000000D03*
X150000000Y-130000000D03*
X150000000Y-128000000D03*
X150000000Y-126000000D03*
X150000000Y-124000000D03*
X150000000Y-122000000D03*
X128000000Y-122000000D03*
X128000000Y-124000000D03*
X128000000Y-126000000D03*
X128000000Y-128000000D03*
X128000000Y-130000000D03*
X128000000Y-132000000D03*
X128000000Y-134000000D03*
X128000000Y-136000000D03*
X128000000Y-138000000D03*
X128000000Y-140000000D03*
D44*
X193450000Y-132200000D03*
X193450000Y-131250000D03*
X193450000Y-130300000D03*
X191050000Y-130300000D03*
X191050000Y-132200000D03*
D24*
X196250000Y-129450000D03*
X196250000Y-131050000D03*
D42*
X163250000Y-143250000D03*
X156750000Y-143250000D03*
X163250000Y-138750000D03*
X156750000Y-138750000D03*
D28*
X163290000Y-90375000D03*
D25*
X160750000Y-90375000D03*
X158210000Y-90375000D03*
D24*
X145250000Y-112450000D03*
X145250000Y-114050000D03*
X148750000Y-98450000D03*
X148750000Y-100050000D03*
X147250000Y-98450000D03*
X147250000Y-100050000D03*
D41*
X127050000Y-102250000D03*
X125450000Y-102250000D03*
D24*
X127000000Y-99200000D03*
X127000000Y-100800000D03*
D45*
X141100000Y-116050000D03*
X143300000Y-116050000D03*
X143300000Y-114350000D03*
X141100000Y-114350000D03*
D28*
X150460000Y-115500000D03*
D25*
X153000000Y-115500000D03*
X155540000Y-115500000D03*
D46*
X130095000Y-102300000D03*
X131365000Y-102300000D03*
X132635000Y-102300000D03*
X133905000Y-102300000D03*
X133905000Y-96700000D03*
X132635000Y-96700000D03*
X131365000Y-96700000D03*
X130095000Y-96700000D03*
D26*
X128500000Y-98775000D03*
X128500000Y-99725000D03*
D47*
X142062500Y-103400000D03*
X142062500Y-103800000D03*
X142062500Y-104200000D03*
X142062500Y-104600000D03*
X142062500Y-105000000D03*
X142062500Y-105400000D03*
X142062500Y-105800000D03*
X142062500Y-106200000D03*
X142062500Y-106600000D03*
X142062500Y-107000000D03*
X142062500Y-107400000D03*
X142062500Y-107800000D03*
X142062500Y-108200000D03*
X142062500Y-108600000D03*
D48*
X142900000Y-109437500D03*
X143300000Y-109437500D03*
X143700000Y-109437500D03*
X144100000Y-109437500D03*
X144500000Y-109437500D03*
X144900000Y-109437500D03*
X145300000Y-109437500D03*
X145700000Y-109437500D03*
X146100000Y-109437500D03*
X146500000Y-109437500D03*
X146900000Y-109437500D03*
X147300000Y-109437500D03*
X147700000Y-109437500D03*
X148100000Y-109437500D03*
D47*
X148937500Y-108600000D03*
X148937500Y-108200000D03*
X148937500Y-107800000D03*
X148937500Y-107400000D03*
X148937500Y-107000000D03*
X148937500Y-106600000D03*
X148937500Y-106200000D03*
X148937500Y-105800000D03*
X148937500Y-105400000D03*
X148937500Y-105000000D03*
X148937500Y-104600000D03*
X148937500Y-104200000D03*
X148937500Y-103800000D03*
X148937500Y-103400000D03*
D48*
X148100000Y-102562500D03*
X147700000Y-102562500D03*
X147300000Y-102562500D03*
X146900000Y-102562500D03*
X146500000Y-102562500D03*
X146100000Y-102562500D03*
X145700000Y-102562500D03*
X145300000Y-102562500D03*
X144900000Y-102562500D03*
X144500000Y-102562500D03*
X144100000Y-102562500D03*
X143700000Y-102562500D03*
X143300000Y-102562500D03*
X142900000Y-102562500D03*
D49*
X145500000Y-106000000D03*
D50*
X152025000Y-107400000D03*
X152975000Y-107400000D03*
D26*
X144500000Y-99475000D03*
X144500000Y-98525000D03*
D50*
X138725000Y-108500000D03*
X137775000Y-108500000D03*
D26*
X145750000Y-99475000D03*
X145750000Y-98525000D03*
D50*
X139975000Y-101750000D03*
X139025000Y-101750000D03*
D26*
X147750000Y-129475000D03*
X147750000Y-128525000D03*
X150250000Y-100475000D03*
X150250000Y-99525000D03*
D50*
X151525000Y-100750000D03*
X152475000Y-100750000D03*
D26*
X148000000Y-114025000D03*
X148000000Y-114975000D03*
X145250000Y-115275000D03*
X145250000Y-116225000D03*
X139250000Y-115975000D03*
X139250000Y-115025000D03*
X146750000Y-114025000D03*
X146750000Y-114975000D03*
D50*
X151525000Y-102000000D03*
X152475000Y-102000000D03*
D24*
X188750000Y-128450000D03*
X188750000Y-130050000D03*
D31*
X175000000Y-86025000D03*
X175000000Y-82975000D03*
D25*
X180000000Y-87250000D03*
X180000000Y-90750000D03*
D32*
X186270000Y-142500000D03*
X183730000Y-142500000D03*
X170270000Y-142500000D03*
X167730000Y-142500000D03*
D41*
X169800000Y-139000000D03*
X168200000Y-139000000D03*
D31*
X159500000Y-87025000D03*
X159500000Y-83975000D03*
D51*
X141600000Y-118400000D03*
X142800000Y-118400000D03*
X144000000Y-118400000D03*
D52*
X164275000Y-112750000D03*
X161225000Y-112750000D03*
D53*
X171700000Y-104000000D03*
D54*
X174000000Y-97500000D03*
D53*
X176300000Y-104000000D03*
D50*
X165775000Y-112750000D03*
X166725000Y-112750000D03*
D52*
X162475000Y-99000000D03*
X165525000Y-99000000D03*
D24*
X196250000Y-126450000D03*
X196250000Y-128050000D03*
D53*
X181700000Y-122000000D03*
D54*
X184000000Y-115500000D03*
D53*
X186300000Y-122000000D03*
X171700000Y-122000000D03*
D54*
X174000000Y-115500000D03*
D53*
X176300000Y-122000000D03*
D52*
X164275000Y-102500000D03*
X161225000Y-102500000D03*
D29*
X192750000Y-87870000D03*
D30*
X193670000Y-83888000D03*
X191830000Y-83888000D03*
D36*
X188540000Y-73400000D03*
X183460000Y-73400000D03*
D55*
X159950000Y-104595000D03*
X159950000Y-105865000D03*
X159950000Y-107135000D03*
X159950000Y-108405000D03*
X165550000Y-108405000D03*
X165550000Y-107135000D03*
X165550000Y-105865000D03*
X165550000Y-104595000D03*
D50*
X192275000Y-128250000D03*
X193225000Y-128250000D03*
D27*
X169000000Y-91250000D03*
X171000000Y-91250000D03*
D55*
X159950000Y-114845000D03*
X159950000Y-116115000D03*
X159950000Y-117385000D03*
X159950000Y-118655000D03*
X165550000Y-118655000D03*
X165550000Y-117385000D03*
X165550000Y-116115000D03*
X165550000Y-114845000D03*
D53*
X181700000Y-104000000D03*
D54*
X184000000Y-97500000D03*
D53*
X186300000Y-104000000D03*
D24*
X190500000Y-127450000D03*
X190500000Y-129050000D03*
D50*
X165775000Y-102500000D03*
X166725000Y-102500000D03*
G36*
X116711980Y-75502383D02*
G01*
X116790613Y-75518024D01*
X116835313Y-75536539D01*
X116891624Y-75574165D01*
X116925835Y-75608376D01*
X116963461Y-75664687D01*
X116981976Y-75709387D01*
X116997617Y-75788020D01*
X117000000Y-75812211D01*
X117000000Y-82187789D01*
X116997617Y-82211980D01*
X116981976Y-82290613D01*
X116963461Y-82335313D01*
X116925835Y-82391624D01*
X116891624Y-82425835D01*
X116835313Y-82463461D01*
X116790613Y-82481976D01*
X116711980Y-82497617D01*
X116687789Y-82500000D01*
X114312211Y-82500000D01*
X114288020Y-82497617D01*
X114209387Y-82481976D01*
X114164687Y-82463461D01*
X114108376Y-82425835D01*
X114074165Y-82391624D01*
X114036539Y-82335313D01*
X114018024Y-82290613D01*
X114002383Y-82211980D01*
X114000000Y-82187789D01*
X114000000Y-75812211D01*
X114002383Y-75788020D01*
X114018024Y-75709387D01*
X114036539Y-75664687D01*
X114074165Y-75608376D01*
X114108376Y-75574165D01*
X114164687Y-75536539D01*
X114209387Y-75518024D01*
X114288020Y-75502383D01*
X114312211Y-75500000D01*
X116687789Y-75500000D01*
X116711980Y-75502383D01*
G37*
G36*
X208711980Y-75502383D02*
G01*
X208790613Y-75518024D01*
X208835313Y-75536539D01*
X208891624Y-75574165D01*
X208925835Y-75608376D01*
X208963461Y-75664687D01*
X208981976Y-75709387D01*
X208997617Y-75788020D01*
X209000000Y-75812211D01*
X209000000Y-82187789D01*
X208997617Y-82211980D01*
X208981976Y-82290613D01*
X208963461Y-82335313D01*
X208925835Y-82391624D01*
X208891624Y-82425835D01*
X208835313Y-82463461D01*
X208790613Y-82481976D01*
X208711980Y-82497617D01*
X208687789Y-82500000D01*
X206312211Y-82500000D01*
X206288020Y-82497617D01*
X206209387Y-82481976D01*
X206164687Y-82463461D01*
X206108376Y-82425835D01*
X206074165Y-82391624D01*
X206036539Y-82335313D01*
X206018024Y-82290613D01*
X206002383Y-82211980D01*
X206000000Y-82187789D01*
X206000000Y-75812211D01*
X206002383Y-75788020D01*
X206018024Y-75709387D01*
X206036539Y-75664687D01*
X206074165Y-75608376D01*
X206108376Y-75574165D01*
X206164687Y-75536539D01*
X206209387Y-75518024D01*
X206288020Y-75502383D01*
X206312211Y-75500000D01*
X208687789Y-75500000D01*
X208711980Y-75502383D01*
G37*
G36*
X208711980Y-141502383D02*
G01*
X208790613Y-141518024D01*
X208835313Y-141536539D01*
X208891624Y-141574165D01*
X208925835Y-141608376D01*
X208963461Y-141664687D01*
X208981976Y-141709387D01*
X208997617Y-141788020D01*
X209000000Y-141812211D01*
X209000000Y-146983731D01*
X208999963Y-146986769D01*
X208999714Y-146996929D01*
X208999415Y-147003019D01*
X208998666Y-147013166D01*
X208998405Y-147016192D01*
X208983980Y-147162651D01*
X208983234Y-147168694D01*
X208980253Y-147188787D01*
X208977880Y-147200719D01*
X208972949Y-147220405D01*
X208971326Y-147226271D01*
X208933339Y-147351499D01*
X208931431Y-147357273D01*
X208924594Y-147376384D01*
X208919934Y-147387635D01*
X208911252Y-147405990D01*
X208908518Y-147411423D01*
X208846824Y-147526846D01*
X208843823Y-147532143D01*
X208833399Y-147549534D01*
X208826638Y-147559651D01*
X208814540Y-147575963D01*
X208810797Y-147580760D01*
X208727782Y-147681915D01*
X208723806Y-147686524D01*
X208710172Y-147701567D01*
X208701567Y-147710172D01*
X208686524Y-147723806D01*
X208681915Y-147727782D01*
X208580760Y-147810797D01*
X208575963Y-147814540D01*
X208559651Y-147826638D01*
X208549534Y-147833399D01*
X208532143Y-147843823D01*
X208526846Y-147846824D01*
X208411423Y-147908518D01*
X208405990Y-147911252D01*
X208387635Y-147919934D01*
X208376384Y-147924594D01*
X208357273Y-147931431D01*
X208351499Y-147933339D01*
X208226271Y-147971326D01*
X208220405Y-147972949D01*
X208200719Y-147977880D01*
X208188787Y-147980253D01*
X208168694Y-147983234D01*
X208162651Y-147983980D01*
X208016192Y-147998405D01*
X208013166Y-147998666D01*
X208003019Y-147999415D01*
X207996929Y-147999714D01*
X207986769Y-147999963D01*
X207983731Y-148000000D01*
X202812211Y-148000000D01*
X202788020Y-147997617D01*
X202709387Y-147981976D01*
X202664687Y-147963461D01*
X202608376Y-147925835D01*
X202574165Y-147891624D01*
X202536539Y-147835313D01*
X202518024Y-147790613D01*
X202502383Y-147711980D01*
X202500000Y-147687789D01*
X202500000Y-145312211D01*
X202502383Y-145288020D01*
X202518024Y-145209387D01*
X202536539Y-145164687D01*
X202574165Y-145108376D01*
X202608376Y-145074165D01*
X202664687Y-145036539D01*
X202709387Y-145018024D01*
X202788020Y-145002383D01*
X202812211Y-145000000D01*
X205693904Y-145000000D01*
X205705980Y-144998810D01*
X205802827Y-144979547D01*
X205824959Y-144970379D01*
X205901979Y-144918916D01*
X205918916Y-144901979D01*
X205970379Y-144824959D01*
X205979547Y-144802827D01*
X205998810Y-144705980D01*
X206000000Y-144693904D01*
X206000000Y-141812211D01*
X206002383Y-141788020D01*
X206018024Y-141709387D01*
X206036539Y-141664687D01*
X206074165Y-141608376D01*
X206108376Y-141574165D01*
X206164687Y-141536539D01*
X206209387Y-141518024D01*
X206288020Y-141502383D01*
X206312211Y-141500000D01*
X208687789Y-141500000D01*
X208711980Y-141502383D01*
G37*
G36*
X116887716Y-141502383D02*
G01*
X116966349Y-141518024D01*
X117011049Y-141536539D01*
X117077715Y-141581084D01*
X117096505Y-141596505D01*
X120403495Y-144903495D01*
X120418916Y-144922285D01*
X120463461Y-144988951D01*
X120481976Y-145033651D01*
X120497617Y-145112284D01*
X120500000Y-145136475D01*
X120500000Y-147687789D01*
X120497617Y-147711980D01*
X120481976Y-147790613D01*
X120463461Y-147835313D01*
X120425835Y-147891624D01*
X120391624Y-147925835D01*
X120335313Y-147963461D01*
X120290613Y-147981976D01*
X120211980Y-147997617D01*
X120187789Y-148000000D01*
X115016269Y-148000000D01*
X115013231Y-147999963D01*
X115003071Y-147999714D01*
X114996981Y-147999415D01*
X114986834Y-147998666D01*
X114983808Y-147998405D01*
X114837349Y-147983980D01*
X114831306Y-147983234D01*
X114811213Y-147980253D01*
X114799281Y-147977880D01*
X114779595Y-147972949D01*
X114773729Y-147971326D01*
X114648501Y-147933339D01*
X114642727Y-147931431D01*
X114623616Y-147924594D01*
X114612365Y-147919934D01*
X114594010Y-147911252D01*
X114588577Y-147908518D01*
X114473154Y-147846824D01*
X114467857Y-147843823D01*
X114450466Y-147833399D01*
X114440349Y-147826638D01*
X114424037Y-147814540D01*
X114419240Y-147810797D01*
X114318085Y-147727782D01*
X114313476Y-147723806D01*
X114298433Y-147710172D01*
X114289828Y-147701567D01*
X114276194Y-147686524D01*
X114272218Y-147681915D01*
X114189203Y-147580760D01*
X114185460Y-147575963D01*
X114173362Y-147559651D01*
X114166601Y-147549534D01*
X114156177Y-147532143D01*
X114153176Y-147526846D01*
X114091482Y-147411423D01*
X114088748Y-147405990D01*
X114080066Y-147387635D01*
X114075406Y-147376384D01*
X114068569Y-147357273D01*
X114066661Y-147351499D01*
X114028674Y-147226271D01*
X114027051Y-147220405D01*
X114022120Y-147200719D01*
X114019747Y-147188787D01*
X114016766Y-147168694D01*
X114016020Y-147162651D01*
X114001595Y-147016192D01*
X114001334Y-147013166D01*
X114000585Y-147003019D01*
X114000286Y-146996929D01*
X114000037Y-146986769D01*
X114000000Y-146983731D01*
X114000000Y-141812211D01*
X114002383Y-141788020D01*
X114018024Y-141709387D01*
X114036539Y-141664687D01*
X114074165Y-141608376D01*
X114108376Y-141574165D01*
X114164687Y-141536539D01*
X114209387Y-141518024D01*
X114288020Y-141502383D01*
X114312211Y-141500000D01*
X116863525Y-141500000D01*
X116887716Y-141502383D01*
G37*
M02*
