G04 #@! TF.GenerationSoftware,KiCad,Pcbnew,(6.0.7)*
G04 #@! TF.CreationDate,2022-09-01T11:58:40+09:00*
G04 #@! TF.ProjectId,RP2040CommandStation,52503230-3430-4436-9f6d-6d616e645374,rev?*
G04 #@! TF.SameCoordinates,PX6cb8080PY8d24d00*
G04 #@! TF.FileFunction,Legend,Top*
G04 #@! TF.FilePolarity,Positive*
%FSLAX46Y46*%
G04 Gerber Fmt 4.6, Leading zero omitted, Abs format (unit mm)*
G04 Created by KiCad (PCBNEW (6.0.7)) date 2022-09-01 11:58:40*
%MOMM*%
%LPD*%
G01*
G04 APERTURE LIST*
G04 Aperture macros list*
%AMRoundRect*
0 Rectangle with rounded corners*
0 $1 Rounding radius*
0 $2 $3 $4 $5 $6 $7 $8 $9 X,Y pos of 4 corners*
0 Add a 4 corners polygon primitive as box body*
4,1,4,$2,$3,$4,$5,$6,$7,$8,$9,$2,$3,0*
0 Add four circle primitives for the rounded corners*
1,1,$1+$1,$2,$3*
1,1,$1+$1,$4,$5*
1,1,$1+$1,$6,$7*
1,1,$1+$1,$8,$9*
0 Add four rect primitives between the rounded corners*
20,1,$1+$1,$2,$3,$4,$5,0*
20,1,$1+$1,$4,$5,$6,$7,0*
20,1,$1+$1,$6,$7,$8,$9,0*
20,1,$1+$1,$8,$9,$2,$3,0*%
G04 Aperture macros list end*
%ADD10C,0.100000*%
%ADD11C,0.200000*%
%ADD12C,0.320000*%
%ADD13C,0.180000*%
%ADD14C,0.330000*%
%ADD15C,0.300000*%
%ADD16C,0.350000*%
%ADD17C,0.140000*%
%ADD18C,0.150000*%
%ADD19C,0.203200*%
%ADD20C,0.120000*%
%ADD21C,0.381000*%
%ADD22C,0.250000*%
%ADD23C,1.600000*%
%ADD24R,0.550000X0.500000*%
%ADD25C,1.400000*%
%ADD26R,1.600000X1.600000*%
%ADD27R,2.200000X1.850000*%
%ADD28R,1.200000X0.850000*%
%ADD29C,1.524000*%
%ADD30C,7.000000*%
%ADD31R,3.500120X3.500120*%
%ADD32R,2.200000X3.600000*%
%ADD33C,2.500000*%
%ADD34C,2.700000*%
%ADD35R,1.000000X0.800000*%
%ADD36R,0.800000X1.000000*%
%ADD37R,1.500000X3.200000*%
%ADD38R,0.700000X0.900000*%
%ADD39R,0.900000X0.700000*%
%ADD40C,1.700000*%
%ADD41R,1.400000X1.400000*%
%ADD42R,1.000000X0.700000*%
%ADD43R,1.400000X1.100000*%
%ADD44R,0.800000X1.300000*%
%ADD45R,0.500000X0.550000*%
%ADD46RoundRect,0.050000X-0.387500X-0.050000X0.387500X-0.050000X0.387500X0.050000X-0.387500X0.050000X0*%
%ADD47RoundRect,0.050000X-0.050000X-0.387500X0.050000X-0.387500X0.050000X0.387500X-0.050000X0.387500X0*%
%ADD48RoundRect,0.144000X-1.456000X-1.456000X1.456000X-1.456000X1.456000X1.456000X-1.456000X1.456000X0*%
%ADD49R,0.850000X1.200000*%
%ADD50R,0.400000X1.900000*%
%ADD51C,2.000000*%
%ADD52R,1.600000X3.000000*%
%ADD53R,6.000000X6.000000*%
%ADD54R,1.300000X0.800000*%
G04 APERTURE END LIST*
D10*
G36*
X94500000Y44750000D02*
G01*
X91000000Y44750000D01*
X91000000Y52250000D01*
X94500000Y52250000D01*
X94500000Y44750000D01*
G37*
X94500000Y44750000D02*
X91000000Y44750000D01*
X91000000Y52250000D01*
X94500000Y52250000D01*
X94500000Y44750000D01*
D11*
X7891904Y18500000D02*
X7796666Y18547620D01*
X7653809Y18547620D01*
X7510952Y18500000D01*
X7415714Y18404762D01*
X7368095Y18309524D01*
X7320476Y18119048D01*
X7320476Y17976191D01*
X7368095Y17785715D01*
X7415714Y17690477D01*
X7510952Y17595239D01*
X7653809Y17547620D01*
X7749047Y17547620D01*
X7891904Y17595239D01*
X7939523Y17642858D01*
X7939523Y17976191D01*
X7749047Y17976191D01*
X8368095Y17547620D02*
X8368095Y18547620D01*
X8749047Y18547620D01*
X8844285Y18500000D01*
X8891904Y18452381D01*
X8939523Y18357143D01*
X8939523Y18214286D01*
X8891904Y18119048D01*
X8844285Y18071429D01*
X8749047Y18023810D01*
X8368095Y18023810D01*
X9891904Y17547620D02*
X9320476Y17547620D01*
X9606190Y17547620D02*
X9606190Y18547620D01*
X9510952Y18404762D01*
X9415714Y18309524D01*
X9320476Y18261905D01*
X10749047Y18214286D02*
X10749047Y17547620D01*
X10510952Y18595239D02*
X10272857Y17880953D01*
X10891904Y17880953D01*
X7891904Y21000000D02*
X7796666Y21047620D01*
X7653809Y21047620D01*
X7510952Y21000000D01*
X7415714Y20904762D01*
X7368095Y20809524D01*
X7320476Y20619048D01*
X7320476Y20476191D01*
X7368095Y20285715D01*
X7415714Y20190477D01*
X7510952Y20095239D01*
X7653809Y20047620D01*
X7749047Y20047620D01*
X7891904Y20095239D01*
X7939523Y20142858D01*
X7939523Y20476191D01*
X7749047Y20476191D01*
X8368095Y20047620D02*
X8368095Y21047620D01*
X8749047Y21047620D01*
X8844285Y21000000D01*
X8891904Y20952381D01*
X8939523Y20857143D01*
X8939523Y20714286D01*
X8891904Y20619048D01*
X8844285Y20571429D01*
X8749047Y20523810D01*
X8368095Y20523810D01*
X9891904Y20047620D02*
X9320476Y20047620D01*
X9606190Y20047620D02*
X9606190Y21047620D01*
X9510952Y20904762D01*
X9415714Y20809524D01*
X9320476Y20761905D01*
X10225238Y21047620D02*
X10844285Y21047620D01*
X10510952Y20666667D01*
X10653809Y20666667D01*
X10749047Y20619048D01*
X10796666Y20571429D01*
X10844285Y20476191D01*
X10844285Y20238096D01*
X10796666Y20142858D01*
X10749047Y20095239D01*
X10653809Y20047620D01*
X10368095Y20047620D01*
X10272857Y20095239D01*
X10225238Y20142858D01*
X7891904Y23500000D02*
X7796666Y23547620D01*
X7653809Y23547620D01*
X7510952Y23500000D01*
X7415714Y23404762D01*
X7368095Y23309524D01*
X7320476Y23119048D01*
X7320476Y22976191D01*
X7368095Y22785715D01*
X7415714Y22690477D01*
X7510952Y22595239D01*
X7653809Y22547620D01*
X7749047Y22547620D01*
X7891904Y22595239D01*
X7939523Y22642858D01*
X7939523Y22976191D01*
X7749047Y22976191D01*
X8368095Y22547620D02*
X8368095Y23547620D01*
X8749047Y23547620D01*
X8844285Y23500000D01*
X8891904Y23452381D01*
X8939523Y23357143D01*
X8939523Y23214286D01*
X8891904Y23119048D01*
X8844285Y23071429D01*
X8749047Y23023810D01*
X8368095Y23023810D01*
X9891904Y22547620D02*
X9320476Y22547620D01*
X9606190Y22547620D02*
X9606190Y23547620D01*
X9510952Y23404762D01*
X9415714Y23309524D01*
X9320476Y23261905D01*
X10272857Y23452381D02*
X10320476Y23500000D01*
X10415714Y23547620D01*
X10653809Y23547620D01*
X10749047Y23500000D01*
X10796666Y23452381D01*
X10844285Y23357143D01*
X10844285Y23261905D01*
X10796666Y23119048D01*
X10225238Y22547620D01*
X10844285Y22547620D01*
X7891904Y26000000D02*
X7796666Y26047620D01*
X7653809Y26047620D01*
X7510952Y26000000D01*
X7415714Y25904762D01*
X7368095Y25809524D01*
X7320476Y25619048D01*
X7320476Y25476191D01*
X7368095Y25285715D01*
X7415714Y25190477D01*
X7510952Y25095239D01*
X7653809Y25047620D01*
X7749047Y25047620D01*
X7891904Y25095239D01*
X7939523Y25142858D01*
X7939523Y25476191D01*
X7749047Y25476191D01*
X8368095Y25047620D02*
X8368095Y26047620D01*
X8749047Y26047620D01*
X8844285Y26000000D01*
X8891904Y25952381D01*
X8939523Y25857143D01*
X8939523Y25714286D01*
X8891904Y25619048D01*
X8844285Y25571429D01*
X8749047Y25523810D01*
X8368095Y25523810D01*
X9891904Y25047620D02*
X9320476Y25047620D01*
X9606190Y25047620D02*
X9606190Y26047620D01*
X9510952Y25904762D01*
X9415714Y25809524D01*
X9320476Y25761905D01*
X10844285Y25047620D02*
X10272857Y25047620D01*
X10558571Y25047620D02*
X10558571Y26047620D01*
X10463333Y25904762D01*
X10368095Y25809524D01*
X10272857Y25761905D01*
X7891904Y28500000D02*
X7796666Y28547620D01*
X7653809Y28547620D01*
X7510952Y28500000D01*
X7415714Y28404762D01*
X7368095Y28309524D01*
X7320476Y28119048D01*
X7320476Y27976191D01*
X7368095Y27785715D01*
X7415714Y27690477D01*
X7510952Y27595239D01*
X7653809Y27547620D01*
X7749047Y27547620D01*
X7891904Y27595239D01*
X7939523Y27642858D01*
X7939523Y27976191D01*
X7749047Y27976191D01*
X8368095Y27547620D02*
X8368095Y28547620D01*
X8749047Y28547620D01*
X8844285Y28500000D01*
X8891904Y28452381D01*
X8939523Y28357143D01*
X8939523Y28214286D01*
X8891904Y28119048D01*
X8844285Y28071429D01*
X8749047Y28023810D01*
X8368095Y28023810D01*
X9891904Y27547620D02*
X9320476Y27547620D01*
X9606190Y27547620D02*
X9606190Y28547620D01*
X9510952Y28404762D01*
X9415714Y28309524D01*
X9320476Y28261905D01*
X10510952Y28547620D02*
X10606190Y28547620D01*
X10701428Y28500000D01*
X10749047Y28452381D01*
X10796666Y28357143D01*
X10844285Y28166667D01*
X10844285Y27928572D01*
X10796666Y27738096D01*
X10749047Y27642858D01*
X10701428Y27595239D01*
X10606190Y27547620D01*
X10510952Y27547620D01*
X10415714Y27595239D01*
X10368095Y27642858D01*
X10320476Y27738096D01*
X10272857Y27928572D01*
X10272857Y28166667D01*
X10320476Y28357143D01*
X10368095Y28452381D01*
X10415714Y28500000D01*
X10510952Y28547620D01*
X7891904Y31250000D02*
X7796666Y31297620D01*
X7653809Y31297620D01*
X7510952Y31250000D01*
X7415714Y31154762D01*
X7368095Y31059524D01*
X7320476Y30869048D01*
X7320476Y30726191D01*
X7368095Y30535715D01*
X7415714Y30440477D01*
X7510952Y30345239D01*
X7653809Y30297620D01*
X7749047Y30297620D01*
X7891904Y30345239D01*
X7939523Y30392858D01*
X7939523Y30726191D01*
X7749047Y30726191D01*
X8368095Y30297620D02*
X8368095Y31297620D01*
X8749047Y31297620D01*
X8844285Y31250000D01*
X8891904Y31202381D01*
X8939523Y31107143D01*
X8939523Y30964286D01*
X8891904Y30869048D01*
X8844285Y30821429D01*
X8749047Y30773810D01*
X8368095Y30773810D01*
X9415714Y30297620D02*
X9606190Y30297620D01*
X9701428Y30345239D01*
X9749047Y30392858D01*
X9844285Y30535715D01*
X9891904Y30726191D01*
X9891904Y31107143D01*
X9844285Y31202381D01*
X9796666Y31250000D01*
X9701428Y31297620D01*
X9510952Y31297620D01*
X9415714Y31250000D01*
X9368095Y31202381D01*
X9320476Y31107143D01*
X9320476Y30869048D01*
X9368095Y30773810D01*
X9415714Y30726191D01*
X9510952Y30678572D01*
X9701428Y30678572D01*
X9796666Y30726191D01*
X9844285Y30773810D01*
X9891904Y30869048D01*
X7891904Y33750000D02*
X7796666Y33797620D01*
X7653809Y33797620D01*
X7510952Y33750000D01*
X7415714Y33654762D01*
X7368095Y33559524D01*
X7320476Y33369048D01*
X7320476Y33226191D01*
X7368095Y33035715D01*
X7415714Y32940477D01*
X7510952Y32845239D01*
X7653809Y32797620D01*
X7749047Y32797620D01*
X7891904Y32845239D01*
X7939523Y32892858D01*
X7939523Y33226191D01*
X7749047Y33226191D01*
X8368095Y32797620D02*
X8368095Y33797620D01*
X8749047Y33797620D01*
X8844285Y33750000D01*
X8891904Y33702381D01*
X8939523Y33607143D01*
X8939523Y33464286D01*
X8891904Y33369048D01*
X8844285Y33321429D01*
X8749047Y33273810D01*
X8368095Y33273810D01*
X9510952Y33369048D02*
X9415714Y33416667D01*
X9368095Y33464286D01*
X9320476Y33559524D01*
X9320476Y33607143D01*
X9368095Y33702381D01*
X9415714Y33750000D01*
X9510952Y33797620D01*
X9701428Y33797620D01*
X9796666Y33750000D01*
X9844285Y33702381D01*
X9891904Y33607143D01*
X9891904Y33559524D01*
X9844285Y33464286D01*
X9796666Y33416667D01*
X9701428Y33369048D01*
X9510952Y33369048D01*
X9415714Y33321429D01*
X9368095Y33273810D01*
X9320476Y33178572D01*
X9320476Y32988096D01*
X9368095Y32892858D01*
X9415714Y32845239D01*
X9510952Y32797620D01*
X9701428Y32797620D01*
X9796666Y32845239D01*
X9844285Y32892858D01*
X9891904Y32988096D01*
X9891904Y33178572D01*
X9844285Y33273810D01*
X9796666Y33321429D01*
X9701428Y33369048D01*
X7891904Y36250000D02*
X7796666Y36297620D01*
X7653809Y36297620D01*
X7510952Y36250000D01*
X7415714Y36154762D01*
X7368095Y36059524D01*
X7320476Y35869048D01*
X7320476Y35726191D01*
X7368095Y35535715D01*
X7415714Y35440477D01*
X7510952Y35345239D01*
X7653809Y35297620D01*
X7749047Y35297620D01*
X7891904Y35345239D01*
X7939523Y35392858D01*
X7939523Y35726191D01*
X7749047Y35726191D01*
X8368095Y35297620D02*
X8368095Y36297620D01*
X8939523Y35297620D01*
X8939523Y36297620D01*
X9415714Y35297620D02*
X9415714Y36297620D01*
X9653809Y36297620D01*
X9796666Y36250000D01*
X9891904Y36154762D01*
X9939523Y36059524D01*
X9987142Y35869048D01*
X9987142Y35726191D01*
X9939523Y35535715D01*
X9891904Y35440477D01*
X9796666Y35345239D01*
X9653809Y35297620D01*
X9415714Y35297620D01*
X7891904Y38750000D02*
X7796666Y38797620D01*
X7653809Y38797620D01*
X7510952Y38750000D01*
X7415714Y38654762D01*
X7368095Y38559524D01*
X7320476Y38369048D01*
X7320476Y38226191D01*
X7368095Y38035715D01*
X7415714Y37940477D01*
X7510952Y37845239D01*
X7653809Y37797620D01*
X7749047Y37797620D01*
X7891904Y37845239D01*
X7939523Y37892858D01*
X7939523Y38226191D01*
X7749047Y38226191D01*
X8368095Y37797620D02*
X8368095Y38797620D01*
X8749047Y38797620D01*
X8844285Y38750000D01*
X8891904Y38702381D01*
X8939523Y38607143D01*
X8939523Y38464286D01*
X8891904Y38369048D01*
X8844285Y38321429D01*
X8749047Y38273810D01*
X8368095Y38273810D01*
X9272857Y38797620D02*
X9891904Y38797620D01*
X9558571Y38416667D01*
X9701428Y38416667D01*
X9796666Y38369048D01*
X9844285Y38321429D01*
X9891904Y38226191D01*
X9891904Y37988096D01*
X9844285Y37892858D01*
X9796666Y37845239D01*
X9701428Y37797620D01*
X9415714Y37797620D01*
X9320476Y37845239D01*
X9272857Y37892858D01*
X11034761Y37845239D02*
X11177619Y37797620D01*
X11415714Y37797620D01*
X11510952Y37845239D01*
X11558571Y37892858D01*
X11606190Y37988096D01*
X11606190Y38083334D01*
X11558571Y38178572D01*
X11510952Y38226191D01*
X11415714Y38273810D01*
X11225238Y38321429D01*
X11130000Y38369048D01*
X11082380Y38416667D01*
X11034761Y38511905D01*
X11034761Y38607143D01*
X11082380Y38702381D01*
X11130000Y38750000D01*
X11225238Y38797620D01*
X11463333Y38797620D01*
X11606190Y38750000D01*
X12606190Y37892858D02*
X12558571Y37845239D01*
X12415714Y37797620D01*
X12320476Y37797620D01*
X12177619Y37845239D01*
X12082380Y37940477D01*
X12034761Y38035715D01*
X11987142Y38226191D01*
X11987142Y38369048D01*
X12034761Y38559524D01*
X12082380Y38654762D01*
X12177619Y38750000D01*
X12320476Y38797620D01*
X12415714Y38797620D01*
X12558571Y38750000D01*
X12606190Y38702381D01*
X13510952Y37797620D02*
X13034761Y37797620D01*
X13034761Y38797620D01*
X7891904Y41250000D02*
X7796666Y41297620D01*
X7653809Y41297620D01*
X7510952Y41250000D01*
X7415714Y41154762D01*
X7368095Y41059524D01*
X7320476Y40869048D01*
X7320476Y40726191D01*
X7368095Y40535715D01*
X7415714Y40440477D01*
X7510952Y40345239D01*
X7653809Y40297620D01*
X7749047Y40297620D01*
X7891904Y40345239D01*
X7939523Y40392858D01*
X7939523Y40726191D01*
X7749047Y40726191D01*
X8368095Y40297620D02*
X8368095Y41297620D01*
X8749047Y41297620D01*
X8844285Y41250000D01*
X8891904Y41202381D01*
X8939523Y41107143D01*
X8939523Y40964286D01*
X8891904Y40869048D01*
X8844285Y40821429D01*
X8749047Y40773810D01*
X8368095Y40773810D01*
X9320476Y41202381D02*
X9368095Y41250000D01*
X9463333Y41297620D01*
X9701428Y41297620D01*
X9796666Y41250000D01*
X9844285Y41202381D01*
X9891904Y41107143D01*
X9891904Y41011905D01*
X9844285Y40869048D01*
X9272857Y40297620D01*
X9891904Y40297620D01*
X11034761Y40345239D02*
X11177619Y40297620D01*
X11415714Y40297620D01*
X11510952Y40345239D01*
X11558571Y40392858D01*
X11606190Y40488096D01*
X11606190Y40583334D01*
X11558571Y40678572D01*
X11510952Y40726191D01*
X11415714Y40773810D01*
X11225238Y40821429D01*
X11130000Y40869048D01*
X11082380Y40916667D01*
X11034761Y41011905D01*
X11034761Y41107143D01*
X11082380Y41202381D01*
X11130000Y41250000D01*
X11225238Y41297620D01*
X11463333Y41297620D01*
X11606190Y41250000D01*
X12034761Y40297620D02*
X12034761Y41297620D01*
X12272857Y41297620D01*
X12415714Y41250000D01*
X12510952Y41154762D01*
X12558571Y41059524D01*
X12606190Y40869048D01*
X12606190Y40726191D01*
X12558571Y40535715D01*
X12510952Y40440477D01*
X12415714Y40345239D01*
X12272857Y40297620D01*
X12034761Y40297620D01*
X12987142Y40583334D02*
X13463333Y40583334D01*
X12891904Y40297620D02*
X13225238Y41297620D01*
X13558571Y40297620D01*
X7891904Y43750000D02*
X7796666Y43797620D01*
X7653809Y43797620D01*
X7510952Y43750000D01*
X7415714Y43654762D01*
X7368095Y43559524D01*
X7320476Y43369048D01*
X7320476Y43226191D01*
X7368095Y43035715D01*
X7415714Y42940477D01*
X7510952Y42845239D01*
X7653809Y42797620D01*
X7749047Y42797620D01*
X7891904Y42845239D01*
X7939523Y42892858D01*
X7939523Y43226191D01*
X7749047Y43226191D01*
X8368095Y42797620D02*
X8368095Y43797620D01*
X8749047Y43797620D01*
X8844285Y43750000D01*
X8891904Y43702381D01*
X8939523Y43607143D01*
X8939523Y43464286D01*
X8891904Y43369048D01*
X8844285Y43321429D01*
X8749047Y43273810D01*
X8368095Y43273810D01*
X9891904Y42797620D02*
X9320476Y42797620D01*
X9606190Y42797620D02*
X9606190Y43797620D01*
X9510952Y43654762D01*
X9415714Y43559524D01*
X9320476Y43511905D01*
X7891904Y46500000D02*
X7796666Y46547620D01*
X7653809Y46547620D01*
X7510952Y46500000D01*
X7415714Y46404762D01*
X7368095Y46309524D01*
X7320476Y46119048D01*
X7320476Y45976191D01*
X7368095Y45785715D01*
X7415714Y45690477D01*
X7510952Y45595239D01*
X7653809Y45547620D01*
X7749047Y45547620D01*
X7891904Y45595239D01*
X7939523Y45642858D01*
X7939523Y45976191D01*
X7749047Y45976191D01*
X8368095Y45547620D02*
X8368095Y46547620D01*
X8939523Y45547620D01*
X8939523Y46547620D01*
X9415714Y45547620D02*
X9415714Y46547620D01*
X9653809Y46547620D01*
X9796666Y46500000D01*
X9891904Y46404762D01*
X9939523Y46309524D01*
X9987142Y46119048D01*
X9987142Y45976191D01*
X9939523Y45785715D01*
X9891904Y45690477D01*
X9796666Y45595239D01*
X9653809Y45547620D01*
X9415714Y45547620D01*
X7272857Y49047620D02*
X7891904Y49047620D01*
X7558571Y48666667D01*
X7701428Y48666667D01*
X7796666Y48619048D01*
X7844285Y48571429D01*
X7891904Y48476191D01*
X7891904Y48238096D01*
X7844285Y48142858D01*
X7796666Y48095239D01*
X7701428Y48047620D01*
X7415714Y48047620D01*
X7320476Y48095239D01*
X7272857Y48142858D01*
X8177619Y49047620D02*
X8510952Y48047620D01*
X8844285Y49047620D01*
X9082380Y49047620D02*
X9701428Y49047620D01*
X9368095Y48666667D01*
X9510952Y48666667D01*
X9606190Y48619048D01*
X9653809Y48571429D01*
X9701428Y48476191D01*
X9701428Y48238096D01*
X9653809Y48142858D01*
X9606190Y48095239D01*
X9510952Y48047620D01*
X9225238Y48047620D01*
X9130000Y48095239D01*
X9082380Y48142858D01*
X84727142Y16000000D02*
X84631904Y16047620D01*
X84489047Y16047620D01*
X84346190Y16000000D01*
X84250952Y15904762D01*
X84203333Y15809524D01*
X84155714Y15619048D01*
X84155714Y15476191D01*
X84203333Y15285715D01*
X84250952Y15190477D01*
X84346190Y15095239D01*
X84489047Y15047620D01*
X84584285Y15047620D01*
X84727142Y15095239D01*
X84774761Y15142858D01*
X84774761Y15476191D01*
X84584285Y15476191D01*
X85203333Y15047620D02*
X85203333Y16047620D01*
X85584285Y16047620D01*
X85679523Y16000000D01*
X85727142Y15952381D01*
X85774761Y15857143D01*
X85774761Y15714286D01*
X85727142Y15619048D01*
X85679523Y15571429D01*
X85584285Y15523810D01*
X85203333Y15523810D01*
X86155714Y15952381D02*
X86203333Y16000000D01*
X86298571Y16047620D01*
X86536666Y16047620D01*
X86631904Y16000000D01*
X86679523Y15952381D01*
X86727142Y15857143D01*
X86727142Y15761905D01*
X86679523Y15619048D01*
X86108095Y15047620D01*
X86727142Y15047620D01*
X87631904Y16047620D02*
X87155714Y16047620D01*
X87108095Y15571429D01*
X87155714Y15619048D01*
X87250952Y15666667D01*
X87489047Y15666667D01*
X87584285Y15619048D01*
X87631904Y15571429D01*
X87679523Y15476191D01*
X87679523Y15238096D01*
X87631904Y15142858D01*
X87584285Y15095239D01*
X87489047Y15047620D01*
X87250952Y15047620D01*
X87155714Y15095239D01*
X87108095Y15142858D01*
X84108095Y18071429D02*
X83774761Y18071429D01*
X83774761Y17547620D02*
X83774761Y18547620D01*
X84250952Y18547620D01*
X84393809Y17452381D02*
X85155714Y17452381D01*
X85870000Y17547620D02*
X85393809Y17547620D01*
X85393809Y18547620D01*
X86203333Y18071429D02*
X86536666Y18071429D01*
X86679523Y17547620D02*
X86203333Y17547620D01*
X86203333Y18547620D01*
X86679523Y18547620D01*
X87108095Y17547620D02*
X87108095Y18547620D01*
X87346190Y18547620D01*
X87489047Y18500000D01*
X87584285Y18404762D01*
X87631904Y18309524D01*
X87679523Y18119048D01*
X87679523Y17976191D01*
X87631904Y17785715D01*
X87584285Y17690477D01*
X87489047Y17595239D01*
X87346190Y17547620D01*
X87108095Y17547620D01*
X83631904Y20047620D02*
X83631904Y21047620D01*
X84012857Y21047620D01*
X84108095Y21000000D01*
X84155714Y20952381D01*
X84203333Y20857143D01*
X84203333Y20714286D01*
X84155714Y20619048D01*
X84108095Y20571429D01*
X84012857Y20523810D01*
X83631904Y20523810D01*
X84393809Y19952381D02*
X85155714Y19952381D01*
X85870000Y20047620D02*
X85393809Y20047620D01*
X85393809Y21047620D01*
X86203333Y20571429D02*
X86536666Y20571429D01*
X86679523Y20047620D02*
X86203333Y20047620D01*
X86203333Y21047620D01*
X86679523Y21047620D01*
X87108095Y20047620D02*
X87108095Y21047620D01*
X87346190Y21047620D01*
X87489047Y21000000D01*
X87584285Y20904762D01*
X87631904Y20809524D01*
X87679523Y20619048D01*
X87679523Y20476191D01*
X87631904Y20285715D01*
X87584285Y20190477D01*
X87489047Y20095239D01*
X87346190Y20047620D01*
X87108095Y20047620D01*
X84727142Y23500000D02*
X84631904Y23547620D01*
X84489047Y23547620D01*
X84346190Y23500000D01*
X84250952Y23404762D01*
X84203333Y23309524D01*
X84155714Y23119048D01*
X84155714Y22976191D01*
X84203333Y22785715D01*
X84250952Y22690477D01*
X84346190Y22595239D01*
X84489047Y22547620D01*
X84584285Y22547620D01*
X84727142Y22595239D01*
X84774761Y22642858D01*
X84774761Y22976191D01*
X84584285Y22976191D01*
X85203333Y22547620D02*
X85203333Y23547620D01*
X85584285Y23547620D01*
X85679523Y23500000D01*
X85727142Y23452381D01*
X85774761Y23357143D01*
X85774761Y23214286D01*
X85727142Y23119048D01*
X85679523Y23071429D01*
X85584285Y23023810D01*
X85203333Y23023810D01*
X86155714Y23452381D02*
X86203333Y23500000D01*
X86298571Y23547620D01*
X86536666Y23547620D01*
X86631904Y23500000D01*
X86679523Y23452381D01*
X86727142Y23357143D01*
X86727142Y23261905D01*
X86679523Y23119048D01*
X86108095Y22547620D01*
X86727142Y22547620D01*
X87346190Y23547620D02*
X87441428Y23547620D01*
X87536666Y23500000D01*
X87584285Y23452381D01*
X87631904Y23357143D01*
X87679523Y23166667D01*
X87679523Y22928572D01*
X87631904Y22738096D01*
X87584285Y22642858D01*
X87536666Y22595239D01*
X87441428Y22547620D01*
X87346190Y22547620D01*
X87250952Y22595239D01*
X87203333Y22642858D01*
X87155714Y22738096D01*
X87108095Y22928572D01*
X87108095Y23166667D01*
X87155714Y23357143D01*
X87203333Y23452381D01*
X87250952Y23500000D01*
X87346190Y23547620D01*
X84727142Y26000000D02*
X84631904Y26047620D01*
X84489047Y26047620D01*
X84346190Y26000000D01*
X84250952Y25904762D01*
X84203333Y25809524D01*
X84155714Y25619048D01*
X84155714Y25476191D01*
X84203333Y25285715D01*
X84250952Y25190477D01*
X84346190Y25095239D01*
X84489047Y25047620D01*
X84584285Y25047620D01*
X84727142Y25095239D01*
X84774761Y25142858D01*
X84774761Y25476191D01*
X84584285Y25476191D01*
X85203333Y25047620D02*
X85203333Y26047620D01*
X85584285Y26047620D01*
X85679523Y26000000D01*
X85727142Y25952381D01*
X85774761Y25857143D01*
X85774761Y25714286D01*
X85727142Y25619048D01*
X85679523Y25571429D01*
X85584285Y25523810D01*
X85203333Y25523810D01*
X86155714Y25952381D02*
X86203333Y26000000D01*
X86298571Y26047620D01*
X86536666Y26047620D01*
X86631904Y26000000D01*
X86679523Y25952381D01*
X86727142Y25857143D01*
X86727142Y25761905D01*
X86679523Y25619048D01*
X86108095Y25047620D01*
X86727142Y25047620D01*
X87679523Y25047620D02*
X87108095Y25047620D01*
X87393809Y25047620D02*
X87393809Y26047620D01*
X87298571Y25904762D01*
X87203333Y25809524D01*
X87108095Y25761905D01*
X84727142Y28500000D02*
X84631904Y28547620D01*
X84489047Y28547620D01*
X84346190Y28500000D01*
X84250952Y28404762D01*
X84203333Y28309524D01*
X84155714Y28119048D01*
X84155714Y27976191D01*
X84203333Y27785715D01*
X84250952Y27690477D01*
X84346190Y27595239D01*
X84489047Y27547620D01*
X84584285Y27547620D01*
X84727142Y27595239D01*
X84774761Y27642858D01*
X84774761Y27976191D01*
X84584285Y27976191D01*
X85203333Y27547620D02*
X85203333Y28547620D01*
X85584285Y28547620D01*
X85679523Y28500000D01*
X85727142Y28452381D01*
X85774761Y28357143D01*
X85774761Y28214286D01*
X85727142Y28119048D01*
X85679523Y28071429D01*
X85584285Y28023810D01*
X85203333Y28023810D01*
X86155714Y28452381D02*
X86203333Y28500000D01*
X86298571Y28547620D01*
X86536666Y28547620D01*
X86631904Y28500000D01*
X86679523Y28452381D01*
X86727142Y28357143D01*
X86727142Y28261905D01*
X86679523Y28119048D01*
X86108095Y27547620D01*
X86727142Y27547620D01*
X87108095Y28452381D02*
X87155714Y28500000D01*
X87250952Y28547620D01*
X87489047Y28547620D01*
X87584285Y28500000D01*
X87631904Y28452381D01*
X87679523Y28357143D01*
X87679523Y28261905D01*
X87631904Y28119048D01*
X87060476Y27547620D01*
X87679523Y27547620D01*
X84727142Y31250000D02*
X84631904Y31297620D01*
X84489047Y31297620D01*
X84346190Y31250000D01*
X84250952Y31154762D01*
X84203333Y31059524D01*
X84155714Y30869048D01*
X84155714Y30726191D01*
X84203333Y30535715D01*
X84250952Y30440477D01*
X84346190Y30345239D01*
X84489047Y30297620D01*
X84584285Y30297620D01*
X84727142Y30345239D01*
X84774761Y30392858D01*
X84774761Y30726191D01*
X84584285Y30726191D01*
X85203333Y30297620D02*
X85203333Y31297620D01*
X85584285Y31297620D01*
X85679523Y31250000D01*
X85727142Y31202381D01*
X85774761Y31107143D01*
X85774761Y30964286D01*
X85727142Y30869048D01*
X85679523Y30821429D01*
X85584285Y30773810D01*
X85203333Y30773810D01*
X86155714Y31202381D02*
X86203333Y31250000D01*
X86298571Y31297620D01*
X86536666Y31297620D01*
X86631904Y31250000D01*
X86679523Y31202381D01*
X86727142Y31107143D01*
X86727142Y31011905D01*
X86679523Y30869048D01*
X86108095Y30297620D01*
X86727142Y30297620D01*
X87060476Y31297620D02*
X87679523Y31297620D01*
X87346190Y30916667D01*
X87489047Y30916667D01*
X87584285Y30869048D01*
X87631904Y30821429D01*
X87679523Y30726191D01*
X87679523Y30488096D01*
X87631904Y30392858D01*
X87584285Y30345239D01*
X87489047Y30297620D01*
X87203333Y30297620D01*
X87108095Y30345239D01*
X87060476Y30392858D01*
X84727142Y33750000D02*
X84631904Y33797620D01*
X84489047Y33797620D01*
X84346190Y33750000D01*
X84250952Y33654762D01*
X84203333Y33559524D01*
X84155714Y33369048D01*
X84155714Y33226191D01*
X84203333Y33035715D01*
X84250952Y32940477D01*
X84346190Y32845239D01*
X84489047Y32797620D01*
X84584285Y32797620D01*
X84727142Y32845239D01*
X84774761Y32892858D01*
X84774761Y33226191D01*
X84584285Y33226191D01*
X85203333Y32797620D02*
X85203333Y33797620D01*
X85584285Y33797620D01*
X85679523Y33750000D01*
X85727142Y33702381D01*
X85774761Y33607143D01*
X85774761Y33464286D01*
X85727142Y33369048D01*
X85679523Y33321429D01*
X85584285Y33273810D01*
X85203333Y33273810D01*
X86155714Y33702381D02*
X86203333Y33750000D01*
X86298571Y33797620D01*
X86536666Y33797620D01*
X86631904Y33750000D01*
X86679523Y33702381D01*
X86727142Y33607143D01*
X86727142Y33511905D01*
X86679523Y33369048D01*
X86108095Y32797620D01*
X86727142Y32797620D01*
X87298571Y33369048D02*
X87203333Y33416667D01*
X87155714Y33464286D01*
X87108095Y33559524D01*
X87108095Y33607143D01*
X87155714Y33702381D01*
X87203333Y33750000D01*
X87298571Y33797620D01*
X87489047Y33797620D01*
X87584285Y33750000D01*
X87631904Y33702381D01*
X87679523Y33607143D01*
X87679523Y33559524D01*
X87631904Y33464286D01*
X87584285Y33416667D01*
X87489047Y33369048D01*
X87298571Y33369048D01*
X87203333Y33321429D01*
X87155714Y33273810D01*
X87108095Y33178572D01*
X87108095Y32988096D01*
X87155714Y32892858D01*
X87203333Y32845239D01*
X87298571Y32797620D01*
X87489047Y32797620D01*
X87584285Y32845239D01*
X87631904Y32892858D01*
X87679523Y32988096D01*
X87679523Y33178572D01*
X87631904Y33273810D01*
X87584285Y33321429D01*
X87489047Y33369048D01*
X84727142Y36250000D02*
X84631904Y36297620D01*
X84489047Y36297620D01*
X84346190Y36250000D01*
X84250952Y36154762D01*
X84203333Y36059524D01*
X84155714Y35869048D01*
X84155714Y35726191D01*
X84203333Y35535715D01*
X84250952Y35440477D01*
X84346190Y35345239D01*
X84489047Y35297620D01*
X84584285Y35297620D01*
X84727142Y35345239D01*
X84774761Y35392858D01*
X84774761Y35726191D01*
X84584285Y35726191D01*
X85203333Y35297620D02*
X85203333Y36297620D01*
X85584285Y36297620D01*
X85679523Y36250000D01*
X85727142Y36202381D01*
X85774761Y36107143D01*
X85774761Y35964286D01*
X85727142Y35869048D01*
X85679523Y35821429D01*
X85584285Y35773810D01*
X85203333Y35773810D01*
X86155714Y36202381D02*
X86203333Y36250000D01*
X86298571Y36297620D01*
X86536666Y36297620D01*
X86631904Y36250000D01*
X86679523Y36202381D01*
X86727142Y36107143D01*
X86727142Y36011905D01*
X86679523Y35869048D01*
X86108095Y35297620D01*
X86727142Y35297620D01*
X87203333Y35297620D02*
X87393809Y35297620D01*
X87489047Y35345239D01*
X87536666Y35392858D01*
X87631904Y35535715D01*
X87679523Y35726191D01*
X87679523Y36107143D01*
X87631904Y36202381D01*
X87584285Y36250000D01*
X87489047Y36297620D01*
X87298571Y36297620D01*
X87203333Y36250000D01*
X87155714Y36202381D01*
X87108095Y36107143D01*
X87108095Y35869048D01*
X87155714Y35773810D01*
X87203333Y35726191D01*
X87298571Y35678572D01*
X87489047Y35678572D01*
X87584285Y35726191D01*
X87631904Y35773810D01*
X87679523Y35869048D01*
X85250952Y38797620D02*
X85870000Y38797620D01*
X85536666Y38416667D01*
X85679523Y38416667D01*
X85774761Y38369048D01*
X85822380Y38321429D01*
X85870000Y38226191D01*
X85870000Y37988096D01*
X85822380Y37892858D01*
X85774761Y37845239D01*
X85679523Y37797620D01*
X85393809Y37797620D01*
X85298571Y37845239D01*
X85250952Y37892858D01*
X86155714Y38797620D02*
X86489047Y37797620D01*
X86822380Y38797620D01*
X87060476Y38797620D02*
X87679523Y38797620D01*
X87346190Y38416667D01*
X87489047Y38416667D01*
X87584285Y38369048D01*
X87631904Y38321429D01*
X87679523Y38226191D01*
X87679523Y37988096D01*
X87631904Y37892858D01*
X87584285Y37845239D01*
X87489047Y37797620D01*
X87203333Y37797620D01*
X87108095Y37845239D01*
X87060476Y37892858D01*
X84727142Y41250000D02*
X84631904Y41297620D01*
X84489047Y41297620D01*
X84346190Y41250000D01*
X84250952Y41154762D01*
X84203333Y41059524D01*
X84155714Y40869048D01*
X84155714Y40726191D01*
X84203333Y40535715D01*
X84250952Y40440477D01*
X84346190Y40345239D01*
X84489047Y40297620D01*
X84584285Y40297620D01*
X84727142Y40345239D01*
X84774761Y40392858D01*
X84774761Y40726191D01*
X84584285Y40726191D01*
X85203333Y40297620D02*
X85203333Y41297620D01*
X85584285Y41297620D01*
X85679523Y41250000D01*
X85727142Y41202381D01*
X85774761Y41107143D01*
X85774761Y40964286D01*
X85727142Y40869048D01*
X85679523Y40821429D01*
X85584285Y40773810D01*
X85203333Y40773810D01*
X86727142Y40297620D02*
X86155714Y40297620D01*
X86441428Y40297620D02*
X86441428Y41297620D01*
X86346190Y41154762D01*
X86250952Y41059524D01*
X86155714Y41011905D01*
X87203333Y40297620D02*
X87393809Y40297620D01*
X87489047Y40345239D01*
X87536666Y40392858D01*
X87631904Y40535715D01*
X87679523Y40726191D01*
X87679523Y41107143D01*
X87631904Y41202381D01*
X87584285Y41250000D01*
X87489047Y41297620D01*
X87298571Y41297620D01*
X87203333Y41250000D01*
X87155714Y41202381D01*
X87108095Y41107143D01*
X87108095Y40869048D01*
X87155714Y40773810D01*
X87203333Y40726191D01*
X87298571Y40678572D01*
X87489047Y40678572D01*
X87584285Y40726191D01*
X87631904Y40773810D01*
X87679523Y40869048D01*
X84727142Y44000000D02*
X84631904Y44047620D01*
X84489047Y44047620D01*
X84346190Y44000000D01*
X84250952Y43904762D01*
X84203333Y43809524D01*
X84155714Y43619048D01*
X84155714Y43476191D01*
X84203333Y43285715D01*
X84250952Y43190477D01*
X84346190Y43095239D01*
X84489047Y43047620D01*
X84584285Y43047620D01*
X84727142Y43095239D01*
X84774761Y43142858D01*
X84774761Y43476191D01*
X84584285Y43476191D01*
X85203333Y43047620D02*
X85203333Y44047620D01*
X85584285Y44047620D01*
X85679523Y44000000D01*
X85727142Y43952381D01*
X85774761Y43857143D01*
X85774761Y43714286D01*
X85727142Y43619048D01*
X85679523Y43571429D01*
X85584285Y43523810D01*
X85203333Y43523810D01*
X86727142Y43047620D02*
X86155714Y43047620D01*
X86441428Y43047620D02*
X86441428Y44047620D01*
X86346190Y43904762D01*
X86250952Y43809524D01*
X86155714Y43761905D01*
X87298571Y43619048D02*
X87203333Y43666667D01*
X87155714Y43714286D01*
X87108095Y43809524D01*
X87108095Y43857143D01*
X87155714Y43952381D01*
X87203333Y44000000D01*
X87298571Y44047620D01*
X87489047Y44047620D01*
X87584285Y44000000D01*
X87631904Y43952381D01*
X87679523Y43857143D01*
X87679523Y43809524D01*
X87631904Y43714286D01*
X87584285Y43666667D01*
X87489047Y43619048D01*
X87298571Y43619048D01*
X87203333Y43571429D01*
X87155714Y43523810D01*
X87108095Y43428572D01*
X87108095Y43238096D01*
X87155714Y43142858D01*
X87203333Y43095239D01*
X87298571Y43047620D01*
X87489047Y43047620D01*
X87584285Y43095239D01*
X87631904Y43142858D01*
X87679523Y43238096D01*
X87679523Y43428572D01*
X87631904Y43523810D01*
X87584285Y43571429D01*
X87489047Y43619048D01*
X84298571Y45547620D02*
X83965238Y46023810D01*
X83727142Y45547620D02*
X83727142Y46547620D01*
X84108095Y46547620D01*
X84203333Y46500000D01*
X84250952Y46452381D01*
X84298571Y46357143D01*
X84298571Y46214286D01*
X84250952Y46119048D01*
X84203333Y46071429D01*
X84108095Y46023810D01*
X83727142Y46023810D01*
X84679523Y45833334D02*
X85155714Y45833334D01*
X84584285Y45547620D02*
X84917619Y46547620D01*
X85250952Y45547620D01*
X85584285Y45547620D02*
X85584285Y46547620D01*
X86536666Y45547620D02*
X86060476Y45547620D01*
X86060476Y46547620D01*
X86870000Y45928572D02*
X87631904Y45928572D01*
X84298571Y48047620D02*
X83965238Y48523810D01*
X83727142Y48047620D02*
X83727142Y49047620D01*
X84108095Y49047620D01*
X84203333Y49000000D01*
X84250952Y48952381D01*
X84298571Y48857143D01*
X84298571Y48714286D01*
X84250952Y48619048D01*
X84203333Y48571429D01*
X84108095Y48523810D01*
X83727142Y48523810D01*
X84679523Y48333334D02*
X85155714Y48333334D01*
X84584285Y48047620D02*
X84917619Y49047620D01*
X85250952Y48047620D01*
X85584285Y48047620D02*
X85584285Y49047620D01*
X86536666Y48047620D02*
X86060476Y48047620D01*
X86060476Y49047620D01*
X86870000Y48428572D02*
X87631904Y48428572D01*
X87250952Y48047620D02*
X87250952Y48809524D01*
D12*
X77304761Y1276191D02*
X77304761Y2876191D01*
X77914285Y2876191D01*
X78066666Y2800000D01*
X78142857Y2723810D01*
X78219047Y2571429D01*
X78219047Y2342858D01*
X78142857Y2190477D01*
X78066666Y2114286D01*
X77914285Y2038096D01*
X77304761Y2038096D01*
X79209523Y2876191D02*
X79514285Y2876191D01*
X79666666Y2800000D01*
X79819047Y2647620D01*
X79895238Y2342858D01*
X79895238Y1809524D01*
X79819047Y1504762D01*
X79666666Y1352381D01*
X79514285Y1276191D01*
X79209523Y1276191D01*
X79057142Y1352381D01*
X78904761Y1504762D01*
X78828571Y1809524D01*
X78828571Y2342858D01*
X78904761Y2647620D01*
X79057142Y2800000D01*
X79209523Y2876191D01*
X80428571Y2876191D02*
X80809523Y1276191D01*
X81114285Y2419048D01*
X81419047Y1276191D01*
X81800000Y2876191D01*
X82409523Y2114286D02*
X82942857Y2114286D01*
X83171428Y1276191D02*
X82409523Y1276191D01*
X82409523Y2876191D01*
X83171428Y2876191D01*
X84771428Y1276191D02*
X84238095Y2038096D01*
X83857142Y1276191D02*
X83857142Y2876191D01*
X84466666Y2876191D01*
X84619047Y2800000D01*
X84695238Y2723810D01*
X84771428Y2571429D01*
X84771428Y2342858D01*
X84695238Y2190477D01*
X84619047Y2114286D01*
X84466666Y2038096D01*
X83857142Y2038096D01*
X67457142Y2876191D02*
X68371428Y2876191D01*
X67914285Y1276191D02*
X67914285Y2876191D01*
X69819047Y1276191D02*
X69285714Y2038096D01*
X68904761Y1276191D02*
X68904761Y2876191D01*
X69514285Y2876191D01*
X69666666Y2800000D01*
X69742857Y2723810D01*
X69819047Y2571429D01*
X69819047Y2342858D01*
X69742857Y2190477D01*
X69666666Y2114286D01*
X69514285Y2038096D01*
X68904761Y2038096D01*
X70428571Y1733334D02*
X71190476Y1733334D01*
X70276190Y1276191D02*
X70809523Y2876191D01*
X71342857Y1276191D01*
X72790476Y1428572D02*
X72714285Y1352381D01*
X72485714Y1276191D01*
X72333333Y1276191D01*
X72104761Y1352381D01*
X71952380Y1504762D01*
X71876190Y1657143D01*
X71800000Y1961905D01*
X71800000Y2190477D01*
X71876190Y2495239D01*
X71952380Y2647620D01*
X72104761Y2800000D01*
X72333333Y2876191D01*
X72485714Y2876191D01*
X72714285Y2800000D01*
X72790476Y2723810D01*
X73476190Y1276191D02*
X73476190Y2876191D01*
X74390476Y1276191D02*
X73704761Y2190477D01*
X74390476Y2876191D02*
X73476190Y1961905D01*
X61514285Y2114286D02*
X60980952Y2114286D01*
X60980952Y1276191D02*
X60980952Y2876191D01*
X61742857Y2876191D01*
X62276190Y1733334D02*
X63038095Y1733334D01*
X62123809Y1276191D02*
X62657142Y2876191D01*
X63190476Y1276191D01*
X63723809Y1276191D02*
X63723809Y2876191D01*
X65247619Y1276191D02*
X64485714Y1276191D01*
X64485714Y2876191D01*
X40828571Y75428572D02*
X40752380Y75352381D01*
X40523809Y75276191D01*
X40371428Y75276191D01*
X40142857Y75352381D01*
X39990476Y75504762D01*
X39914285Y75657143D01*
X39838095Y75961905D01*
X39838095Y76190477D01*
X39914285Y76495239D01*
X39990476Y76647620D01*
X40142857Y76800000D01*
X40371428Y76876191D01*
X40523809Y76876191D01*
X40752380Y76800000D01*
X40828571Y76723810D01*
X41819047Y76876191D02*
X42123809Y76876191D01*
X42276190Y76800000D01*
X42428571Y76647620D01*
X42504761Y76342858D01*
X42504761Y75809524D01*
X42428571Y75504762D01*
X42276190Y75352381D01*
X42123809Y75276191D01*
X41819047Y75276191D01*
X41666666Y75352381D01*
X41514285Y75504762D01*
X41438095Y75809524D01*
X41438095Y76342858D01*
X41514285Y76647620D01*
X41666666Y76800000D01*
X41819047Y76876191D01*
X43190476Y75276191D02*
X43190476Y76876191D01*
X43723809Y75733334D01*
X44257142Y76876191D01*
X44257142Y75276191D01*
X45019047Y75276191D02*
X45019047Y76876191D01*
X45552380Y75733334D01*
X46085714Y76876191D01*
X46085714Y75276191D01*
D13*
X32325857Y11592858D02*
X32325857Y12492858D01*
X32540142Y12492858D01*
X32668714Y12450000D01*
X32754428Y12364286D01*
X32797285Y12278572D01*
X32840142Y12107143D01*
X32840142Y11978572D01*
X32797285Y11807143D01*
X32754428Y11721429D01*
X32668714Y11635715D01*
X32540142Y11592858D01*
X32325857Y11592858D01*
X33225857Y11592858D02*
X33225857Y12492858D01*
X33654428Y11592858D02*
X33654428Y12492858D01*
X34168714Y11592858D01*
X34168714Y12492858D01*
X32325857Y26450000D02*
X32240142Y26492858D01*
X32111571Y26492858D01*
X31983000Y26450000D01*
X31897285Y26364286D01*
X31854428Y26278572D01*
X31811571Y26107143D01*
X31811571Y25978572D01*
X31854428Y25807143D01*
X31897285Y25721429D01*
X31983000Y25635715D01*
X32111571Y25592858D01*
X32197285Y25592858D01*
X32325857Y25635715D01*
X32368714Y25678572D01*
X32368714Y25978572D01*
X32197285Y25978572D01*
X32754428Y25592858D02*
X32754428Y26492858D01*
X33268714Y25592858D01*
X33268714Y26492858D01*
X33697285Y25592858D02*
X33697285Y26492858D01*
X33911571Y26492858D01*
X34040142Y26450000D01*
X34125857Y26364286D01*
X34168714Y26278572D01*
X34211571Y26107143D01*
X34211571Y25978572D01*
X34168714Y25807143D01*
X34125857Y25721429D01*
X34040142Y25635715D01*
X33911571Y25592858D01*
X33697285Y25592858D01*
X31897285Y8492858D02*
X32197285Y7592858D01*
X32497285Y8492858D01*
X33311571Y7678572D02*
X33268714Y7635715D01*
X33140142Y7592858D01*
X33054428Y7592858D01*
X32925857Y7635715D01*
X32840142Y7721429D01*
X32797285Y7807143D01*
X32754428Y7978572D01*
X32754428Y8107143D01*
X32797285Y8278572D01*
X32840142Y8364286D01*
X32925857Y8450000D01*
X33054428Y8492858D01*
X33140142Y8492858D01*
X33268714Y8450000D01*
X33311571Y8407143D01*
X34211571Y7678572D02*
X34168714Y7635715D01*
X34040142Y7592858D01*
X33954428Y7592858D01*
X33825857Y7635715D01*
X33740142Y7721429D01*
X33697285Y7807143D01*
X33654428Y7978572D01*
X33654428Y8107143D01*
X33697285Y8278572D01*
X33740142Y8364286D01*
X33825857Y8450000D01*
X33954428Y8492858D01*
X34040142Y8492858D01*
X34168714Y8450000D01*
X34211571Y8407143D01*
X1809523Y53571429D02*
X1952380Y53523810D01*
X2000000Y53476191D01*
X2047619Y53380953D01*
X2047619Y53238096D01*
X2000000Y53142858D01*
X1952380Y53095239D01*
X1857142Y53047620D01*
X1476190Y53047620D01*
X1476190Y54047620D01*
X1809523Y54047620D01*
X1904761Y54000000D01*
X1952380Y53952381D01*
X2000000Y53857143D01*
X2000000Y53761905D01*
X1952380Y53666667D01*
X1904761Y53619048D01*
X1809523Y53571429D01*
X1476190Y53571429D01*
X2666666Y54047620D02*
X2857142Y54047620D01*
X2952380Y54000000D01*
X3047619Y53904762D01*
X3095238Y53714286D01*
X3095238Y53380953D01*
X3047619Y53190477D01*
X2952380Y53095239D01*
X2857142Y53047620D01*
X2666666Y53047620D01*
X2571428Y53095239D01*
X2476190Y53190477D01*
X2428571Y53380953D01*
X2428571Y53714286D01*
X2476190Y53904762D01*
X2571428Y54000000D01*
X2666666Y54047620D01*
X3714285Y54047620D02*
X3904761Y54047620D01*
X4000000Y54000000D01*
X4095238Y53904762D01*
X4142857Y53714286D01*
X4142857Y53380953D01*
X4095238Y53190477D01*
X4000000Y53095239D01*
X3904761Y53047620D01*
X3714285Y53047620D01*
X3619047Y53095239D01*
X3523809Y53190477D01*
X3476190Y53380953D01*
X3476190Y53714286D01*
X3523809Y53904762D01*
X3619047Y54000000D01*
X3714285Y54047620D01*
X4428571Y54047620D02*
X5000000Y54047620D01*
X4714285Y53047620D02*
X4714285Y54047620D01*
X5285714Y53095239D02*
X5428571Y53047620D01*
X5666666Y53047620D01*
X5761904Y53095239D01*
X5809523Y53142858D01*
X5857142Y53238096D01*
X5857142Y53333334D01*
X5809523Y53428572D01*
X5761904Y53476191D01*
X5666666Y53523810D01*
X5476190Y53571429D01*
X5380952Y53619048D01*
X5333333Y53666667D01*
X5285714Y53761905D01*
X5285714Y53857143D01*
X5333333Y53952381D01*
X5380952Y54000000D01*
X5476190Y54047620D01*
X5714285Y54047620D01*
X5857142Y54000000D01*
X6285714Y53571429D02*
X6619047Y53571429D01*
X6761904Y53047620D02*
X6285714Y53047620D01*
X6285714Y54047620D01*
X6761904Y54047620D01*
X7666666Y53047620D02*
X7190476Y53047620D01*
X7190476Y54047620D01*
D14*
X39083547Y16298810D02*
X39083547Y17848810D01*
X39083547Y17110715D02*
X39969261Y17110715D01*
X39969261Y16298810D02*
X39969261Y17848810D01*
X40707357Y16298810D02*
X40707357Y17332143D01*
X40707357Y17848810D02*
X40633547Y17775000D01*
X40707357Y17701191D01*
X40781166Y17775000D01*
X40707357Y17848810D01*
X40707357Y17701191D01*
X42109738Y17332143D02*
X42109738Y16077381D01*
X42035928Y15929762D01*
X41962119Y15855953D01*
X41814500Y15782143D01*
X41593071Y15782143D01*
X41445452Y15855953D01*
X42109738Y16372620D02*
X41962119Y16298810D01*
X41666880Y16298810D01*
X41519261Y16372620D01*
X41445452Y16446429D01*
X41371642Y16594048D01*
X41371642Y17036905D01*
X41445452Y17184524D01*
X41519261Y17258334D01*
X41666880Y17332143D01*
X41962119Y17332143D01*
X42109738Y17258334D01*
X42847833Y16298810D02*
X42847833Y17848810D01*
X43512119Y16298810D02*
X43512119Y17110715D01*
X43438309Y17258334D01*
X43290690Y17332143D01*
X43069261Y17332143D01*
X42921642Y17258334D01*
X42847833Y17184524D01*
X44250214Y16889286D02*
X45431166Y16889286D01*
X46169261Y16298810D02*
X46169261Y17848810D01*
X46759738Y17848810D01*
X46907357Y17775000D01*
X46981166Y17701191D01*
X47054976Y17553572D01*
X47054976Y17332143D01*
X46981166Y17184524D01*
X46907357Y17110715D01*
X46759738Y17036905D01*
X46169261Y17036905D01*
X47940690Y16298810D02*
X47793071Y16372620D01*
X47719261Y16446429D01*
X47645452Y16594048D01*
X47645452Y17036905D01*
X47719261Y17184524D01*
X47793071Y17258334D01*
X47940690Y17332143D01*
X48162119Y17332143D01*
X48309738Y17258334D01*
X48383547Y17184524D01*
X48457357Y17036905D01*
X48457357Y16594048D01*
X48383547Y16446429D01*
X48309738Y16372620D01*
X48162119Y16298810D01*
X47940690Y16298810D01*
X48974023Y17332143D02*
X49269261Y16298810D01*
X49564500Y17036905D01*
X49859738Y16298810D01*
X50154976Y17332143D01*
X51335928Y16372620D02*
X51188309Y16298810D01*
X50893071Y16298810D01*
X50745452Y16372620D01*
X50671642Y16520239D01*
X50671642Y17110715D01*
X50745452Y17258334D01*
X50893071Y17332143D01*
X51188309Y17332143D01*
X51335928Y17258334D01*
X51409738Y17110715D01*
X51409738Y16963096D01*
X50671642Y16815477D01*
X52074023Y16298810D02*
X52074023Y17332143D01*
X52074023Y17036905D02*
X52147833Y17184524D01*
X52221642Y17258334D01*
X52369261Y17332143D01*
X52516880Y17332143D01*
X55100214Y16446429D02*
X55026404Y16372620D01*
X54804976Y16298810D01*
X54657357Y16298810D01*
X54435928Y16372620D01*
X54288309Y16520239D01*
X54214500Y16667858D01*
X54140690Y16963096D01*
X54140690Y17184524D01*
X54214500Y17479762D01*
X54288309Y17627381D01*
X54435928Y17775000D01*
X54657357Y17848810D01*
X54804976Y17848810D01*
X55026404Y17775000D01*
X55100214Y17701191D01*
X55985928Y16298810D02*
X55838309Y16372620D01*
X55764500Y16446429D01*
X55690690Y16594048D01*
X55690690Y17036905D01*
X55764500Y17184524D01*
X55838309Y17258334D01*
X55985928Y17332143D01*
X56207357Y17332143D01*
X56354976Y17258334D01*
X56428785Y17184524D01*
X56502595Y17036905D01*
X56502595Y16594048D01*
X56428785Y16446429D01*
X56354976Y16372620D01*
X56207357Y16298810D01*
X55985928Y16298810D01*
X57166880Y16298810D02*
X57166880Y17332143D01*
X57166880Y17184524D02*
X57240690Y17258334D01*
X57388309Y17332143D01*
X57609738Y17332143D01*
X57757357Y17258334D01*
X57831166Y17110715D01*
X57831166Y16298810D01*
X57831166Y17110715D02*
X57904976Y17258334D01*
X58052595Y17332143D01*
X58274023Y17332143D01*
X58421642Y17258334D01*
X58495452Y17110715D01*
X58495452Y16298810D01*
X59233547Y16298810D02*
X59233547Y17332143D01*
X59233547Y17184524D02*
X59307357Y17258334D01*
X59454976Y17332143D01*
X59676404Y17332143D01*
X59824023Y17258334D01*
X59897833Y17110715D01*
X59897833Y16298810D01*
X59897833Y17110715D02*
X59971642Y17258334D01*
X60119261Y17332143D01*
X60340690Y17332143D01*
X60488309Y17258334D01*
X60562119Y17110715D01*
X60562119Y16298810D01*
X61964500Y16298810D02*
X61964500Y17110715D01*
X61890690Y17258334D01*
X61743071Y17332143D01*
X61447833Y17332143D01*
X61300214Y17258334D01*
X61964500Y16372620D02*
X61816880Y16298810D01*
X61447833Y16298810D01*
X61300214Y16372620D01*
X61226404Y16520239D01*
X61226404Y16667858D01*
X61300214Y16815477D01*
X61447833Y16889286D01*
X61816880Y16889286D01*
X61964500Y16963096D01*
X62702595Y17332143D02*
X62702595Y16298810D01*
X62702595Y17184524D02*
X62776404Y17258334D01*
X62924023Y17332143D01*
X63145452Y17332143D01*
X63293071Y17258334D01*
X63366880Y17110715D01*
X63366880Y16298810D01*
X64769261Y16298810D02*
X64769261Y17848810D01*
X64769261Y16372620D02*
X64621642Y16298810D01*
X64326404Y16298810D01*
X64178785Y16372620D01*
X64104976Y16446429D01*
X64031166Y16594048D01*
X64031166Y17036905D01*
X64104976Y17184524D01*
X64178785Y17258334D01*
X64326404Y17332143D01*
X64621642Y17332143D01*
X64769261Y17258334D01*
X65433547Y16372620D02*
X65654976Y16298810D01*
X66024023Y16298810D01*
X66171642Y16372620D01*
X66245452Y16446429D01*
X66319261Y16594048D01*
X66319261Y16741667D01*
X66245452Y16889286D01*
X66171642Y16963096D01*
X66024023Y17036905D01*
X65728785Y17110715D01*
X65581166Y17184524D01*
X65507357Y17258334D01*
X65433547Y17405953D01*
X65433547Y17553572D01*
X65507357Y17701191D01*
X65581166Y17775000D01*
X65728785Y17848810D01*
X66097833Y17848810D01*
X66319261Y17775000D01*
X66762119Y17332143D02*
X67352595Y17332143D01*
X66983547Y17848810D02*
X66983547Y16520239D01*
X67057357Y16372620D01*
X67204976Y16298810D01*
X67352595Y16298810D01*
X68533547Y16298810D02*
X68533547Y17110715D01*
X68459738Y17258334D01*
X68312119Y17332143D01*
X68016880Y17332143D01*
X67869261Y17258334D01*
X68533547Y16372620D02*
X68385928Y16298810D01*
X68016880Y16298810D01*
X67869261Y16372620D01*
X67795452Y16520239D01*
X67795452Y16667858D01*
X67869261Y16815477D01*
X68016880Y16889286D01*
X68385928Y16889286D01*
X68533547Y16963096D01*
X69050214Y17332143D02*
X69640690Y17332143D01*
X69271642Y17848810D02*
X69271642Y16520239D01*
X69345452Y16372620D01*
X69493071Y16298810D01*
X69640690Y16298810D01*
X70157357Y16298810D02*
X70157357Y17332143D01*
X70157357Y17848810D02*
X70083547Y17775000D01*
X70157357Y17701191D01*
X70231166Y17775000D01*
X70157357Y17848810D01*
X70157357Y17701191D01*
X71116880Y16298810D02*
X70969261Y16372620D01*
X70895452Y16446429D01*
X70821642Y16594048D01*
X70821642Y17036905D01*
X70895452Y17184524D01*
X70969261Y17258334D01*
X71116880Y17332143D01*
X71338309Y17332143D01*
X71485928Y17258334D01*
X71559738Y17184524D01*
X71633547Y17036905D01*
X71633547Y16594048D01*
X71559738Y16446429D01*
X71485928Y16372620D01*
X71338309Y16298810D01*
X71116880Y16298810D01*
X72297833Y17332143D02*
X72297833Y16298810D01*
X72297833Y17184524D02*
X72371642Y17258334D01*
X72519261Y17332143D01*
X72740690Y17332143D01*
X72888309Y17258334D01*
X72962119Y17110715D01*
X72962119Y16298810D01*
X39083547Y19298810D02*
X39083547Y20848810D01*
X39600214Y19741667D01*
X40116880Y20848810D01*
X40116880Y19298810D01*
X40633547Y20848810D02*
X41519261Y20848810D01*
X41076404Y19298810D02*
X41076404Y20848810D01*
X42700214Y20332143D02*
X42700214Y19298810D01*
X42331166Y20922620D02*
X41962119Y19815477D01*
X42921642Y19815477D01*
X43807357Y20848810D02*
X43954976Y20848810D01*
X44102595Y20775000D01*
X44176404Y20701191D01*
X44250214Y20553572D01*
X44324023Y20258334D01*
X44324023Y19889286D01*
X44250214Y19594048D01*
X44176404Y19446429D01*
X44102595Y19372620D01*
X43954976Y19298810D01*
X43807357Y19298810D01*
X43659738Y19372620D01*
X43585928Y19446429D01*
X43512119Y19594048D01*
X43438309Y19889286D01*
X43438309Y20258334D01*
X43512119Y20553572D01*
X43585928Y20701191D01*
X43659738Y20775000D01*
X43807357Y20848810D01*
X46169261Y19298810D02*
X46169261Y20848810D01*
X46538309Y20848810D01*
X46759738Y20775000D01*
X46907357Y20627381D01*
X46981166Y20479762D01*
X47054976Y20184524D01*
X47054976Y19963096D01*
X46981166Y19667858D01*
X46907357Y19520239D01*
X46759738Y19372620D01*
X46538309Y19298810D01*
X46169261Y19298810D01*
X48604976Y19446429D02*
X48531166Y19372620D01*
X48309738Y19298810D01*
X48162119Y19298810D01*
X47940690Y19372620D01*
X47793071Y19520239D01*
X47719261Y19667858D01*
X47645452Y19963096D01*
X47645452Y20184524D01*
X47719261Y20479762D01*
X47793071Y20627381D01*
X47940690Y20775000D01*
X48162119Y20848810D01*
X48309738Y20848810D01*
X48531166Y20775000D01*
X48604976Y20701191D01*
X50154976Y19446429D02*
X50081166Y19372620D01*
X49859738Y19298810D01*
X49712119Y19298810D01*
X49490690Y19372620D01*
X49343071Y19520239D01*
X49269261Y19667858D01*
X49195452Y19963096D01*
X49195452Y20184524D01*
X49269261Y20479762D01*
X49343071Y20627381D01*
X49490690Y20775000D01*
X49712119Y20848810D01*
X49859738Y20848810D01*
X50081166Y20775000D01*
X50154976Y20701191D01*
X52885928Y19446429D02*
X52812119Y19372620D01*
X52590690Y19298810D01*
X52443071Y19298810D01*
X52221642Y19372620D01*
X52074023Y19520239D01*
X52000214Y19667858D01*
X51926404Y19963096D01*
X51926404Y20184524D01*
X52000214Y20479762D01*
X52074023Y20627381D01*
X52221642Y20775000D01*
X52443071Y20848810D01*
X52590690Y20848810D01*
X52812119Y20775000D01*
X52885928Y20701191D01*
X53771642Y19298810D02*
X53624023Y19372620D01*
X53550214Y19446429D01*
X53476404Y19594048D01*
X53476404Y20036905D01*
X53550214Y20184524D01*
X53624023Y20258334D01*
X53771642Y20332143D01*
X53993071Y20332143D01*
X54140690Y20258334D01*
X54214500Y20184524D01*
X54288309Y20036905D01*
X54288309Y19594048D01*
X54214500Y19446429D01*
X54140690Y19372620D01*
X53993071Y19298810D01*
X53771642Y19298810D01*
X54952595Y20332143D02*
X54952595Y19298810D01*
X54952595Y20184524D02*
X55026404Y20258334D01*
X55174023Y20332143D01*
X55395452Y20332143D01*
X55543071Y20258334D01*
X55616880Y20110715D01*
X55616880Y19298810D01*
X56133547Y20332143D02*
X56724023Y20332143D01*
X56354976Y20848810D02*
X56354976Y19520239D01*
X56428785Y19372620D01*
X56576404Y19298810D01*
X56724023Y19298810D01*
X57240690Y19298810D02*
X57240690Y20332143D01*
X57240690Y20036905D02*
X57314500Y20184524D01*
X57388309Y20258334D01*
X57535928Y20332143D01*
X57683547Y20332143D01*
X58421642Y19298810D02*
X58274023Y19372620D01*
X58200214Y19446429D01*
X58126404Y19594048D01*
X58126404Y20036905D01*
X58200214Y20184524D01*
X58274023Y20258334D01*
X58421642Y20332143D01*
X58643071Y20332143D01*
X58790690Y20258334D01*
X58864500Y20184524D01*
X58938309Y20036905D01*
X58938309Y19594048D01*
X58864500Y19446429D01*
X58790690Y19372620D01*
X58643071Y19298810D01*
X58421642Y19298810D01*
X59824023Y19298810D02*
X59676404Y19372620D01*
X59602595Y19520239D01*
X59602595Y20848810D01*
X61521642Y19372620D02*
X61743071Y19298810D01*
X62112119Y19298810D01*
X62259738Y19372620D01*
X62333547Y19446429D01*
X62407357Y19594048D01*
X62407357Y19741667D01*
X62333547Y19889286D01*
X62259738Y19963096D01*
X62112119Y20036905D01*
X61816880Y20110715D01*
X61669261Y20184524D01*
X61595452Y20258334D01*
X61521642Y20405953D01*
X61521642Y20553572D01*
X61595452Y20701191D01*
X61669261Y20775000D01*
X61816880Y20848810D01*
X62185928Y20848810D01*
X62407357Y20775000D01*
X62924023Y20332143D02*
X63293071Y19298810D01*
X63662119Y20332143D02*
X63293071Y19298810D01*
X63145452Y18929762D01*
X63071642Y18855953D01*
X62924023Y18782143D01*
X64178785Y19372620D02*
X64326404Y19298810D01*
X64621642Y19298810D01*
X64769261Y19372620D01*
X64843071Y19520239D01*
X64843071Y19594048D01*
X64769261Y19741667D01*
X64621642Y19815477D01*
X64400214Y19815477D01*
X64252595Y19889286D01*
X64178785Y20036905D01*
X64178785Y20110715D01*
X64252595Y20258334D01*
X64400214Y20332143D01*
X64621642Y20332143D01*
X64769261Y20258334D01*
X65285928Y20332143D02*
X65876404Y20332143D01*
X65507357Y20848810D02*
X65507357Y19520239D01*
X65581166Y19372620D01*
X65728785Y19298810D01*
X65876404Y19298810D01*
X66983547Y19372620D02*
X66835928Y19298810D01*
X66540690Y19298810D01*
X66393071Y19372620D01*
X66319261Y19520239D01*
X66319261Y20110715D01*
X66393071Y20258334D01*
X66540690Y20332143D01*
X66835928Y20332143D01*
X66983547Y20258334D01*
X67057357Y20110715D01*
X67057357Y19963096D01*
X66319261Y19815477D01*
X67721642Y19298810D02*
X67721642Y20332143D01*
X67721642Y20184524D02*
X67795452Y20258334D01*
X67943071Y20332143D01*
X68164500Y20332143D01*
X68312119Y20258334D01*
X68385928Y20110715D01*
X68385928Y19298810D01*
X68385928Y20110715D02*
X68459738Y20258334D01*
X68607357Y20332143D01*
X68828785Y20332143D01*
X68976404Y20258334D01*
X69050214Y20110715D01*
X69050214Y19298810D01*
D12*
X43676190Y1276191D02*
X43142857Y2038096D01*
X42761904Y1276191D02*
X42761904Y2876191D01*
X43371428Y2876191D01*
X43523809Y2800000D01*
X43600000Y2723810D01*
X43676190Y2571429D01*
X43676190Y2342858D01*
X43600000Y2190477D01*
X43523809Y2114286D01*
X43371428Y2038096D01*
X42761904Y2038096D01*
X44361904Y2114286D02*
X44895238Y2114286D01*
X45123809Y1276191D02*
X44361904Y1276191D01*
X44361904Y2876191D01*
X45123809Y2876191D01*
X45733333Y1352381D02*
X45961904Y1276191D01*
X46342857Y1276191D01*
X46495238Y1352381D01*
X46571428Y1428572D01*
X46647619Y1580953D01*
X46647619Y1733334D01*
X46571428Y1885715D01*
X46495238Y1961905D01*
X46342857Y2038096D01*
X46038095Y2114286D01*
X45885714Y2190477D01*
X45809523Y2266667D01*
X45733333Y2419048D01*
X45733333Y2571429D01*
X45809523Y2723810D01*
X45885714Y2800000D01*
X46038095Y2876191D01*
X46419047Y2876191D01*
X46647619Y2800000D01*
X47333333Y2114286D02*
X47866666Y2114286D01*
X48095238Y1276191D02*
X47333333Y1276191D01*
X47333333Y2876191D01*
X48095238Y2876191D01*
X48552380Y2876191D02*
X49466666Y2876191D01*
X49009523Y1276191D02*
X49009523Y2876191D01*
D15*
X39278333Y13366667D02*
X39278333Y14766667D01*
X39811666Y14766667D01*
X39945000Y14700000D01*
X40011666Y14633334D01*
X40078333Y14500000D01*
X40078333Y14300000D01*
X40011666Y14166667D01*
X39945000Y14100000D01*
X39811666Y14033334D01*
X39278333Y14033334D01*
X41478333Y13500000D02*
X41411666Y13433334D01*
X41211666Y13366667D01*
X41078333Y13366667D01*
X40878333Y13433334D01*
X40745000Y13566667D01*
X40678333Y13700000D01*
X40611666Y13966667D01*
X40611666Y14166667D01*
X40678333Y14433334D01*
X40745000Y14566667D01*
X40878333Y14700000D01*
X41078333Y14766667D01*
X41211666Y14766667D01*
X41411666Y14700000D01*
X41478333Y14633334D01*
X42545000Y14100000D02*
X42745000Y14033334D01*
X42811666Y13966667D01*
X42878333Y13833334D01*
X42878333Y13633334D01*
X42811666Y13500000D01*
X42745000Y13433334D01*
X42611666Y13366667D01*
X42078333Y13366667D01*
X42078333Y14766667D01*
X42545000Y14766667D01*
X42678333Y14700000D01*
X42745000Y14633334D01*
X42811666Y14500000D01*
X42811666Y14366667D01*
X42745000Y14233334D01*
X42678333Y14166667D01*
X42545000Y14100000D01*
X42078333Y14100000D01*
X45345000Y13366667D02*
X44878333Y14033334D01*
X44545000Y13366667D02*
X44545000Y14766667D01*
X45078333Y14766667D01*
X45211666Y14700000D01*
X45278333Y14633334D01*
X45345000Y14500000D01*
X45345000Y14300000D01*
X45278333Y14166667D01*
X45211666Y14100000D01*
X45078333Y14033334D01*
X44545000Y14033334D01*
X46478333Y13433334D02*
X46345000Y13366667D01*
X46078333Y13366667D01*
X45945000Y13433334D01*
X45878333Y13566667D01*
X45878333Y14100000D01*
X45945000Y14233334D01*
X46078333Y14300000D01*
X46345000Y14300000D01*
X46478333Y14233334D01*
X46545000Y14100000D01*
X46545000Y13966667D01*
X45878333Y13833334D01*
X47011666Y14300000D02*
X47345000Y13366667D01*
X47678333Y14300000D01*
X48211666Y13500000D02*
X48278333Y13433334D01*
X48211666Y13366667D01*
X48145000Y13433334D01*
X48211666Y13500000D01*
X48211666Y13366667D01*
X49611666Y13366667D02*
X48811666Y13366667D01*
X49211666Y13366667D02*
X49211666Y14766667D01*
X49078333Y14566667D01*
X48945000Y14433334D01*
X48811666Y14366667D01*
X51211666Y14633334D02*
X51278333Y14700000D01*
X51411666Y14766667D01*
X51745000Y14766667D01*
X51878333Y14700000D01*
X51945000Y14633334D01*
X52011666Y14500000D01*
X52011666Y14366667D01*
X51945000Y14166667D01*
X51145000Y13366667D01*
X52011666Y13366667D01*
X52878333Y14766667D02*
X53011666Y14766667D01*
X53145000Y14700000D01*
X53211666Y14633334D01*
X53278333Y14500000D01*
X53345000Y14233334D01*
X53345000Y13900000D01*
X53278333Y13633334D01*
X53211666Y13500000D01*
X53145000Y13433334D01*
X53011666Y13366667D01*
X52878333Y13366667D01*
X52745000Y13433334D01*
X52678333Y13500000D01*
X52611666Y13633334D01*
X52545000Y13900000D01*
X52545000Y14233334D01*
X52611666Y14500000D01*
X52678333Y14633334D01*
X52745000Y14700000D01*
X52878333Y14766667D01*
X53878333Y14633334D02*
X53945000Y14700000D01*
X54078333Y14766667D01*
X54411666Y14766667D01*
X54545000Y14700000D01*
X54611666Y14633334D01*
X54678333Y14500000D01*
X54678333Y14366667D01*
X54611666Y14166667D01*
X53811666Y13366667D01*
X54678333Y13366667D01*
X55211666Y14633334D02*
X55278333Y14700000D01*
X55411666Y14766667D01*
X55745000Y14766667D01*
X55878333Y14700000D01*
X55945000Y14633334D01*
X56011666Y14500000D01*
X56011666Y14366667D01*
X55945000Y14166667D01*
X55145000Y13366667D01*
X56011666Y13366667D01*
X56611666Y13500000D02*
X56678333Y13433334D01*
X56611666Y13366667D01*
X56545000Y13433334D01*
X56611666Y13500000D01*
X56611666Y13366667D01*
X57545000Y14766667D02*
X57678333Y14766667D01*
X57811666Y14700000D01*
X57878333Y14633334D01*
X57945000Y14500000D01*
X58011666Y14233334D01*
X58011666Y13900000D01*
X57945000Y13633334D01*
X57878333Y13500000D01*
X57811666Y13433334D01*
X57678333Y13366667D01*
X57545000Y13366667D01*
X57411666Y13433334D01*
X57345000Y13500000D01*
X57278333Y13633334D01*
X57211666Y13900000D01*
X57211666Y14233334D01*
X57278333Y14500000D01*
X57345000Y14633334D01*
X57411666Y14700000D01*
X57545000Y14766667D01*
X58678333Y13366667D02*
X58945000Y13366667D01*
X59078333Y13433334D01*
X59145000Y13500000D01*
X59278333Y13700000D01*
X59345000Y13966667D01*
X59345000Y14500000D01*
X59278333Y14633334D01*
X59211666Y14700000D01*
X59078333Y14766667D01*
X58811666Y14766667D01*
X58678333Y14700000D01*
X58611666Y14633334D01*
X58545000Y14500000D01*
X58545000Y14166667D01*
X58611666Y14033334D01*
X58678333Y13966667D01*
X58811666Y13900000D01*
X59078333Y13900000D01*
X59211666Y13966667D01*
X59278333Y14033334D01*
X59345000Y14166667D01*
X35928571Y34821429D02*
X35928571Y36321429D01*
X36285714Y36321429D01*
X36500000Y36250000D01*
X36642857Y36107143D01*
X36714285Y35964286D01*
X36785714Y35678572D01*
X36785714Y35464286D01*
X36714285Y35178572D01*
X36642857Y35035715D01*
X36500000Y34892858D01*
X36285714Y34821429D01*
X35928571Y34821429D01*
X38000000Y34892858D02*
X37857142Y34821429D01*
X37571428Y34821429D01*
X37428571Y34892858D01*
X37357142Y35035715D01*
X37357142Y35607143D01*
X37428571Y35750000D01*
X37571428Y35821429D01*
X37857142Y35821429D01*
X38000000Y35750000D01*
X38071428Y35607143D01*
X38071428Y35464286D01*
X37357142Y35321429D01*
X38714285Y34821429D02*
X38714285Y36321429D01*
X38714285Y35750000D02*
X38857142Y35821429D01*
X39142857Y35821429D01*
X39285714Y35750000D01*
X39357142Y35678572D01*
X39428571Y35535715D01*
X39428571Y35107143D01*
X39357142Y34964286D01*
X39285714Y34892858D01*
X39142857Y34821429D01*
X38857142Y34821429D01*
X38714285Y34892858D01*
X40714285Y35821429D02*
X40714285Y34821429D01*
X40071428Y35821429D02*
X40071428Y35035715D01*
X40142857Y34892858D01*
X40285714Y34821429D01*
X40500000Y34821429D01*
X40642857Y34892858D01*
X40714285Y34964286D01*
X42071428Y35821429D02*
X42071428Y34607143D01*
X42000000Y34464286D01*
X41928571Y34392858D01*
X41785714Y34321429D01*
X41571428Y34321429D01*
X41428571Y34392858D01*
X42071428Y34892858D02*
X41928571Y34821429D01*
X41642857Y34821429D01*
X41500000Y34892858D01*
X41428571Y34964286D01*
X41357142Y35107143D01*
X41357142Y35535715D01*
X41428571Y35678572D01*
X41500000Y35750000D01*
X41642857Y35821429D01*
X41928571Y35821429D01*
X42071428Y35750000D01*
D12*
X53780952Y1276191D02*
X53780952Y2876191D01*
X54161904Y2876191D01*
X54390476Y2800000D01*
X54542857Y2647620D01*
X54619047Y2495239D01*
X54695238Y2190477D01*
X54695238Y1961905D01*
X54619047Y1657143D01*
X54542857Y1504762D01*
X54390476Y1352381D01*
X54161904Y1276191D01*
X53780952Y1276191D01*
X56295238Y1428572D02*
X56219047Y1352381D01*
X55990476Y1276191D01*
X55838095Y1276191D01*
X55609523Y1352381D01*
X55457142Y1504762D01*
X55380952Y1657143D01*
X55304761Y1961905D01*
X55304761Y2190477D01*
X55380952Y2495239D01*
X55457142Y2647620D01*
X55609523Y2800000D01*
X55838095Y2876191D01*
X55990476Y2876191D01*
X56219047Y2800000D01*
X56295238Y2723810D01*
D13*
X31125857Y9592858D02*
X31125857Y10492858D01*
X31340142Y10492858D01*
X31468714Y10450000D01*
X31554428Y10364286D01*
X31597285Y10278572D01*
X31640142Y10107143D01*
X31640142Y9978572D01*
X31597285Y9807143D01*
X31554428Y9721429D01*
X31468714Y9635715D01*
X31340142Y9592858D01*
X31125857Y9592858D01*
X32197285Y10492858D02*
X32368714Y10492858D01*
X32454428Y10450000D01*
X32540142Y10364286D01*
X32583000Y10192858D01*
X32583000Y9892858D01*
X32540142Y9721429D01*
X32454428Y9635715D01*
X32368714Y9592858D01*
X32197285Y9592858D01*
X32111571Y9635715D01*
X32025857Y9721429D01*
X31983000Y9892858D01*
X31983000Y10192858D01*
X32025857Y10364286D01*
X32111571Y10450000D01*
X32197285Y10492858D01*
X32968714Y10492858D02*
X32968714Y9764286D01*
X33011571Y9678572D01*
X33054428Y9635715D01*
X33140142Y9592858D01*
X33311571Y9592858D01*
X33397285Y9635715D01*
X33440142Y9678572D01*
X33483000Y9764286D01*
X33483000Y10492858D01*
X33783000Y10492858D02*
X34297285Y10492858D01*
X34040142Y9592858D02*
X34040142Y10492858D01*
D16*
X67628571Y67935715D02*
X67028571Y68792858D01*
X66600000Y67935715D02*
X66600000Y69735715D01*
X67285714Y69735715D01*
X67457142Y69650000D01*
X67542857Y69564286D01*
X67628571Y69392858D01*
X67628571Y69135715D01*
X67542857Y68964286D01*
X67457142Y68878572D01*
X67285714Y68792858D01*
X66600000Y68792858D01*
X68314285Y68450000D02*
X69171428Y68450000D01*
X68142857Y67935715D02*
X68742857Y69735715D01*
X69342857Y67935715D01*
X69942857Y67935715D02*
X69942857Y69735715D01*
X71657142Y67935715D02*
X70800000Y67935715D01*
X70800000Y69735715D01*
D11*
X7891904Y16000000D02*
X7796666Y16047620D01*
X7653809Y16047620D01*
X7510952Y16000000D01*
X7415714Y15904762D01*
X7368095Y15809524D01*
X7320476Y15619048D01*
X7320476Y15476191D01*
X7368095Y15285715D01*
X7415714Y15190477D01*
X7510952Y15095239D01*
X7653809Y15047620D01*
X7749047Y15047620D01*
X7891904Y15095239D01*
X7939523Y15142858D01*
X7939523Y15476191D01*
X7749047Y15476191D01*
X8368095Y15047620D02*
X8368095Y16047620D01*
X8749047Y16047620D01*
X8844285Y16000000D01*
X8891904Y15952381D01*
X8939523Y15857143D01*
X8939523Y15714286D01*
X8891904Y15619048D01*
X8844285Y15571429D01*
X8749047Y15523810D01*
X8368095Y15523810D01*
X9891904Y15047620D02*
X9320476Y15047620D01*
X9606190Y15047620D02*
X9606190Y16047620D01*
X9510952Y15904762D01*
X9415714Y15809524D01*
X9320476Y15761905D01*
X10796666Y16047620D02*
X10320476Y16047620D01*
X10272857Y15571429D01*
X10320476Y15619048D01*
X10415714Y15666667D01*
X10653809Y15666667D01*
X10749047Y15619048D01*
X10796666Y15571429D01*
X10844285Y15476191D01*
X10844285Y15238096D01*
X10796666Y15142858D01*
X10749047Y15095239D01*
X10653809Y15047620D01*
X10415714Y15047620D01*
X10320476Y15095239D01*
X10272857Y15142858D01*
D13*
X90914285Y52935715D02*
X91600000Y52935715D01*
X91257142Y52592858D02*
X91257142Y53278572D01*
X92500000Y52592858D02*
X91985714Y52592858D01*
X92242857Y52592858D02*
X92242857Y53492858D01*
X92157142Y53364286D01*
X92071428Y53278572D01*
X91985714Y53235715D01*
X92842857Y53407143D02*
X92885714Y53450000D01*
X92971428Y53492858D01*
X93185714Y53492858D01*
X93271428Y53450000D01*
X93314285Y53407143D01*
X93357142Y53321429D01*
X93357142Y53235715D01*
X93314285Y53107143D01*
X92800000Y52592858D01*
X93357142Y52592858D01*
X93614285Y53492858D02*
X93914285Y52592858D01*
X94214285Y53492858D01*
D17*
X74250000Y58883334D02*
X74283333Y58850000D01*
X74316666Y58750000D01*
X74316666Y58683334D01*
X74283333Y58583334D01*
X74216666Y58516667D01*
X74150000Y58483334D01*
X74016666Y58450000D01*
X73916666Y58450000D01*
X73783333Y58483334D01*
X73716666Y58516667D01*
X73650000Y58583334D01*
X73616666Y58683334D01*
X73616666Y58750000D01*
X73650000Y58850000D01*
X73683333Y58883334D01*
X74316666Y59550000D02*
X74316666Y59150000D01*
X74316666Y59350000D02*
X73616666Y59350000D01*
X73716666Y59283334D01*
X73783333Y59216667D01*
X73816666Y59150000D01*
X88466666Y53814286D02*
X88428571Y53776191D01*
X88314285Y53738096D01*
X88238095Y53738096D01*
X88123809Y53776191D01*
X88047619Y53852381D01*
X88009523Y53928572D01*
X87971428Y54080953D01*
X87971428Y54195239D01*
X88009523Y54347620D01*
X88047619Y54423810D01*
X88123809Y54500000D01*
X88238095Y54538096D01*
X88314285Y54538096D01*
X88428571Y54500000D01*
X88466666Y54461905D01*
X88771428Y54461905D02*
X88809523Y54500000D01*
X88885714Y54538096D01*
X89076190Y54538096D01*
X89152380Y54500000D01*
X89190476Y54461905D01*
X89228571Y54385715D01*
X89228571Y54309524D01*
X89190476Y54195239D01*
X88733333Y53738096D01*
X89228571Y53738096D01*
X56383333Y56000000D02*
X56350000Y55966667D01*
X56250000Y55933334D01*
X56183333Y55933334D01*
X56083333Y55966667D01*
X56016666Y56033334D01*
X55983333Y56100000D01*
X55950000Y56233334D01*
X55950000Y56333334D01*
X55983333Y56466667D01*
X56016666Y56533334D01*
X56083333Y56600000D01*
X56183333Y56633334D01*
X56250000Y56633334D01*
X56350000Y56600000D01*
X56383333Y56566667D01*
X56983333Y56400000D02*
X56983333Y55933334D01*
X56816666Y56666667D02*
X56650000Y56166667D01*
X57083333Y56166667D01*
X77616666Y14614286D02*
X77578571Y14576191D01*
X77464285Y14538096D01*
X77388095Y14538096D01*
X77273809Y14576191D01*
X77197619Y14652381D01*
X77159523Y14728572D01*
X77121428Y14880953D01*
X77121428Y14995239D01*
X77159523Y15147620D01*
X77197619Y15223810D01*
X77273809Y15300000D01*
X77388095Y15338096D01*
X77464285Y15338096D01*
X77578571Y15300000D01*
X77616666Y15261905D01*
X78340476Y15338096D02*
X77959523Y15338096D01*
X77921428Y14957143D01*
X77959523Y14995239D01*
X78035714Y15033334D01*
X78226190Y15033334D01*
X78302380Y14995239D01*
X78340476Y14957143D01*
X78378571Y14880953D01*
X78378571Y14690477D01*
X78340476Y14614286D01*
X78302380Y14576191D01*
X78226190Y14538096D01*
X78035714Y14538096D01*
X77959523Y14576191D01*
X77921428Y14614286D01*
D18*
X8607142Y72809524D02*
X8654761Y72761905D01*
X8702380Y72619048D01*
X8702380Y72523810D01*
X8654761Y72380953D01*
X8559523Y72285715D01*
X8464285Y72238096D01*
X8273809Y72190477D01*
X8130952Y72190477D01*
X7940476Y72238096D01*
X7845238Y72285715D01*
X7750000Y72380953D01*
X7702380Y72523810D01*
X7702380Y72619048D01*
X7750000Y72761905D01*
X7797619Y72809524D01*
X8702380Y73238096D02*
X7702380Y73238096D01*
X8702380Y73809524D01*
X7702380Y73809524D01*
X8702380Y74809524D02*
X8702380Y74238096D01*
X8702380Y74523810D02*
X7702380Y74523810D01*
X7845238Y74428572D01*
X7940476Y74333334D01*
X7988095Y74238096D01*
X29740476Y59350000D02*
X29664285Y59388096D01*
X29550000Y59388096D01*
X29435714Y59350000D01*
X29359523Y59273810D01*
X29321428Y59197620D01*
X29283333Y59045239D01*
X29283333Y58930953D01*
X29321428Y58778572D01*
X29359523Y58702381D01*
X29435714Y58626191D01*
X29550000Y58588096D01*
X29626190Y58588096D01*
X29740476Y58626191D01*
X29778571Y58664286D01*
X29778571Y58930953D01*
X29626190Y58930953D01*
X30121428Y58588096D02*
X30121428Y59388096D01*
X30578571Y58588096D01*
X30578571Y59388096D01*
X30959523Y58588096D02*
X30959523Y59388096D01*
X31150000Y59388096D01*
X31264285Y59350000D01*
X31340476Y59273810D01*
X31378571Y59197620D01*
X31416666Y59045239D01*
X31416666Y58930953D01*
X31378571Y58778572D01*
X31340476Y58702381D01*
X31264285Y58626191D01*
X31150000Y58588096D01*
X30959523Y58588096D01*
X27314761Y58588096D02*
X26857619Y58588096D01*
X27086190Y58588096D02*
X27086190Y59388096D01*
X27010000Y59273810D01*
X26933809Y59197620D01*
X26857619Y59159524D01*
X27619523Y59311905D02*
X27657619Y59350000D01*
X27733809Y59388096D01*
X27924285Y59388096D01*
X28000476Y59350000D01*
X28038571Y59311905D01*
X28076666Y59235715D01*
X28076666Y59159524D01*
X28038571Y59045239D01*
X27581428Y58588096D01*
X28076666Y58588096D01*
X28305238Y59388096D02*
X28571904Y58588096D01*
X28838571Y59388096D01*
X22120476Y59388096D02*
X22577619Y59388096D01*
X22349047Y58588096D02*
X22349047Y59388096D01*
X22768095Y59388096D02*
X23301428Y58588096D01*
X23301428Y59388096D02*
X22768095Y58588096D01*
X12322380Y58588096D02*
X12055714Y58969048D01*
X11865238Y58588096D02*
X11865238Y59388096D01*
X12170000Y59388096D01*
X12246190Y59350000D01*
X12284285Y59311905D01*
X12322380Y59235715D01*
X12322380Y59121429D01*
X12284285Y59045239D01*
X12246190Y59007143D01*
X12170000Y58969048D01*
X11865238Y58969048D01*
X12665238Y58892858D02*
X13274761Y58892858D01*
X12970000Y58588096D02*
X12970000Y59197620D01*
X34839523Y58588096D02*
X34839523Y59388096D01*
X35030000Y59388096D01*
X35144285Y59350000D01*
X35220476Y59273810D01*
X35258571Y59197620D01*
X35296666Y59045239D01*
X35296666Y58930953D01*
X35258571Y58778572D01*
X35220476Y58702381D01*
X35144285Y58626191D01*
X35030000Y58588096D01*
X34839523Y58588096D01*
X35601428Y59311905D02*
X35639523Y59350000D01*
X35715714Y59388096D01*
X35906190Y59388096D01*
X35982380Y59350000D01*
X36020476Y59311905D01*
X36058571Y59235715D01*
X36058571Y59159524D01*
X36020476Y59045239D01*
X35563333Y58588096D01*
X36058571Y58588096D01*
X17040476Y59350000D02*
X16964285Y59388096D01*
X16850000Y59388096D01*
X16735714Y59350000D01*
X16659523Y59273810D01*
X16621428Y59197620D01*
X16583333Y59045239D01*
X16583333Y58930953D01*
X16621428Y58778572D01*
X16659523Y58702381D01*
X16735714Y58626191D01*
X16850000Y58588096D01*
X16926190Y58588096D01*
X17040476Y58626191D01*
X17078571Y58664286D01*
X17078571Y58930953D01*
X16926190Y58930953D01*
X17421428Y58588096D02*
X17421428Y59388096D01*
X17878571Y58588096D01*
X17878571Y59388096D01*
X18259523Y58588096D02*
X18259523Y59388096D01*
X18450000Y59388096D01*
X18564285Y59350000D01*
X18640476Y59273810D01*
X18678571Y59197620D01*
X18716666Y59045239D01*
X18716666Y58930953D01*
X18678571Y58778572D01*
X18640476Y58702381D01*
X18564285Y58626191D01*
X18450000Y58588096D01*
X18259523Y58588096D01*
X32299523Y58588096D02*
X32299523Y59388096D01*
X32490000Y59388096D01*
X32604285Y59350000D01*
X32680476Y59273810D01*
X32718571Y59197620D01*
X32756666Y59045239D01*
X32756666Y58930953D01*
X32718571Y58778572D01*
X32680476Y58702381D01*
X32604285Y58626191D01*
X32490000Y58588096D01*
X32299523Y58588096D01*
X33518571Y58588096D02*
X33061428Y58588096D01*
X33290000Y58588096D02*
X33290000Y59388096D01*
X33213809Y59273810D01*
X33137619Y59197620D01*
X33061428Y59159524D01*
X25117619Y59388096D02*
X24736666Y59388096D01*
X24698571Y59007143D01*
X24736666Y59045239D01*
X24812857Y59083334D01*
X25003333Y59083334D01*
X25079523Y59045239D01*
X25117619Y59007143D01*
X25155714Y58930953D01*
X25155714Y58740477D01*
X25117619Y58664286D01*
X25079523Y58626191D01*
X25003333Y58588096D01*
X24812857Y58588096D01*
X24736666Y58626191D01*
X24698571Y58664286D01*
X25384285Y59388096D02*
X25650952Y58588096D01*
X25917619Y59388096D01*
X20056666Y58588096D02*
X19790000Y58969048D01*
X19599523Y58588096D02*
X19599523Y59388096D01*
X19904285Y59388096D01*
X19980476Y59350000D01*
X20018571Y59311905D01*
X20056666Y59235715D01*
X20056666Y59121429D01*
X20018571Y59045239D01*
X19980476Y59007143D01*
X19904285Y58969048D01*
X19599523Y58969048D01*
X20323333Y59388096D02*
X20856666Y58588096D01*
X20856666Y59388096D02*
X20323333Y58588096D01*
X14862380Y58588096D02*
X14595714Y58969048D01*
X14405238Y58588096D02*
X14405238Y59388096D01*
X14710000Y59388096D01*
X14786190Y59350000D01*
X14824285Y59311905D01*
X14862380Y59235715D01*
X14862380Y59121429D01*
X14824285Y59045239D01*
X14786190Y59007143D01*
X14710000Y58969048D01*
X14405238Y58969048D01*
X15205238Y58892858D02*
X15814761Y58892858D01*
D17*
X90409523Y62638096D02*
X90409523Y63438096D01*
X90600000Y63438096D01*
X90714285Y63400000D01*
X90790476Y63323810D01*
X90828571Y63247620D01*
X90866666Y63095239D01*
X90866666Y62980953D01*
X90828571Y62828572D01*
X90790476Y62752381D01*
X90714285Y62676191D01*
X90600000Y62638096D01*
X90409523Y62638096D01*
X91628571Y62638096D02*
X91171428Y62638096D01*
X91400000Y62638096D02*
X91400000Y63438096D01*
X91323809Y63323810D01*
X91247619Y63247620D01*
X91171428Y63209524D01*
D18*
X88733333Y12683334D02*
X88733333Y13383334D01*
X88900000Y13383334D01*
X89000000Y13350000D01*
X89066666Y13283334D01*
X89100000Y13216667D01*
X89133333Y13083334D01*
X89133333Y12983334D01*
X89100000Y12850000D01*
X89066666Y12783334D01*
X89000000Y12716667D01*
X88900000Y12683334D01*
X88733333Y12683334D01*
X89366666Y13383334D02*
X89800000Y13383334D01*
X89566666Y13116667D01*
X89666666Y13116667D01*
X89733333Y13083334D01*
X89766666Y13050000D01*
X89800000Y12983334D01*
X89800000Y12816667D01*
X89766666Y12750000D01*
X89733333Y12716667D01*
X89666666Y12683334D01*
X89466666Y12683334D01*
X89400000Y12716667D01*
X89366666Y12750000D01*
X86483333Y12683334D02*
X86483333Y13383334D01*
X86650000Y13383334D01*
X86750000Y13350000D01*
X86816666Y13283334D01*
X86850000Y13216667D01*
X86883333Y13083334D01*
X86883333Y12983334D01*
X86850000Y12850000D01*
X86816666Y12783334D01*
X86750000Y12716667D01*
X86650000Y12683334D01*
X86483333Y12683334D01*
X87483333Y13150000D02*
X87483333Y12683334D01*
X87316666Y13416667D02*
X87150000Y12916667D01*
X87583333Y12916667D01*
X66452380Y4761905D02*
X65452380Y4761905D01*
X65452380Y5000000D01*
X65500000Y5142858D01*
X65595238Y5238096D01*
X65690476Y5285715D01*
X65880952Y5333334D01*
X66023809Y5333334D01*
X66214285Y5285715D01*
X66309523Y5238096D01*
X66404761Y5142858D01*
X66452380Y5000000D01*
X66452380Y4761905D01*
X65452380Y6238096D02*
X65452380Y5761905D01*
X65928571Y5714286D01*
X65880952Y5761905D01*
X65833333Y5857143D01*
X65833333Y6095239D01*
X65880952Y6190477D01*
X65928571Y6238096D01*
X66023809Y6285715D01*
X66261904Y6285715D01*
X66357142Y6238096D01*
X66404761Y6190477D01*
X66452380Y6095239D01*
X66452380Y5857143D01*
X66404761Y5761905D01*
X66357142Y5714286D01*
X41261904Y69297620D02*
X41261904Y70297620D01*
X41500000Y70297620D01*
X41642857Y70250000D01*
X41738095Y70154762D01*
X41785714Y70059524D01*
X41833333Y69869048D01*
X41833333Y69726191D01*
X41785714Y69535715D01*
X41738095Y69440477D01*
X41642857Y69345239D01*
X41500000Y69297620D01*
X41261904Y69297620D01*
X42166666Y70297620D02*
X42833333Y70297620D01*
X42404761Y69297620D01*
D19*
X88443619Y74661334D02*
X89169333Y74661334D01*
X89314476Y74612953D01*
X89411238Y74516191D01*
X89459619Y74371048D01*
X89459619Y74274286D01*
X89459619Y75677334D02*
X89459619Y75096762D01*
X89459619Y75387048D02*
X88443619Y75387048D01*
X88588761Y75290286D01*
X88685523Y75193524D01*
X88733904Y75096762D01*
D17*
X75061904Y70983334D02*
X75633333Y70983334D01*
X75747619Y70945239D01*
X75823809Y70869048D01*
X75861904Y70754762D01*
X75861904Y70678572D01*
X75138095Y71326191D02*
X75100000Y71364286D01*
X75061904Y71440477D01*
X75061904Y71630953D01*
X75100000Y71707143D01*
X75138095Y71745239D01*
X75214285Y71783334D01*
X75290476Y71783334D01*
X75404761Y71745239D01*
X75861904Y71288096D01*
X75861904Y71783334D01*
D18*
X59702380Y65666667D02*
X60416666Y65666667D01*
X60559523Y65619048D01*
X60654761Y65523810D01*
X60702380Y65380953D01*
X60702380Y65285715D01*
X59702380Y66047620D02*
X59702380Y66666667D01*
X60083333Y66333334D01*
X60083333Y66476191D01*
X60130952Y66571429D01*
X60178571Y66619048D01*
X60273809Y66666667D01*
X60511904Y66666667D01*
X60607142Y66619048D01*
X60654761Y66571429D01*
X60702380Y66476191D01*
X60702380Y66190477D01*
X60654761Y66095239D01*
X60607142Y66047620D01*
X3666666Y51547620D02*
X3666666Y50833334D01*
X3619047Y50690477D01*
X3523809Y50595239D01*
X3380952Y50547620D01*
X3285714Y50547620D01*
X4571428Y51214286D02*
X4571428Y50547620D01*
X4333333Y51595239D02*
X4095238Y50880953D01*
X4714285Y50880953D01*
X88666666Y51547620D02*
X88666666Y50833334D01*
X88619047Y50690477D01*
X88523809Y50595239D01*
X88380952Y50547620D01*
X88285714Y50547620D01*
X89619047Y51547620D02*
X89142857Y51547620D01*
X89095238Y51071429D01*
X89142857Y51119048D01*
X89238095Y51166667D01*
X89476190Y51166667D01*
X89571428Y51119048D01*
X89619047Y51071429D01*
X89666666Y50976191D01*
X89666666Y50738096D01*
X89619047Y50642858D01*
X89571428Y50595239D01*
X89476190Y50547620D01*
X89238095Y50547620D01*
X89142857Y50595239D01*
X89095238Y50642858D01*
D17*
X74423809Y11061905D02*
X74347619Y11100000D01*
X74271428Y11176191D01*
X74157142Y11290477D01*
X74080952Y11328572D01*
X74004761Y11328572D01*
X74042857Y11138096D02*
X73966666Y11176191D01*
X73890476Y11252381D01*
X73852380Y11404762D01*
X73852380Y11671429D01*
X73890476Y11823810D01*
X73966666Y11900000D01*
X74042857Y11938096D01*
X74195238Y11938096D01*
X74271428Y11900000D01*
X74347619Y11823810D01*
X74385714Y11671429D01*
X74385714Y11404762D01*
X74347619Y11252381D01*
X74271428Y11176191D01*
X74195238Y11138096D01*
X74042857Y11138096D01*
X75147619Y11138096D02*
X74690476Y11138096D01*
X74919047Y11138096D02*
X74919047Y11938096D01*
X74842857Y11823810D01*
X74766666Y11747620D01*
X74690476Y11709524D01*
X42673809Y24561905D02*
X42597619Y24600000D01*
X42521428Y24676191D01*
X42407142Y24790477D01*
X42330952Y24828572D01*
X42254761Y24828572D01*
X42292857Y24638096D02*
X42216666Y24676191D01*
X42140476Y24752381D01*
X42102380Y24904762D01*
X42102380Y25171429D01*
X42140476Y25323810D01*
X42216666Y25400000D01*
X42292857Y25438096D01*
X42445238Y25438096D01*
X42521428Y25400000D01*
X42597619Y25323810D01*
X42635714Y25171429D01*
X42635714Y24904762D01*
X42597619Y24752381D01*
X42521428Y24676191D01*
X42445238Y24638096D01*
X42292857Y24638096D01*
X42940476Y25361905D02*
X42978571Y25400000D01*
X43054761Y25438096D01*
X43245238Y25438096D01*
X43321428Y25400000D01*
X43359523Y25361905D01*
X43397619Y25285715D01*
X43397619Y25209524D01*
X43359523Y25095239D01*
X42902380Y24638096D01*
X43397619Y24638096D01*
X43423809Y64311905D02*
X43347619Y64350000D01*
X43271428Y64426191D01*
X43157142Y64540477D01*
X43080952Y64578572D01*
X43004761Y64578572D01*
X43042857Y64388096D02*
X42966666Y64426191D01*
X42890476Y64502381D01*
X42852380Y64654762D01*
X42852380Y64921429D01*
X42890476Y65073810D01*
X42966666Y65150000D01*
X43042857Y65188096D01*
X43195238Y65188096D01*
X43271428Y65150000D01*
X43347619Y65073810D01*
X43385714Y64921429D01*
X43385714Y64654762D01*
X43347619Y64502381D01*
X43271428Y64426191D01*
X43195238Y64388096D01*
X43042857Y64388096D01*
X43652380Y65188096D02*
X44147619Y65188096D01*
X43880952Y64883334D01*
X43995238Y64883334D01*
X44071428Y64845239D01*
X44109523Y64807143D01*
X44147619Y64730953D01*
X44147619Y64540477D01*
X44109523Y64464286D01*
X44071428Y64426191D01*
X43995238Y64388096D01*
X43766666Y64388096D01*
X43690476Y64426191D01*
X43652380Y64464286D01*
X78866666Y26638096D02*
X78600000Y27019048D01*
X78409523Y26638096D02*
X78409523Y27438096D01*
X78714285Y27438096D01*
X78790476Y27400000D01*
X78828571Y27361905D01*
X78866666Y27285715D01*
X78866666Y27171429D01*
X78828571Y27095239D01*
X78790476Y27057143D01*
X78714285Y27019048D01*
X78409523Y27019048D01*
X79628571Y26638096D02*
X79171428Y26638096D01*
X79400000Y26638096D02*
X79400000Y27438096D01*
X79323809Y27323810D01*
X79247619Y27247620D01*
X79171428Y27209524D01*
X75366666Y14638096D02*
X75100000Y15019048D01*
X74909523Y14638096D02*
X74909523Y15438096D01*
X75214285Y15438096D01*
X75290476Y15400000D01*
X75328571Y15361905D01*
X75366666Y15285715D01*
X75366666Y15171429D01*
X75328571Y15095239D01*
X75290476Y15057143D01*
X75214285Y15019048D01*
X74909523Y15019048D01*
X76052380Y15171429D02*
X76052380Y14638096D01*
X75861904Y15476191D02*
X75671428Y14904762D01*
X76166666Y14904762D01*
X81616666Y15638096D02*
X81350000Y16019048D01*
X81159523Y15638096D02*
X81159523Y16438096D01*
X81464285Y16438096D01*
X81540476Y16400000D01*
X81578571Y16361905D01*
X81616666Y16285715D01*
X81616666Y16171429D01*
X81578571Y16095239D01*
X81540476Y16057143D01*
X81464285Y16019048D01*
X81159523Y16019048D01*
X82340476Y16438096D02*
X81959523Y16438096D01*
X81921428Y16057143D01*
X81959523Y16095239D01*
X82035714Y16133334D01*
X82226190Y16133334D01*
X82302380Y16095239D01*
X82340476Y16057143D01*
X82378571Y15980953D01*
X82378571Y15790477D01*
X82340476Y15714286D01*
X82302380Y15676191D01*
X82226190Y15638096D01*
X82035714Y15638096D01*
X81959523Y15676191D01*
X81921428Y15714286D01*
X26611904Y53116667D02*
X26230952Y52850000D01*
X26611904Y52659524D02*
X25811904Y52659524D01*
X25811904Y52964286D01*
X25850000Y53040477D01*
X25888095Y53078572D01*
X25964285Y53116667D01*
X26078571Y53116667D01*
X26154761Y53078572D01*
X26192857Y53040477D01*
X26230952Y52964286D01*
X26230952Y52659524D01*
X25811904Y53802381D02*
X25811904Y53650000D01*
X25850000Y53573810D01*
X25888095Y53535715D01*
X26002380Y53459524D01*
X26154761Y53421429D01*
X26459523Y53421429D01*
X26535714Y53459524D01*
X26573809Y53497620D01*
X26611904Y53573810D01*
X26611904Y53726191D01*
X26573809Y53802381D01*
X26535714Y53840477D01*
X26459523Y53878572D01*
X26269047Y53878572D01*
X26192857Y53840477D01*
X26154761Y53802381D01*
X26116666Y53726191D01*
X26116666Y53573810D01*
X26154761Y53497620D01*
X26192857Y53459524D01*
X26269047Y53421429D01*
X30611904Y53116667D02*
X30230952Y52850000D01*
X30611904Y52659524D02*
X29811904Y52659524D01*
X29811904Y52964286D01*
X29850000Y53040477D01*
X29888095Y53078572D01*
X29964285Y53116667D01*
X30078571Y53116667D01*
X30154761Y53078572D01*
X30192857Y53040477D01*
X30230952Y52964286D01*
X30230952Y52659524D01*
X29811904Y53383334D02*
X29811904Y53916667D01*
X30611904Y53573810D01*
X15111904Y34985715D02*
X14730952Y34719048D01*
X15111904Y34528572D02*
X14311904Y34528572D01*
X14311904Y34833334D01*
X14350000Y34909524D01*
X14388095Y34947620D01*
X14464285Y34985715D01*
X14578571Y34985715D01*
X14654761Y34947620D01*
X14692857Y34909524D01*
X14730952Y34833334D01*
X14730952Y34528572D01*
X15111904Y35747620D02*
X15111904Y35290477D01*
X15111904Y35519048D02*
X14311904Y35519048D01*
X14426190Y35442858D01*
X14502380Y35366667D01*
X14540476Y35290477D01*
X14311904Y36014286D02*
X14311904Y36509524D01*
X14616666Y36242858D01*
X14616666Y36357143D01*
X14654761Y36433334D01*
X14692857Y36471429D01*
X14769047Y36509524D01*
X14959523Y36509524D01*
X15035714Y36471429D01*
X15073809Y36433334D01*
X15111904Y36357143D01*
X15111904Y36128572D01*
X15073809Y36052381D01*
X15035714Y36014286D01*
X16611904Y34985715D02*
X16230952Y34719048D01*
X16611904Y34528572D02*
X15811904Y34528572D01*
X15811904Y34833334D01*
X15850000Y34909524D01*
X15888095Y34947620D01*
X15964285Y34985715D01*
X16078571Y34985715D01*
X16154761Y34947620D01*
X16192857Y34909524D01*
X16230952Y34833334D01*
X16230952Y34528572D01*
X16611904Y35747620D02*
X16611904Y35290477D01*
X16611904Y35519048D02*
X15811904Y35519048D01*
X15926190Y35442858D01*
X16002380Y35366667D01*
X16040476Y35290477D01*
X16078571Y36433334D02*
X16611904Y36433334D01*
X15773809Y36242858D02*
X16345238Y36052381D01*
X16345238Y36547620D01*
X62485714Y9888096D02*
X62219047Y10269048D01*
X62028571Y9888096D02*
X62028571Y10688096D01*
X62333333Y10688096D01*
X62409523Y10650000D01*
X62447619Y10611905D01*
X62485714Y10535715D01*
X62485714Y10421429D01*
X62447619Y10345239D01*
X62409523Y10307143D01*
X62333333Y10269048D01*
X62028571Y10269048D01*
X63247619Y9888096D02*
X62790476Y9888096D01*
X63019047Y9888096D02*
X63019047Y10688096D01*
X62942857Y10573810D01*
X62866666Y10497620D01*
X62790476Y10459524D01*
X63971428Y10688096D02*
X63590476Y10688096D01*
X63552380Y10307143D01*
X63590476Y10345239D01*
X63666666Y10383334D01*
X63857142Y10383334D01*
X63933333Y10345239D01*
X63971428Y10307143D01*
X64009523Y10230953D01*
X64009523Y10040477D01*
X63971428Y9964286D01*
X63933333Y9926191D01*
X63857142Y9888096D01*
X63666666Y9888096D01*
X63590476Y9926191D01*
X63552380Y9964286D01*
X70485714Y9888096D02*
X70219047Y10269048D01*
X70028571Y9888096D02*
X70028571Y10688096D01*
X70333333Y10688096D01*
X70409523Y10650000D01*
X70447619Y10611905D01*
X70485714Y10535715D01*
X70485714Y10421429D01*
X70447619Y10345239D01*
X70409523Y10307143D01*
X70333333Y10269048D01*
X70028571Y10269048D01*
X71247619Y9888096D02*
X70790476Y9888096D01*
X71019047Y9888096D02*
X71019047Y10688096D01*
X70942857Y10573810D01*
X70866666Y10497620D01*
X70790476Y10459524D01*
X71933333Y10688096D02*
X71780952Y10688096D01*
X71704761Y10650000D01*
X71666666Y10611905D01*
X71590476Y10497620D01*
X71552380Y10345239D01*
X71552380Y10040477D01*
X71590476Y9964286D01*
X71628571Y9926191D01*
X71704761Y9888096D01*
X71857142Y9888096D01*
X71933333Y9926191D01*
X71971428Y9964286D01*
X72009523Y10040477D01*
X72009523Y10230953D01*
X71971428Y10307143D01*
X71933333Y10345239D01*
X71857142Y10383334D01*
X71704761Y10383334D01*
X71628571Y10345239D01*
X71590476Y10307143D01*
X71552380Y10230953D01*
X86485714Y4388096D02*
X86219047Y4769048D01*
X86028571Y4388096D02*
X86028571Y5188096D01*
X86333333Y5188096D01*
X86409523Y5150000D01*
X86447619Y5111905D01*
X86485714Y5035715D01*
X86485714Y4921429D01*
X86447619Y4845239D01*
X86409523Y4807143D01*
X86333333Y4769048D01*
X86028571Y4769048D01*
X87247619Y4388096D02*
X86790476Y4388096D01*
X87019047Y4388096D02*
X87019047Y5188096D01*
X86942857Y5073810D01*
X86866666Y4997620D01*
X86790476Y4959524D01*
X87514285Y5188096D02*
X88047619Y5188096D01*
X87704761Y4388096D01*
X40235714Y64388096D02*
X39969047Y64769048D01*
X39778571Y64388096D02*
X39778571Y65188096D01*
X40083333Y65188096D01*
X40159523Y65150000D01*
X40197619Y65111905D01*
X40235714Y65035715D01*
X40235714Y64921429D01*
X40197619Y64845239D01*
X40159523Y64807143D01*
X40083333Y64769048D01*
X39778571Y64769048D01*
X40997619Y64388096D02*
X40540476Y64388096D01*
X40769047Y64388096D02*
X40769047Y65188096D01*
X40692857Y65073810D01*
X40616666Y64997620D01*
X40540476Y64959524D01*
X41454761Y64845239D02*
X41378571Y64883334D01*
X41340476Y64921429D01*
X41302380Y64997620D01*
X41302380Y65035715D01*
X41340476Y65111905D01*
X41378571Y65150000D01*
X41454761Y65188096D01*
X41607142Y65188096D01*
X41683333Y65150000D01*
X41721428Y65111905D01*
X41759523Y65035715D01*
X41759523Y64997620D01*
X41721428Y64921429D01*
X41683333Y64883334D01*
X41607142Y64845239D01*
X41454761Y64845239D01*
X41378571Y64807143D01*
X41340476Y64769048D01*
X41302380Y64692858D01*
X41302380Y64540477D01*
X41340476Y64464286D01*
X41378571Y64426191D01*
X41454761Y64388096D01*
X41607142Y64388096D01*
X41683333Y64426191D01*
X41721428Y64464286D01*
X41759523Y64540477D01*
X41759523Y64692858D01*
X41721428Y64769048D01*
X41683333Y64807143D01*
X41607142Y64845239D01*
D18*
X3166666Y63595239D02*
X3309523Y63547620D01*
X3547619Y63547620D01*
X3642857Y63595239D01*
X3690476Y63642858D01*
X3738095Y63738096D01*
X3738095Y63833334D01*
X3690476Y63928572D01*
X3642857Y63976191D01*
X3547619Y64023810D01*
X3357142Y64071429D01*
X3261904Y64119048D01*
X3214285Y64166667D01*
X3166666Y64261905D01*
X3166666Y64357143D01*
X3214285Y64452381D01*
X3261904Y64500000D01*
X3357142Y64547620D01*
X3595238Y64547620D01*
X3738095Y64500000D01*
X4071428Y64547620D02*
X4309523Y63547620D01*
X4500000Y64261905D01*
X4690476Y63547620D01*
X4928571Y64547620D01*
X5833333Y63547620D02*
X5261904Y63547620D01*
X5547619Y63547620D02*
X5547619Y64547620D01*
X5452380Y64404762D01*
X5357142Y64309524D01*
X5261904Y64261905D01*
X79666666Y10595239D02*
X79809523Y10547620D01*
X80047619Y10547620D01*
X80142857Y10595239D01*
X80190476Y10642858D01*
X80238095Y10738096D01*
X80238095Y10833334D01*
X80190476Y10928572D01*
X80142857Y10976191D01*
X80047619Y11023810D01*
X79857142Y11071429D01*
X79761904Y11119048D01*
X79714285Y11166667D01*
X79666666Y11261905D01*
X79666666Y11357143D01*
X79714285Y11452381D01*
X79761904Y11500000D01*
X79857142Y11547620D01*
X80095238Y11547620D01*
X80238095Y11500000D01*
X80571428Y11547620D02*
X80809523Y10547620D01*
X81000000Y11261905D01*
X81190476Y10547620D01*
X81428571Y11547620D01*
X81761904Y11452381D02*
X81809523Y11500000D01*
X81904761Y11547620D01*
X82142857Y11547620D01*
X82238095Y11500000D01*
X82285714Y11452381D01*
X82333333Y11357143D01*
X82333333Y11261905D01*
X82285714Y11119048D01*
X81714285Y10547620D01*
X82333333Y10547620D01*
X13238095Y29547620D02*
X13238095Y28738096D01*
X13285714Y28642858D01*
X13333333Y28595239D01*
X13428571Y28547620D01*
X13619047Y28547620D01*
X13714285Y28595239D01*
X13761904Y28642858D01*
X13809523Y28738096D01*
X13809523Y29547620D01*
X14714285Y29547620D02*
X14523809Y29547620D01*
X14428571Y29500000D01*
X14380952Y29452381D01*
X14285714Y29309524D01*
X14238095Y29119048D01*
X14238095Y28738096D01*
X14285714Y28642858D01*
X14333333Y28595239D01*
X14428571Y28547620D01*
X14619047Y28547620D01*
X14714285Y28595239D01*
X14761904Y28642858D01*
X14809523Y28738096D01*
X14809523Y28976191D01*
X14761904Y29071429D01*
X14714285Y29119048D01*
X14619047Y29166667D01*
X14428571Y29166667D01*
X14333333Y29119048D01*
X14285714Y29071429D01*
X14238095Y28976191D01*
X35880952Y28547620D02*
X35547619Y29023810D01*
X35309523Y28547620D02*
X35309523Y29547620D01*
X35690476Y29547620D01*
X35785714Y29500000D01*
X35833333Y29452381D01*
X35880952Y29357143D01*
X35880952Y29214286D01*
X35833333Y29119048D01*
X35785714Y29071429D01*
X35690476Y29023810D01*
X35309523Y29023810D01*
X36642857Y29071429D02*
X36309523Y29071429D01*
X36309523Y28547620D02*
X36309523Y29547620D01*
X36785714Y29547620D01*
D17*
X77640476Y21188096D02*
X77640476Y20540477D01*
X77678571Y20464286D01*
X77716666Y20426191D01*
X77792857Y20388096D01*
X77945238Y20388096D01*
X78021428Y20426191D01*
X78059523Y20464286D01*
X78097619Y20540477D01*
X78097619Y21188096D01*
X78821428Y20921429D02*
X78821428Y20388096D01*
X78630952Y21226191D02*
X78440476Y20654762D01*
X78935714Y20654762D01*
X81616666Y21138096D02*
X81350000Y21519048D01*
X81159523Y21138096D02*
X81159523Y21938096D01*
X81464285Y21938096D01*
X81540476Y21900000D01*
X81578571Y21861905D01*
X81616666Y21785715D01*
X81616666Y21671429D01*
X81578571Y21595239D01*
X81540476Y21557143D01*
X81464285Y21519048D01*
X81159523Y21519048D01*
X81883333Y21938096D02*
X82378571Y21938096D01*
X82111904Y21633334D01*
X82226190Y21633334D01*
X82302380Y21595239D01*
X82340476Y21557143D01*
X82378571Y21480953D01*
X82378571Y21290477D01*
X82340476Y21214286D01*
X82302380Y21176191D01*
X82226190Y21138096D01*
X81997619Y21138096D01*
X81921428Y21176191D01*
X81883333Y21214286D01*
D18*
X44666666Y10595239D02*
X44809523Y10547620D01*
X45047619Y10547620D01*
X45142857Y10595239D01*
X45190476Y10642858D01*
X45238095Y10738096D01*
X45238095Y10833334D01*
X45190476Y10928572D01*
X45142857Y10976191D01*
X45047619Y11023810D01*
X44857142Y11071429D01*
X44761904Y11119048D01*
X44714285Y11166667D01*
X44666666Y11261905D01*
X44666666Y11357143D01*
X44714285Y11452381D01*
X44761904Y11500000D01*
X44857142Y11547620D01*
X45095238Y11547620D01*
X45238095Y11500000D01*
X45571428Y11547620D02*
X45809523Y10547620D01*
X46000000Y11261905D01*
X46190476Y10547620D01*
X46428571Y11547620D01*
X46714285Y11547620D02*
X47333333Y11547620D01*
X47000000Y11166667D01*
X47142857Y11166667D01*
X47238095Y11119048D01*
X47285714Y11071429D01*
X47333333Y10976191D01*
X47333333Y10738096D01*
X47285714Y10642858D01*
X47238095Y10595239D01*
X47142857Y10547620D01*
X46857142Y10547620D01*
X46761904Y10595239D01*
X46714285Y10642858D01*
X41488095Y61547620D02*
X41488095Y60738096D01*
X41535714Y60642858D01*
X41583333Y60595239D01*
X41678571Y60547620D01*
X41869047Y60547620D01*
X41964285Y60595239D01*
X42011904Y60642858D01*
X42059523Y60738096D01*
X42059523Y61547620D01*
X43011904Y61547620D02*
X42535714Y61547620D01*
X42488095Y61071429D01*
X42535714Y61119048D01*
X42630952Y61166667D01*
X42869047Y61166667D01*
X42964285Y61119048D01*
X43011904Y61071429D01*
X43059523Y60976191D01*
X43059523Y60738096D01*
X43011904Y60642858D01*
X42964285Y60595239D01*
X42869047Y60547620D01*
X42630952Y60547620D01*
X42535714Y60595239D01*
X42488095Y60642858D01*
D17*
X31116666Y36388096D02*
X30850000Y36769048D01*
X30659523Y36388096D02*
X30659523Y37188096D01*
X30964285Y37188096D01*
X31040476Y37150000D01*
X31078571Y37111905D01*
X31116666Y37035715D01*
X31116666Y36921429D01*
X31078571Y36845239D01*
X31040476Y36807143D01*
X30964285Y36769048D01*
X30659523Y36769048D01*
X31573809Y36845239D02*
X31497619Y36883334D01*
X31459523Y36921429D01*
X31421428Y36997620D01*
X31421428Y37035715D01*
X31459523Y37111905D01*
X31497619Y37150000D01*
X31573809Y37188096D01*
X31726190Y37188096D01*
X31802380Y37150000D01*
X31840476Y37111905D01*
X31878571Y37035715D01*
X31878571Y36997620D01*
X31840476Y36921429D01*
X31802380Y36883334D01*
X31726190Y36845239D01*
X31573809Y36845239D01*
X31497619Y36807143D01*
X31459523Y36769048D01*
X31421428Y36692858D01*
X31421428Y36540477D01*
X31459523Y36464286D01*
X31497619Y36426191D01*
X31573809Y36388096D01*
X31726190Y36388096D01*
X31802380Y36426191D01*
X31840476Y36464286D01*
X31878571Y36540477D01*
X31878571Y36692858D01*
X31840476Y36769048D01*
X31802380Y36807143D01*
X31726190Y36845239D01*
X35111904Y50985715D02*
X34730952Y50719048D01*
X35111904Y50528572D02*
X34311904Y50528572D01*
X34311904Y50833334D01*
X34350000Y50909524D01*
X34388095Y50947620D01*
X34464285Y50985715D01*
X34578571Y50985715D01*
X34654761Y50947620D01*
X34692857Y50909524D01*
X34730952Y50833334D01*
X34730952Y50528572D01*
X35111904Y51747620D02*
X35111904Y51290477D01*
X35111904Y51519048D02*
X34311904Y51519048D01*
X34426190Y51442858D01*
X34502380Y51366667D01*
X34540476Y51290477D01*
X34388095Y52052381D02*
X34350000Y52090477D01*
X34311904Y52166667D01*
X34311904Y52357143D01*
X34350000Y52433334D01*
X34388095Y52471429D01*
X34464285Y52509524D01*
X34540476Y52509524D01*
X34654761Y52471429D01*
X35111904Y52014286D01*
X35111904Y52509524D01*
X33611904Y50985715D02*
X33230952Y50719048D01*
X33611904Y50528572D02*
X32811904Y50528572D01*
X32811904Y50833334D01*
X32850000Y50909524D01*
X32888095Y50947620D01*
X32964285Y50985715D01*
X33078571Y50985715D01*
X33154761Y50947620D01*
X33192857Y50909524D01*
X33230952Y50833334D01*
X33230952Y50528572D01*
X33611904Y51747620D02*
X33611904Y51290477D01*
X33611904Y51519048D02*
X32811904Y51519048D01*
X32926190Y51442858D01*
X33002380Y51366667D01*
X33040476Y51290477D01*
X33611904Y52509524D02*
X33611904Y52052381D01*
X33611904Y52280953D02*
X32811904Y52280953D01*
X32926190Y52204762D01*
X33002380Y52128572D01*
X33040476Y52052381D01*
X12116666Y44138096D02*
X11850000Y44519048D01*
X11659523Y44138096D02*
X11659523Y44938096D01*
X11964285Y44938096D01*
X12040476Y44900000D01*
X12078571Y44861905D01*
X12116666Y44785715D01*
X12116666Y44671429D01*
X12078571Y44595239D01*
X12040476Y44557143D01*
X11964285Y44519048D01*
X11659523Y44519048D01*
X12497619Y44138096D02*
X12650000Y44138096D01*
X12726190Y44176191D01*
X12764285Y44214286D01*
X12840476Y44328572D01*
X12878571Y44480953D01*
X12878571Y44785715D01*
X12840476Y44861905D01*
X12802380Y44900000D01*
X12726190Y44938096D01*
X12573809Y44938096D01*
X12497619Y44900000D01*
X12459523Y44861905D01*
X12421428Y44785715D01*
X12421428Y44595239D01*
X12459523Y44519048D01*
X12497619Y44480953D01*
X12573809Y44442858D01*
X12726190Y44442858D01*
X12802380Y44480953D01*
X12840476Y44519048D01*
X12878571Y44595239D01*
X12111904Y47485715D02*
X11730952Y47219048D01*
X12111904Y47028572D02*
X11311904Y47028572D01*
X11311904Y47333334D01*
X11350000Y47409524D01*
X11388095Y47447620D01*
X11464285Y47485715D01*
X11578571Y47485715D01*
X11654761Y47447620D01*
X11692857Y47409524D01*
X11730952Y47333334D01*
X11730952Y47028572D01*
X12111904Y48247620D02*
X12111904Y47790477D01*
X12111904Y48019048D02*
X11311904Y48019048D01*
X11426190Y47942858D01*
X11502380Y47866667D01*
X11540476Y47790477D01*
X11311904Y48742858D02*
X11311904Y48819048D01*
X11350000Y48895239D01*
X11388095Y48933334D01*
X11464285Y48971429D01*
X11616666Y49009524D01*
X11807142Y49009524D01*
X11959523Y48971429D01*
X12035714Y48933334D01*
X12073809Y48895239D01*
X12111904Y48819048D01*
X12111904Y48742858D01*
X12073809Y48666667D01*
X12035714Y48628572D01*
X11959523Y48590477D01*
X11807142Y48552381D01*
X11616666Y48552381D01*
X11464285Y48590477D01*
X11388095Y48628572D01*
X11350000Y48666667D01*
X11311904Y48742858D01*
D18*
X27723809Y35273810D02*
X27723809Y34797620D01*
X27390476Y35797620D02*
X27723809Y35273810D01*
X28057142Y35797620D01*
X28914285Y34797620D02*
X28342857Y34797620D01*
X28628571Y34797620D02*
X28628571Y35797620D01*
X28533333Y35654762D01*
X28438095Y35559524D01*
X28342857Y35511905D01*
X41666666Y30797620D02*
X41666666Y30083334D01*
X41619047Y29940477D01*
X41523809Y29845239D01*
X41380952Y29797620D01*
X41285714Y29797620D01*
X42571428Y30797620D02*
X42380952Y30797620D01*
X42285714Y30750000D01*
X42238095Y30702381D01*
X42142857Y30559524D01*
X42095238Y30369048D01*
X42095238Y29988096D01*
X42142857Y29892858D01*
X42190476Y29845239D01*
X42285714Y29797620D01*
X42476190Y29797620D01*
X42571428Y29845239D01*
X42619047Y29892858D01*
X42666666Y29988096D01*
X42666666Y30226191D01*
X42619047Y30321429D01*
X42571428Y30369048D01*
X42476190Y30416667D01*
X42285714Y30416667D01*
X42190476Y30369048D01*
X42142857Y30321429D01*
X42095238Y30226191D01*
D17*
X20866666Y47966667D02*
X21433333Y47966667D01*
X21500000Y48000000D01*
X21533333Y48033334D01*
X21566666Y48100000D01*
X21566666Y48233334D01*
X21533333Y48300000D01*
X21500000Y48333334D01*
X21433333Y48366667D01*
X20866666Y48366667D01*
X20933333Y48666667D02*
X20900000Y48700000D01*
X20866666Y48766667D01*
X20866666Y48933334D01*
X20900000Y49000000D01*
X20933333Y49033334D01*
X21000000Y49066667D01*
X21066666Y49066667D01*
X21166666Y49033334D01*
X21566666Y48633334D01*
X21566666Y49066667D01*
X14785714Y50485715D02*
X14823809Y50447620D01*
X14861904Y50333334D01*
X14861904Y50257143D01*
X14823809Y50142858D01*
X14747619Y50066667D01*
X14671428Y50028572D01*
X14519047Y49990477D01*
X14404761Y49990477D01*
X14252380Y50028572D01*
X14176190Y50066667D01*
X14100000Y50142858D01*
X14061904Y50257143D01*
X14061904Y50333334D01*
X14100000Y50447620D01*
X14138095Y50485715D01*
X14861904Y51247620D02*
X14861904Y50790477D01*
X14861904Y51019048D02*
X14061904Y51019048D01*
X14176190Y50942858D01*
X14252380Y50866667D01*
X14290476Y50790477D01*
X14861904Y51628572D02*
X14861904Y51780953D01*
X14823809Y51857143D01*
X14785714Y51895239D01*
X14671428Y51971429D01*
X14519047Y52009524D01*
X14214285Y52009524D01*
X14138095Y51971429D01*
X14100000Y51933334D01*
X14061904Y51857143D01*
X14061904Y51704762D01*
X14100000Y51628572D01*
X14138095Y51590477D01*
X14214285Y51552381D01*
X14404761Y51552381D01*
X14480952Y51590477D01*
X14519047Y51628572D01*
X14557142Y51704762D01*
X14557142Y51857143D01*
X14519047Y51933334D01*
X14480952Y51971429D01*
X14404761Y52009524D01*
D18*
X27738095Y47547620D02*
X27738095Y46738096D01*
X27785714Y46642858D01*
X27833333Y46595239D01*
X27928571Y46547620D01*
X28119047Y46547620D01*
X28214285Y46595239D01*
X28261904Y46642858D01*
X28309523Y46738096D01*
X28309523Y47547620D01*
X29309523Y46547620D02*
X28738095Y46547620D01*
X29023809Y46547620D02*
X29023809Y47547620D01*
X28928571Y47404762D01*
X28833333Y47309524D01*
X28738095Y47261905D01*
D17*
X37985714Y39214286D02*
X37947619Y39176191D01*
X37833333Y39138096D01*
X37757142Y39138096D01*
X37642857Y39176191D01*
X37566666Y39252381D01*
X37528571Y39328572D01*
X37490476Y39480953D01*
X37490476Y39595239D01*
X37528571Y39747620D01*
X37566666Y39823810D01*
X37642857Y39900000D01*
X37757142Y39938096D01*
X37833333Y39938096D01*
X37947619Y39900000D01*
X37985714Y39861905D01*
X38747619Y39138096D02*
X38290476Y39138096D01*
X38519047Y39138096D02*
X38519047Y39938096D01*
X38442857Y39823810D01*
X38366666Y39747620D01*
X38290476Y39709524D01*
X39471428Y39938096D02*
X39090476Y39938096D01*
X39052380Y39557143D01*
X39090476Y39595239D01*
X39166666Y39633334D01*
X39357142Y39633334D01*
X39433333Y39595239D01*
X39471428Y39557143D01*
X39509523Y39480953D01*
X39509523Y39290477D01*
X39471428Y39214286D01*
X39433333Y39176191D01*
X39357142Y39138096D01*
X39166666Y39138096D01*
X39090476Y39176191D01*
X39052380Y39214286D01*
X29535714Y48485715D02*
X29573809Y48447620D01*
X29611904Y48333334D01*
X29611904Y48257143D01*
X29573809Y48142858D01*
X29497619Y48066667D01*
X29421428Y48028572D01*
X29269047Y47990477D01*
X29154761Y47990477D01*
X29002380Y48028572D01*
X28926190Y48066667D01*
X28850000Y48142858D01*
X28811904Y48257143D01*
X28811904Y48333334D01*
X28850000Y48447620D01*
X28888095Y48485715D01*
X29611904Y49247620D02*
X29611904Y48790477D01*
X29611904Y49019048D02*
X28811904Y49019048D01*
X28926190Y48942858D01*
X29002380Y48866667D01*
X29040476Y48790477D01*
X28811904Y49742858D02*
X28811904Y49819048D01*
X28850000Y49895239D01*
X28888095Y49933334D01*
X28964285Y49971429D01*
X29116666Y50009524D01*
X29307142Y50009524D01*
X29459523Y49971429D01*
X29535714Y49933334D01*
X29573809Y49895239D01*
X29611904Y49819048D01*
X29611904Y49742858D01*
X29573809Y49666667D01*
X29535714Y49628572D01*
X29459523Y49590477D01*
X29307142Y49552381D01*
X29116666Y49552381D01*
X28964285Y49590477D01*
X28888095Y49628572D01*
X28850000Y49666667D01*
X28811904Y49742858D01*
X23735714Y38114286D02*
X23697619Y38076191D01*
X23583333Y38038096D01*
X23507142Y38038096D01*
X23392857Y38076191D01*
X23316666Y38152381D01*
X23278571Y38228572D01*
X23240476Y38380953D01*
X23240476Y38495239D01*
X23278571Y38647620D01*
X23316666Y38723810D01*
X23392857Y38800000D01*
X23507142Y38838096D01*
X23583333Y38838096D01*
X23697619Y38800000D01*
X23735714Y38761905D01*
X24497619Y38038096D02*
X24040476Y38038096D01*
X24269047Y38038096D02*
X24269047Y38838096D01*
X24192857Y38723810D01*
X24116666Y38647620D01*
X24040476Y38609524D01*
X24764285Y38838096D02*
X25259523Y38838096D01*
X24992857Y38533334D01*
X25107142Y38533334D01*
X25183333Y38495239D01*
X25221428Y38457143D01*
X25259523Y38380953D01*
X25259523Y38190477D01*
X25221428Y38114286D01*
X25183333Y38076191D01*
X25107142Y38038096D01*
X24878571Y38038096D01*
X24802380Y38076191D01*
X24764285Y38114286D01*
X32035714Y50735715D02*
X32073809Y50697620D01*
X32111904Y50583334D01*
X32111904Y50507143D01*
X32073809Y50392858D01*
X31997619Y50316667D01*
X31921428Y50278572D01*
X31769047Y50240477D01*
X31654761Y50240477D01*
X31502380Y50278572D01*
X31426190Y50316667D01*
X31350000Y50392858D01*
X31311904Y50507143D01*
X31311904Y50583334D01*
X31350000Y50697620D01*
X31388095Y50735715D01*
X32111904Y51497620D02*
X32111904Y51040477D01*
X32111904Y51269048D02*
X31311904Y51269048D01*
X31426190Y51192858D01*
X31502380Y51116667D01*
X31540476Y51040477D01*
X32111904Y52259524D02*
X32111904Y51802381D01*
X32111904Y52030953D02*
X31311904Y52030953D01*
X31426190Y51954762D01*
X31502380Y51878572D01*
X31540476Y51802381D01*
X24985714Y46964286D02*
X24947619Y46926191D01*
X24833333Y46888096D01*
X24757142Y46888096D01*
X24642857Y46926191D01*
X24566666Y47002381D01*
X24528571Y47078572D01*
X24490476Y47230953D01*
X24490476Y47345239D01*
X24528571Y47497620D01*
X24566666Y47573810D01*
X24642857Y47650000D01*
X24757142Y47688096D01*
X24833333Y47688096D01*
X24947619Y47650000D01*
X24985714Y47611905D01*
X25747619Y46888096D02*
X25290476Y46888096D01*
X25519047Y46888096D02*
X25519047Y47688096D01*
X25442857Y47573810D01*
X25366666Y47497620D01*
X25290476Y47459524D01*
X26052380Y47611905D02*
X26090476Y47650000D01*
X26166666Y47688096D01*
X26357142Y47688096D01*
X26433333Y47650000D01*
X26471428Y47611905D01*
X26509523Y47535715D01*
X26509523Y47459524D01*
X26471428Y47345239D01*
X26014285Y46888096D01*
X26509523Y46888096D01*
X32785714Y18485715D02*
X32823809Y18447620D01*
X32861904Y18333334D01*
X32861904Y18257143D01*
X32823809Y18142858D01*
X32747619Y18066667D01*
X32671428Y18028572D01*
X32519047Y17990477D01*
X32404761Y17990477D01*
X32252380Y18028572D01*
X32176190Y18066667D01*
X32100000Y18142858D01*
X32061904Y18257143D01*
X32061904Y18333334D01*
X32100000Y18447620D01*
X32138095Y18485715D01*
X32861904Y19247620D02*
X32861904Y18790477D01*
X32861904Y19019048D02*
X32061904Y19019048D01*
X32176190Y18942858D01*
X32252380Y18866667D01*
X32290476Y18790477D01*
X32404761Y19704762D02*
X32366666Y19628572D01*
X32328571Y19590477D01*
X32252380Y19552381D01*
X32214285Y19552381D01*
X32138095Y19590477D01*
X32100000Y19628572D01*
X32061904Y19704762D01*
X32061904Y19857143D01*
X32100000Y19933334D01*
X32138095Y19971429D01*
X32214285Y20009524D01*
X32252380Y20009524D01*
X32328571Y19971429D01*
X32366666Y19933334D01*
X32404761Y19857143D01*
X32404761Y19704762D01*
X32442857Y19628572D01*
X32480952Y19590477D01*
X32557142Y19552381D01*
X32709523Y19552381D01*
X32785714Y19590477D01*
X32823809Y19628572D01*
X32861904Y19704762D01*
X32861904Y19857143D01*
X32823809Y19933334D01*
X32785714Y19971429D01*
X32709523Y20009524D01*
X32557142Y20009524D01*
X32480952Y19971429D01*
X32442857Y19933334D01*
X32404761Y19857143D01*
X36535714Y49616667D02*
X36573809Y49578572D01*
X36611904Y49464286D01*
X36611904Y49388096D01*
X36573809Y49273810D01*
X36497619Y49197620D01*
X36421428Y49159524D01*
X36269047Y49121429D01*
X36154761Y49121429D01*
X36002380Y49159524D01*
X35926190Y49197620D01*
X35850000Y49273810D01*
X35811904Y49388096D01*
X35811904Y49464286D01*
X35850000Y49578572D01*
X35888095Y49616667D01*
X36611904Y49997620D02*
X36611904Y50150000D01*
X36573809Y50226191D01*
X36535714Y50264286D01*
X36421428Y50340477D01*
X36269047Y50378572D01*
X35964285Y50378572D01*
X35888095Y50340477D01*
X35850000Y50302381D01*
X35811904Y50226191D01*
X35811904Y50073810D01*
X35850000Y49997620D01*
X35888095Y49959524D01*
X35964285Y49921429D01*
X36154761Y49921429D01*
X36230952Y49959524D01*
X36269047Y49997620D01*
X36307142Y50073810D01*
X36307142Y50226191D01*
X36269047Y50302381D01*
X36230952Y50340477D01*
X36154761Y50378572D01*
X37485714Y48214286D02*
X37447619Y48176191D01*
X37333333Y48138096D01*
X37257142Y48138096D01*
X37142857Y48176191D01*
X37066666Y48252381D01*
X37028571Y48328572D01*
X36990476Y48480953D01*
X36990476Y48595239D01*
X37028571Y48747620D01*
X37066666Y48823810D01*
X37142857Y48900000D01*
X37257142Y48938096D01*
X37333333Y48938096D01*
X37447619Y48900000D01*
X37485714Y48861905D01*
X38247619Y48138096D02*
X37790476Y48138096D01*
X38019047Y48138096D02*
X38019047Y48938096D01*
X37942857Y48823810D01*
X37866666Y48747620D01*
X37790476Y48709524D01*
X38514285Y48938096D02*
X39047619Y48938096D01*
X38704761Y48138096D01*
X34285714Y31616667D02*
X34323809Y31578572D01*
X34361904Y31464286D01*
X34361904Y31388096D01*
X34323809Y31273810D01*
X34247619Y31197620D01*
X34171428Y31159524D01*
X34019047Y31121429D01*
X33904761Y31121429D01*
X33752380Y31159524D01*
X33676190Y31197620D01*
X33600000Y31273810D01*
X33561904Y31388096D01*
X33561904Y31464286D01*
X33600000Y31578572D01*
X33638095Y31616667D01*
X33904761Y32073810D02*
X33866666Y31997620D01*
X33828571Y31959524D01*
X33752380Y31921429D01*
X33714285Y31921429D01*
X33638095Y31959524D01*
X33600000Y31997620D01*
X33561904Y32073810D01*
X33561904Y32226191D01*
X33600000Y32302381D01*
X33638095Y32340477D01*
X33714285Y32378572D01*
X33752380Y32378572D01*
X33828571Y32340477D01*
X33866666Y32302381D01*
X33904761Y32226191D01*
X33904761Y32073810D01*
X33942857Y31997620D01*
X33980952Y31959524D01*
X34057142Y31921429D01*
X34209523Y31921429D01*
X34285714Y31959524D01*
X34323809Y31997620D01*
X34361904Y32073810D01*
X34361904Y32226191D01*
X34323809Y32302381D01*
X34285714Y32340477D01*
X34209523Y32378572D01*
X34057142Y32378572D01*
X33980952Y32340477D01*
X33942857Y32302381D01*
X33904761Y32226191D01*
X31535714Y30366667D02*
X31573809Y30328572D01*
X31611904Y30214286D01*
X31611904Y30138096D01*
X31573809Y30023810D01*
X31497619Y29947620D01*
X31421428Y29909524D01*
X31269047Y29871429D01*
X31154761Y29871429D01*
X31002380Y29909524D01*
X30926190Y29947620D01*
X30850000Y30023810D01*
X30811904Y30138096D01*
X30811904Y30214286D01*
X30850000Y30328572D01*
X30888095Y30366667D01*
X30811904Y30633334D02*
X30811904Y31166667D01*
X31611904Y30823810D01*
X24285714Y32366667D02*
X24323809Y32328572D01*
X24361904Y32214286D01*
X24361904Y32138096D01*
X24323809Y32023810D01*
X24247619Y31947620D01*
X24171428Y31909524D01*
X24019047Y31871429D01*
X23904761Y31871429D01*
X23752380Y31909524D01*
X23676190Y31947620D01*
X23600000Y32023810D01*
X23561904Y32138096D01*
X23561904Y32214286D01*
X23600000Y32328572D01*
X23638095Y32366667D01*
X23561904Y33052381D02*
X23561904Y32900000D01*
X23600000Y32823810D01*
X23638095Y32785715D01*
X23752380Y32709524D01*
X23904761Y32671429D01*
X24209523Y32671429D01*
X24285714Y32709524D01*
X24323809Y32747620D01*
X24361904Y32823810D01*
X24361904Y32976191D01*
X24323809Y33052381D01*
X24285714Y33090477D01*
X24209523Y33128572D01*
X24019047Y33128572D01*
X23942857Y33090477D01*
X23904761Y33052381D01*
X23866666Y32976191D01*
X23866666Y32823810D01*
X23904761Y32747620D01*
X23942857Y32709524D01*
X24019047Y32671429D01*
X33035714Y30735715D02*
X33073809Y30697620D01*
X33111904Y30583334D01*
X33111904Y30507143D01*
X33073809Y30392858D01*
X32997619Y30316667D01*
X32921428Y30278572D01*
X32769047Y30240477D01*
X32654761Y30240477D01*
X32502380Y30278572D01*
X32426190Y30316667D01*
X32350000Y30392858D01*
X32311904Y30507143D01*
X32311904Y30583334D01*
X32350000Y30697620D01*
X32388095Y30735715D01*
X33111904Y31497620D02*
X33111904Y31040477D01*
X33111904Y31269048D02*
X32311904Y31269048D01*
X32426190Y31192858D01*
X32502380Y31116667D01*
X32540476Y31040477D01*
X32578571Y32183334D02*
X33111904Y32183334D01*
X32273809Y31992858D02*
X32845238Y31802381D01*
X32845238Y32297620D01*
X37485714Y44464286D02*
X37447619Y44426191D01*
X37333333Y44388096D01*
X37257142Y44388096D01*
X37142857Y44426191D01*
X37066666Y44502381D01*
X37028571Y44578572D01*
X36990476Y44730953D01*
X36990476Y44845239D01*
X37028571Y44997620D01*
X37066666Y45073810D01*
X37142857Y45150000D01*
X37257142Y45188096D01*
X37333333Y45188096D01*
X37447619Y45150000D01*
X37485714Y45111905D01*
X38247619Y44388096D02*
X37790476Y44388096D01*
X38019047Y44388096D02*
X38019047Y45188096D01*
X37942857Y45073810D01*
X37866666Y44997620D01*
X37790476Y44959524D01*
X38933333Y45188096D02*
X38780952Y45188096D01*
X38704761Y45150000D01*
X38666666Y45111905D01*
X38590476Y44997620D01*
X38552380Y44845239D01*
X38552380Y44540477D01*
X38590476Y44464286D01*
X38628571Y44426191D01*
X38704761Y44388096D01*
X38857142Y44388096D01*
X38933333Y44426191D01*
X38971428Y44464286D01*
X39009523Y44540477D01*
X39009523Y44730953D01*
X38971428Y44807143D01*
X38933333Y44845239D01*
X38857142Y44883334D01*
X38704761Y44883334D01*
X38628571Y44845239D01*
X38590476Y44807143D01*
X38552380Y44730953D01*
X74616666Y21138096D02*
X74350000Y21519048D01*
X74159523Y21138096D02*
X74159523Y21938096D01*
X74464285Y21938096D01*
X74540476Y21900000D01*
X74578571Y21861905D01*
X74616666Y21785715D01*
X74616666Y21671429D01*
X74578571Y21595239D01*
X74540476Y21557143D01*
X74464285Y21519048D01*
X74159523Y21519048D01*
X74921428Y21861905D02*
X74959523Y21900000D01*
X75035714Y21938096D01*
X75226190Y21938096D01*
X75302380Y21900000D01*
X75340476Y21861905D01*
X75378571Y21785715D01*
X75378571Y21709524D01*
X75340476Y21595239D01*
X74883333Y21138096D01*
X75378571Y21138096D01*
D18*
X54816666Y62733334D02*
X54116666Y62733334D01*
X54116666Y62900000D01*
X54150000Y63000000D01*
X54216666Y63066667D01*
X54283333Y63100000D01*
X54416666Y63133334D01*
X54516666Y63133334D01*
X54650000Y63100000D01*
X54716666Y63066667D01*
X54783333Y63000000D01*
X54816666Y62900000D01*
X54816666Y62733334D01*
X54183333Y63400000D02*
X54150000Y63433334D01*
X54116666Y63500000D01*
X54116666Y63666667D01*
X54150000Y63733334D01*
X54183333Y63766667D01*
X54250000Y63800000D01*
X54316666Y63800000D01*
X54416666Y63766667D01*
X54816666Y63366667D01*
X54816666Y63800000D01*
D17*
X63133333Y55750000D02*
X63100000Y55716667D01*
X63000000Y55683334D01*
X62933333Y55683334D01*
X62833333Y55716667D01*
X62766666Y55783334D01*
X62733333Y55850000D01*
X62700000Y55983334D01*
X62700000Y56083334D01*
X62733333Y56216667D01*
X62766666Y56283334D01*
X62833333Y56350000D01*
X62933333Y56383334D01*
X63000000Y56383334D01*
X63100000Y56350000D01*
X63133333Y56316667D01*
X63366666Y56383334D02*
X63800000Y56383334D01*
X63566666Y56116667D01*
X63666666Y56116667D01*
X63733333Y56083334D01*
X63766666Y56050000D01*
X63800000Y55983334D01*
X63800000Y55816667D01*
X63766666Y55750000D01*
X63733333Y55716667D01*
X63666666Y55683334D01*
X63466666Y55683334D01*
X63400000Y55716667D01*
X63366666Y55750000D01*
D18*
X74452380Y4761905D02*
X73452380Y4761905D01*
X73452380Y5000000D01*
X73500000Y5142858D01*
X73595238Y5238096D01*
X73690476Y5285715D01*
X73880952Y5333334D01*
X74023809Y5333334D01*
X74214285Y5285715D01*
X74309523Y5238096D01*
X74404761Y5142858D01*
X74452380Y5000000D01*
X74452380Y4761905D01*
X73452380Y6190477D02*
X73452380Y6000000D01*
X73500000Y5904762D01*
X73547619Y5857143D01*
X73690476Y5761905D01*
X73880952Y5714286D01*
X74261904Y5714286D01*
X74357142Y5761905D01*
X74404761Y5809524D01*
X74452380Y5904762D01*
X74452380Y6095239D01*
X74404761Y6190477D01*
X74357142Y6238096D01*
X74261904Y6285715D01*
X74023809Y6285715D01*
X73928571Y6238096D01*
X73880952Y6190477D01*
X73833333Y6095239D01*
X73833333Y5904762D01*
X73880952Y5809524D01*
X73928571Y5761905D01*
X74023809Y5714286D01*
X58452380Y4761905D02*
X57452380Y4761905D01*
X57452380Y5000000D01*
X57500000Y5142858D01*
X57595238Y5238096D01*
X57690476Y5285715D01*
X57880952Y5333334D01*
X58023809Y5333334D01*
X58214285Y5285715D01*
X58309523Y5238096D01*
X58404761Y5142858D01*
X58452380Y5000000D01*
X58452380Y4761905D01*
X57880952Y5904762D02*
X57833333Y5809524D01*
X57785714Y5761905D01*
X57690476Y5714286D01*
X57642857Y5714286D01*
X57547619Y5761905D01*
X57500000Y5809524D01*
X57452380Y5904762D01*
X57452380Y6095239D01*
X57500000Y6190477D01*
X57547619Y6238096D01*
X57642857Y6285715D01*
X57690476Y6285715D01*
X57785714Y6238096D01*
X57833333Y6190477D01*
X57880952Y6095239D01*
X57880952Y5904762D01*
X57928571Y5809524D01*
X57976190Y5761905D01*
X58071428Y5714286D01*
X58261904Y5714286D01*
X58357142Y5761905D01*
X58404761Y5809524D01*
X58452380Y5904762D01*
X58452380Y6095239D01*
X58404761Y6190477D01*
X58357142Y6238096D01*
X58261904Y6285715D01*
X58071428Y6285715D01*
X57976190Y6238096D01*
X57928571Y6190477D01*
X57880952Y6095239D01*
D17*
X54485714Y9918096D02*
X54219047Y10299048D01*
X54028571Y9918096D02*
X54028571Y10718096D01*
X54333333Y10718096D01*
X54409523Y10680000D01*
X54447619Y10641905D01*
X54485714Y10565715D01*
X54485714Y10451429D01*
X54447619Y10375239D01*
X54409523Y10337143D01*
X54333333Y10299048D01*
X54028571Y10299048D01*
X55247619Y9918096D02*
X54790476Y9918096D01*
X55019047Y9918096D02*
X55019047Y10718096D01*
X54942857Y10603810D01*
X54866666Y10527620D01*
X54790476Y10489524D01*
X55628571Y9918096D02*
X55780952Y9918096D01*
X55857142Y9956191D01*
X55895238Y9994286D01*
X55971428Y10108572D01*
X56009523Y10260953D01*
X56009523Y10565715D01*
X55971428Y10641905D01*
X55933333Y10680000D01*
X55857142Y10718096D01*
X55704761Y10718096D01*
X55628571Y10680000D01*
X55590476Y10641905D01*
X55552380Y10565715D01*
X55552380Y10375239D01*
X55590476Y10299048D01*
X55628571Y10260953D01*
X55704761Y10222858D01*
X55857142Y10222858D01*
X55933333Y10260953D01*
X55971428Y10299048D01*
X56009523Y10375239D01*
D18*
X48066666Y61983334D02*
X47366666Y61983334D01*
X47366666Y62150000D01*
X47400000Y62250000D01*
X47466666Y62316667D01*
X47533333Y62350000D01*
X47666666Y62383334D01*
X47766666Y62383334D01*
X47900000Y62350000D01*
X47966666Y62316667D01*
X48033333Y62250000D01*
X48066666Y62150000D01*
X48066666Y61983334D01*
X48066666Y62716667D02*
X48066666Y62850000D01*
X48033333Y62916667D01*
X48000000Y62950000D01*
X47900000Y63016667D01*
X47766666Y63050000D01*
X47500000Y63050000D01*
X47433333Y63016667D01*
X47400000Y62983334D01*
X47366666Y62916667D01*
X47366666Y62783334D01*
X47400000Y62716667D01*
X47433333Y62683334D01*
X47500000Y62650000D01*
X47666666Y62650000D01*
X47733333Y62683334D01*
X47766666Y62716667D01*
X47800000Y62783334D01*
X47800000Y62916667D01*
X47766666Y62983334D01*
X47733333Y63016667D01*
X47666666Y63050000D01*
X25819047Y29619048D02*
X25819047Y29238096D01*
X25552380Y30038096D02*
X25819047Y29619048D01*
X26085714Y30038096D01*
X26314285Y29961905D02*
X26352380Y30000000D01*
X26428571Y30038096D01*
X26619047Y30038096D01*
X26695238Y30000000D01*
X26733333Y29961905D01*
X26771428Y29885715D01*
X26771428Y29809524D01*
X26733333Y29695239D01*
X26276190Y29238096D01*
X26771428Y29238096D01*
X46566666Y34400000D02*
X45866666Y34400000D01*
X45866666Y34566667D01*
X45900000Y34666667D01*
X45966666Y34733334D01*
X46033333Y34766667D01*
X46166666Y34800000D01*
X46266666Y34800000D01*
X46400000Y34766667D01*
X46466666Y34733334D01*
X46533333Y34666667D01*
X46566666Y34566667D01*
X46566666Y34400000D01*
X46566666Y35466667D02*
X46566666Y35066667D01*
X46566666Y35266667D02*
X45866666Y35266667D01*
X45966666Y35200000D01*
X46033333Y35133334D01*
X46066666Y35066667D01*
X46566666Y36133334D02*
X46566666Y35733334D01*
X46566666Y35933334D02*
X45866666Y35933334D01*
X45966666Y35866667D01*
X46033333Y35800000D01*
X46066666Y35733334D01*
D17*
X59542857Y53811905D02*
X59466666Y53850000D01*
X59390476Y53926191D01*
X59276190Y54040477D01*
X59200000Y54078572D01*
X59123809Y54078572D01*
X59161904Y53888096D02*
X59085714Y53926191D01*
X59009523Y54002381D01*
X58971428Y54154762D01*
X58971428Y54421429D01*
X59009523Y54573810D01*
X59085714Y54650000D01*
X59161904Y54688096D01*
X59314285Y54688096D01*
X59390476Y54650000D01*
X59466666Y54573810D01*
X59504761Y54421429D01*
X59504761Y54154762D01*
X59466666Y54002381D01*
X59390476Y53926191D01*
X59314285Y53888096D01*
X59161904Y53888096D01*
X60266666Y53888096D02*
X59809523Y53888096D01*
X60038095Y53888096D02*
X60038095Y54688096D01*
X59961904Y54573810D01*
X59885714Y54497620D01*
X59809523Y54459524D01*
X60533333Y54688096D02*
X61028571Y54688096D01*
X60761904Y54383334D01*
X60876190Y54383334D01*
X60952380Y54345239D01*
X60990476Y54307143D01*
X61028571Y54230953D01*
X61028571Y54040477D01*
X60990476Y53964286D01*
X60952380Y53926191D01*
X60876190Y53888096D01*
X60647619Y53888096D01*
X60571428Y53926191D01*
X60533333Y53964286D01*
X51735714Y36214286D02*
X51697619Y36176191D01*
X51583333Y36138096D01*
X51507142Y36138096D01*
X51392857Y36176191D01*
X51316666Y36252381D01*
X51278571Y36328572D01*
X51240476Y36480953D01*
X51240476Y36595239D01*
X51278571Y36747620D01*
X51316666Y36823810D01*
X51392857Y36900000D01*
X51507142Y36938096D01*
X51583333Y36938096D01*
X51697619Y36900000D01*
X51735714Y36861905D01*
X52040476Y36861905D02*
X52078571Y36900000D01*
X52154761Y36938096D01*
X52345238Y36938096D01*
X52421428Y36900000D01*
X52459523Y36861905D01*
X52497619Y36785715D01*
X52497619Y36709524D01*
X52459523Y36595239D01*
X52002380Y36138096D01*
X52497619Y36138096D01*
X53259523Y36138096D02*
X52802380Y36138096D01*
X53030952Y36138096D02*
X53030952Y36938096D01*
X52954761Y36823810D01*
X52878571Y36747620D01*
X52802380Y36709524D01*
X69542857Y23311905D02*
X69466666Y23350000D01*
X69390476Y23426191D01*
X69276190Y23540477D01*
X69200000Y23578572D01*
X69123809Y23578572D01*
X69161904Y23388096D02*
X69085714Y23426191D01*
X69009523Y23502381D01*
X68971428Y23654762D01*
X68971428Y23921429D01*
X69009523Y24073810D01*
X69085714Y24150000D01*
X69161904Y24188096D01*
X69314285Y24188096D01*
X69390476Y24150000D01*
X69466666Y24073810D01*
X69504761Y23921429D01*
X69504761Y23654762D01*
X69466666Y23502381D01*
X69390476Y23426191D01*
X69314285Y23388096D01*
X69161904Y23388096D01*
X70266666Y23388096D02*
X69809523Y23388096D01*
X70038095Y23388096D02*
X70038095Y24188096D01*
X69961904Y24073810D01*
X69885714Y23997620D01*
X69809523Y23959524D01*
X70571428Y24111905D02*
X70609523Y24150000D01*
X70685714Y24188096D01*
X70876190Y24188096D01*
X70952380Y24150000D01*
X70990476Y24111905D01*
X71028571Y24035715D01*
X71028571Y23959524D01*
X70990476Y23845239D01*
X70533333Y23388096D01*
X71028571Y23388096D01*
X59542857Y23311905D02*
X59466666Y23350000D01*
X59390476Y23426191D01*
X59276190Y23540477D01*
X59200000Y23578572D01*
X59123809Y23578572D01*
X59161904Y23388096D02*
X59085714Y23426191D01*
X59009523Y23502381D01*
X58971428Y23654762D01*
X58971428Y23921429D01*
X59009523Y24073810D01*
X59085714Y24150000D01*
X59161904Y24188096D01*
X59314285Y24188096D01*
X59390476Y24150000D01*
X59466666Y24073810D01*
X59504761Y23921429D01*
X59504761Y23654762D01*
X59466666Y23502381D01*
X59390476Y23426191D01*
X59314285Y23388096D01*
X59161904Y23388096D01*
X60266666Y23388096D02*
X59809523Y23388096D01*
X60038095Y23388096D02*
X60038095Y24188096D01*
X59961904Y24073810D01*
X59885714Y23997620D01*
X59809523Y23959524D01*
X60952380Y23921429D02*
X60952380Y23388096D01*
X60761904Y24226191D02*
X60571428Y23654762D01*
X61066666Y23654762D01*
D18*
X46566666Y44650000D02*
X45866666Y44650000D01*
X45866666Y44816667D01*
X45900000Y44916667D01*
X45966666Y44983334D01*
X46033333Y45016667D01*
X46166666Y45050000D01*
X46266666Y45050000D01*
X46400000Y45016667D01*
X46466666Y44983334D01*
X46533333Y44916667D01*
X46566666Y44816667D01*
X46566666Y44650000D01*
X46566666Y45716667D02*
X46566666Y45316667D01*
X46566666Y45516667D02*
X45866666Y45516667D01*
X45966666Y45450000D01*
X46033333Y45383334D01*
X46066666Y45316667D01*
X45933333Y45983334D02*
X45900000Y46016667D01*
X45866666Y46083334D01*
X45866666Y46250000D01*
X45900000Y46316667D01*
X45933333Y46350000D01*
X46000000Y46383334D01*
X46066666Y46383334D01*
X46166666Y46350000D01*
X46566666Y45950000D01*
X46566666Y46383334D01*
D17*
X47883333Y38383334D02*
X47883333Y37816667D01*
X47916666Y37750000D01*
X47950000Y37716667D01*
X48016666Y37683334D01*
X48150000Y37683334D01*
X48216666Y37716667D01*
X48250000Y37750000D01*
X48283333Y37816667D01*
X48283333Y38383334D01*
X48983333Y37683334D02*
X48583333Y37683334D01*
X48783333Y37683334D02*
X48783333Y38383334D01*
X48716666Y38283334D01*
X48650000Y38216667D01*
X48583333Y38183334D01*
X49250000Y38316667D02*
X49283333Y38350000D01*
X49350000Y38383334D01*
X49516666Y38383334D01*
X49583333Y38350000D01*
X49616666Y38316667D01*
X49650000Y38250000D01*
X49650000Y38183334D01*
X49616666Y38083334D01*
X49216666Y37683334D01*
X49650000Y37683334D01*
X47883333Y28133334D02*
X47883333Y27566667D01*
X47916666Y27500000D01*
X47950000Y27466667D01*
X48016666Y27433334D01*
X48150000Y27433334D01*
X48216666Y27466667D01*
X48250000Y27500000D01*
X48283333Y27566667D01*
X48283333Y28133334D01*
X48983333Y27433334D02*
X48583333Y27433334D01*
X48783333Y27433334D02*
X48783333Y28133334D01*
X48716666Y28033334D01*
X48650000Y27966667D01*
X48583333Y27933334D01*
X49650000Y27433334D02*
X49250000Y27433334D01*
X49450000Y27433334D02*
X49450000Y28133334D01*
X49383333Y28033334D01*
X49316666Y27966667D01*
X49250000Y27933334D01*
X69542857Y53811905D02*
X69466666Y53850000D01*
X69390476Y53926191D01*
X69276190Y54040477D01*
X69200000Y54078572D01*
X69123809Y54078572D01*
X69161904Y53888096D02*
X69085714Y53926191D01*
X69009523Y54002381D01*
X68971428Y54154762D01*
X68971428Y54421429D01*
X69009523Y54573810D01*
X69085714Y54650000D01*
X69161904Y54688096D01*
X69314285Y54688096D01*
X69390476Y54650000D01*
X69466666Y54573810D01*
X69504761Y54421429D01*
X69504761Y54154762D01*
X69466666Y54002381D01*
X69390476Y53926191D01*
X69314285Y53888096D01*
X69161904Y53888096D01*
X70266666Y53888096D02*
X69809523Y53888096D01*
X70038095Y53888096D02*
X70038095Y54688096D01*
X69961904Y54573810D01*
X69885714Y54497620D01*
X69809523Y54459524D01*
X71028571Y53888096D02*
X70571428Y53888096D01*
X70800000Y53888096D02*
X70800000Y54688096D01*
X70723809Y54573810D01*
X70647619Y54497620D01*
X70571428Y54459524D01*
X51735714Y46464286D02*
X51697619Y46426191D01*
X51583333Y46388096D01*
X51507142Y46388096D01*
X51392857Y46426191D01*
X51316666Y46502381D01*
X51278571Y46578572D01*
X51240476Y46730953D01*
X51240476Y46845239D01*
X51278571Y46997620D01*
X51316666Y47073810D01*
X51392857Y47150000D01*
X51507142Y47188096D01*
X51583333Y47188096D01*
X51697619Y47150000D01*
X51735714Y47111905D01*
X52040476Y47111905D02*
X52078571Y47150000D01*
X52154761Y47188096D01*
X52345238Y47188096D01*
X52421428Y47150000D01*
X52459523Y47111905D01*
X52497619Y47035715D01*
X52497619Y46959524D01*
X52459523Y46845239D01*
X52002380Y46388096D01*
X52497619Y46388096D01*
X52802380Y47111905D02*
X52840476Y47150000D01*
X52916666Y47188096D01*
X53107142Y47188096D01*
X53183333Y47150000D01*
X53221428Y47111905D01*
X53259523Y47035715D01*
X53259523Y46959524D01*
X53221428Y46845239D01*
X52764285Y46388096D01*
X53259523Y46388096D01*
D11*
X86750000Y64250000D02*
X85750000Y64250000D01*
X85200000Y54400000D02*
X76800000Y54400000D01*
X86250000Y64750000D02*
X86250000Y63750000D01*
X87250000Y59000000D02*
G75*
G03*
X87250000Y59000000I-6250000J0D01*
G01*
D13*
X89100000Y52600000D02*
X88100000Y52600000D01*
X88100000Y53400000D02*
X89100000Y53400000D01*
D18*
X53875000Y57250000D02*
X54625000Y57250000D01*
X54250000Y56875000D02*
X54250000Y57625000D01*
X54750000Y61250000D02*
X58250000Y61250000D01*
X59000000Y59500000D02*
G75*
G03*
X59000000Y59500000I-2500000J0D01*
G01*
D13*
X78250000Y15600000D02*
X77250000Y15600000D01*
X77250000Y16400000D02*
X78250000Y16400000D01*
D20*
X9700000Y76650000D02*
X12300000Y76650000D01*
X12300000Y76650000D02*
X12300000Y71350000D01*
X35700000Y76650000D02*
X38300000Y76650000D01*
X13200000Y61200000D02*
X34800000Y61200000D01*
X13900000Y58300000D02*
X13900000Y55700000D01*
X13200000Y78000000D02*
X13200000Y61200000D01*
X11200000Y58300000D02*
X11200000Y55700000D01*
X9700000Y71350000D02*
X9700000Y76650000D01*
X38300000Y76650000D02*
X38300000Y71350000D01*
X38300000Y71350000D02*
X35700000Y71350000D01*
X39000000Y78000000D02*
X9000000Y78000000D01*
X12300000Y71350000D02*
X9700000Y71350000D01*
X36800000Y58300000D02*
X11200000Y58300000D01*
X34800000Y61200000D02*
X34800000Y78000000D01*
X36800000Y55700000D02*
X36800000Y58300000D01*
X35700000Y71350000D02*
X35700000Y76650000D01*
X9000000Y55000000D02*
X39000000Y55000000D01*
X9000000Y78000000D02*
X9000000Y55000000D01*
X39000000Y55000000D02*
X39000000Y78000000D01*
X11200000Y55700000D02*
X36800000Y55700000D01*
X92850000Y61250000D02*
X92850000Y56750000D01*
X89150000Y61250000D02*
X89830000Y61250000D01*
X89150000Y56750000D02*
X89830000Y56750000D01*
D11*
X89200000Y58000000D02*
X92800000Y58000000D01*
D20*
X92170000Y61250000D02*
X92850000Y61250000D01*
X89150000Y56750000D02*
X89150000Y61250000D01*
X92850000Y56750000D02*
X92170000Y56750000D01*
D11*
X90150000Y9750000D02*
X88350000Y9750000D01*
X90150000Y11900000D02*
X88350000Y11900000D01*
X90150000Y11900000D02*
X90150000Y8700000D01*
X89950000Y9750000D02*
X89950000Y9100000D01*
X88350000Y11900000D02*
X88350000Y8700000D01*
X88550000Y9750000D02*
X88550000Y9100000D01*
X90150000Y8900000D02*
X88350000Y8900000D01*
X90150000Y9100000D02*
X88350000Y9100000D01*
X90150000Y8700000D02*
X88350000Y8700000D01*
X87700000Y9750000D02*
X87700000Y9100000D01*
X86300000Y9750000D02*
X86300000Y9100000D01*
X87900000Y8700000D02*
X86100000Y8700000D01*
X87900000Y8900000D02*
X86100000Y8900000D01*
X87900000Y11900000D02*
X87900000Y8700000D01*
X87900000Y9100000D02*
X86100000Y9100000D01*
X87900000Y11900000D02*
X86100000Y11900000D01*
X87900000Y9750000D02*
X86100000Y9750000D01*
X86100000Y11900000D02*
X86100000Y8700000D01*
X63400000Y5500000D02*
X62600000Y4700000D01*
X62600000Y4700000D02*
X62600000Y6300000D01*
X62600000Y6300000D02*
X63400000Y5500000D01*
X64800000Y5500000D02*
G75*
G03*
X64800000Y5500000I-1800000J0D01*
G01*
X41600000Y71700000D02*
X41600000Y73300000D01*
X42400000Y72500000D02*
X41600000Y71700000D01*
X41600000Y73300000D02*
X42400000Y72500000D01*
X43800000Y72500000D02*
G75*
G03*
X43800000Y72500000I-1800000J0D01*
G01*
D21*
X87500880Y78000500D02*
X78499120Y78000500D01*
X87500880Y81500620D02*
X78499120Y81500620D01*
X78499120Y66999760D02*
X87500880Y66999760D01*
X87500880Y66999760D02*
X87500880Y81500620D01*
X78499120Y81500620D02*
X78499120Y66999760D01*
D11*
X74580000Y78000000D02*
X74580000Y70400000D01*
X74580000Y77250000D02*
X63420000Y77250000D01*
X74580000Y72000000D02*
X63420000Y72000000D01*
X74580000Y70400000D02*
X63420000Y70400000D01*
X63420000Y78000000D02*
X63420000Y70400000D01*
X74580000Y78000000D02*
X63420000Y78000000D01*
D22*
X59100000Y65100000D02*
X59100000Y81500000D01*
X46900000Y65100000D02*
X46900000Y81500000D01*
X59100000Y81500000D02*
X46900000Y81500000D01*
X59100000Y65100000D02*
X46900000Y65100000D01*
X6600000Y50000000D02*
X6600000Y14000000D01*
X1400000Y14000000D02*
X1400000Y50000000D01*
X6600000Y14000000D02*
X1400000Y14000000D01*
X1400000Y50000000D02*
X6600000Y50000000D01*
X88400000Y50000000D02*
X93600000Y50000000D01*
X93600000Y50000000D02*
X93600000Y14000000D01*
X93600000Y14000000D02*
X88400000Y14000000D01*
X88400000Y14000000D02*
X88400000Y50000000D01*
D18*
X73800000Y10600000D02*
X73800000Y7400000D01*
X75200000Y7400000D02*
X75200000Y10600000D01*
X73800000Y7400000D02*
X75200000Y7400000D01*
X75200000Y10600000D02*
X73800000Y10600000D01*
X39650000Y27200000D02*
X39650000Y25800000D01*
X42850000Y25800000D02*
X42850000Y27200000D01*
X39650000Y25800000D02*
X42850000Y25800000D01*
X42850000Y27200000D02*
X39650000Y27200000D01*
X45100000Y66300000D02*
X45100000Y67700000D01*
X41900000Y66300000D02*
X45100000Y66300000D01*
X41900000Y67700000D02*
X41900000Y66300000D01*
X45100000Y67700000D02*
X41900000Y67700000D01*
X83150000Y26300000D02*
X83150000Y22700000D01*
X81500000Y22700000D02*
X83150000Y22700000D01*
X74850000Y22700000D02*
X74850000Y26300000D01*
X74850000Y26300000D02*
X76500000Y26300000D01*
X76500000Y22700000D02*
X74850000Y22700000D01*
X81500000Y26300000D02*
X83150000Y26300000D01*
D13*
X75050000Y16830000D02*
X74220000Y16830000D01*
X74220000Y16830000D02*
X74220000Y15670000D01*
X76780000Y16830000D02*
X76780000Y15670000D01*
X75950000Y16830000D02*
X76780000Y16830000D01*
X74220000Y15670000D02*
X75050000Y15670000D01*
X76780000Y15670000D02*
X75950000Y15670000D01*
X82200000Y17830000D02*
X83030000Y17830000D01*
X81300000Y17830000D02*
X80470000Y17830000D01*
X83030000Y16670000D02*
X82200000Y16670000D01*
X83030000Y17830000D02*
X83030000Y16670000D01*
X80470000Y16670000D02*
X81300000Y16670000D01*
X80470000Y17830000D02*
X80470000Y16670000D01*
X28080000Y53700000D02*
X28080000Y54530000D01*
X28080000Y52800000D02*
X28080000Y51970000D01*
X28080000Y51970000D02*
X26920000Y51970000D01*
X28080000Y54530000D02*
X26920000Y54530000D01*
X26920000Y54530000D02*
X26920000Y53700000D01*
X26920000Y51970000D02*
X26920000Y52800000D01*
X29580000Y51970000D02*
X29580000Y52800000D01*
X28420000Y54530000D02*
X29580000Y54530000D01*
X28420000Y53700000D02*
X28420000Y54530000D01*
X28420000Y52800000D02*
X28420000Y51970000D01*
X28420000Y51970000D02*
X29580000Y51970000D01*
X29580000Y54530000D02*
X29580000Y53700000D01*
X14170000Y39530000D02*
X14170000Y38700000D01*
X15330000Y38700000D02*
X15330000Y39530000D01*
X15330000Y37800000D02*
X15330000Y36970000D01*
X14170000Y36970000D02*
X14170000Y37800000D01*
X15330000Y36970000D02*
X14170000Y36970000D01*
X15330000Y39530000D02*
X14170000Y39530000D01*
X16830000Y38700000D02*
X16830000Y39530000D01*
X15670000Y39530000D02*
X15670000Y38700000D01*
X16830000Y39530000D02*
X15670000Y39530000D01*
X16830000Y37800000D02*
X16830000Y36970000D01*
X15670000Y36970000D02*
X15670000Y37800000D01*
X16830000Y36970000D02*
X15670000Y36970000D01*
X64280000Y9580000D02*
X63450000Y9580000D01*
X64280000Y8420000D02*
X64280000Y9580000D01*
X61720000Y9580000D02*
X62550000Y9580000D01*
X62550000Y8420000D02*
X61720000Y8420000D01*
X61720000Y8420000D02*
X61720000Y9580000D01*
X63450000Y8420000D02*
X64280000Y8420000D01*
X69720000Y8420000D02*
X69720000Y9580000D01*
X72280000Y9580000D02*
X71450000Y9580000D01*
X72280000Y8420000D02*
X72280000Y9580000D01*
X69720000Y9580000D02*
X70550000Y9580000D01*
X71450000Y8420000D02*
X72280000Y8420000D01*
X70550000Y8420000D02*
X69720000Y8420000D01*
X86420000Y5470000D02*
X86420000Y6300000D01*
X86420000Y8030000D02*
X86420000Y7200000D01*
X87580000Y5470000D02*
X86420000Y5470000D01*
X87580000Y7200000D02*
X87580000Y8030000D01*
X87580000Y8030000D02*
X86420000Y8030000D01*
X87580000Y6300000D02*
X87580000Y5470000D01*
X40170000Y65720000D02*
X41330000Y65720000D01*
X40170000Y68280000D02*
X41330000Y68280000D01*
X40170000Y67450000D02*
X40170000Y68280000D01*
X41330000Y68280000D02*
X41330000Y67450000D01*
X40170000Y66550000D02*
X40170000Y65720000D01*
X41330000Y65720000D02*
X41330000Y66550000D01*
D20*
X3150000Y55900000D02*
X5850000Y55900000D01*
X7600000Y55900000D02*
X7600000Y62100000D01*
X1400000Y62100000D02*
X1400000Y55900000D01*
X5850000Y62100000D02*
X3150000Y62100000D01*
X6250000Y59000000D02*
G75*
G03*
X6250000Y59000000I-1750000J0D01*
G01*
X84100000Y5650000D02*
X84100000Y8350000D01*
X84100000Y10100000D02*
X77900000Y10100000D01*
X77900000Y3900000D02*
X84100000Y3900000D01*
X77900000Y8350000D02*
X77900000Y5650000D01*
X82750000Y7000000D02*
G75*
G03*
X82750000Y7000000I-1750000J0D01*
G01*
D18*
X37500000Y7000000D02*
X30000000Y500000D01*
X37500000Y28000000D02*
X37500000Y7000000D01*
X12500000Y7000000D02*
X20000000Y500000D01*
X12500000Y28000000D02*
X12500000Y7000000D01*
X30000000Y500000D02*
X20000000Y500000D01*
X12500000Y28000000D02*
X37500000Y28000000D01*
D13*
X77500000Y17000000D02*
X79000000Y17000000D01*
X77500000Y17000000D02*
X77500000Y20000000D01*
X79000000Y20000000D02*
X79000000Y17000000D01*
X77500000Y20000000D02*
X79000000Y20000000D01*
X78250000Y17000000D02*
X79000000Y17750000D01*
X81170000Y18220000D02*
X81170000Y19050000D01*
X81170000Y20780000D02*
X81170000Y19950000D01*
X82330000Y19050000D02*
X82330000Y18220000D01*
X82330000Y20780000D02*
X81170000Y20780000D01*
X82330000Y18220000D02*
X81170000Y18220000D01*
X82330000Y19950000D02*
X82330000Y20780000D01*
D20*
X49100000Y10100000D02*
X42900000Y10100000D01*
X49100000Y5650000D02*
X49100000Y8350000D01*
X42900000Y3900000D02*
X49100000Y3900000D01*
X42900000Y8350000D02*
X42900000Y5650000D01*
X47750000Y7000000D02*
G75*
G03*
X47750000Y7000000I-1750000J0D01*
G01*
D18*
X42000000Y51375000D02*
X42000000Y60125000D01*
X41000000Y60125000D02*
X41750000Y60125000D01*
X51500000Y51375000D02*
X51500000Y60125000D01*
X41750000Y60125000D02*
X51750000Y60125000D01*
X41000000Y51375000D02*
X41000000Y60125000D01*
X51750000Y60125000D02*
X52500000Y60125000D01*
X41750000Y51375000D02*
X41000000Y51375000D01*
X52500000Y60125000D02*
X52500000Y51375000D01*
X52500000Y51375000D02*
X51750000Y51375000D01*
X51750000Y51375000D02*
X41750000Y51375000D01*
D13*
X31830000Y34300000D02*
X31830000Y33470000D01*
X31830000Y36030000D02*
X30670000Y36030000D01*
X31830000Y35200000D02*
X31830000Y36030000D01*
X30670000Y33470000D02*
X30670000Y34300000D01*
X30670000Y36030000D02*
X30670000Y35200000D01*
X31830000Y33470000D02*
X30670000Y33470000D01*
X35330000Y47470000D02*
X34170000Y47470000D01*
X35330000Y50030000D02*
X34170000Y50030000D01*
X34170000Y47470000D02*
X34170000Y48300000D01*
X34170000Y50030000D02*
X34170000Y49200000D01*
X35330000Y49200000D02*
X35330000Y50030000D01*
X35330000Y48300000D02*
X35330000Y47470000D01*
X32670000Y47470000D02*
X32670000Y48300000D01*
X32670000Y50030000D02*
X32670000Y49200000D01*
X33830000Y50030000D02*
X32670000Y50030000D01*
X33830000Y47470000D02*
X32670000Y47470000D01*
X33830000Y48300000D02*
X33830000Y47470000D01*
X33830000Y49200000D02*
X33830000Y50030000D01*
X13530000Y46330000D02*
X12700000Y46330000D01*
X10970000Y46330000D02*
X11800000Y46330000D01*
X13530000Y45170000D02*
X13530000Y46330000D01*
X11800000Y45170000D02*
X10970000Y45170000D01*
X12700000Y45170000D02*
X13530000Y45170000D01*
X10970000Y45170000D02*
X10970000Y46330000D01*
X12420000Y49280000D02*
X12420000Y48450000D01*
X13580000Y47550000D02*
X13580000Y46720000D01*
X13580000Y49280000D02*
X12420000Y49280000D01*
X12420000Y46720000D02*
X12420000Y47550000D01*
X13580000Y48450000D02*
X13580000Y49280000D01*
X13580000Y46720000D02*
X12420000Y46720000D01*
D11*
X30100000Y31300000D02*
X30100000Y34300000D01*
X30100000Y34300000D02*
X26300000Y34300000D01*
X26300000Y31300000D02*
X30100000Y31300000D01*
X26300000Y34300000D02*
X26300000Y31300000D01*
D13*
X35150000Y33800000D02*
X35150000Y31200000D01*
X42850000Y33800000D02*
X35150000Y33800000D01*
X42850000Y31200000D02*
X42850000Y33800000D01*
X35150000Y31200000D02*
X42850000Y31200000D01*
X37750000Y33750000D02*
X37750000Y31250000D01*
D11*
X20650000Y46450000D02*
X15350000Y46450000D01*
X20650000Y50550000D02*
X20650000Y46450000D01*
X15350000Y46450000D02*
X15350000Y50550000D01*
X15350000Y50550000D02*
X20650000Y50550000D01*
X16750000Y47250000D02*
G75*
G03*
X16750000Y47250000I-500000J0D01*
G01*
D13*
X14100000Y48250000D02*
X14100000Y49250000D01*
X14900000Y49250000D02*
X14900000Y48250000D01*
D20*
X27890000Y38390000D02*
X27890000Y39040000D01*
X34460000Y38390000D02*
X35110000Y38390000D01*
X28540000Y45610000D02*
X27890000Y45610000D01*
X28540000Y38390000D02*
X27890000Y38390000D01*
X35110000Y45610000D02*
X35110000Y44960000D01*
X34460000Y45610000D02*
X35110000Y45610000D01*
X35110000Y38390000D02*
X35110000Y39040000D01*
D13*
X39000000Y40200000D02*
X38000000Y40200000D01*
X38000000Y41000000D02*
X39000000Y41000000D01*
X30900000Y49500000D02*
X30900000Y48500000D01*
X30100000Y48500000D02*
X30100000Y49500000D01*
X23750000Y39900000D02*
X24750000Y39900000D01*
X24750000Y39100000D02*
X23750000Y39100000D01*
X32150000Y49500000D02*
X32150000Y48500000D01*
X31350000Y48500000D02*
X31350000Y49500000D01*
X25000000Y46400000D02*
X26000000Y46400000D01*
X26000000Y45600000D02*
X25000000Y45600000D01*
X33350000Y18500000D02*
X33350000Y19500000D01*
X34150000Y19500000D02*
X34150000Y18500000D01*
X36650000Y48500000D02*
X36650000Y47500000D01*
X35850000Y47500000D02*
X35850000Y48500000D01*
X38500000Y46850000D02*
X37500000Y46850000D01*
X37500000Y47650000D02*
X38500000Y47650000D01*
X34400000Y34000000D02*
X34400000Y33000000D01*
X33600000Y33000000D02*
X33600000Y34000000D01*
X30850000Y31750000D02*
X30850000Y32750000D01*
X31650000Y32750000D02*
X31650000Y31750000D01*
X25650000Y33000000D02*
X25650000Y32000000D01*
X24850000Y32000000D02*
X24850000Y33000000D01*
X32350000Y33000000D02*
X32350000Y34000000D01*
X33150000Y34000000D02*
X33150000Y33000000D01*
X38500000Y45600000D02*
X37500000Y45600000D01*
X37500000Y46400000D02*
X38500000Y46400000D01*
X75330000Y18220000D02*
X74170000Y18220000D01*
X75330000Y20780000D02*
X74170000Y20780000D01*
X75330000Y19950000D02*
X75330000Y20780000D01*
X74170000Y20780000D02*
X74170000Y19950000D01*
X75330000Y19050000D02*
X75330000Y18220000D01*
X74170000Y18220000D02*
X74170000Y19050000D01*
D11*
X58400000Y62350000D02*
X55200000Y62350000D01*
X56250000Y62350000D02*
X56250000Y64150000D01*
X56250000Y63950000D02*
X55600000Y63950000D01*
X58400000Y64150000D02*
X55200000Y64150000D01*
X56250000Y62550000D02*
X55600000Y62550000D01*
X55600000Y62350000D02*
X55600000Y64150000D01*
X58400000Y62350000D02*
X58400000Y64150000D01*
X55400000Y62350000D02*
X55400000Y64150000D01*
X55200000Y62350000D02*
X55200000Y64150000D01*
X66150000Y58000000D02*
X60350000Y58000000D01*
X66750000Y64750000D02*
X66750000Y63750000D01*
X67250000Y64250000D02*
X66250000Y64250000D01*
X67250000Y60750000D02*
G75*
G03*
X67250000Y60750000I-4000000J0D01*
G01*
X70600000Y6300000D02*
X71400000Y5500000D01*
X70600000Y4700000D02*
X70600000Y6300000D01*
X71400000Y5500000D02*
X70600000Y4700000D01*
X72800000Y5500000D02*
G75*
G03*
X72800000Y5500000I-1800000J0D01*
G01*
X54600000Y6300000D02*
X55400000Y5500000D01*
X54600000Y4700000D02*
X54600000Y6300000D01*
X55400000Y5500000D02*
X54600000Y4700000D01*
X56800000Y5500000D02*
G75*
G03*
X56800000Y5500000I-1800000J0D01*
G01*
D13*
X53720000Y9580000D02*
X54550000Y9580000D01*
X53720000Y8420000D02*
X53720000Y9580000D01*
X56280000Y8420000D02*
X56280000Y9580000D01*
X54550000Y8420000D02*
X53720000Y8420000D01*
X56280000Y9580000D02*
X55450000Y9580000D01*
X55450000Y8420000D02*
X56280000Y8420000D01*
D11*
X50150000Y61100000D02*
X48350000Y61100000D01*
X48350000Y63900000D02*
X48350000Y60700000D01*
X50150000Y60900000D02*
X48350000Y60900000D01*
X48550000Y61750000D02*
X48550000Y61100000D01*
X50150000Y63900000D02*
X48350000Y63900000D01*
X50150000Y60700000D02*
X48350000Y60700000D01*
X50150000Y61750000D02*
X48350000Y61750000D01*
X49950000Y61750000D02*
X49950000Y61100000D01*
X50150000Y63900000D02*
X50150000Y60700000D01*
D20*
X27800000Y30300000D02*
X28600000Y30300000D01*
X27150000Y30300000D02*
X27400000Y30300000D01*
X29800000Y28900000D02*
X29000000Y28900000D01*
X27400000Y28900000D02*
X27150000Y28900000D01*
X28600000Y28900000D02*
X27800000Y28900000D01*
X29000000Y30300000D02*
X29800000Y30300000D01*
X30450000Y30300000D02*
X30450000Y28900000D01*
X30200000Y30300000D02*
X30450000Y30300000D01*
X27150000Y28900000D02*
X27150000Y30300000D01*
X30450000Y28900000D02*
X30200000Y28900000D01*
D11*
X47350000Y36150000D02*
X47350000Y34350000D01*
X50550000Y36150000D02*
X50550000Y34350000D01*
X49500000Y34550000D02*
X50150000Y34550000D01*
X49500000Y35950000D02*
X50150000Y35950000D01*
X49500000Y36150000D02*
X49500000Y34350000D01*
X50350000Y36150000D02*
X50350000Y34350000D01*
X50150000Y36150000D02*
X50150000Y34350000D01*
X47350000Y34350000D02*
X50550000Y34350000D01*
X47350000Y36150000D02*
X50550000Y36150000D01*
D18*
X56600000Y52500000D02*
X56600000Y47000000D01*
X63400000Y47000000D02*
X63400000Y52500000D01*
X63400000Y52500000D02*
X63100000Y52500000D01*
X56900000Y52500000D02*
X56600000Y52500000D01*
X56600000Y47000000D02*
X63400000Y47000000D01*
D13*
X52750000Y34850000D02*
X51750000Y34850000D01*
X51750000Y35650000D02*
X52750000Y35650000D01*
D18*
X66900000Y34500000D02*
X66600000Y34500000D01*
X73400000Y34500000D02*
X73100000Y34500000D01*
X73400000Y29000000D02*
X73400000Y34500000D01*
X66600000Y29000000D02*
X73400000Y29000000D01*
X66600000Y34500000D02*
X66600000Y29000000D01*
X63400000Y34500000D02*
X63100000Y34500000D01*
X63400000Y29000000D02*
X63400000Y34500000D01*
X56600000Y34500000D02*
X56600000Y29000000D01*
X56600000Y29000000D02*
X63400000Y29000000D01*
X56900000Y34500000D02*
X56600000Y34500000D01*
D11*
X50150000Y46400000D02*
X50150000Y44600000D01*
X47350000Y44600000D02*
X50550000Y44600000D01*
X49500000Y46400000D02*
X49500000Y44600000D01*
X50350000Y46400000D02*
X50350000Y44600000D01*
X49500000Y46200000D02*
X50150000Y46200000D01*
X47350000Y46400000D02*
X47350000Y44600000D01*
X47350000Y46400000D02*
X50550000Y46400000D01*
X49500000Y44800000D02*
X50150000Y44800000D01*
X50550000Y46400000D02*
X50550000Y44600000D01*
X50800000Y38850000D02*
X46700000Y38850000D01*
X46700000Y44150000D02*
X50800000Y44150000D01*
X46700000Y38850000D02*
X46700000Y44150000D01*
X50800000Y44150000D02*
X50800000Y38850000D01*
X48000000Y43250000D02*
G75*
G03*
X48000000Y43250000I-500000J0D01*
G01*
X46700000Y33900000D02*
X50800000Y33900000D01*
X46700000Y28600000D02*
X46700000Y33900000D01*
X50800000Y28600000D02*
X46700000Y28600000D01*
X50800000Y33900000D02*
X50800000Y28600000D01*
X48000000Y33000000D02*
G75*
G03*
X48000000Y33000000I-500000J0D01*
G01*
D18*
X66900000Y52500000D02*
X66600000Y52500000D01*
X66600000Y47000000D02*
X73400000Y47000000D01*
X73400000Y47000000D02*
X73400000Y52500000D01*
X73400000Y52500000D02*
X73100000Y52500000D01*
X66600000Y52500000D02*
X66600000Y47000000D01*
D13*
X51750000Y45900000D02*
X52750000Y45900000D01*
X52750000Y45100000D02*
X51750000Y45100000D01*
%LPC*%
D23*
X81000000Y61500000D03*
X81000000Y56500000D03*
D24*
X89075000Y53000000D03*
X88125000Y53000000D03*
D25*
X56500000Y58500000D03*
X56500000Y60500000D03*
D24*
X77275000Y16000000D03*
X78225000Y16000000D03*
D26*
X12570000Y57000000D03*
D23*
X15110000Y57000000D03*
X17650000Y57000000D03*
X20190000Y57000000D03*
X22730000Y57000000D03*
X25270000Y57000000D03*
X27810000Y57000000D03*
X30350000Y57000000D03*
X32890000Y57000000D03*
X35430000Y57000000D03*
X37000000Y72730000D03*
X37000000Y75270000D03*
X11000000Y75270000D03*
X11000000Y72730000D03*
D27*
X91000000Y56675000D03*
X91000000Y61325000D03*
D28*
X89250000Y8975000D03*
X89250000Y12025000D03*
X87000000Y8975000D03*
X87000000Y12025000D03*
D29*
X64270000Y5500000D03*
X61730000Y5500000D03*
X43270000Y72500000D03*
X40730000Y72500000D03*
D30*
X92000000Y69000000D03*
X92000000Y3000000D03*
X3000000Y69000000D03*
X3000000Y3000000D03*
D31*
X83000000Y67799860D03*
X83000000Y73799340D03*
D32*
X78301000Y70799600D03*
D33*
X71540000Y74600000D03*
X66460000Y74600000D03*
D29*
X51750000Y66290000D03*
X54250000Y66290000D03*
X54250000Y68290000D03*
X51750000Y68290000D03*
D34*
X46980000Y71000000D03*
X59020000Y71000000D03*
D26*
X2730000Y48510000D03*
D23*
X5270000Y48510000D03*
X2730000Y45970000D03*
X5270000Y45970000D03*
X2730000Y43430000D03*
X5270000Y43430000D03*
X2730000Y40890000D03*
X5270000Y40890000D03*
X2730000Y38350000D03*
X5270000Y38350000D03*
X2730000Y35810000D03*
X5270000Y35810000D03*
X2730000Y33270000D03*
X5270000Y33270000D03*
X2730000Y30730000D03*
X5270000Y30730000D03*
X2730000Y28190000D03*
X5270000Y28190000D03*
X2730000Y25650000D03*
X5270000Y25650000D03*
X2730000Y23110000D03*
X5270000Y23110000D03*
X2730000Y20570000D03*
X5270000Y20570000D03*
X2730000Y18030000D03*
X5270000Y18030000D03*
X2730000Y15490000D03*
X5270000Y15490000D03*
D26*
X89730000Y48510000D03*
D23*
X92270000Y48510000D03*
X89730000Y45970000D03*
X92270000Y45970000D03*
X89730000Y43430000D03*
X92270000Y43430000D03*
X89730000Y40890000D03*
X92270000Y40890000D03*
X89730000Y38350000D03*
X92270000Y38350000D03*
X89730000Y35810000D03*
X92270000Y35810000D03*
X89730000Y33270000D03*
X92270000Y33270000D03*
X89730000Y30730000D03*
X92270000Y30730000D03*
X89730000Y28190000D03*
X92270000Y28190000D03*
X89730000Y25650000D03*
X92270000Y25650000D03*
X89730000Y23110000D03*
X92270000Y23110000D03*
X89730000Y20570000D03*
X92270000Y20570000D03*
X89730000Y18030000D03*
X92270000Y18030000D03*
X89730000Y15490000D03*
X92270000Y15490000D03*
D35*
X75550000Y8050000D03*
X75550000Y9950000D03*
X73450000Y9000000D03*
D36*
X42200000Y27550000D03*
X40300000Y27550000D03*
X41250000Y25450000D03*
X42550000Y65950000D03*
X44450000Y65950000D03*
X43500000Y68050000D03*
D37*
X75800000Y24500000D03*
X82200000Y24500000D03*
D38*
X74700000Y16250000D03*
X76300000Y16250000D03*
X80950000Y17250000D03*
X82550000Y17250000D03*
D39*
X27500000Y54050000D03*
X27500000Y52450000D03*
X29000000Y52450000D03*
X29000000Y54050000D03*
X14750000Y39050000D03*
X14750000Y37450000D03*
X16250000Y39050000D03*
X16250000Y37450000D03*
D38*
X63800000Y9000000D03*
X62200000Y9000000D03*
X71800000Y9000000D03*
X70200000Y9000000D03*
D39*
X87000000Y7550000D03*
X87000000Y5950000D03*
X40750000Y66200000D03*
X40750000Y67800000D03*
D40*
X2250000Y55750000D03*
X2250000Y62250000D03*
X6750000Y55750000D03*
X6750000Y62250000D03*
X84250000Y4750000D03*
X77750000Y4750000D03*
X84250000Y9250000D03*
X77750000Y9250000D03*
D41*
X36000000Y8000000D03*
D25*
X36000000Y10000000D03*
X36000000Y12000000D03*
X36000000Y14000000D03*
X36000000Y16000000D03*
X36000000Y18000000D03*
X36000000Y20000000D03*
X36000000Y22000000D03*
X36000000Y24000000D03*
X36000000Y26000000D03*
X14000000Y26000000D03*
X14000000Y24000000D03*
X14000000Y22000000D03*
X14000000Y20000000D03*
X14000000Y18000000D03*
X14000000Y16000000D03*
X14000000Y14000000D03*
X14000000Y12000000D03*
X14000000Y10000000D03*
X14000000Y8000000D03*
D42*
X79450000Y17550000D03*
X79450000Y18500000D03*
X79450000Y19450000D03*
X77050000Y19450000D03*
X77050000Y17550000D03*
D39*
X81750000Y20300000D03*
X81750000Y18700000D03*
D40*
X49250000Y4750000D03*
X42750000Y4750000D03*
X49250000Y9250000D03*
X42750000Y9250000D03*
D26*
X49290000Y57625000D03*
D23*
X46750000Y57625000D03*
X44210000Y57625000D03*
D39*
X31250000Y35550000D03*
X31250000Y33950000D03*
X34750000Y49550000D03*
X34750000Y47950000D03*
X33250000Y49550000D03*
X33250000Y47950000D03*
D38*
X13050000Y45750000D03*
X11450000Y45750000D03*
D39*
X13000000Y48800000D03*
X13000000Y47200000D03*
D43*
X27100000Y31950000D03*
X29300000Y31950000D03*
X29300000Y33650000D03*
X27100000Y33650000D03*
D26*
X36460000Y32500000D03*
D23*
X39000000Y32500000D03*
X41540000Y32500000D03*
D44*
X16095000Y45700000D03*
X17365000Y45700000D03*
X18635000Y45700000D03*
X19905000Y45700000D03*
X19905000Y51300000D03*
X18635000Y51300000D03*
X17365000Y51300000D03*
X16095000Y51300000D03*
D45*
X14500000Y49225000D03*
X14500000Y48275000D03*
D46*
X28062500Y44600000D03*
X28062500Y44200000D03*
X28062500Y43800000D03*
X28062500Y43400000D03*
X28062500Y43000000D03*
X28062500Y42600000D03*
X28062500Y42200000D03*
X28062500Y41800000D03*
X28062500Y41400000D03*
X28062500Y41000000D03*
X28062500Y40600000D03*
X28062500Y40200000D03*
X28062500Y39800000D03*
X28062500Y39400000D03*
D47*
X28900000Y38562500D03*
X29300000Y38562500D03*
X29700000Y38562500D03*
X30100000Y38562500D03*
X30500000Y38562500D03*
X30900000Y38562500D03*
X31300000Y38562500D03*
X31700000Y38562500D03*
X32100000Y38562500D03*
X32500000Y38562500D03*
X32900000Y38562500D03*
X33300000Y38562500D03*
X33700000Y38562500D03*
X34100000Y38562500D03*
D46*
X34937500Y39400000D03*
X34937500Y39800000D03*
X34937500Y40200000D03*
X34937500Y40600000D03*
X34937500Y41000000D03*
X34937500Y41400000D03*
X34937500Y41800000D03*
X34937500Y42200000D03*
X34937500Y42600000D03*
X34937500Y43000000D03*
X34937500Y43400000D03*
X34937500Y43800000D03*
X34937500Y44200000D03*
X34937500Y44600000D03*
D47*
X34100000Y45437500D03*
X33700000Y45437500D03*
X33300000Y45437500D03*
X32900000Y45437500D03*
X32500000Y45437500D03*
X32100000Y45437500D03*
X31700000Y45437500D03*
X31300000Y45437500D03*
X30900000Y45437500D03*
X30500000Y45437500D03*
X30100000Y45437500D03*
X29700000Y45437500D03*
X29300000Y45437500D03*
X28900000Y45437500D03*
D48*
X31500000Y42000000D03*
D24*
X38025000Y40600000D03*
X38975000Y40600000D03*
D45*
X30500000Y48525000D03*
X30500000Y49475000D03*
D24*
X24725000Y39500000D03*
X23775000Y39500000D03*
D45*
X31750000Y48525000D03*
X31750000Y49475000D03*
D24*
X25975000Y46000000D03*
X25025000Y46000000D03*
D45*
X33750000Y18525000D03*
X33750000Y19475000D03*
X36250000Y47525000D03*
X36250000Y48475000D03*
D24*
X37525000Y47250000D03*
X38475000Y47250000D03*
D45*
X34000000Y33975000D03*
X34000000Y33025000D03*
X31250000Y32725000D03*
X31250000Y31775000D03*
X25250000Y32025000D03*
X25250000Y32975000D03*
X32750000Y33975000D03*
X32750000Y33025000D03*
D24*
X37525000Y46000000D03*
X38475000Y46000000D03*
D39*
X74750000Y20300000D03*
X74750000Y18700000D03*
D49*
X55475000Y63250000D03*
X58525000Y63250000D03*
D23*
X63250000Y62500000D03*
X63250000Y59000000D03*
D29*
X72270000Y5500000D03*
X69730000Y5500000D03*
X56270000Y5500000D03*
X53730000Y5500000D03*
D38*
X55800000Y9000000D03*
X54200000Y9000000D03*
D28*
X49250000Y60975000D03*
X49250000Y64025000D03*
D50*
X27600000Y29600000D03*
X28800000Y29600000D03*
X30000000Y29600000D03*
D51*
X92000000Y75000000D03*
X3000000Y75000000D03*
X92000000Y10000000D03*
X3000000Y10000000D03*
D49*
X50275000Y35250000D03*
X47225000Y35250000D03*
D52*
X57700000Y44000000D03*
D53*
X60000000Y50500000D03*
D52*
X62300000Y44000000D03*
D24*
X51775000Y35250000D03*
X52725000Y35250000D03*
D52*
X67700000Y26000000D03*
D53*
X70000000Y32500000D03*
D52*
X72300000Y26000000D03*
X57700000Y26000000D03*
D53*
X60000000Y32500000D03*
D52*
X62300000Y26000000D03*
D49*
X50275000Y45500000D03*
X47225000Y45500000D03*
D54*
X45950000Y43405000D03*
X45950000Y42135000D03*
X45950000Y40865000D03*
X45950000Y39595000D03*
X51550000Y39595000D03*
X51550000Y40865000D03*
X51550000Y42135000D03*
X51550000Y43405000D03*
X45950000Y33155000D03*
X45950000Y31885000D03*
X45950000Y30615000D03*
X45950000Y29345000D03*
X51550000Y29345000D03*
X51550000Y30615000D03*
X51550000Y31885000D03*
X51550000Y33155000D03*
D52*
X67700000Y44000000D03*
D53*
X70000000Y50500000D03*
D52*
X72300000Y44000000D03*
D24*
X52725000Y45500000D03*
X51775000Y45500000D03*
G36*
X2711980Y72497617D02*
G01*
X2790613Y72481976D01*
X2835313Y72463461D01*
X2891624Y72425835D01*
X2925835Y72391624D01*
X2963461Y72335313D01*
X2981976Y72290613D01*
X2997617Y72211980D01*
X3000000Y72187789D01*
X3000000Y65812211D01*
X2997617Y65788020D01*
X2981976Y65709387D01*
X2963461Y65664687D01*
X2925835Y65608376D01*
X2891624Y65574165D01*
X2835313Y65536539D01*
X2790613Y65518024D01*
X2711980Y65502383D01*
X2687789Y65500000D01*
X312211Y65500000D01*
X288020Y65502383D01*
X209387Y65518024D01*
X164687Y65536539D01*
X108376Y65574165D01*
X74165Y65608376D01*
X36539Y65664687D01*
X18024Y65709387D01*
X2383Y65788020D01*
X0Y65812211D01*
X0Y72187789D01*
X2383Y72211980D01*
X18024Y72290613D01*
X36539Y72335313D01*
X74165Y72391624D01*
X108376Y72425835D01*
X164687Y72463461D01*
X209387Y72481976D01*
X288020Y72497617D01*
X312211Y72500000D01*
X2687789Y72500000D01*
X2711980Y72497617D01*
G37*
G36*
X94711980Y72497617D02*
G01*
X94790613Y72481976D01*
X94835313Y72463461D01*
X94891624Y72425835D01*
X94925835Y72391624D01*
X94963461Y72335313D01*
X94981976Y72290613D01*
X94997617Y72211980D01*
X95000000Y72187789D01*
X95000000Y65812211D01*
X94997617Y65788020D01*
X94981976Y65709387D01*
X94963461Y65664687D01*
X94925835Y65608376D01*
X94891624Y65574165D01*
X94835313Y65536539D01*
X94790613Y65518024D01*
X94711980Y65502383D01*
X94687789Y65500000D01*
X92312211Y65500000D01*
X92288020Y65502383D01*
X92209387Y65518024D01*
X92164687Y65536539D01*
X92108376Y65574165D01*
X92074165Y65608376D01*
X92036539Y65664687D01*
X92018024Y65709387D01*
X92002383Y65788020D01*
X92000000Y65812211D01*
X92000000Y72187789D01*
X92002383Y72211980D01*
X92018024Y72290613D01*
X92036539Y72335313D01*
X92074165Y72391624D01*
X92108376Y72425835D01*
X92164687Y72463461D01*
X92209387Y72481976D01*
X92288020Y72497617D01*
X92312211Y72500000D01*
X94687789Y72500000D01*
X94711980Y72497617D01*
G37*
G36*
X94711980Y6497617D02*
G01*
X94790613Y6481976D01*
X94835313Y6463461D01*
X94891624Y6425835D01*
X94925835Y6391624D01*
X94963461Y6335313D01*
X94981976Y6290613D01*
X94997617Y6211980D01*
X95000000Y6187789D01*
X95000000Y1016269D01*
X94999963Y1013231D01*
X94999714Y1003071D01*
X94999415Y996981D01*
X94998666Y986834D01*
X94998405Y983808D01*
X94983980Y837349D01*
X94983234Y831306D01*
X94980253Y811213D01*
X94977880Y799281D01*
X94972949Y779595D01*
X94971326Y773729D01*
X94933339Y648501D01*
X94931431Y642727D01*
X94924594Y623616D01*
X94919934Y612365D01*
X94911252Y594010D01*
X94908518Y588577D01*
X94846824Y473154D01*
X94843823Y467857D01*
X94833399Y450466D01*
X94826638Y440349D01*
X94814540Y424037D01*
X94810797Y419240D01*
X94727782Y318085D01*
X94723806Y313476D01*
X94710172Y298433D01*
X94701567Y289828D01*
X94686524Y276194D01*
X94681915Y272218D01*
X94580760Y189203D01*
X94575963Y185460D01*
X94559651Y173362D01*
X94549534Y166601D01*
X94532143Y156177D01*
X94526846Y153176D01*
X94411423Y91482D01*
X94405990Y88748D01*
X94387635Y80066D01*
X94376384Y75406D01*
X94357273Y68569D01*
X94351499Y66661D01*
X94226271Y28674D01*
X94220405Y27051D01*
X94200719Y22120D01*
X94188787Y19747D01*
X94168694Y16766D01*
X94162651Y16020D01*
X94016192Y1595D01*
X94013166Y1334D01*
X94003019Y585D01*
X93996929Y286D01*
X93986769Y37D01*
X93983731Y0D01*
X88812211Y0D01*
X88788020Y2383D01*
X88709387Y18024D01*
X88664687Y36539D01*
X88608376Y74165D01*
X88574165Y108376D01*
X88536539Y164687D01*
X88518024Y209387D01*
X88502383Y288020D01*
X88500000Y312211D01*
X88500000Y2687789D01*
X88502383Y2711980D01*
X88518024Y2790613D01*
X88536539Y2835313D01*
X88574165Y2891624D01*
X88608376Y2925835D01*
X88664687Y2963461D01*
X88709387Y2981976D01*
X88788020Y2997617D01*
X88812211Y3000000D01*
X91693904Y3000000D01*
X91705980Y3001190D01*
X91802827Y3020453D01*
X91824959Y3029621D01*
X91901979Y3081084D01*
X91918916Y3098021D01*
X91970379Y3175041D01*
X91979547Y3197173D01*
X91998810Y3294020D01*
X92000000Y3306096D01*
X92000000Y6187789D01*
X92002383Y6211980D01*
X92018024Y6290613D01*
X92036539Y6335313D01*
X92074165Y6391624D01*
X92108376Y6425835D01*
X92164687Y6463461D01*
X92209387Y6481976D01*
X92288020Y6497617D01*
X92312211Y6500000D01*
X94687789Y6500000D01*
X94711980Y6497617D01*
G37*
G36*
X2887716Y6497617D02*
G01*
X2966349Y6481976D01*
X3011049Y6463461D01*
X3077715Y6418916D01*
X3096505Y6403495D01*
X6403495Y3096505D01*
X6418916Y3077715D01*
X6463461Y3011049D01*
X6481976Y2966349D01*
X6497617Y2887716D01*
X6500000Y2863525D01*
X6500000Y312211D01*
X6497617Y288020D01*
X6481976Y209387D01*
X6463461Y164687D01*
X6425835Y108376D01*
X6391624Y74165D01*
X6335313Y36539D01*
X6290613Y18024D01*
X6211980Y2383D01*
X6187789Y0D01*
X1016269Y0D01*
X1013231Y37D01*
X1003071Y286D01*
X996981Y585D01*
X986834Y1334D01*
X983808Y1595D01*
X837349Y16020D01*
X831306Y16766D01*
X811213Y19747D01*
X799281Y22120D01*
X779595Y27051D01*
X773729Y28674D01*
X648501Y66661D01*
X642727Y68569D01*
X623616Y75406D01*
X612365Y80066D01*
X594010Y88748D01*
X588577Y91482D01*
X473154Y153176D01*
X467857Y156177D01*
X450466Y166601D01*
X440349Y173362D01*
X424037Y185460D01*
X419240Y189203D01*
X318085Y272218D01*
X313476Y276194D01*
X298433Y289828D01*
X289828Y298433D01*
X276194Y313476D01*
X272218Y318085D01*
X189203Y419240D01*
X185460Y424037D01*
X173362Y440349D01*
X166601Y450466D01*
X156177Y467857D01*
X153176Y473154D01*
X91482Y588577D01*
X88748Y594010D01*
X80066Y612365D01*
X75406Y623616D01*
X68569Y642727D01*
X66661Y648501D01*
X28674Y773729D01*
X27051Y779595D01*
X22120Y799281D01*
X19747Y811213D01*
X16766Y831306D01*
X16020Y837349D01*
X1595Y983808D01*
X1334Y986834D01*
X585Y996981D01*
X286Y1003071D01*
X37Y1013231D01*
X0Y1016269D01*
X0Y6187789D01*
X2383Y6211980D01*
X18024Y6290613D01*
X36539Y6335313D01*
X74165Y6391624D01*
X108376Y6425835D01*
X164687Y6463461D01*
X209387Y6481976D01*
X288020Y6497617D01*
X312211Y6500000D01*
X2863525Y6500000D01*
X2887716Y6497617D01*
G37*
M02*
