G04 #@! TF.GenerationSoftware,KiCad,Pcbnew,(6.0.7)*
G04 #@! TF.CreationDate,2022-09-01T11:58:40+09:00*
G04 #@! TF.ProjectId,RP2040CommandStation,52503230-3430-4436-9f6d-6d616e645374,rev?*
G04 #@! TF.SameCoordinates,PX6cb8080PY8d24d00*
G04 #@! TF.FileFunction,Legend,Bot*
G04 #@! TF.FilePolarity,Positive*
%FSLAX46Y46*%
G04 Gerber Fmt 4.6, Leading zero omitted, Abs format (unit mm)*
G04 Created by KiCad (PCBNEW (6.0.7)) date 2022-09-01 11:58:40*
%MOMM*%
%LPD*%
G01*
G04 APERTURE LIST*
%ADD10C,0.350000*%
%ADD11C,0.320000*%
%ADD12C,1.600000*%
%ADD13C,1.400000*%
%ADD14R,1.600000X1.600000*%
%ADD15C,1.524000*%
%ADD16C,7.000000*%
%ADD17R,3.500120X3.500120*%
%ADD18R,2.200000X3.600000*%
%ADD19C,2.500000*%
%ADD20C,2.700000*%
%ADD21C,1.700000*%
%ADD22R,1.400000X1.400000*%
%ADD23C,2.000000*%
G04 APERTURE END LIST*
D10*
X84709523Y63019048D02*
X84709523Y61319048D01*
X85276190Y62533334D01*
X85842857Y61319048D01*
X85842857Y63019048D01*
X86571428Y62533334D02*
X87380952Y62533334D01*
X86409523Y63019048D02*
X86976190Y61319048D01*
X87542857Y63019048D01*
X87947619Y61319048D02*
X89080952Y63019048D01*
X89080952Y61319048D02*
X87947619Y63019048D01*
X91833333Y61319048D02*
X91023809Y61319048D01*
X90942857Y62128572D01*
X91023809Y62047620D01*
X91185714Y61966667D01*
X91590476Y61966667D01*
X91752380Y62047620D01*
X91833333Y62128572D01*
X91914285Y62290477D01*
X91914285Y62695239D01*
X91833333Y62857143D01*
X91752380Y62938096D01*
X91590476Y63019048D01*
X91185714Y63019048D01*
X91023809Y62938096D01*
X90942857Y62857143D01*
X92561904Y62533334D02*
X93371428Y62533334D01*
X92400000Y63019048D02*
X92966666Y61319048D01*
X93533333Y63019048D01*
X77809523Y59769048D02*
X77809523Y58069048D01*
X78214285Y58069048D01*
X78457142Y58150000D01*
X78619047Y58311905D01*
X78700000Y58473810D01*
X78780952Y58797620D01*
X78780952Y59040477D01*
X78700000Y59364286D01*
X78619047Y59526191D01*
X78457142Y59688096D01*
X78214285Y59769048D01*
X77809523Y59769048D01*
X80480952Y59607143D02*
X80400000Y59688096D01*
X80157142Y59769048D01*
X79995238Y59769048D01*
X79752380Y59688096D01*
X79590476Y59526191D01*
X79509523Y59364286D01*
X79428571Y59040477D01*
X79428571Y58797620D01*
X79509523Y58473810D01*
X79590476Y58311905D01*
X79752380Y58150000D01*
X79995238Y58069048D01*
X80157142Y58069048D01*
X80400000Y58150000D01*
X80480952Y58230953D01*
X83395238Y59769048D02*
X82423809Y59769048D01*
X82909523Y59769048D02*
X82909523Y58069048D01*
X82747619Y58311905D01*
X82585714Y58473810D01*
X82423809Y58554762D01*
X84042857Y58230953D02*
X84123809Y58150000D01*
X84285714Y58069048D01*
X84690476Y58069048D01*
X84852380Y58150000D01*
X84933333Y58230953D01*
X85014285Y58392858D01*
X85014285Y58554762D01*
X84933333Y58797620D01*
X83961904Y59769048D01*
X85014285Y59769048D01*
X85500000Y58069048D02*
X86066666Y59769048D01*
X86633333Y58069048D01*
X87200000Y59121429D02*
X88495238Y59121429D01*
X90195238Y59769048D02*
X89223809Y59769048D01*
X89709523Y59769048D02*
X89709523Y58069048D01*
X89547619Y58311905D01*
X89385714Y58473810D01*
X89223809Y58554762D01*
X91166666Y58797620D02*
X91004761Y58716667D01*
X90923809Y58635715D01*
X90842857Y58473810D01*
X90842857Y58392858D01*
X90923809Y58230953D01*
X91004761Y58150000D01*
X91166666Y58069048D01*
X91490476Y58069048D01*
X91652380Y58150000D01*
X91733333Y58230953D01*
X91814285Y58392858D01*
X91814285Y58473810D01*
X91733333Y58635715D01*
X91652380Y58716667D01*
X91490476Y58797620D01*
X91166666Y58797620D01*
X91004761Y58878572D01*
X90923809Y58959524D01*
X90842857Y59121429D01*
X90842857Y59445239D01*
X90923809Y59607143D01*
X91004761Y59688096D01*
X91166666Y59769048D01*
X91490476Y59769048D01*
X91652380Y59688096D01*
X91733333Y59607143D01*
X91814285Y59445239D01*
X91814285Y59121429D01*
X91733333Y58959524D01*
X91652380Y58878572D01*
X91490476Y58797620D01*
X92300000Y58069048D02*
X92866666Y59769048D01*
X93433333Y58069048D01*
D11*
X35434857Y1571429D02*
X35434857Y3071429D01*
X34863428Y3071429D01*
X34720571Y3000000D01*
X34649142Y2928572D01*
X34577714Y2785715D01*
X34577714Y2571429D01*
X34649142Y2428572D01*
X34720571Y2357143D01*
X34863428Y2285715D01*
X35434857Y2285715D01*
X33077714Y1714286D02*
X33149142Y1642858D01*
X33363428Y1571429D01*
X33506285Y1571429D01*
X33720571Y1642858D01*
X33863428Y1785715D01*
X33934857Y1928572D01*
X34006285Y2214286D01*
X34006285Y2428572D01*
X33934857Y2714286D01*
X33863428Y2857143D01*
X33720571Y3000000D01*
X33506285Y3071429D01*
X33363428Y3071429D01*
X33149142Y3000000D01*
X33077714Y2928572D01*
X31934857Y2357143D02*
X31720571Y2285715D01*
X31649142Y2214286D01*
X31577714Y2071429D01*
X31577714Y1857143D01*
X31649142Y1714286D01*
X31720571Y1642858D01*
X31863428Y1571429D01*
X32434857Y1571429D01*
X32434857Y3071429D01*
X31934857Y3071429D01*
X31792000Y3000000D01*
X31720571Y2928572D01*
X31649142Y2785715D01*
X31649142Y2642858D01*
X31720571Y2500000D01*
X31792000Y2428572D01*
X31934857Y2357143D01*
X32434857Y2357143D01*
X28934857Y1571429D02*
X29434857Y2285715D01*
X29792000Y1571429D02*
X29792000Y3071429D01*
X29220571Y3071429D01*
X29077714Y3000000D01*
X29006285Y2928572D01*
X28934857Y2785715D01*
X28934857Y2571429D01*
X29006285Y2428572D01*
X29077714Y2357143D01*
X29220571Y2285715D01*
X29792000Y2285715D01*
X27720571Y1642858D02*
X27863428Y1571429D01*
X28149142Y1571429D01*
X28292000Y1642858D01*
X28363428Y1785715D01*
X28363428Y2357143D01*
X28292000Y2500000D01*
X28149142Y2571429D01*
X27863428Y2571429D01*
X27720571Y2500000D01*
X27649142Y2357143D01*
X27649142Y2214286D01*
X28363428Y2071429D01*
X27149142Y2571429D02*
X26792000Y1571429D01*
X26434857Y2571429D01*
X25863428Y1714286D02*
X25792000Y1642858D01*
X25863428Y1571429D01*
X25934857Y1642858D01*
X25863428Y1714286D01*
X25863428Y1571429D01*
X24363428Y1571429D02*
X25220571Y1571429D01*
X24792000Y1571429D02*
X24792000Y3071429D01*
X24934857Y2857143D01*
X25077714Y2714286D01*
X25220571Y2642858D01*
X22649142Y2928572D02*
X22577714Y3000000D01*
X22434857Y3071429D01*
X22077714Y3071429D01*
X21934857Y3000000D01*
X21863428Y2928572D01*
X21792000Y2785715D01*
X21792000Y2642858D01*
X21863428Y2428572D01*
X22720571Y1571429D01*
X21792000Y1571429D01*
X20863428Y3071429D02*
X20720571Y3071429D01*
X20577714Y3000000D01*
X20506285Y2928572D01*
X20434857Y2785715D01*
X20363428Y2500000D01*
X20363428Y2142858D01*
X20434857Y1857143D01*
X20506285Y1714286D01*
X20577714Y1642858D01*
X20720571Y1571429D01*
X20863428Y1571429D01*
X21006285Y1642858D01*
X21077714Y1714286D01*
X21149142Y1857143D01*
X21220571Y2142858D01*
X21220571Y2500000D01*
X21149142Y2785715D01*
X21077714Y2928572D01*
X21006285Y3000000D01*
X20863428Y3071429D01*
X19792000Y2928572D02*
X19720571Y3000000D01*
X19577714Y3071429D01*
X19220571Y3071429D01*
X19077714Y3000000D01*
X19006285Y2928572D01*
X18934857Y2785715D01*
X18934857Y2642858D01*
X19006285Y2428572D01*
X19863428Y1571429D01*
X18934857Y1571429D01*
X18363428Y2928572D02*
X18292000Y3000000D01*
X18149142Y3071429D01*
X17792000Y3071429D01*
X17649142Y3000000D01*
X17577714Y2928572D01*
X17506285Y2785715D01*
X17506285Y2642858D01*
X17577714Y2428572D01*
X18434857Y1571429D01*
X17506285Y1571429D01*
X16863428Y1714286D02*
X16792000Y1642858D01*
X16863428Y1571429D01*
X16934857Y1642858D01*
X16863428Y1714286D01*
X16863428Y1571429D01*
X15863428Y3071429D02*
X15720571Y3071429D01*
X15577714Y3000000D01*
X15506285Y2928572D01*
X15434857Y2785715D01*
X15363428Y2500000D01*
X15363428Y2142858D01*
X15434857Y1857143D01*
X15506285Y1714286D01*
X15577714Y1642858D01*
X15720571Y1571429D01*
X15863428Y1571429D01*
X16006285Y1642858D01*
X16077714Y1714286D01*
X16149142Y1857143D01*
X16220571Y2142858D01*
X16220571Y2500000D01*
X16149142Y2785715D01*
X16077714Y2928572D01*
X16006285Y3000000D01*
X15863428Y3071429D01*
X14649142Y1571429D02*
X14363428Y1571429D01*
X14220571Y1642858D01*
X14149142Y1714286D01*
X14006285Y1928572D01*
X13934857Y2214286D01*
X13934857Y2785715D01*
X14006285Y2928572D01*
X14077714Y3000000D01*
X14220571Y3071429D01*
X14506285Y3071429D01*
X14649142Y3000000D01*
X14720571Y2928572D01*
X14792000Y2785715D01*
X14792000Y2428572D01*
X14720571Y2285715D01*
X14649142Y2214286D01*
X14506285Y2142858D01*
X14220571Y2142858D01*
X14077714Y2214286D01*
X14006285Y2285715D01*
X13934857Y2428572D01*
D10*
X82367738Y16230953D02*
X82367738Y17930953D01*
X81801071Y16716667D01*
X81234404Y17930953D01*
X81234404Y16230953D01*
X80667738Y17930953D02*
X79696309Y17930953D01*
X80182023Y16230953D02*
X80182023Y17930953D01*
X78401071Y17364286D02*
X78401071Y16230953D01*
X78805833Y18011905D02*
X79210595Y16797620D01*
X78158214Y16797620D01*
X77186785Y17930953D02*
X77024880Y17930953D01*
X76862976Y17850000D01*
X76782023Y17769048D01*
X76701071Y17607143D01*
X76620119Y17283334D01*
X76620119Y16878572D01*
X76701071Y16554762D01*
X76782023Y16392858D01*
X76862976Y16311905D01*
X77024880Y16230953D01*
X77186785Y16230953D01*
X77348690Y16311905D01*
X77429642Y16392858D01*
X77510595Y16554762D01*
X77591547Y16878572D01*
X77591547Y17283334D01*
X77510595Y17607143D01*
X77429642Y17769048D01*
X77348690Y17850000D01*
X77186785Y17930953D01*
X74596309Y16230953D02*
X74596309Y17930953D01*
X74191547Y17930953D01*
X73948690Y17850000D01*
X73786785Y17688096D01*
X73705833Y17526191D01*
X73624880Y17202381D01*
X73624880Y16959524D01*
X73705833Y16635715D01*
X73786785Y16473810D01*
X73948690Y16311905D01*
X74191547Y16230953D01*
X74596309Y16230953D01*
X71924880Y16392858D02*
X72005833Y16311905D01*
X72248690Y16230953D01*
X72410595Y16230953D01*
X72653452Y16311905D01*
X72815357Y16473810D01*
X72896309Y16635715D01*
X72977261Y16959524D01*
X72977261Y17202381D01*
X72896309Y17526191D01*
X72815357Y17688096D01*
X72653452Y17850000D01*
X72410595Y17930953D01*
X72248690Y17930953D01*
X72005833Y17850000D01*
X71924880Y17769048D01*
X70224880Y16392858D02*
X70305833Y16311905D01*
X70548690Y16230953D01*
X70710595Y16230953D01*
X70953452Y16311905D01*
X71115357Y16473810D01*
X71196309Y16635715D01*
X71277261Y16959524D01*
X71277261Y17202381D01*
X71196309Y17526191D01*
X71115357Y17688096D01*
X70953452Y17850000D01*
X70710595Y17930953D01*
X70548690Y17930953D01*
X70305833Y17850000D01*
X70224880Y17769048D01*
X67229642Y16392858D02*
X67310595Y16311905D01*
X67553452Y16230953D01*
X67715357Y16230953D01*
X67958214Y16311905D01*
X68120119Y16473810D01*
X68201071Y16635715D01*
X68282023Y16959524D01*
X68282023Y17202381D01*
X68201071Y17526191D01*
X68120119Y17688096D01*
X67958214Y17850000D01*
X67715357Y17930953D01*
X67553452Y17930953D01*
X67310595Y17850000D01*
X67229642Y17769048D01*
X66258214Y16230953D02*
X66420119Y16311905D01*
X66501071Y16392858D01*
X66582023Y16554762D01*
X66582023Y17040477D01*
X66501071Y17202381D01*
X66420119Y17283334D01*
X66258214Y17364286D01*
X66015357Y17364286D01*
X65853452Y17283334D01*
X65772500Y17202381D01*
X65691547Y17040477D01*
X65691547Y16554762D01*
X65772500Y16392858D01*
X65853452Y16311905D01*
X66015357Y16230953D01*
X66258214Y16230953D01*
X64962976Y17364286D02*
X64962976Y16230953D01*
X64962976Y17202381D02*
X64882023Y17283334D01*
X64720119Y17364286D01*
X64477261Y17364286D01*
X64315357Y17283334D01*
X64234404Y17121429D01*
X64234404Y16230953D01*
X63667738Y17364286D02*
X63020119Y17364286D01*
X63424880Y17930953D02*
X63424880Y16473810D01*
X63343928Y16311905D01*
X63182023Y16230953D01*
X63020119Y16230953D01*
X62453452Y16230953D02*
X62453452Y17364286D01*
X62453452Y17040477D02*
X62372500Y17202381D01*
X62291547Y17283334D01*
X62129642Y17364286D01*
X61967738Y17364286D01*
X61158214Y16230953D02*
X61320119Y16311905D01*
X61401071Y16392858D01*
X61482023Y16554762D01*
X61482023Y17040477D01*
X61401071Y17202381D01*
X61320119Y17283334D01*
X61158214Y17364286D01*
X60915357Y17364286D01*
X60753452Y17283334D01*
X60672500Y17202381D01*
X60591547Y17040477D01*
X60591547Y16554762D01*
X60672500Y16392858D01*
X60753452Y16311905D01*
X60915357Y16230953D01*
X61158214Y16230953D01*
X59620119Y16230953D02*
X59782023Y16311905D01*
X59862976Y16473810D01*
X59862976Y17930953D01*
X57758214Y16311905D02*
X57515357Y16230953D01*
X57110595Y16230953D01*
X56948690Y16311905D01*
X56867738Y16392858D01*
X56786785Y16554762D01*
X56786785Y16716667D01*
X56867738Y16878572D01*
X56948690Y16959524D01*
X57110595Y17040477D01*
X57434404Y17121429D01*
X57596309Y17202381D01*
X57677261Y17283334D01*
X57758214Y17445239D01*
X57758214Y17607143D01*
X57677261Y17769048D01*
X57596309Y17850000D01*
X57434404Y17930953D01*
X57029642Y17930953D01*
X56786785Y17850000D01*
X56220119Y17364286D02*
X55815357Y16230953D01*
X55410595Y17364286D02*
X55815357Y16230953D01*
X55977261Y15826191D01*
X56058214Y15745239D01*
X56220119Y15664286D01*
X54843928Y16311905D02*
X54682023Y16230953D01*
X54358214Y16230953D01*
X54196309Y16311905D01*
X54115357Y16473810D01*
X54115357Y16554762D01*
X54196309Y16716667D01*
X54358214Y16797620D01*
X54601071Y16797620D01*
X54762976Y16878572D01*
X54843928Y17040477D01*
X54843928Y17121429D01*
X54762976Y17283334D01*
X54601071Y17364286D01*
X54358214Y17364286D01*
X54196309Y17283334D01*
X53629642Y17364286D02*
X52982023Y17364286D01*
X53386785Y17930953D02*
X53386785Y16473810D01*
X53305833Y16311905D01*
X53143928Y16230953D01*
X52982023Y16230953D01*
X51767738Y16311905D02*
X51929642Y16230953D01*
X52253452Y16230953D01*
X52415357Y16311905D01*
X52496309Y16473810D01*
X52496309Y17121429D01*
X52415357Y17283334D01*
X52253452Y17364286D01*
X51929642Y17364286D01*
X51767738Y17283334D01*
X51686785Y17121429D01*
X51686785Y16959524D01*
X52496309Y16797620D01*
X50958214Y16230953D02*
X50958214Y17364286D01*
X50958214Y17202381D02*
X50877261Y17283334D01*
X50715357Y17364286D01*
X50472500Y17364286D01*
X50310595Y17283334D01*
X50229642Y17121429D01*
X50229642Y16230953D01*
X50229642Y17121429D02*
X50148690Y17283334D01*
X49986785Y17364286D01*
X49743928Y17364286D01*
X49582023Y17283334D01*
X49501071Y17121429D01*
X49501071Y16230953D01*
X67954761Y72519048D02*
X67388095Y71709524D01*
X66983333Y72519048D02*
X66983333Y70819048D01*
X67630952Y70819048D01*
X67792857Y70900000D01*
X67873809Y70980953D01*
X67954761Y71142858D01*
X67954761Y71385715D01*
X67873809Y71547620D01*
X67792857Y71628572D01*
X67630952Y71709524D01*
X66983333Y71709524D01*
X68602380Y72033334D02*
X69411904Y72033334D01*
X68440476Y72519048D02*
X69007142Y70819048D01*
X69573809Y72519048D01*
X70140476Y72519048D02*
X70140476Y70819048D01*
X71759523Y72519048D02*
X70950000Y72519048D01*
X70950000Y70819048D01*
X82367738Y13230953D02*
X82367738Y14930953D01*
X82367738Y14121429D02*
X81396309Y14121429D01*
X81396309Y13230953D02*
X81396309Y14930953D01*
X80586785Y13230953D02*
X80586785Y14364286D01*
X80586785Y14930953D02*
X80667738Y14850000D01*
X80586785Y14769048D01*
X80505833Y14850000D01*
X80586785Y14930953D01*
X80586785Y14769048D01*
X79048690Y14364286D02*
X79048690Y12988096D01*
X79129642Y12826191D01*
X79210595Y12745239D01*
X79372500Y12664286D01*
X79615357Y12664286D01*
X79777261Y12745239D01*
X79048690Y13311905D02*
X79210595Y13230953D01*
X79534404Y13230953D01*
X79696309Y13311905D01*
X79777261Y13392858D01*
X79858214Y13554762D01*
X79858214Y14040477D01*
X79777261Y14202381D01*
X79696309Y14283334D01*
X79534404Y14364286D01*
X79210595Y14364286D01*
X79048690Y14283334D01*
X78239166Y13230953D02*
X78239166Y14930953D01*
X77510595Y13230953D02*
X77510595Y14121429D01*
X77591547Y14283334D01*
X77753452Y14364286D01*
X77996309Y14364286D01*
X78158214Y14283334D01*
X78239166Y14202381D01*
X76701071Y13878572D02*
X75405833Y13878572D01*
X74596309Y13230953D02*
X74596309Y14930953D01*
X73948690Y14930953D01*
X73786785Y14850000D01*
X73705833Y14769048D01*
X73624880Y14607143D01*
X73624880Y14364286D01*
X73705833Y14202381D01*
X73786785Y14121429D01*
X73948690Y14040477D01*
X74596309Y14040477D01*
X72653452Y13230953D02*
X72815357Y13311905D01*
X72896309Y13392858D01*
X72977261Y13554762D01*
X72977261Y14040477D01*
X72896309Y14202381D01*
X72815357Y14283334D01*
X72653452Y14364286D01*
X72410595Y14364286D01*
X72248690Y14283334D01*
X72167738Y14202381D01*
X72086785Y14040477D01*
X72086785Y13554762D01*
X72167738Y13392858D01*
X72248690Y13311905D01*
X72410595Y13230953D01*
X72653452Y13230953D01*
X71520119Y14364286D02*
X71196309Y13230953D01*
X70872500Y14040477D01*
X70548690Y13230953D01*
X70224880Y14364286D01*
X68929642Y13311905D02*
X69091547Y13230953D01*
X69415357Y13230953D01*
X69577261Y13311905D01*
X69658214Y13473810D01*
X69658214Y14121429D01*
X69577261Y14283334D01*
X69415357Y14364286D01*
X69091547Y14364286D01*
X68929642Y14283334D01*
X68848690Y14121429D01*
X68848690Y13959524D01*
X69658214Y13797620D01*
X68120119Y13230953D02*
X68120119Y14364286D01*
X68120119Y14040477D02*
X68039166Y14202381D01*
X67958214Y14283334D01*
X67796309Y14364286D01*
X67634404Y14364286D01*
X64801071Y13392858D02*
X64882023Y13311905D01*
X65124880Y13230953D01*
X65286785Y13230953D01*
X65529642Y13311905D01*
X65691547Y13473810D01*
X65772500Y13635715D01*
X65853452Y13959524D01*
X65853452Y14202381D01*
X65772500Y14526191D01*
X65691547Y14688096D01*
X65529642Y14850000D01*
X65286785Y14930953D01*
X65124880Y14930953D01*
X64882023Y14850000D01*
X64801071Y14769048D01*
X63829642Y13230953D02*
X63991547Y13311905D01*
X64072500Y13392858D01*
X64153452Y13554762D01*
X64153452Y14040477D01*
X64072500Y14202381D01*
X63991547Y14283334D01*
X63829642Y14364286D01*
X63586785Y14364286D01*
X63424880Y14283334D01*
X63343928Y14202381D01*
X63262976Y14040477D01*
X63262976Y13554762D01*
X63343928Y13392858D01*
X63424880Y13311905D01*
X63586785Y13230953D01*
X63829642Y13230953D01*
X62534404Y13230953D02*
X62534404Y14364286D01*
X62534404Y14202381D02*
X62453452Y14283334D01*
X62291547Y14364286D01*
X62048690Y14364286D01*
X61886785Y14283334D01*
X61805833Y14121429D01*
X61805833Y13230953D01*
X61805833Y14121429D02*
X61724880Y14283334D01*
X61562976Y14364286D01*
X61320119Y14364286D01*
X61158214Y14283334D01*
X61077261Y14121429D01*
X61077261Y13230953D01*
X60267738Y13230953D02*
X60267738Y14364286D01*
X60267738Y14202381D02*
X60186785Y14283334D01*
X60024880Y14364286D01*
X59782023Y14364286D01*
X59620119Y14283334D01*
X59539166Y14121429D01*
X59539166Y13230953D01*
X59539166Y14121429D02*
X59458214Y14283334D01*
X59296309Y14364286D01*
X59053452Y14364286D01*
X58891547Y14283334D01*
X58810595Y14121429D01*
X58810595Y13230953D01*
X57272500Y13230953D02*
X57272500Y14121429D01*
X57353452Y14283334D01*
X57515357Y14364286D01*
X57839166Y14364286D01*
X58001071Y14283334D01*
X57272500Y13311905D02*
X57434404Y13230953D01*
X57839166Y13230953D01*
X58001071Y13311905D01*
X58082023Y13473810D01*
X58082023Y13635715D01*
X58001071Y13797620D01*
X57839166Y13878572D01*
X57434404Y13878572D01*
X57272500Y13959524D01*
X56462976Y14364286D02*
X56462976Y13230953D01*
X56462976Y14202381D02*
X56382023Y14283334D01*
X56220119Y14364286D01*
X55977261Y14364286D01*
X55815357Y14283334D01*
X55734404Y14121429D01*
X55734404Y13230953D01*
X54196309Y13230953D02*
X54196309Y14930953D01*
X54196309Y13311905D02*
X54358214Y13230953D01*
X54682023Y13230953D01*
X54843928Y13311905D01*
X54924880Y13392858D01*
X55005833Y13554762D01*
X55005833Y14040477D01*
X54924880Y14202381D01*
X54843928Y14283334D01*
X54682023Y14364286D01*
X54358214Y14364286D01*
X54196309Y14283334D01*
X53467738Y13311905D02*
X53224880Y13230953D01*
X52820119Y13230953D01*
X52658214Y13311905D01*
X52577261Y13392858D01*
X52496309Y13554762D01*
X52496309Y13716667D01*
X52577261Y13878572D01*
X52658214Y13959524D01*
X52820119Y14040477D01*
X53143928Y14121429D01*
X53305833Y14202381D01*
X53386785Y14283334D01*
X53467738Y14445239D01*
X53467738Y14607143D01*
X53386785Y14769048D01*
X53305833Y14850000D01*
X53143928Y14930953D01*
X52739166Y14930953D01*
X52496309Y14850000D01*
X52010595Y14364286D02*
X51362976Y14364286D01*
X51767738Y14930953D02*
X51767738Y13473810D01*
X51686785Y13311905D01*
X51524880Y13230953D01*
X51362976Y13230953D01*
X50067738Y13230953D02*
X50067738Y14121429D01*
X50148690Y14283334D01*
X50310595Y14364286D01*
X50634404Y14364286D01*
X50796309Y14283334D01*
X50067738Y13311905D02*
X50229642Y13230953D01*
X50634404Y13230953D01*
X50796309Y13311905D01*
X50877261Y13473810D01*
X50877261Y13635715D01*
X50796309Y13797620D01*
X50634404Y13878572D01*
X50229642Y13878572D01*
X50067738Y13959524D01*
X49501071Y14364286D02*
X48853452Y14364286D01*
X49258214Y14930953D02*
X49258214Y13473810D01*
X49177261Y13311905D01*
X49015357Y13230953D01*
X48853452Y13230953D01*
X48286785Y13230953D02*
X48286785Y14364286D01*
X48286785Y14930953D02*
X48367738Y14850000D01*
X48286785Y14769048D01*
X48205833Y14850000D01*
X48286785Y14930953D01*
X48286785Y14769048D01*
X47234404Y13230953D02*
X47396309Y13311905D01*
X47477261Y13392858D01*
X47558214Y13554762D01*
X47558214Y14040477D01*
X47477261Y14202381D01*
X47396309Y14283334D01*
X47234404Y14364286D01*
X46991547Y14364286D01*
X46829642Y14283334D01*
X46748690Y14202381D01*
X46667738Y14040477D01*
X46667738Y13554762D01*
X46748690Y13392858D01*
X46829642Y13311905D01*
X46991547Y13230953D01*
X47234404Y13230953D01*
X45939166Y14364286D02*
X45939166Y13230953D01*
X45939166Y14202381D02*
X45858214Y14283334D01*
X45696309Y14364286D01*
X45453452Y14364286D01*
X45291547Y14283334D01*
X45210595Y14121429D01*
X45210595Y13230953D01*
%LPC*%
D12*
X81000000Y61500000D03*
X81000000Y56500000D03*
D13*
X56500000Y58500000D03*
X56500000Y60500000D03*
D14*
X12570000Y57000000D03*
D12*
X15110000Y57000000D03*
X17650000Y57000000D03*
X20190000Y57000000D03*
X22730000Y57000000D03*
X25270000Y57000000D03*
X27810000Y57000000D03*
X30350000Y57000000D03*
X32890000Y57000000D03*
X35430000Y57000000D03*
X37000000Y72730000D03*
X37000000Y75270000D03*
X11000000Y75270000D03*
X11000000Y72730000D03*
D15*
X64270000Y5500000D03*
X61730000Y5500000D03*
X43270000Y72500000D03*
X40730000Y72500000D03*
D16*
X92000000Y69000000D03*
X92000000Y3000000D03*
X3000000Y69000000D03*
X3000000Y3000000D03*
D17*
X83000000Y67799860D03*
X83000000Y73799340D03*
D18*
X78301000Y70799600D03*
D19*
X71540000Y74600000D03*
X66460000Y74600000D03*
D15*
X51750000Y66290000D03*
X54250000Y66290000D03*
X54250000Y68290000D03*
X51750000Y68290000D03*
D20*
X46980000Y71000000D03*
X59020000Y71000000D03*
D14*
X2730000Y48510000D03*
D12*
X5270000Y48510000D03*
X2730000Y45970000D03*
X5270000Y45970000D03*
X2730000Y43430000D03*
X5270000Y43430000D03*
X2730000Y40890000D03*
X5270000Y40890000D03*
X2730000Y38350000D03*
X5270000Y38350000D03*
X2730000Y35810000D03*
X5270000Y35810000D03*
X2730000Y33270000D03*
X5270000Y33270000D03*
X2730000Y30730000D03*
X5270000Y30730000D03*
X2730000Y28190000D03*
X5270000Y28190000D03*
X2730000Y25650000D03*
X5270000Y25650000D03*
X2730000Y23110000D03*
X5270000Y23110000D03*
X2730000Y20570000D03*
X5270000Y20570000D03*
X2730000Y18030000D03*
X5270000Y18030000D03*
X2730000Y15490000D03*
X5270000Y15490000D03*
D14*
X89730000Y48510000D03*
D12*
X92270000Y48510000D03*
X89730000Y45970000D03*
X92270000Y45970000D03*
X89730000Y43430000D03*
X92270000Y43430000D03*
X89730000Y40890000D03*
X92270000Y40890000D03*
X89730000Y38350000D03*
X92270000Y38350000D03*
X89730000Y35810000D03*
X92270000Y35810000D03*
X89730000Y33270000D03*
X92270000Y33270000D03*
X89730000Y30730000D03*
X92270000Y30730000D03*
X89730000Y28190000D03*
X92270000Y28190000D03*
X89730000Y25650000D03*
X92270000Y25650000D03*
X89730000Y23110000D03*
X92270000Y23110000D03*
X89730000Y20570000D03*
X92270000Y20570000D03*
X89730000Y18030000D03*
X92270000Y18030000D03*
X89730000Y15490000D03*
X92270000Y15490000D03*
D21*
X2250000Y55750000D03*
X2250000Y62250000D03*
X6750000Y55750000D03*
X6750000Y62250000D03*
X84250000Y4750000D03*
X77750000Y4750000D03*
X84250000Y9250000D03*
X77750000Y9250000D03*
D22*
X36000000Y8000000D03*
D13*
X36000000Y10000000D03*
X36000000Y12000000D03*
X36000000Y14000000D03*
X36000000Y16000000D03*
X36000000Y18000000D03*
X36000000Y20000000D03*
X36000000Y22000000D03*
X36000000Y24000000D03*
X36000000Y26000000D03*
X14000000Y26000000D03*
X14000000Y24000000D03*
X14000000Y22000000D03*
X14000000Y20000000D03*
X14000000Y18000000D03*
X14000000Y16000000D03*
X14000000Y14000000D03*
X14000000Y12000000D03*
X14000000Y10000000D03*
X14000000Y8000000D03*
D21*
X49250000Y4750000D03*
X42750000Y4750000D03*
X49250000Y9250000D03*
X42750000Y9250000D03*
D14*
X49290000Y57625000D03*
D12*
X46750000Y57625000D03*
X44210000Y57625000D03*
D14*
X36460000Y32500000D03*
D12*
X39000000Y32500000D03*
X41540000Y32500000D03*
X63250000Y62500000D03*
X63250000Y59000000D03*
D15*
X72270000Y5500000D03*
X69730000Y5500000D03*
X56270000Y5500000D03*
X53730000Y5500000D03*
D23*
X92000000Y75000000D03*
X3000000Y75000000D03*
X92000000Y10000000D03*
X3000000Y10000000D03*
G36*
X2711980Y72497617D02*
G01*
X2790613Y72481976D01*
X2835313Y72463461D01*
X2891624Y72425835D01*
X2925835Y72391624D01*
X2963461Y72335313D01*
X2981976Y72290613D01*
X2997617Y72211980D01*
X3000000Y72187789D01*
X3000000Y65812211D01*
X2997617Y65788020D01*
X2981976Y65709387D01*
X2963461Y65664687D01*
X2925835Y65608376D01*
X2891624Y65574165D01*
X2835313Y65536539D01*
X2790613Y65518024D01*
X2711980Y65502383D01*
X2687789Y65500000D01*
X312211Y65500000D01*
X288020Y65502383D01*
X209387Y65518024D01*
X164687Y65536539D01*
X108376Y65574165D01*
X74165Y65608376D01*
X36539Y65664687D01*
X18024Y65709387D01*
X2383Y65788020D01*
X0Y65812211D01*
X0Y72187789D01*
X2383Y72211980D01*
X18024Y72290613D01*
X36539Y72335313D01*
X74165Y72391624D01*
X108376Y72425835D01*
X164687Y72463461D01*
X209387Y72481976D01*
X288020Y72497617D01*
X312211Y72500000D01*
X2687789Y72500000D01*
X2711980Y72497617D01*
G37*
G36*
X94711980Y72497617D02*
G01*
X94790613Y72481976D01*
X94835313Y72463461D01*
X94891624Y72425835D01*
X94925835Y72391624D01*
X94963461Y72335313D01*
X94981976Y72290613D01*
X94997617Y72211980D01*
X95000000Y72187789D01*
X95000000Y65812211D01*
X94997617Y65788020D01*
X94981976Y65709387D01*
X94963461Y65664687D01*
X94925835Y65608376D01*
X94891624Y65574165D01*
X94835313Y65536539D01*
X94790613Y65518024D01*
X94711980Y65502383D01*
X94687789Y65500000D01*
X92312211Y65500000D01*
X92288020Y65502383D01*
X92209387Y65518024D01*
X92164687Y65536539D01*
X92108376Y65574165D01*
X92074165Y65608376D01*
X92036539Y65664687D01*
X92018024Y65709387D01*
X92002383Y65788020D01*
X92000000Y65812211D01*
X92000000Y72187789D01*
X92002383Y72211980D01*
X92018024Y72290613D01*
X92036539Y72335313D01*
X92074165Y72391624D01*
X92108376Y72425835D01*
X92164687Y72463461D01*
X92209387Y72481976D01*
X92288020Y72497617D01*
X92312211Y72500000D01*
X94687789Y72500000D01*
X94711980Y72497617D01*
G37*
G36*
X94711980Y6497617D02*
G01*
X94790613Y6481976D01*
X94835313Y6463461D01*
X94891624Y6425835D01*
X94925835Y6391624D01*
X94963461Y6335313D01*
X94981976Y6290613D01*
X94997617Y6211980D01*
X95000000Y6187789D01*
X95000000Y1016269D01*
X94999963Y1013231D01*
X94999714Y1003071D01*
X94999415Y996981D01*
X94998666Y986834D01*
X94998405Y983808D01*
X94983980Y837349D01*
X94983234Y831306D01*
X94980253Y811213D01*
X94977880Y799281D01*
X94972949Y779595D01*
X94971326Y773729D01*
X94933339Y648501D01*
X94931431Y642727D01*
X94924594Y623616D01*
X94919934Y612365D01*
X94911252Y594010D01*
X94908518Y588577D01*
X94846824Y473154D01*
X94843823Y467857D01*
X94833399Y450466D01*
X94826638Y440349D01*
X94814540Y424037D01*
X94810797Y419240D01*
X94727782Y318085D01*
X94723806Y313476D01*
X94710172Y298433D01*
X94701567Y289828D01*
X94686524Y276194D01*
X94681915Y272218D01*
X94580760Y189203D01*
X94575963Y185460D01*
X94559651Y173362D01*
X94549534Y166601D01*
X94532143Y156177D01*
X94526846Y153176D01*
X94411423Y91482D01*
X94405990Y88748D01*
X94387635Y80066D01*
X94376384Y75406D01*
X94357273Y68569D01*
X94351499Y66661D01*
X94226271Y28674D01*
X94220405Y27051D01*
X94200719Y22120D01*
X94188787Y19747D01*
X94168694Y16766D01*
X94162651Y16020D01*
X94016192Y1595D01*
X94013166Y1334D01*
X94003019Y585D01*
X93996929Y286D01*
X93986769Y37D01*
X93983731Y0D01*
X88812211Y0D01*
X88788020Y2383D01*
X88709387Y18024D01*
X88664687Y36539D01*
X88608376Y74165D01*
X88574165Y108376D01*
X88536539Y164687D01*
X88518024Y209387D01*
X88502383Y288020D01*
X88500000Y312211D01*
X88500000Y2863525D01*
X88502383Y2887716D01*
X88518024Y2966349D01*
X88536539Y3011049D01*
X88581084Y3077715D01*
X88596505Y3096505D01*
X91903495Y6403495D01*
X91922285Y6418916D01*
X91988951Y6463461D01*
X92033651Y6481976D01*
X92112284Y6497617D01*
X92136475Y6500000D01*
X94687789Y6500000D01*
X94711980Y6497617D01*
G37*
G36*
X2887716Y6497617D02*
G01*
X2966349Y6481976D01*
X3011049Y6463461D01*
X3077715Y6418916D01*
X3096505Y6403495D01*
X6403495Y3096505D01*
X6418916Y3077715D01*
X6463461Y3011049D01*
X6481976Y2966349D01*
X6497617Y2887716D01*
X6500000Y2863525D01*
X6500000Y312211D01*
X6497617Y288020D01*
X6481976Y209387D01*
X6463461Y164687D01*
X6425835Y108376D01*
X6391624Y74165D01*
X6335313Y36539D01*
X6290613Y18024D01*
X6211980Y2383D01*
X6187789Y0D01*
X1016269Y0D01*
X1013231Y37D01*
X1003071Y286D01*
X996981Y585D01*
X986834Y1334D01*
X983808Y1595D01*
X837349Y16020D01*
X831306Y16766D01*
X811213Y19747D01*
X799281Y22120D01*
X779595Y27051D01*
X773729Y28674D01*
X648501Y66661D01*
X642727Y68569D01*
X623616Y75406D01*
X612365Y80066D01*
X594010Y88748D01*
X588577Y91482D01*
X473154Y153176D01*
X467857Y156177D01*
X450466Y166601D01*
X440349Y173362D01*
X424037Y185460D01*
X419240Y189203D01*
X318085Y272218D01*
X313476Y276194D01*
X298433Y289828D01*
X289828Y298433D01*
X276194Y313476D01*
X272218Y318085D01*
X189203Y419240D01*
X185460Y424037D01*
X173362Y440349D01*
X166601Y450466D01*
X156177Y467857D01*
X153176Y473154D01*
X91482Y588577D01*
X88748Y594010D01*
X80066Y612365D01*
X75406Y623616D01*
X68569Y642727D01*
X66661Y648501D01*
X28674Y773729D01*
X27051Y779595D01*
X22120Y799281D01*
X19747Y811213D01*
X16766Y831306D01*
X16020Y837349D01*
X1595Y983808D01*
X1334Y986834D01*
X585Y996981D01*
X286Y1003071D01*
X37Y1013231D01*
X0Y1016269D01*
X0Y6187789D01*
X2383Y6211980D01*
X18024Y6290613D01*
X36539Y6335313D01*
X74165Y6391624D01*
X108376Y6425835D01*
X164687Y6463461D01*
X209387Y6481976D01*
X288020Y6497617D01*
X312211Y6500000D01*
X2863525Y6500000D01*
X2887716Y6497617D01*
G37*
M02*
