G04 #@! TF.GenerationSoftware,KiCad,Pcbnew,(6.0.7)*
G04 #@! TF.CreationDate,2022-09-01T11:58:41+09:00*
G04 #@! TF.ProjectId,RP2040CommandStation,52503230-3430-4436-9f6d-6d616e645374,rev?*
G04 #@! TF.SameCoordinates,PX6cb8080PY8d24d00*
G04 #@! TF.FileFunction,Soldermask,Top*
G04 #@! TF.FilePolarity,Negative*
%FSLAX46Y46*%
G04 Gerber Fmt 4.6, Leading zero omitted, Abs format (unit mm)*
G04 Created by KiCad (PCBNEW (6.0.7)) date 2022-09-01 11:58:41*
%MOMM*%
%LPD*%
G01*
G04 APERTURE LIST*
G04 Aperture macros list*
%AMRoundRect*
0 Rectangle with rounded corners*
0 $1 Rounding radius*
0 $2 $3 $4 $5 $6 $7 $8 $9 X,Y pos of 4 corners*
0 Add a 4 corners polygon primitive as box body*
4,1,4,$2,$3,$4,$5,$6,$7,$8,$9,$2,$3,0*
0 Add four circle primitives for the rounded corners*
1,1,$1+$1,$2,$3*
1,1,$1+$1,$4,$5*
1,1,$1+$1,$6,$7*
1,1,$1+$1,$8,$9*
0 Add four rect primitives between the rounded corners*
20,1,$1+$1,$2,$3,$4,$5,0*
20,1,$1+$1,$4,$5,$6,$7,0*
20,1,$1+$1,$6,$7,$8,$9,0*
20,1,$1+$1,$8,$9,$2,$3,0*%
G04 Aperture macros list end*
%ADD10C,1.600000*%
%ADD11R,0.550000X0.500000*%
%ADD12C,1.400000*%
%ADD13R,1.600000X1.600000*%
%ADD14R,2.200000X1.850000*%
%ADD15R,1.200000X0.850000*%
%ADD16C,1.524000*%
%ADD17C,7.000000*%
%ADD18R,3.500120X3.500120*%
%ADD19R,2.200000X3.600000*%
%ADD20C,2.500000*%
%ADD21C,2.700000*%
%ADD22R,1.000000X0.800000*%
%ADD23R,0.800000X1.000000*%
%ADD24R,1.500000X3.200000*%
%ADD25R,0.700000X0.900000*%
%ADD26R,0.900000X0.700000*%
%ADD27C,1.700000*%
%ADD28R,1.400000X1.400000*%
%ADD29R,1.000000X0.700000*%
%ADD30R,1.400000X1.100000*%
%ADD31R,0.800000X1.300000*%
%ADD32R,0.500000X0.550000*%
%ADD33RoundRect,0.050000X-0.387500X-0.050000X0.387500X-0.050000X0.387500X0.050000X-0.387500X0.050000X0*%
%ADD34RoundRect,0.050000X-0.050000X-0.387500X0.050000X-0.387500X0.050000X0.387500X-0.050000X0.387500X0*%
%ADD35RoundRect,0.144000X-1.456000X-1.456000X1.456000X-1.456000X1.456000X1.456000X-1.456000X1.456000X0*%
%ADD36R,0.850000X1.200000*%
%ADD37R,0.400000X1.900000*%
%ADD38C,2.000000*%
%ADD39R,1.600000X3.000000*%
%ADD40R,6.000000X6.000000*%
%ADD41R,1.300000X0.800000*%
G04 APERTURE END LIST*
D10*
X81000000Y61500000D03*
X81000000Y56500000D03*
D11*
X89075000Y53000000D03*
X88125000Y53000000D03*
D12*
X56500000Y58500000D03*
X56500000Y60500000D03*
D11*
X77275000Y16000000D03*
X78225000Y16000000D03*
D13*
X12570000Y57000000D03*
D10*
X15110000Y57000000D03*
X17650000Y57000000D03*
X20190000Y57000000D03*
X22730000Y57000000D03*
X25270000Y57000000D03*
X27810000Y57000000D03*
X30350000Y57000000D03*
X32890000Y57000000D03*
X35430000Y57000000D03*
X37000000Y72730000D03*
X37000000Y75270000D03*
X11000000Y75270000D03*
X11000000Y72730000D03*
D14*
X91000000Y56675000D03*
X91000000Y61325000D03*
D15*
X89250000Y8975000D03*
X89250000Y12025000D03*
X87000000Y8975000D03*
X87000000Y12025000D03*
D16*
X64270000Y5500000D03*
X61730000Y5500000D03*
X43270000Y72500000D03*
X40730000Y72500000D03*
D17*
X92000000Y69000000D03*
X92000000Y3000000D03*
X3000000Y69000000D03*
X3000000Y3000000D03*
D18*
X83000000Y67799860D03*
X83000000Y73799340D03*
D19*
X78301000Y70799600D03*
D20*
X71540000Y74600000D03*
X66460000Y74600000D03*
D16*
X51750000Y66290000D03*
X54250000Y66290000D03*
X54250000Y68290000D03*
X51750000Y68290000D03*
D21*
X46980000Y71000000D03*
X59020000Y71000000D03*
D13*
X2730000Y48510000D03*
D10*
X5270000Y48510000D03*
X2730000Y45970000D03*
X5270000Y45970000D03*
X2730000Y43430000D03*
X5270000Y43430000D03*
X2730000Y40890000D03*
X5270000Y40890000D03*
X2730000Y38350000D03*
X5270000Y38350000D03*
X2730000Y35810000D03*
X5270000Y35810000D03*
X2730000Y33270000D03*
X5270000Y33270000D03*
X2730000Y30730000D03*
X5270000Y30730000D03*
X2730000Y28190000D03*
X5270000Y28190000D03*
X2730000Y25650000D03*
X5270000Y25650000D03*
X2730000Y23110000D03*
X5270000Y23110000D03*
X2730000Y20570000D03*
X5270000Y20570000D03*
X2730000Y18030000D03*
X5270000Y18030000D03*
X2730000Y15490000D03*
X5270000Y15490000D03*
D13*
X89730000Y48510000D03*
D10*
X92270000Y48510000D03*
X89730000Y45970000D03*
X92270000Y45970000D03*
X89730000Y43430000D03*
X92270000Y43430000D03*
X89730000Y40890000D03*
X92270000Y40890000D03*
X89730000Y38350000D03*
X92270000Y38350000D03*
X89730000Y35810000D03*
X92270000Y35810000D03*
X89730000Y33270000D03*
X92270000Y33270000D03*
X89730000Y30730000D03*
X92270000Y30730000D03*
X89730000Y28190000D03*
X92270000Y28190000D03*
X89730000Y25650000D03*
X92270000Y25650000D03*
X89730000Y23110000D03*
X92270000Y23110000D03*
X89730000Y20570000D03*
X92270000Y20570000D03*
X89730000Y18030000D03*
X92270000Y18030000D03*
X89730000Y15490000D03*
X92270000Y15490000D03*
D22*
X75550000Y8050000D03*
X75550000Y9950000D03*
X73450000Y9000000D03*
D23*
X42200000Y27550000D03*
X40300000Y27550000D03*
X41250000Y25450000D03*
X42550000Y65950000D03*
X44450000Y65950000D03*
X43500000Y68050000D03*
D24*
X75800000Y24500000D03*
X82200000Y24500000D03*
D25*
X74700000Y16250000D03*
X76300000Y16250000D03*
X80950000Y17250000D03*
X82550000Y17250000D03*
D26*
X27500000Y54050000D03*
X27500000Y52450000D03*
X29000000Y52450000D03*
X29000000Y54050000D03*
X14750000Y39050000D03*
X14750000Y37450000D03*
X16250000Y39050000D03*
X16250000Y37450000D03*
D25*
X63800000Y9000000D03*
X62200000Y9000000D03*
X71800000Y9000000D03*
X70200000Y9000000D03*
D26*
X87000000Y7550000D03*
X87000000Y5950000D03*
X40750000Y66200000D03*
X40750000Y67800000D03*
D27*
X2250000Y55750000D03*
X2250000Y62250000D03*
X6750000Y55750000D03*
X6750000Y62250000D03*
X84250000Y4750000D03*
X77750000Y4750000D03*
X84250000Y9250000D03*
X77750000Y9250000D03*
D28*
X36000000Y8000000D03*
D12*
X36000000Y10000000D03*
X36000000Y12000000D03*
X36000000Y14000000D03*
X36000000Y16000000D03*
X36000000Y18000000D03*
X36000000Y20000000D03*
X36000000Y22000000D03*
X36000000Y24000000D03*
X36000000Y26000000D03*
X14000000Y26000000D03*
X14000000Y24000000D03*
X14000000Y22000000D03*
X14000000Y20000000D03*
X14000000Y18000000D03*
X14000000Y16000000D03*
X14000000Y14000000D03*
X14000000Y12000000D03*
X14000000Y10000000D03*
X14000000Y8000000D03*
D29*
X79450000Y17550000D03*
X79450000Y18500000D03*
X79450000Y19450000D03*
X77050000Y19450000D03*
X77050000Y17550000D03*
D26*
X81750000Y20300000D03*
X81750000Y18700000D03*
D27*
X49250000Y4750000D03*
X42750000Y4750000D03*
X49250000Y9250000D03*
X42750000Y9250000D03*
D13*
X49290000Y57625000D03*
D10*
X46750000Y57625000D03*
X44210000Y57625000D03*
D26*
X31250000Y35550000D03*
X31250000Y33950000D03*
X34750000Y49550000D03*
X34750000Y47950000D03*
X33250000Y49550000D03*
X33250000Y47950000D03*
D25*
X13050000Y45750000D03*
X11450000Y45750000D03*
D26*
X13000000Y48800000D03*
X13000000Y47200000D03*
D30*
X27100000Y31950000D03*
X29300000Y31950000D03*
X29300000Y33650000D03*
X27100000Y33650000D03*
D13*
X36460000Y32500000D03*
D10*
X39000000Y32500000D03*
X41540000Y32500000D03*
D31*
X16095000Y45700000D03*
X17365000Y45700000D03*
X18635000Y45700000D03*
X19905000Y45700000D03*
X19905000Y51300000D03*
X18635000Y51300000D03*
X17365000Y51300000D03*
X16095000Y51300000D03*
D32*
X14500000Y49225000D03*
X14500000Y48275000D03*
D33*
X28062500Y44600000D03*
X28062500Y44200000D03*
X28062500Y43800000D03*
X28062500Y43400000D03*
X28062500Y43000000D03*
X28062500Y42600000D03*
X28062500Y42200000D03*
X28062500Y41800000D03*
X28062500Y41400000D03*
X28062500Y41000000D03*
X28062500Y40600000D03*
X28062500Y40200000D03*
X28062500Y39800000D03*
X28062500Y39400000D03*
D34*
X28900000Y38562500D03*
X29300000Y38562500D03*
X29700000Y38562500D03*
X30100000Y38562500D03*
X30500000Y38562500D03*
X30900000Y38562500D03*
X31300000Y38562500D03*
X31700000Y38562500D03*
X32100000Y38562500D03*
X32500000Y38562500D03*
X32900000Y38562500D03*
X33300000Y38562500D03*
X33700000Y38562500D03*
X34100000Y38562500D03*
D33*
X34937500Y39400000D03*
X34937500Y39800000D03*
X34937500Y40200000D03*
X34937500Y40600000D03*
X34937500Y41000000D03*
X34937500Y41400000D03*
X34937500Y41800000D03*
X34937500Y42200000D03*
X34937500Y42600000D03*
X34937500Y43000000D03*
X34937500Y43400000D03*
X34937500Y43800000D03*
X34937500Y44200000D03*
X34937500Y44600000D03*
D34*
X34100000Y45437500D03*
X33700000Y45437500D03*
X33300000Y45437500D03*
X32900000Y45437500D03*
X32500000Y45437500D03*
X32100000Y45437500D03*
X31700000Y45437500D03*
X31300000Y45437500D03*
X30900000Y45437500D03*
X30500000Y45437500D03*
X30100000Y45437500D03*
X29700000Y45437500D03*
X29300000Y45437500D03*
X28900000Y45437500D03*
D35*
X31500000Y42000000D03*
D11*
X38025000Y40600000D03*
X38975000Y40600000D03*
D32*
X30500000Y48525000D03*
X30500000Y49475000D03*
D11*
X24725000Y39500000D03*
X23775000Y39500000D03*
D32*
X31750000Y48525000D03*
X31750000Y49475000D03*
D11*
X25975000Y46000000D03*
X25025000Y46000000D03*
D32*
X33750000Y18525000D03*
X33750000Y19475000D03*
X36250000Y47525000D03*
X36250000Y48475000D03*
D11*
X37525000Y47250000D03*
X38475000Y47250000D03*
D32*
X34000000Y33975000D03*
X34000000Y33025000D03*
X31250000Y32725000D03*
X31250000Y31775000D03*
X25250000Y32025000D03*
X25250000Y32975000D03*
X32750000Y33975000D03*
X32750000Y33025000D03*
D11*
X37525000Y46000000D03*
X38475000Y46000000D03*
D26*
X74750000Y20300000D03*
X74750000Y18700000D03*
D36*
X55475000Y63250000D03*
X58525000Y63250000D03*
D10*
X63250000Y62500000D03*
X63250000Y59000000D03*
D16*
X72270000Y5500000D03*
X69730000Y5500000D03*
X56270000Y5500000D03*
X53730000Y5500000D03*
D25*
X55800000Y9000000D03*
X54200000Y9000000D03*
D15*
X49250000Y60975000D03*
X49250000Y64025000D03*
D37*
X27600000Y29600000D03*
X28800000Y29600000D03*
X30000000Y29600000D03*
D38*
X92000000Y75000000D03*
X3000000Y75000000D03*
X92000000Y10000000D03*
X3000000Y10000000D03*
D36*
X50275000Y35250000D03*
X47225000Y35250000D03*
D39*
X57700000Y44000000D03*
D40*
X60000000Y50500000D03*
D39*
X62300000Y44000000D03*
D11*
X51775000Y35250000D03*
X52725000Y35250000D03*
D39*
X67700000Y26000000D03*
D40*
X70000000Y32500000D03*
D39*
X72300000Y26000000D03*
X57700000Y26000000D03*
D40*
X60000000Y32500000D03*
D39*
X62300000Y26000000D03*
D36*
X50275000Y45500000D03*
X47225000Y45500000D03*
D41*
X45950000Y43405000D03*
X45950000Y42135000D03*
X45950000Y40865000D03*
X45950000Y39595000D03*
X51550000Y39595000D03*
X51550000Y40865000D03*
X51550000Y42135000D03*
X51550000Y43405000D03*
X45950000Y33155000D03*
X45950000Y31885000D03*
X45950000Y30615000D03*
X45950000Y29345000D03*
X51550000Y29345000D03*
X51550000Y30615000D03*
X51550000Y31885000D03*
X51550000Y33155000D03*
D39*
X67700000Y44000000D03*
D40*
X70000000Y50500000D03*
D39*
X72300000Y44000000D03*
D11*
X52725000Y45500000D03*
X51775000Y45500000D03*
G36*
X2711980Y72497617D02*
G01*
X2790613Y72481976D01*
X2835313Y72463461D01*
X2891624Y72425835D01*
X2925835Y72391624D01*
X2963461Y72335313D01*
X2981976Y72290613D01*
X2997617Y72211980D01*
X3000000Y72187789D01*
X3000000Y65812211D01*
X2997617Y65788020D01*
X2981976Y65709387D01*
X2963461Y65664687D01*
X2925835Y65608376D01*
X2891624Y65574165D01*
X2835313Y65536539D01*
X2790613Y65518024D01*
X2711980Y65502383D01*
X2687789Y65500000D01*
X312211Y65500000D01*
X288020Y65502383D01*
X209387Y65518024D01*
X164687Y65536539D01*
X108376Y65574165D01*
X74165Y65608376D01*
X36539Y65664687D01*
X18024Y65709387D01*
X2383Y65788020D01*
X0Y65812211D01*
X0Y72187789D01*
X2383Y72211980D01*
X18024Y72290613D01*
X36539Y72335313D01*
X74165Y72391624D01*
X108376Y72425835D01*
X164687Y72463461D01*
X209387Y72481976D01*
X288020Y72497617D01*
X312211Y72500000D01*
X2687789Y72500000D01*
X2711980Y72497617D01*
G37*
G36*
X94711980Y72497617D02*
G01*
X94790613Y72481976D01*
X94835313Y72463461D01*
X94891624Y72425835D01*
X94925835Y72391624D01*
X94963461Y72335313D01*
X94981976Y72290613D01*
X94997617Y72211980D01*
X95000000Y72187789D01*
X95000000Y65812211D01*
X94997617Y65788020D01*
X94981976Y65709387D01*
X94963461Y65664687D01*
X94925835Y65608376D01*
X94891624Y65574165D01*
X94835313Y65536539D01*
X94790613Y65518024D01*
X94711980Y65502383D01*
X94687789Y65500000D01*
X92312211Y65500000D01*
X92288020Y65502383D01*
X92209387Y65518024D01*
X92164687Y65536539D01*
X92108376Y65574165D01*
X92074165Y65608376D01*
X92036539Y65664687D01*
X92018024Y65709387D01*
X92002383Y65788020D01*
X92000000Y65812211D01*
X92000000Y72187789D01*
X92002383Y72211980D01*
X92018024Y72290613D01*
X92036539Y72335313D01*
X92074165Y72391624D01*
X92108376Y72425835D01*
X92164687Y72463461D01*
X92209387Y72481976D01*
X92288020Y72497617D01*
X92312211Y72500000D01*
X94687789Y72500000D01*
X94711980Y72497617D01*
G37*
G36*
X94711980Y6497617D02*
G01*
X94790613Y6481976D01*
X94835313Y6463461D01*
X94891624Y6425835D01*
X94925835Y6391624D01*
X94963461Y6335313D01*
X94981976Y6290613D01*
X94997617Y6211980D01*
X95000000Y6187789D01*
X95000000Y1016269D01*
X94999963Y1013231D01*
X94999714Y1003071D01*
X94999415Y996981D01*
X94998666Y986834D01*
X94998405Y983808D01*
X94983980Y837349D01*
X94983234Y831306D01*
X94980253Y811213D01*
X94977880Y799281D01*
X94972949Y779595D01*
X94971326Y773729D01*
X94933339Y648501D01*
X94931431Y642727D01*
X94924594Y623616D01*
X94919934Y612365D01*
X94911252Y594010D01*
X94908518Y588577D01*
X94846824Y473154D01*
X94843823Y467857D01*
X94833399Y450466D01*
X94826638Y440349D01*
X94814540Y424037D01*
X94810797Y419240D01*
X94727782Y318085D01*
X94723806Y313476D01*
X94710172Y298433D01*
X94701567Y289828D01*
X94686524Y276194D01*
X94681915Y272218D01*
X94580760Y189203D01*
X94575963Y185460D01*
X94559651Y173362D01*
X94549534Y166601D01*
X94532143Y156177D01*
X94526846Y153176D01*
X94411423Y91482D01*
X94405990Y88748D01*
X94387635Y80066D01*
X94376384Y75406D01*
X94357273Y68569D01*
X94351499Y66661D01*
X94226271Y28674D01*
X94220405Y27051D01*
X94200719Y22120D01*
X94188787Y19747D01*
X94168694Y16766D01*
X94162651Y16020D01*
X94016192Y1595D01*
X94013166Y1334D01*
X94003019Y585D01*
X93996929Y286D01*
X93986769Y37D01*
X93983731Y0D01*
X88812211Y0D01*
X88788020Y2383D01*
X88709387Y18024D01*
X88664687Y36539D01*
X88608376Y74165D01*
X88574165Y108376D01*
X88536539Y164687D01*
X88518024Y209387D01*
X88502383Y288020D01*
X88500000Y312211D01*
X88500000Y2687789D01*
X88502383Y2711980D01*
X88518024Y2790613D01*
X88536539Y2835313D01*
X88574165Y2891624D01*
X88608376Y2925835D01*
X88664687Y2963461D01*
X88709387Y2981976D01*
X88788020Y2997617D01*
X88812211Y3000000D01*
X91693904Y3000000D01*
X91705980Y3001190D01*
X91802827Y3020453D01*
X91824959Y3029621D01*
X91901979Y3081084D01*
X91918916Y3098021D01*
X91970379Y3175041D01*
X91979547Y3197173D01*
X91998810Y3294020D01*
X92000000Y3306096D01*
X92000000Y6187789D01*
X92002383Y6211980D01*
X92018024Y6290613D01*
X92036539Y6335313D01*
X92074165Y6391624D01*
X92108376Y6425835D01*
X92164687Y6463461D01*
X92209387Y6481976D01*
X92288020Y6497617D01*
X92312211Y6500000D01*
X94687789Y6500000D01*
X94711980Y6497617D01*
G37*
G36*
X2887716Y6497617D02*
G01*
X2966349Y6481976D01*
X3011049Y6463461D01*
X3077715Y6418916D01*
X3096505Y6403495D01*
X6403495Y3096505D01*
X6418916Y3077715D01*
X6463461Y3011049D01*
X6481976Y2966349D01*
X6497617Y2887716D01*
X6500000Y2863525D01*
X6500000Y312211D01*
X6497617Y288020D01*
X6481976Y209387D01*
X6463461Y164687D01*
X6425835Y108376D01*
X6391624Y74165D01*
X6335313Y36539D01*
X6290613Y18024D01*
X6211980Y2383D01*
X6187789Y0D01*
X1016269Y0D01*
X1013231Y37D01*
X1003071Y286D01*
X996981Y585D01*
X986834Y1334D01*
X983808Y1595D01*
X837349Y16020D01*
X831306Y16766D01*
X811213Y19747D01*
X799281Y22120D01*
X779595Y27051D01*
X773729Y28674D01*
X648501Y66661D01*
X642727Y68569D01*
X623616Y75406D01*
X612365Y80066D01*
X594010Y88748D01*
X588577Y91482D01*
X473154Y153176D01*
X467857Y156177D01*
X450466Y166601D01*
X440349Y173362D01*
X424037Y185460D01*
X419240Y189203D01*
X318085Y272218D01*
X313476Y276194D01*
X298433Y289828D01*
X289828Y298433D01*
X276194Y313476D01*
X272218Y318085D01*
X189203Y419240D01*
X185460Y424037D01*
X173362Y440349D01*
X166601Y450466D01*
X156177Y467857D01*
X153176Y473154D01*
X91482Y588577D01*
X88748Y594010D01*
X80066Y612365D01*
X75406Y623616D01*
X68569Y642727D01*
X66661Y648501D01*
X28674Y773729D01*
X27051Y779595D01*
X22120Y799281D01*
X19747Y811213D01*
X16766Y831306D01*
X16020Y837349D01*
X1595Y983808D01*
X1334Y986834D01*
X585Y996981D01*
X286Y1003071D01*
X37Y1013231D01*
X0Y1016269D01*
X0Y6187789D01*
X2383Y6211980D01*
X18024Y6290613D01*
X36539Y6335313D01*
X74165Y6391624D01*
X108376Y6425835D01*
X164687Y6463461D01*
X209387Y6481976D01*
X288020Y6497617D01*
X312211Y6500000D01*
X2863525Y6500000D01*
X2887716Y6497617D01*
G37*
M02*
