G04 #@! TF.GenerationSoftware,KiCad,Pcbnew,(6.0.7)*
G04 #@! TF.CreationDate,2022-09-01T11:58:41+09:00*
G04 #@! TF.ProjectId,RP2040CommandStation,52503230-3430-4436-9f6d-6d616e645374,rev?*
G04 #@! TF.SameCoordinates,PX6cb8080PY8d24d00*
G04 #@! TF.FileFunction,Soldermask,Bot*
G04 #@! TF.FilePolarity,Negative*
%FSLAX46Y46*%
G04 Gerber Fmt 4.6, Leading zero omitted, Abs format (unit mm)*
G04 Created by KiCad (PCBNEW (6.0.7)) date 2022-09-01 11:58:41*
%MOMM*%
%LPD*%
G01*
G04 APERTURE LIST*
%ADD10C,1.600000*%
%ADD11C,1.400000*%
%ADD12R,1.600000X1.600000*%
%ADD13C,1.524000*%
%ADD14C,7.000000*%
%ADD15R,3.500120X3.500120*%
%ADD16R,2.200000X3.600000*%
%ADD17C,2.500000*%
%ADD18C,2.700000*%
%ADD19C,1.700000*%
%ADD20R,1.400000X1.400000*%
%ADD21C,2.000000*%
G04 APERTURE END LIST*
D10*
X81000000Y61500000D03*
X81000000Y56500000D03*
D11*
X56500000Y58500000D03*
X56500000Y60500000D03*
D12*
X12570000Y57000000D03*
D10*
X15110000Y57000000D03*
X17650000Y57000000D03*
X20190000Y57000000D03*
X22730000Y57000000D03*
X25270000Y57000000D03*
X27810000Y57000000D03*
X30350000Y57000000D03*
X32890000Y57000000D03*
X35430000Y57000000D03*
X37000000Y72730000D03*
X37000000Y75270000D03*
X11000000Y75270000D03*
X11000000Y72730000D03*
D13*
X64270000Y5500000D03*
X61730000Y5500000D03*
X43270000Y72500000D03*
X40730000Y72500000D03*
D14*
X92000000Y69000000D03*
X92000000Y3000000D03*
X3000000Y69000000D03*
X3000000Y3000000D03*
D15*
X83000000Y67799860D03*
X83000000Y73799340D03*
D16*
X78301000Y70799600D03*
D17*
X71540000Y74600000D03*
X66460000Y74600000D03*
D13*
X51750000Y66290000D03*
X54250000Y66290000D03*
X54250000Y68290000D03*
X51750000Y68290000D03*
D18*
X46980000Y71000000D03*
X59020000Y71000000D03*
D12*
X2730000Y48510000D03*
D10*
X5270000Y48510000D03*
X2730000Y45970000D03*
X5270000Y45970000D03*
X2730000Y43430000D03*
X5270000Y43430000D03*
X2730000Y40890000D03*
X5270000Y40890000D03*
X2730000Y38350000D03*
X5270000Y38350000D03*
X2730000Y35810000D03*
X5270000Y35810000D03*
X2730000Y33270000D03*
X5270000Y33270000D03*
X2730000Y30730000D03*
X5270000Y30730000D03*
X2730000Y28190000D03*
X5270000Y28190000D03*
X2730000Y25650000D03*
X5270000Y25650000D03*
X2730000Y23110000D03*
X5270000Y23110000D03*
X2730000Y20570000D03*
X5270000Y20570000D03*
X2730000Y18030000D03*
X5270000Y18030000D03*
X2730000Y15490000D03*
X5270000Y15490000D03*
D12*
X89730000Y48510000D03*
D10*
X92270000Y48510000D03*
X89730000Y45970000D03*
X92270000Y45970000D03*
X89730000Y43430000D03*
X92270000Y43430000D03*
X89730000Y40890000D03*
X92270000Y40890000D03*
X89730000Y38350000D03*
X92270000Y38350000D03*
X89730000Y35810000D03*
X92270000Y35810000D03*
X89730000Y33270000D03*
X92270000Y33270000D03*
X89730000Y30730000D03*
X92270000Y30730000D03*
X89730000Y28190000D03*
X92270000Y28190000D03*
X89730000Y25650000D03*
X92270000Y25650000D03*
X89730000Y23110000D03*
X92270000Y23110000D03*
X89730000Y20570000D03*
X92270000Y20570000D03*
X89730000Y18030000D03*
X92270000Y18030000D03*
X89730000Y15490000D03*
X92270000Y15490000D03*
D19*
X2250000Y55750000D03*
X2250000Y62250000D03*
X6750000Y55750000D03*
X6750000Y62250000D03*
X84250000Y4750000D03*
X77750000Y4750000D03*
X84250000Y9250000D03*
X77750000Y9250000D03*
D20*
X36000000Y8000000D03*
D11*
X36000000Y10000000D03*
X36000000Y12000000D03*
X36000000Y14000000D03*
X36000000Y16000000D03*
X36000000Y18000000D03*
X36000000Y20000000D03*
X36000000Y22000000D03*
X36000000Y24000000D03*
X36000000Y26000000D03*
X14000000Y26000000D03*
X14000000Y24000000D03*
X14000000Y22000000D03*
X14000000Y20000000D03*
X14000000Y18000000D03*
X14000000Y16000000D03*
X14000000Y14000000D03*
X14000000Y12000000D03*
X14000000Y10000000D03*
X14000000Y8000000D03*
D19*
X49250000Y4750000D03*
X42750000Y4750000D03*
X49250000Y9250000D03*
X42750000Y9250000D03*
D12*
X49290000Y57625000D03*
D10*
X46750000Y57625000D03*
X44210000Y57625000D03*
D12*
X36460000Y32500000D03*
D10*
X39000000Y32500000D03*
X41540000Y32500000D03*
X63250000Y62500000D03*
X63250000Y59000000D03*
D13*
X72270000Y5500000D03*
X69730000Y5500000D03*
X56270000Y5500000D03*
X53730000Y5500000D03*
D21*
X92000000Y75000000D03*
X3000000Y75000000D03*
X92000000Y10000000D03*
X3000000Y10000000D03*
G36*
X2711980Y72497617D02*
G01*
X2790613Y72481976D01*
X2835313Y72463461D01*
X2891624Y72425835D01*
X2925835Y72391624D01*
X2963461Y72335313D01*
X2981976Y72290613D01*
X2997617Y72211980D01*
X3000000Y72187789D01*
X3000000Y65812211D01*
X2997617Y65788020D01*
X2981976Y65709387D01*
X2963461Y65664687D01*
X2925835Y65608376D01*
X2891624Y65574165D01*
X2835313Y65536539D01*
X2790613Y65518024D01*
X2711980Y65502383D01*
X2687789Y65500000D01*
X312211Y65500000D01*
X288020Y65502383D01*
X209387Y65518024D01*
X164687Y65536539D01*
X108376Y65574165D01*
X74165Y65608376D01*
X36539Y65664687D01*
X18024Y65709387D01*
X2383Y65788020D01*
X0Y65812211D01*
X0Y72187789D01*
X2383Y72211980D01*
X18024Y72290613D01*
X36539Y72335313D01*
X74165Y72391624D01*
X108376Y72425835D01*
X164687Y72463461D01*
X209387Y72481976D01*
X288020Y72497617D01*
X312211Y72500000D01*
X2687789Y72500000D01*
X2711980Y72497617D01*
G37*
G36*
X94711980Y72497617D02*
G01*
X94790613Y72481976D01*
X94835313Y72463461D01*
X94891624Y72425835D01*
X94925835Y72391624D01*
X94963461Y72335313D01*
X94981976Y72290613D01*
X94997617Y72211980D01*
X95000000Y72187789D01*
X95000000Y65812211D01*
X94997617Y65788020D01*
X94981976Y65709387D01*
X94963461Y65664687D01*
X94925835Y65608376D01*
X94891624Y65574165D01*
X94835313Y65536539D01*
X94790613Y65518024D01*
X94711980Y65502383D01*
X94687789Y65500000D01*
X92312211Y65500000D01*
X92288020Y65502383D01*
X92209387Y65518024D01*
X92164687Y65536539D01*
X92108376Y65574165D01*
X92074165Y65608376D01*
X92036539Y65664687D01*
X92018024Y65709387D01*
X92002383Y65788020D01*
X92000000Y65812211D01*
X92000000Y72187789D01*
X92002383Y72211980D01*
X92018024Y72290613D01*
X92036539Y72335313D01*
X92074165Y72391624D01*
X92108376Y72425835D01*
X92164687Y72463461D01*
X92209387Y72481976D01*
X92288020Y72497617D01*
X92312211Y72500000D01*
X94687789Y72500000D01*
X94711980Y72497617D01*
G37*
G36*
X94711980Y6497617D02*
G01*
X94790613Y6481976D01*
X94835313Y6463461D01*
X94891624Y6425835D01*
X94925835Y6391624D01*
X94963461Y6335313D01*
X94981976Y6290613D01*
X94997617Y6211980D01*
X95000000Y6187789D01*
X95000000Y1016269D01*
X94999963Y1013231D01*
X94999714Y1003071D01*
X94999415Y996981D01*
X94998666Y986834D01*
X94998405Y983808D01*
X94983980Y837349D01*
X94983234Y831306D01*
X94980253Y811213D01*
X94977880Y799281D01*
X94972949Y779595D01*
X94971326Y773729D01*
X94933339Y648501D01*
X94931431Y642727D01*
X94924594Y623616D01*
X94919934Y612365D01*
X94911252Y594010D01*
X94908518Y588577D01*
X94846824Y473154D01*
X94843823Y467857D01*
X94833399Y450466D01*
X94826638Y440349D01*
X94814540Y424037D01*
X94810797Y419240D01*
X94727782Y318085D01*
X94723806Y313476D01*
X94710172Y298433D01*
X94701567Y289828D01*
X94686524Y276194D01*
X94681915Y272218D01*
X94580760Y189203D01*
X94575963Y185460D01*
X94559651Y173362D01*
X94549534Y166601D01*
X94532143Y156177D01*
X94526846Y153176D01*
X94411423Y91482D01*
X94405990Y88748D01*
X94387635Y80066D01*
X94376384Y75406D01*
X94357273Y68569D01*
X94351499Y66661D01*
X94226271Y28674D01*
X94220405Y27051D01*
X94200719Y22120D01*
X94188787Y19747D01*
X94168694Y16766D01*
X94162651Y16020D01*
X94016192Y1595D01*
X94013166Y1334D01*
X94003019Y585D01*
X93996929Y286D01*
X93986769Y37D01*
X93983731Y0D01*
X88812211Y0D01*
X88788020Y2383D01*
X88709387Y18024D01*
X88664687Y36539D01*
X88608376Y74165D01*
X88574165Y108376D01*
X88536539Y164687D01*
X88518024Y209387D01*
X88502383Y288020D01*
X88500000Y312211D01*
X88500000Y2863525D01*
X88502383Y2887716D01*
X88518024Y2966349D01*
X88536539Y3011049D01*
X88581084Y3077715D01*
X88596505Y3096505D01*
X91903495Y6403495D01*
X91922285Y6418916D01*
X91988951Y6463461D01*
X92033651Y6481976D01*
X92112284Y6497617D01*
X92136475Y6500000D01*
X94687789Y6500000D01*
X94711980Y6497617D01*
G37*
G36*
X2887716Y6497617D02*
G01*
X2966349Y6481976D01*
X3011049Y6463461D01*
X3077715Y6418916D01*
X3096505Y6403495D01*
X6403495Y3096505D01*
X6418916Y3077715D01*
X6463461Y3011049D01*
X6481976Y2966349D01*
X6497617Y2887716D01*
X6500000Y2863525D01*
X6500000Y312211D01*
X6497617Y288020D01*
X6481976Y209387D01*
X6463461Y164687D01*
X6425835Y108376D01*
X6391624Y74165D01*
X6335313Y36539D01*
X6290613Y18024D01*
X6211980Y2383D01*
X6187789Y0D01*
X1016269Y0D01*
X1013231Y37D01*
X1003071Y286D01*
X996981Y585D01*
X986834Y1334D01*
X983808Y1595D01*
X837349Y16020D01*
X831306Y16766D01*
X811213Y19747D01*
X799281Y22120D01*
X779595Y27051D01*
X773729Y28674D01*
X648501Y66661D01*
X642727Y68569D01*
X623616Y75406D01*
X612365Y80066D01*
X594010Y88748D01*
X588577Y91482D01*
X473154Y153176D01*
X467857Y156177D01*
X450466Y166601D01*
X440349Y173362D01*
X424037Y185460D01*
X419240Y189203D01*
X318085Y272218D01*
X313476Y276194D01*
X298433Y289828D01*
X289828Y298433D01*
X276194Y313476D01*
X272218Y318085D01*
X189203Y419240D01*
X185460Y424037D01*
X173362Y440349D01*
X166601Y450466D01*
X156177Y467857D01*
X153176Y473154D01*
X91482Y588577D01*
X88748Y594010D01*
X80066Y612365D01*
X75406Y623616D01*
X68569Y642727D01*
X66661Y648501D01*
X28674Y773729D01*
X27051Y779595D01*
X22120Y799281D01*
X19747Y811213D01*
X16766Y831306D01*
X16020Y837349D01*
X1595Y983808D01*
X1334Y986834D01*
X585Y996981D01*
X286Y1003071D01*
X37Y1013231D01*
X0Y1016269D01*
X0Y6187789D01*
X2383Y6211980D01*
X18024Y6290613D01*
X36539Y6335313D01*
X74165Y6391624D01*
X108376Y6425835D01*
X164687Y6463461D01*
X209387Y6481976D01*
X288020Y6497617D01*
X312211Y6500000D01*
X2863525Y6500000D01*
X2887716Y6497617D01*
G37*
M02*
