M48
; DRILL file {KiCad (6.0.7)} date Thu Sep  1 11:58:41 2022
; FORMAT={-:-/ absolute / metric / decimal}
; #@! TF.CreationDate,2022-09-01T11:58:41+09:00
; #@! TF.GenerationSoftware,Kicad,Pcbnew,(6.0.7)
; #@! TF.FileFunction,Plated,1,2,PTH
FMAT,2
METRIC
; #@! TA.AperFunction,Plated,PTH,ViaDrill
T1C0.300
; #@! TA.AperFunction,Plated,PTH,ComponentDrill
T2C0.350
; #@! TA.AperFunction,Plated,PTH,ViaDrill
T3C0.400
; #@! TA.AperFunction,Plated,PTH,ViaDrill
T4C0.500
; #@! TA.AperFunction,Plated,PTH,ViaDrill
T5C0.700
; #@! TA.AperFunction,Plated,PTH,ComponentDrill
T6C0.700
; #@! TA.AperFunction,Plated,PTH,ComponentDrill
T7C0.762
; #@! TA.AperFunction,Plated,PTH,ViaDrill
T8C0.800
; #@! TA.AperFunction,Plated,PTH,ComponentDrill
T9C0.800
; #@! TA.AperFunction,Plated,PTH,ComponentDrill
T10C0.900
; #@! TA.AperFunction,Plated,PTH,ComponentDrill
T11C1.000
; #@! TA.AperFunction,Plated,PTH,ComponentDrill
T12C1.001
; #@! TA.AperFunction,Plated,PTH,ComponentDrill
T13C1.300
; #@! TA.AperFunction,Plated,PTH,ComponentDrill
T14C2.300
%
G90
G05
T1
X13.5Y39.0
X17.5Y39.0
X23.0Y40.25
X23.5Y41.0
X25.0Y40.5
X25.5Y44.5
X25.75Y41.0
X30.0Y51.75
X34.9Y36.3
X35.75Y36.5
X36.1Y34.4
X38.0Y56.0
X38.005Y28.755
X38.5Y42.5
X39.0Y43.25
X39.0Y25.0
X39.75Y41.5
X40.0Y43.25
X41.25Y45.25
X41.25Y38.75
X41.25Y24.0
X41.5Y39.75
X42.25Y28.75
X42.75Y38.25
X43.0Y42.5
X44.75Y47.0
X44.75Y46.0
X47.25Y24.5
X51.25Y22.0
X51.75Y21.25
T2
X30.225Y43.275
X30.225Y42.0
X30.225Y40.725
X31.5Y43.275
X31.5Y42.0
X31.5Y40.725
X32.775Y43.275
X32.775Y42.0
X32.775Y40.725
T3
X10.5Y47.5
X10.75Y50.25
X11.0Y33.75
X11.5Y37.0
X13.0Y53.0
X13.25Y50.25
X13.25Y28.25
X15.75Y53.0
X16.75Y53.0
X18.25Y36.5
X18.25Y33.75
X19.5Y47.5
X20.25Y42.0
X21.25Y38.75
X23.25Y29.5
X24.0Y35.0
X24.25Y44.75
X26.9Y35.0
X27.25Y46.0
X31.1Y51.0
X31.9Y47.5
X34.0Y53.5
X34.0Y30.0
X35.5Y38.0
X36.25Y46.0
X36.5Y51.0
X37.0Y55.0
X37.0Y40.6
X37.0Y36.5
X37.25Y52.25
X39.0Y30.0
X40.5Y52.5
X40.75Y48.25
X41.25Y42.5
X43.0Y39.25
X43.5Y61.25
X44.0Y48.25
X44.5Y44.5
X45.0Y12.5
X46.0Y47.25
X46.25Y12.5
X46.5Y53.25
X46.5Y49.75
X47.25Y61.0
X47.25Y38.5
X47.25Y37.5
X48.0Y42.0
X48.0Y41.0
X49.0Y11.75
X50.25Y11.75
X52.75Y50.0
X53.5Y55.0
X54.0Y25.25
X58.75Y34.25
X58.75Y32.25
X58.75Y30.25
X59.25Y56.5
X61.25Y34.25
X61.25Y32.25
X61.25Y30.25
X64.75Y25.25
X68.75Y34.25
X68.75Y32.25
X68.75Y30.25
X71.25Y34.25
X71.25Y32.25
X71.25Y30.25
X79.5Y14.75
T4
X7.5Y76.0
X7.5Y66.0
X7.5Y66.0
X7.5Y44.75
X7.5Y37.0
X7.5Y16.75
X7.5Y6.0
X8.75Y2.5
X10.5Y42.0
X11.5Y8.0
X14.5Y46.75
X17.25Y42.0
X17.5Y26.0
X17.5Y16.0
X17.5Y8.0
X19.0Y60.0
X20.0Y8.0
X22.5Y8.0
X25.0Y8.0
X25.75Y52.25
X26.0Y48.75
X27.25Y48.75
X27.5Y26.0
X27.5Y16.0
X27.5Y8.0
X30.0Y8.0
X35.5Y62.25
X37.25Y49.25
X38.0Y60.0
X39.0Y62.25
X39.25Y57.0
X40.25Y22.0
X40.25Y15.5
X40.25Y9.5
X41.25Y2.5
X42.0Y12.0
X42.25Y51.0
X42.25Y7.25
X42.75Y26.25
X43.5Y51.0
X43.5Y7.25
X47.0Y22.0
X47.5Y76.0
X47.5Y66.0
X47.75Y15.5
X48.25Y27.0
X50.75Y59.5
X51.5Y2.5
X51.75Y12.0
X52.0Y23.5
X57.5Y76.0
X57.5Y66.0
X57.5Y63.5
X57.5Y15.5
X57.5Y12.0
X59.0Y2.5
X62.75Y76.0
X62.75Y73.0
X62.75Y69.75
X62.75Y66.5
X64.0Y15.5
X64.0Y12.0
X66.5Y9.5
X66.5Y2.5
X71.25Y12.5
X71.5Y18.75
X73.25Y19.75
X73.25Y18.5
X74.5Y12.75
X75.0Y2.5
X77.5Y76.0
X77.5Y66.0
X78.0Y39.75
X78.0Y34.75
X78.0Y30.0
X79.0Y43.5
X79.5Y22.0
X81.25Y34.75
X81.25Y30.0
X81.75Y43.5
X83.0Y39.75
X83.5Y21.75
X84.0Y14.0
X84.5Y34.5
X86.0Y29.5
X87.5Y76.0
X87.5Y2.5
X93.5Y13.0
X93.5Y7.5
T5
X55.5Y42.75
X55.5Y40.75
X55.5Y38.75
X55.5Y36.75
X55.5Y34.75
X55.5Y32.75
X55.5Y30.75
X57.75Y40.75
X57.75Y38.75
X57.75Y36.75
X60.0Y44.75
X60.0Y42.75
X60.0Y40.75
X60.0Y38.75
X60.0Y36.75
X62.25Y40.75
X62.25Y38.75
X62.25Y36.75
X65.5Y44.75
X65.5Y42.75
X65.5Y40.75
X65.5Y38.75
X65.5Y36.75
X65.5Y34.75
X65.5Y32.75
X65.5Y30.75
X67.75Y40.75
X67.75Y38.75
X67.75Y36.75
X70.0Y44.75
X70.0Y42.75
X70.0Y40.75
X70.0Y38.75
X70.0Y36.75
X72.25Y40.75
X72.25Y38.75
X72.25Y36.75
T6
X56.5Y60.5
X56.5Y58.5
T7
X40.73Y72.5
X43.27Y72.5
X53.73Y5.5
X56.27Y5.5
X61.73Y5.5
X64.27Y5.5
X69.73Y5.5
X72.27Y5.5
T8
X76.0Y54.5
X76.0Y51.0
X79.5Y54.5
X79.5Y51.0
X83.5Y54.5
X83.5Y51.0
X87.0Y51.0
T9
X2.73Y48.51
X2.73Y45.97
X2.73Y43.43
X2.73Y40.89
X2.73Y38.35
X2.73Y35.81
X2.73Y33.27
X2.73Y30.73
X2.73Y28.19
X2.73Y25.65
X2.73Y23.11
X2.73Y20.57
X2.73Y18.03
X2.73Y15.49
X5.27Y48.51
X5.27Y45.97
X5.27Y43.43
X5.27Y40.89
X5.27Y38.35
X5.27Y35.81
X5.27Y33.27
X5.27Y30.73
X5.27Y28.19
X5.27Y25.65
X5.27Y23.11
X5.27Y20.57
X5.27Y18.03
X5.27Y15.49
X14.0Y26.0
X14.0Y24.0
X14.0Y22.0
X14.0Y20.0
X14.0Y18.0
X14.0Y16.0
X14.0Y14.0
X14.0Y12.0
X14.0Y10.0
X14.0Y8.0
X36.0Y26.0
X36.0Y24.0
X36.0Y22.0
X36.0Y20.0
X36.0Y18.0
X36.0Y16.0
X36.0Y14.0
X36.0Y12.0
X36.0Y10.0
X36.0Y8.0
X44.21Y57.625
X46.75Y57.625
X49.29Y57.625
X51.75Y68.29
X51.75Y66.29
X54.25Y68.29
X54.25Y66.29
X63.25Y62.5
X63.25Y59.0
X81.0Y61.5
X81.0Y56.5
X89.73Y48.51
X89.73Y45.97
X89.73Y43.43
X89.73Y40.89
X89.73Y38.35
X89.73Y35.81
X89.73Y33.27
X89.73Y30.73
X89.73Y28.19
X89.73Y25.65
X89.73Y23.11
X89.73Y20.57
X89.73Y18.03
X89.73Y15.49
X92.27Y48.51
X92.27Y45.97
X92.27Y43.43
X92.27Y40.89
X92.27Y38.35
X92.27Y35.81
X92.27Y33.27
X92.27Y30.73
X92.27Y28.19
X92.27Y25.65
X92.27Y23.11
X92.27Y20.57
X92.27Y18.03
X92.27Y15.49
T10
X11.0Y75.27
X11.0Y72.73
X12.57Y57.0
X15.11Y57.0
X17.65Y57.0
X20.19Y57.0
X22.73Y57.0
X25.27Y57.0
X27.81Y57.0
X30.35Y57.0
X32.89Y57.0
X35.43Y57.0
X36.46Y32.5
X37.0Y75.27
X37.0Y72.73
X39.0Y32.5
X41.54Y32.5
T11
X2.25Y62.25
X2.25Y55.75
X6.75Y62.25
X6.75Y55.75
X42.75Y9.25
X42.75Y4.75
X49.25Y9.25
X49.25Y4.75
X77.75Y9.25
X77.75Y4.75
X84.25Y9.25
X84.25Y4.75
T13
X66.46Y74.6
X71.54Y74.6
T14
X46.98Y71.0
X59.02Y71.0
T12
G00X78.301Y71.799
M15
G01X78.301Y69.8
M16
G05
G00X83.999Y73.799
M15
G01X82.001Y73.799
M16
G05
G00X83.999Y67.8
M15
G01X82.001Y67.8
M16
G05
T0
M30
