%TF.GenerationSoftware,KiCad,Pcbnew,(5.1.12)-1*%
%TF.CreationDate,2022-03-07T16:27:54+09:00*%
%TF.ProjectId,RP2040CommandStation,52503230-3430-4436-9f6d-6d616e645374,rev?*%
%TF.SameCoordinates,PX6cb8080PY8d24d00*%
%TF.FileFunction,Soldermask,Top*%
%TF.FilePolarity,Negative*%
%FSLAX46Y46*%
G04 Gerber Fmt 4.6, Leading zero omitted, Abs format (unit mm)*
G04 Created by KiCad (PCBNEW (5.1.12)-1) date 2022-03-07 16:27:54*
%MOMM*%
%LPD*%
G01*
G04 APERTURE LIST*
%ADD10C,2.000000*%
%ADD11R,0.500000X0.550000*%
%ADD12R,0.550000X0.500000*%
%ADD13R,1.000000X0.700000*%
%ADD14C,1.600000*%
%ADD15C,1.400000*%
%ADD16R,1.600000X1.600000*%
%ADD17R,2.200000X1.850000*%
%ADD18R,1.200000X0.850000*%
%ADD19C,1.524000*%
%ADD20C,3.200000*%
%ADD21R,3.500120X3.500120*%
%ADD22R,2.200000X3.600000*%
%ADD23C,2.500000*%
%ADD24C,2.700000*%
%ADD25R,0.600000X0.800000*%
%ADD26R,0.800000X0.600000*%
%ADD27R,1.500000X3.200000*%
%ADD28R,0.900000X0.700000*%
%ADD29R,0.700000X0.900000*%
%ADD30C,1.700000*%
%ADD31R,0.800000X1.300000*%
%ADD32R,2.000000X2.000000*%
%ADD33R,1.400000X1.400000*%
%ADD34R,1.400000X1.100000*%
%ADD35R,0.400000X1.900000*%
%ADD36C,0.250000*%
%ADD37C,0.100000*%
G04 APERTURE END LIST*
D10*
%TO.C,REF\u002A\u002A*%
X3000000Y10000000D03*
%TD*%
%TO.C,REF\u002A\u002A*%
X92000000Y10000000D03*
%TD*%
%TO.C,REF\u002A\u002A*%
X3000000Y75000000D03*
%TD*%
%TO.C,REF\u002A\u002A*%
X92000000Y75000000D03*
%TD*%
D11*
%TO.C,C8*%
X51500000Y24975000D03*
X51500000Y24025000D03*
%TD*%
D12*
%TO.C,C2*%
X88125000Y53000000D03*
X89075000Y53000000D03*
%TD*%
D13*
%TO.C,U4*%
X68800000Y42300000D03*
X68800000Y44200000D03*
X71200000Y44200000D03*
X71200000Y43250000D03*
X71200000Y42300000D03*
%TD*%
D12*
%TO.C,C5*%
X69975000Y40750000D03*
X69025000Y40750000D03*
%TD*%
D11*
%TO.C,C18*%
X39000000Y20475000D03*
X39000000Y19525000D03*
%TD*%
D12*
%TO.C,C12*%
X43475000Y37000000D03*
X42525000Y37000000D03*
%TD*%
%TO.C,C13*%
X42475000Y31600000D03*
X41525000Y31600000D03*
%TD*%
%TO.C,C15*%
X55525000Y31600000D03*
X56475000Y31600000D03*
%TD*%
D11*
%TO.C,C10*%
X48000000Y39525000D03*
X48000000Y40475000D03*
%TD*%
%TO.C,C11*%
X49250000Y39525000D03*
X49250000Y40475000D03*
%TD*%
%TO.C,C9*%
X53750000Y38525000D03*
X53750000Y39475000D03*
%TD*%
D12*
%TO.C,C17*%
X55025000Y38250000D03*
X55975000Y38250000D03*
%TD*%
%TO.C,C16*%
X55025000Y37000000D03*
X55975000Y37000000D03*
%TD*%
D11*
%TO.C,C6*%
X42750000Y23025000D03*
X42750000Y23975000D03*
%TD*%
%TO.C,C7*%
X48750000Y23725000D03*
X48750000Y22775000D03*
%TD*%
%TO.C,C14*%
X50250000Y24975000D03*
X50250000Y24025000D03*
%TD*%
D14*
%TO.C,C1*%
X81000000Y56500000D03*
X81000000Y61500000D03*
%TD*%
%TO.C,C3*%
X69500000Y33250000D03*
X69500000Y36750000D03*
%TD*%
D15*
%TO.C,C4*%
X78500000Y24000000D03*
X80500000Y24000000D03*
%TD*%
D14*
%TO.C,CN1*%
X35430000Y57000000D03*
X30350000Y57000000D03*
X27810000Y57000000D03*
X25270000Y57000000D03*
X22730000Y57000000D03*
X20190000Y57000000D03*
X17650000Y57000000D03*
X15110000Y57000000D03*
X11000000Y72730000D03*
X11000000Y75270000D03*
X37000000Y75270000D03*
X37000000Y72730000D03*
X32890000Y57000000D03*
D16*
X12570000Y57000000D03*
%TD*%
D17*
%TO.C,D1*%
X91000000Y56675000D03*
X91000000Y61325000D03*
%TD*%
D18*
%TO.C,D2*%
X75250000Y38525000D03*
X75250000Y35475000D03*
%TD*%
%TO.C,D3*%
X82250000Y35475000D03*
X82250000Y38525000D03*
%TD*%
%TO.C,D4*%
X79750000Y35475000D03*
X79750000Y38525000D03*
%TD*%
D19*
%TO.C,D5*%
X64270000Y5500000D03*
X61730000Y5500000D03*
%TD*%
%TO.C,D6*%
X72270000Y5500000D03*
X69730000Y5500000D03*
%TD*%
%TO.C,D7*%
X40730000Y72500000D03*
X43270000Y72500000D03*
%TD*%
D20*
%TO.C,H1*%
X92000000Y69000000D03*
%TD*%
%TO.C,H2*%
X92000000Y3000000D03*
%TD*%
%TO.C,H3*%
X3000000Y69000000D03*
%TD*%
%TO.C,H4*%
X3000000Y3000000D03*
%TD*%
D21*
%TO.C,J1*%
X83000000Y67799860D03*
X83000000Y73799340D03*
D22*
X78301000Y70799600D03*
%TD*%
D23*
%TO.C,J2*%
X71540000Y74600000D03*
X66460000Y74600000D03*
%TD*%
D19*
%TO.C,J3*%
X51750000Y66290000D03*
X54250000Y66290000D03*
X54250000Y68290000D03*
X51750000Y68290000D03*
D24*
X59020000Y71000000D03*
X46980000Y71000000D03*
%TD*%
D14*
%TO.C,J4*%
X5270000Y15490000D03*
X2730000Y15490000D03*
X5270000Y18030000D03*
X2730000Y18030000D03*
X5270000Y20570000D03*
X2730000Y20570000D03*
X5270000Y23110000D03*
X2730000Y23110000D03*
X5270000Y25650000D03*
X2730000Y25650000D03*
X5270000Y28190000D03*
X2730000Y28190000D03*
X5270000Y30730000D03*
X2730000Y30730000D03*
X5270000Y33270000D03*
X2730000Y33270000D03*
X5270000Y35810000D03*
X2730000Y35810000D03*
X5270000Y38350000D03*
X2730000Y38350000D03*
X5270000Y40890000D03*
X2730000Y40890000D03*
X5270000Y43430000D03*
X2730000Y43430000D03*
X5270000Y45970000D03*
X2730000Y45970000D03*
X5270000Y48510000D03*
D16*
X2730000Y48510000D03*
%TD*%
%TO.C,J5*%
X89730000Y48510000D03*
D14*
X92270000Y48510000D03*
X89730000Y45970000D03*
X92270000Y45970000D03*
X89730000Y43430000D03*
X92270000Y43430000D03*
X89730000Y40890000D03*
X92270000Y40890000D03*
X89730000Y38350000D03*
X92270000Y38350000D03*
X89730000Y35810000D03*
X92270000Y35810000D03*
X89730000Y33270000D03*
X92270000Y33270000D03*
X89730000Y30730000D03*
X92270000Y30730000D03*
X89730000Y28190000D03*
X92270000Y28190000D03*
X89730000Y25650000D03*
X92270000Y25650000D03*
X89730000Y23110000D03*
X92270000Y23110000D03*
X89730000Y20570000D03*
X92270000Y20570000D03*
X89730000Y18030000D03*
X92270000Y18030000D03*
X89730000Y15490000D03*
X92270000Y15490000D03*
%TD*%
D25*
%TO.C,Q1*%
X81900000Y31950000D03*
X80600000Y31950000D03*
X81250000Y30050000D03*
%TD*%
D26*
%TO.C,Q2*%
X62850000Y21100000D03*
X60950000Y20450000D03*
X60950000Y21750000D03*
%TD*%
D25*
%TO.C,Q3*%
X42600000Y66050000D03*
X43900000Y66050000D03*
X43250000Y67950000D03*
%TD*%
D27*
%TO.C,R1*%
X66800000Y48000000D03*
X73200000Y48000000D03*
%TD*%
D28*
%TO.C,R2*%
X66500000Y43450000D03*
X66500000Y45050000D03*
%TD*%
%TO.C,R3*%
X73500000Y45050000D03*
X73500000Y43450000D03*
%TD*%
D29*
%TO.C,R4*%
X68050000Y41000000D03*
X66450000Y41000000D03*
%TD*%
%TO.C,R5*%
X74300000Y42000000D03*
X72700000Y42000000D03*
%TD*%
D28*
%TO.C,R6*%
X77500000Y38550000D03*
X77500000Y36950000D03*
%TD*%
%TO.C,R7*%
X77500000Y35300000D03*
X77500000Y33700000D03*
%TD*%
%TO.C,R8*%
X48750000Y24950000D03*
X48750000Y26550000D03*
%TD*%
D29*
%TO.C,R9*%
X35450000Y40250000D03*
X37050000Y40250000D03*
%TD*%
D28*
%TO.C,R10*%
X37000000Y41700000D03*
X37000000Y43300000D03*
%TD*%
%TO.C,R11*%
X50750000Y38950000D03*
X50750000Y40550000D03*
%TD*%
%TO.C,R12*%
X52250000Y38950000D03*
X52250000Y40550000D03*
%TD*%
%TO.C,R13*%
X25000000Y37450000D03*
X25000000Y39050000D03*
%TD*%
%TO.C,R14*%
X26500000Y37450000D03*
X26500000Y39050000D03*
%TD*%
D29*
%TO.C,R15*%
X63800000Y9000000D03*
X62200000Y9000000D03*
%TD*%
%TO.C,R16*%
X71800000Y9000000D03*
X70200000Y9000000D03*
%TD*%
%TO.C,R17*%
X80450000Y33500000D03*
X82050000Y33500000D03*
%TD*%
D28*
%TO.C,R18*%
X40750000Y66200000D03*
X40750000Y67800000D03*
%TD*%
D30*
%TO.C,SW1*%
X2250000Y55750000D03*
X2250000Y62250000D03*
X6750000Y55750000D03*
X6750000Y62250000D03*
%TD*%
%TO.C,SW2*%
X77750000Y9250000D03*
X84250000Y9250000D03*
X77750000Y4750000D03*
X84250000Y4750000D03*
%TD*%
%TO.C,U1*%
G36*
G01*
X46300000Y36050000D02*
X46300000Y36825000D01*
G75*
G02*
X46350000Y36875000I50000J0D01*
G01*
X46450000Y36875000D01*
G75*
G02*
X46500000Y36825000I0J-50000D01*
G01*
X46500000Y36050000D01*
G75*
G02*
X46450000Y36000000I-50000J0D01*
G01*
X46350000Y36000000D01*
G75*
G02*
X46300000Y36050000I0J50000D01*
G01*
G37*
G36*
G01*
X46700000Y36050000D02*
X46700000Y36825000D01*
G75*
G02*
X46750000Y36875000I50000J0D01*
G01*
X46850000Y36875000D01*
G75*
G02*
X46900000Y36825000I0J-50000D01*
G01*
X46900000Y36050000D01*
G75*
G02*
X46850000Y36000000I-50000J0D01*
G01*
X46750000Y36000000D01*
G75*
G02*
X46700000Y36050000I0J50000D01*
G01*
G37*
G36*
G01*
X47100000Y36050000D02*
X47100000Y36825000D01*
G75*
G02*
X47150000Y36875000I50000J0D01*
G01*
X47250000Y36875000D01*
G75*
G02*
X47300000Y36825000I0J-50000D01*
G01*
X47300000Y36050000D01*
G75*
G02*
X47250000Y36000000I-50000J0D01*
G01*
X47150000Y36000000D01*
G75*
G02*
X47100000Y36050000I0J50000D01*
G01*
G37*
G36*
G01*
X47500000Y36050000D02*
X47500000Y36825000D01*
G75*
G02*
X47550000Y36875000I50000J0D01*
G01*
X47650000Y36875000D01*
G75*
G02*
X47700000Y36825000I0J-50000D01*
G01*
X47700000Y36050000D01*
G75*
G02*
X47650000Y36000000I-50000J0D01*
G01*
X47550000Y36000000D01*
G75*
G02*
X47500000Y36050000I0J50000D01*
G01*
G37*
G36*
G01*
X47900000Y36050000D02*
X47900000Y36825000D01*
G75*
G02*
X47950000Y36875000I50000J0D01*
G01*
X48050000Y36875000D01*
G75*
G02*
X48100000Y36825000I0J-50000D01*
G01*
X48100000Y36050000D01*
G75*
G02*
X48050000Y36000000I-50000J0D01*
G01*
X47950000Y36000000D01*
G75*
G02*
X47900000Y36050000I0J50000D01*
G01*
G37*
G36*
G01*
X48300000Y36050000D02*
X48300000Y36825000D01*
G75*
G02*
X48350000Y36875000I50000J0D01*
G01*
X48450000Y36875000D01*
G75*
G02*
X48500000Y36825000I0J-50000D01*
G01*
X48500000Y36050000D01*
G75*
G02*
X48450000Y36000000I-50000J0D01*
G01*
X48350000Y36000000D01*
G75*
G02*
X48300000Y36050000I0J50000D01*
G01*
G37*
G36*
G01*
X48700000Y36050000D02*
X48700000Y36825000D01*
G75*
G02*
X48750000Y36875000I50000J0D01*
G01*
X48850000Y36875000D01*
G75*
G02*
X48900000Y36825000I0J-50000D01*
G01*
X48900000Y36050000D01*
G75*
G02*
X48850000Y36000000I-50000J0D01*
G01*
X48750000Y36000000D01*
G75*
G02*
X48700000Y36050000I0J50000D01*
G01*
G37*
G36*
G01*
X49100000Y36050000D02*
X49100000Y36825000D01*
G75*
G02*
X49150000Y36875000I50000J0D01*
G01*
X49250000Y36875000D01*
G75*
G02*
X49300000Y36825000I0J-50000D01*
G01*
X49300000Y36050000D01*
G75*
G02*
X49250000Y36000000I-50000J0D01*
G01*
X49150000Y36000000D01*
G75*
G02*
X49100000Y36050000I0J50000D01*
G01*
G37*
G36*
G01*
X49500000Y36050000D02*
X49500000Y36825000D01*
G75*
G02*
X49550000Y36875000I50000J0D01*
G01*
X49650000Y36875000D01*
G75*
G02*
X49700000Y36825000I0J-50000D01*
G01*
X49700000Y36050000D01*
G75*
G02*
X49650000Y36000000I-50000J0D01*
G01*
X49550000Y36000000D01*
G75*
G02*
X49500000Y36050000I0J50000D01*
G01*
G37*
G36*
G01*
X49900000Y36050000D02*
X49900000Y36825000D01*
G75*
G02*
X49950000Y36875000I50000J0D01*
G01*
X50050000Y36875000D01*
G75*
G02*
X50100000Y36825000I0J-50000D01*
G01*
X50100000Y36050000D01*
G75*
G02*
X50050000Y36000000I-50000J0D01*
G01*
X49950000Y36000000D01*
G75*
G02*
X49900000Y36050000I0J50000D01*
G01*
G37*
G36*
G01*
X50300000Y36050000D02*
X50300000Y36825000D01*
G75*
G02*
X50350000Y36875000I50000J0D01*
G01*
X50450000Y36875000D01*
G75*
G02*
X50500000Y36825000I0J-50000D01*
G01*
X50500000Y36050000D01*
G75*
G02*
X50450000Y36000000I-50000J0D01*
G01*
X50350000Y36000000D01*
G75*
G02*
X50300000Y36050000I0J50000D01*
G01*
G37*
G36*
G01*
X50700000Y36050000D02*
X50700000Y36825000D01*
G75*
G02*
X50750000Y36875000I50000J0D01*
G01*
X50850000Y36875000D01*
G75*
G02*
X50900000Y36825000I0J-50000D01*
G01*
X50900000Y36050000D01*
G75*
G02*
X50850000Y36000000I-50000J0D01*
G01*
X50750000Y36000000D01*
G75*
G02*
X50700000Y36050000I0J50000D01*
G01*
G37*
G36*
G01*
X51100000Y36050000D02*
X51100000Y36825000D01*
G75*
G02*
X51150000Y36875000I50000J0D01*
G01*
X51250000Y36875000D01*
G75*
G02*
X51300000Y36825000I0J-50000D01*
G01*
X51300000Y36050000D01*
G75*
G02*
X51250000Y36000000I-50000J0D01*
G01*
X51150000Y36000000D01*
G75*
G02*
X51100000Y36050000I0J50000D01*
G01*
G37*
G36*
G01*
X51500000Y36050000D02*
X51500000Y36825000D01*
G75*
G02*
X51550000Y36875000I50000J0D01*
G01*
X51650000Y36875000D01*
G75*
G02*
X51700000Y36825000I0J-50000D01*
G01*
X51700000Y36050000D01*
G75*
G02*
X51650000Y36000000I-50000J0D01*
G01*
X51550000Y36000000D01*
G75*
G02*
X51500000Y36050000I0J50000D01*
G01*
G37*
G36*
G01*
X52000000Y35550000D02*
X52000000Y35650000D01*
G75*
G02*
X52050000Y35700000I50000J0D01*
G01*
X52825000Y35700000D01*
G75*
G02*
X52875000Y35650000I0J-50000D01*
G01*
X52875000Y35550000D01*
G75*
G02*
X52825000Y35500000I-50000J0D01*
G01*
X52050000Y35500000D01*
G75*
G02*
X52000000Y35550000I0J50000D01*
G01*
G37*
G36*
G01*
X52000000Y35150000D02*
X52000000Y35250000D01*
G75*
G02*
X52050000Y35300000I50000J0D01*
G01*
X52825000Y35300000D01*
G75*
G02*
X52875000Y35250000I0J-50000D01*
G01*
X52875000Y35150000D01*
G75*
G02*
X52825000Y35100000I-50000J0D01*
G01*
X52050000Y35100000D01*
G75*
G02*
X52000000Y35150000I0J50000D01*
G01*
G37*
G36*
G01*
X52000000Y34750000D02*
X52000000Y34850000D01*
G75*
G02*
X52050000Y34900000I50000J0D01*
G01*
X52825000Y34900000D01*
G75*
G02*
X52875000Y34850000I0J-50000D01*
G01*
X52875000Y34750000D01*
G75*
G02*
X52825000Y34700000I-50000J0D01*
G01*
X52050000Y34700000D01*
G75*
G02*
X52000000Y34750000I0J50000D01*
G01*
G37*
G36*
G01*
X52000000Y34350000D02*
X52000000Y34450000D01*
G75*
G02*
X52050000Y34500000I50000J0D01*
G01*
X52825000Y34500000D01*
G75*
G02*
X52875000Y34450000I0J-50000D01*
G01*
X52875000Y34350000D01*
G75*
G02*
X52825000Y34300000I-50000J0D01*
G01*
X52050000Y34300000D01*
G75*
G02*
X52000000Y34350000I0J50000D01*
G01*
G37*
G36*
G01*
X52000000Y33950000D02*
X52000000Y34050000D01*
G75*
G02*
X52050000Y34100000I50000J0D01*
G01*
X52825000Y34100000D01*
G75*
G02*
X52875000Y34050000I0J-50000D01*
G01*
X52875000Y33950000D01*
G75*
G02*
X52825000Y33900000I-50000J0D01*
G01*
X52050000Y33900000D01*
G75*
G02*
X52000000Y33950000I0J50000D01*
G01*
G37*
G36*
G01*
X52000000Y33550000D02*
X52000000Y33650000D01*
G75*
G02*
X52050000Y33700000I50000J0D01*
G01*
X52825000Y33700000D01*
G75*
G02*
X52875000Y33650000I0J-50000D01*
G01*
X52875000Y33550000D01*
G75*
G02*
X52825000Y33500000I-50000J0D01*
G01*
X52050000Y33500000D01*
G75*
G02*
X52000000Y33550000I0J50000D01*
G01*
G37*
G36*
G01*
X52000000Y33150000D02*
X52000000Y33250000D01*
G75*
G02*
X52050000Y33300000I50000J0D01*
G01*
X52825000Y33300000D01*
G75*
G02*
X52875000Y33250000I0J-50000D01*
G01*
X52875000Y33150000D01*
G75*
G02*
X52825000Y33100000I-50000J0D01*
G01*
X52050000Y33100000D01*
G75*
G02*
X52000000Y33150000I0J50000D01*
G01*
G37*
G36*
G01*
X52000000Y32750000D02*
X52000000Y32850000D01*
G75*
G02*
X52050000Y32900000I50000J0D01*
G01*
X52825000Y32900000D01*
G75*
G02*
X52875000Y32850000I0J-50000D01*
G01*
X52875000Y32750000D01*
G75*
G02*
X52825000Y32700000I-50000J0D01*
G01*
X52050000Y32700000D01*
G75*
G02*
X52000000Y32750000I0J50000D01*
G01*
G37*
G36*
G01*
X52000000Y32350000D02*
X52000000Y32450000D01*
G75*
G02*
X52050000Y32500000I50000J0D01*
G01*
X52825000Y32500000D01*
G75*
G02*
X52875000Y32450000I0J-50000D01*
G01*
X52875000Y32350000D01*
G75*
G02*
X52825000Y32300000I-50000J0D01*
G01*
X52050000Y32300000D01*
G75*
G02*
X52000000Y32350000I0J50000D01*
G01*
G37*
G36*
G01*
X52000000Y31950000D02*
X52000000Y32050000D01*
G75*
G02*
X52050000Y32100000I50000J0D01*
G01*
X52825000Y32100000D01*
G75*
G02*
X52875000Y32050000I0J-50000D01*
G01*
X52875000Y31950000D01*
G75*
G02*
X52825000Y31900000I-50000J0D01*
G01*
X52050000Y31900000D01*
G75*
G02*
X52000000Y31950000I0J50000D01*
G01*
G37*
G36*
G01*
X52000000Y31550000D02*
X52000000Y31650000D01*
G75*
G02*
X52050000Y31700000I50000J0D01*
G01*
X52825000Y31700000D01*
G75*
G02*
X52875000Y31650000I0J-50000D01*
G01*
X52875000Y31550000D01*
G75*
G02*
X52825000Y31500000I-50000J0D01*
G01*
X52050000Y31500000D01*
G75*
G02*
X52000000Y31550000I0J50000D01*
G01*
G37*
G36*
G01*
X52000000Y31150000D02*
X52000000Y31250000D01*
G75*
G02*
X52050000Y31300000I50000J0D01*
G01*
X52825000Y31300000D01*
G75*
G02*
X52875000Y31250000I0J-50000D01*
G01*
X52875000Y31150000D01*
G75*
G02*
X52825000Y31100000I-50000J0D01*
G01*
X52050000Y31100000D01*
G75*
G02*
X52000000Y31150000I0J50000D01*
G01*
G37*
G36*
G01*
X52000000Y30750000D02*
X52000000Y30850000D01*
G75*
G02*
X52050000Y30900000I50000J0D01*
G01*
X52825000Y30900000D01*
G75*
G02*
X52875000Y30850000I0J-50000D01*
G01*
X52875000Y30750000D01*
G75*
G02*
X52825000Y30700000I-50000J0D01*
G01*
X52050000Y30700000D01*
G75*
G02*
X52000000Y30750000I0J50000D01*
G01*
G37*
G36*
G01*
X52000000Y30350000D02*
X52000000Y30450000D01*
G75*
G02*
X52050000Y30500000I50000J0D01*
G01*
X52825000Y30500000D01*
G75*
G02*
X52875000Y30450000I0J-50000D01*
G01*
X52875000Y30350000D01*
G75*
G02*
X52825000Y30300000I-50000J0D01*
G01*
X52050000Y30300000D01*
G75*
G02*
X52000000Y30350000I0J50000D01*
G01*
G37*
G36*
G01*
X51500000Y29175000D02*
X51500000Y29950000D01*
G75*
G02*
X51550000Y30000000I50000J0D01*
G01*
X51650000Y30000000D01*
G75*
G02*
X51700000Y29950000I0J-50000D01*
G01*
X51700000Y29175000D01*
G75*
G02*
X51650000Y29125000I-50000J0D01*
G01*
X51550000Y29125000D01*
G75*
G02*
X51500000Y29175000I0J50000D01*
G01*
G37*
G36*
G01*
X51100000Y29175000D02*
X51100000Y29950000D01*
G75*
G02*
X51150000Y30000000I50000J0D01*
G01*
X51250000Y30000000D01*
G75*
G02*
X51300000Y29950000I0J-50000D01*
G01*
X51300000Y29175000D01*
G75*
G02*
X51250000Y29125000I-50000J0D01*
G01*
X51150000Y29125000D01*
G75*
G02*
X51100000Y29175000I0J50000D01*
G01*
G37*
G36*
G01*
X50700000Y29175000D02*
X50700000Y29950000D01*
G75*
G02*
X50750000Y30000000I50000J0D01*
G01*
X50850000Y30000000D01*
G75*
G02*
X50900000Y29950000I0J-50000D01*
G01*
X50900000Y29175000D01*
G75*
G02*
X50850000Y29125000I-50000J0D01*
G01*
X50750000Y29125000D01*
G75*
G02*
X50700000Y29175000I0J50000D01*
G01*
G37*
G36*
G01*
X50300000Y29175000D02*
X50300000Y29950000D01*
G75*
G02*
X50350000Y30000000I50000J0D01*
G01*
X50450000Y30000000D01*
G75*
G02*
X50500000Y29950000I0J-50000D01*
G01*
X50500000Y29175000D01*
G75*
G02*
X50450000Y29125000I-50000J0D01*
G01*
X50350000Y29125000D01*
G75*
G02*
X50300000Y29175000I0J50000D01*
G01*
G37*
G36*
G01*
X49900000Y29175000D02*
X49900000Y29950000D01*
G75*
G02*
X49950000Y30000000I50000J0D01*
G01*
X50050000Y30000000D01*
G75*
G02*
X50100000Y29950000I0J-50000D01*
G01*
X50100000Y29175000D01*
G75*
G02*
X50050000Y29125000I-50000J0D01*
G01*
X49950000Y29125000D01*
G75*
G02*
X49900000Y29175000I0J50000D01*
G01*
G37*
G36*
G01*
X49500000Y29175000D02*
X49500000Y29950000D01*
G75*
G02*
X49550000Y30000000I50000J0D01*
G01*
X49650000Y30000000D01*
G75*
G02*
X49700000Y29950000I0J-50000D01*
G01*
X49700000Y29175000D01*
G75*
G02*
X49650000Y29125000I-50000J0D01*
G01*
X49550000Y29125000D01*
G75*
G02*
X49500000Y29175000I0J50000D01*
G01*
G37*
G36*
G01*
X49100000Y29175000D02*
X49100000Y29950000D01*
G75*
G02*
X49150000Y30000000I50000J0D01*
G01*
X49250000Y30000000D01*
G75*
G02*
X49300000Y29950000I0J-50000D01*
G01*
X49300000Y29175000D01*
G75*
G02*
X49250000Y29125000I-50000J0D01*
G01*
X49150000Y29125000D01*
G75*
G02*
X49100000Y29175000I0J50000D01*
G01*
G37*
G36*
G01*
X48700000Y29175000D02*
X48700000Y29950000D01*
G75*
G02*
X48750000Y30000000I50000J0D01*
G01*
X48850000Y30000000D01*
G75*
G02*
X48900000Y29950000I0J-50000D01*
G01*
X48900000Y29175000D01*
G75*
G02*
X48850000Y29125000I-50000J0D01*
G01*
X48750000Y29125000D01*
G75*
G02*
X48700000Y29175000I0J50000D01*
G01*
G37*
G36*
G01*
X48300000Y29175000D02*
X48300000Y29950000D01*
G75*
G02*
X48350000Y30000000I50000J0D01*
G01*
X48450000Y30000000D01*
G75*
G02*
X48500000Y29950000I0J-50000D01*
G01*
X48500000Y29175000D01*
G75*
G02*
X48450000Y29125000I-50000J0D01*
G01*
X48350000Y29125000D01*
G75*
G02*
X48300000Y29175000I0J50000D01*
G01*
G37*
G36*
G01*
X47900000Y29175000D02*
X47900000Y29950000D01*
G75*
G02*
X47950000Y30000000I50000J0D01*
G01*
X48050000Y30000000D01*
G75*
G02*
X48100000Y29950000I0J-50000D01*
G01*
X48100000Y29175000D01*
G75*
G02*
X48050000Y29125000I-50000J0D01*
G01*
X47950000Y29125000D01*
G75*
G02*
X47900000Y29175000I0J50000D01*
G01*
G37*
G36*
G01*
X47500000Y29175000D02*
X47500000Y29950000D01*
G75*
G02*
X47550000Y30000000I50000J0D01*
G01*
X47650000Y30000000D01*
G75*
G02*
X47700000Y29950000I0J-50000D01*
G01*
X47700000Y29175000D01*
G75*
G02*
X47650000Y29125000I-50000J0D01*
G01*
X47550000Y29125000D01*
G75*
G02*
X47500000Y29175000I0J50000D01*
G01*
G37*
G36*
G01*
X47100000Y29175000D02*
X47100000Y29950000D01*
G75*
G02*
X47150000Y30000000I50000J0D01*
G01*
X47250000Y30000000D01*
G75*
G02*
X47300000Y29950000I0J-50000D01*
G01*
X47300000Y29175000D01*
G75*
G02*
X47250000Y29125000I-50000J0D01*
G01*
X47150000Y29125000D01*
G75*
G02*
X47100000Y29175000I0J50000D01*
G01*
G37*
G36*
G01*
X46700000Y29175000D02*
X46700000Y29950000D01*
G75*
G02*
X46750000Y30000000I50000J0D01*
G01*
X46850000Y30000000D01*
G75*
G02*
X46900000Y29950000I0J-50000D01*
G01*
X46900000Y29175000D01*
G75*
G02*
X46850000Y29125000I-50000J0D01*
G01*
X46750000Y29125000D01*
G75*
G02*
X46700000Y29175000I0J50000D01*
G01*
G37*
G36*
G01*
X46300000Y29175000D02*
X46300000Y29950000D01*
G75*
G02*
X46350000Y30000000I50000J0D01*
G01*
X46450000Y30000000D01*
G75*
G02*
X46500000Y29950000I0J-50000D01*
G01*
X46500000Y29175000D01*
G75*
G02*
X46450000Y29125000I-50000J0D01*
G01*
X46350000Y29125000D01*
G75*
G02*
X46300000Y29175000I0J50000D01*
G01*
G37*
G36*
G01*
X45125000Y30350000D02*
X45125000Y30450000D01*
G75*
G02*
X45175000Y30500000I50000J0D01*
G01*
X45950000Y30500000D01*
G75*
G02*
X46000000Y30450000I0J-50000D01*
G01*
X46000000Y30350000D01*
G75*
G02*
X45950000Y30300000I-50000J0D01*
G01*
X45175000Y30300000D01*
G75*
G02*
X45125000Y30350000I0J50000D01*
G01*
G37*
G36*
G01*
X45125000Y30750000D02*
X45125000Y30850000D01*
G75*
G02*
X45175000Y30900000I50000J0D01*
G01*
X45950000Y30900000D01*
G75*
G02*
X46000000Y30850000I0J-50000D01*
G01*
X46000000Y30750000D01*
G75*
G02*
X45950000Y30700000I-50000J0D01*
G01*
X45175000Y30700000D01*
G75*
G02*
X45125000Y30750000I0J50000D01*
G01*
G37*
G36*
G01*
X45125000Y31150000D02*
X45125000Y31250000D01*
G75*
G02*
X45175000Y31300000I50000J0D01*
G01*
X45950000Y31300000D01*
G75*
G02*
X46000000Y31250000I0J-50000D01*
G01*
X46000000Y31150000D01*
G75*
G02*
X45950000Y31100000I-50000J0D01*
G01*
X45175000Y31100000D01*
G75*
G02*
X45125000Y31150000I0J50000D01*
G01*
G37*
G36*
G01*
X45125000Y31550000D02*
X45125000Y31650000D01*
G75*
G02*
X45175000Y31700000I50000J0D01*
G01*
X45950000Y31700000D01*
G75*
G02*
X46000000Y31650000I0J-50000D01*
G01*
X46000000Y31550000D01*
G75*
G02*
X45950000Y31500000I-50000J0D01*
G01*
X45175000Y31500000D01*
G75*
G02*
X45125000Y31550000I0J50000D01*
G01*
G37*
G36*
G01*
X45125000Y31950000D02*
X45125000Y32050000D01*
G75*
G02*
X45175000Y32100000I50000J0D01*
G01*
X45950000Y32100000D01*
G75*
G02*
X46000000Y32050000I0J-50000D01*
G01*
X46000000Y31950000D01*
G75*
G02*
X45950000Y31900000I-50000J0D01*
G01*
X45175000Y31900000D01*
G75*
G02*
X45125000Y31950000I0J50000D01*
G01*
G37*
G36*
G01*
X45125000Y32350000D02*
X45125000Y32450000D01*
G75*
G02*
X45175000Y32500000I50000J0D01*
G01*
X45950000Y32500000D01*
G75*
G02*
X46000000Y32450000I0J-50000D01*
G01*
X46000000Y32350000D01*
G75*
G02*
X45950000Y32300000I-50000J0D01*
G01*
X45175000Y32300000D01*
G75*
G02*
X45125000Y32350000I0J50000D01*
G01*
G37*
G36*
G01*
X45125000Y32750000D02*
X45125000Y32850000D01*
G75*
G02*
X45175000Y32900000I50000J0D01*
G01*
X45950000Y32900000D01*
G75*
G02*
X46000000Y32850000I0J-50000D01*
G01*
X46000000Y32750000D01*
G75*
G02*
X45950000Y32700000I-50000J0D01*
G01*
X45175000Y32700000D01*
G75*
G02*
X45125000Y32750000I0J50000D01*
G01*
G37*
G36*
G01*
X45125000Y33150000D02*
X45125000Y33250000D01*
G75*
G02*
X45175000Y33300000I50000J0D01*
G01*
X45950000Y33300000D01*
G75*
G02*
X46000000Y33250000I0J-50000D01*
G01*
X46000000Y33150000D01*
G75*
G02*
X45950000Y33100000I-50000J0D01*
G01*
X45175000Y33100000D01*
G75*
G02*
X45125000Y33150000I0J50000D01*
G01*
G37*
G36*
G01*
X45125000Y33550000D02*
X45125000Y33650000D01*
G75*
G02*
X45175000Y33700000I50000J0D01*
G01*
X45950000Y33700000D01*
G75*
G02*
X46000000Y33650000I0J-50000D01*
G01*
X46000000Y33550000D01*
G75*
G02*
X45950000Y33500000I-50000J0D01*
G01*
X45175000Y33500000D01*
G75*
G02*
X45125000Y33550000I0J50000D01*
G01*
G37*
G36*
G01*
X45125000Y33950000D02*
X45125000Y34050000D01*
G75*
G02*
X45175000Y34100000I50000J0D01*
G01*
X45950000Y34100000D01*
G75*
G02*
X46000000Y34050000I0J-50000D01*
G01*
X46000000Y33950000D01*
G75*
G02*
X45950000Y33900000I-50000J0D01*
G01*
X45175000Y33900000D01*
G75*
G02*
X45125000Y33950000I0J50000D01*
G01*
G37*
G36*
G01*
X45125000Y34350000D02*
X45125000Y34450000D01*
G75*
G02*
X45175000Y34500000I50000J0D01*
G01*
X45950000Y34500000D01*
G75*
G02*
X46000000Y34450000I0J-50000D01*
G01*
X46000000Y34350000D01*
G75*
G02*
X45950000Y34300000I-50000J0D01*
G01*
X45175000Y34300000D01*
G75*
G02*
X45125000Y34350000I0J50000D01*
G01*
G37*
G36*
G01*
X45125000Y34750000D02*
X45125000Y34850000D01*
G75*
G02*
X45175000Y34900000I50000J0D01*
G01*
X45950000Y34900000D01*
G75*
G02*
X46000000Y34850000I0J-50000D01*
G01*
X46000000Y34750000D01*
G75*
G02*
X45950000Y34700000I-50000J0D01*
G01*
X45175000Y34700000D01*
G75*
G02*
X45125000Y34750000I0J50000D01*
G01*
G37*
G36*
G01*
X45125000Y35150000D02*
X45125000Y35250000D01*
G75*
G02*
X45175000Y35300000I50000J0D01*
G01*
X45950000Y35300000D01*
G75*
G02*
X46000000Y35250000I0J-50000D01*
G01*
X46000000Y35150000D01*
G75*
G02*
X45950000Y35100000I-50000J0D01*
G01*
X45175000Y35100000D01*
G75*
G02*
X45125000Y35150000I0J50000D01*
G01*
G37*
G36*
G01*
X45125000Y35550000D02*
X45125000Y35650000D01*
G75*
G02*
X45175000Y35700000I50000J0D01*
G01*
X45950000Y35700000D01*
G75*
G02*
X46000000Y35650000I0J-50000D01*
G01*
X46000000Y35550000D01*
G75*
G02*
X45950000Y35500000I-50000J0D01*
G01*
X45175000Y35500000D01*
G75*
G02*
X45125000Y35550000I0J50000D01*
G01*
G37*
G36*
G01*
X47400000Y31544000D02*
X47400000Y34456000D01*
G75*
G02*
X47544000Y34600000I144000J0D01*
G01*
X50456000Y34600000D01*
G75*
G02*
X50600000Y34456000I0J-144000D01*
G01*
X50600000Y31544000D01*
G75*
G02*
X50456000Y31400000I-144000J0D01*
G01*
X47544000Y31400000D01*
G75*
G02*
X47400000Y31544000I0J144000D01*
G01*
G37*
%TD*%
D31*
%TO.C,U2*%
X40095000Y45800000D03*
X41365000Y45800000D03*
X42635000Y45800000D03*
X43905000Y45800000D03*
X43905000Y40200000D03*
X42635000Y40200000D03*
X41365000Y40200000D03*
X40095000Y40200000D03*
%TD*%
D32*
%TO.C,U3*%
X57380000Y56000000D03*
D10*
X59920000Y56000000D03*
X62460000Y56000000D03*
X65000000Y56000000D03*
X67540000Y56000000D03*
X70080000Y56000000D03*
X72620000Y56000000D03*
%TD*%
D16*
%TO.C,U5*%
X67960000Y24000000D03*
D14*
X70500000Y24000000D03*
X73040000Y24000000D03*
%TD*%
D33*
%TO.C,U6*%
X36000000Y8000000D03*
D15*
X36000000Y10000000D03*
X36000000Y12000000D03*
X36000000Y14000000D03*
X36000000Y16000000D03*
X36000000Y18000000D03*
X36000000Y20000000D03*
X36000000Y22000000D03*
X36000000Y24000000D03*
X36000000Y26000000D03*
X14000000Y26000000D03*
X14000000Y24000000D03*
X14000000Y22000000D03*
X14000000Y20000000D03*
X14000000Y18000000D03*
X14000000Y16000000D03*
X14000000Y14000000D03*
X14000000Y12000000D03*
X14000000Y10000000D03*
X14000000Y8000000D03*
%TD*%
D34*
%TO.C,Y1*%
X44600000Y22950000D03*
X46800000Y22950000D03*
X46800000Y24650000D03*
X44600000Y24650000D03*
%TD*%
D14*
%TO.C,J6*%
X59040000Y23500000D03*
X56500000Y23500000D03*
D16*
X53960000Y23500000D03*
%TD*%
D30*
%TO.C,SW3*%
X49250000Y4750000D03*
X42750000Y4750000D03*
X49250000Y9250000D03*
X42750000Y9250000D03*
%TD*%
D11*
%TO.C,C19*%
X38500000Y43475000D03*
X38500000Y42525000D03*
%TD*%
D19*
%TO.C,D8*%
X56270000Y5500000D03*
X53730000Y5500000D03*
%TD*%
D29*
%TO.C,R19*%
X55800000Y9000000D03*
X54200000Y9000000D03*
%TD*%
D18*
%TO.C,D9*%
X64000000Y33225000D03*
X64000000Y36275000D03*
%TD*%
D35*
%TO.C,Y2*%
X45100000Y20600000D03*
X46300000Y20600000D03*
X47500000Y20600000D03*
%TD*%
D36*
X4441768Y5859417D02*
X4508188Y5815036D01*
X5815036Y4508188D01*
X5859417Y4441768D01*
X5875000Y4363426D01*
X5875000Y312310D01*
X5859417Y233968D01*
X5822012Y177988D01*
X5766032Y140583D01*
X5687690Y125000D01*
X312310Y125000D01*
X233968Y140583D01*
X177988Y177988D01*
X140583Y233968D01*
X125000Y312310D01*
X125000Y5687690D01*
X140583Y5766032D01*
X177988Y5822012D01*
X233968Y5859417D01*
X312310Y5875000D01*
X4363426Y5875000D01*
X4441768Y5859417D01*
D37*
G36*
X4441768Y5859417D02*
G01*
X4508188Y5815036D01*
X5815036Y4508188D01*
X5859417Y4441768D01*
X5875000Y4363426D01*
X5875000Y312310D01*
X5859417Y233968D01*
X5822012Y177988D01*
X5766032Y140583D01*
X5687690Y125000D01*
X312310Y125000D01*
X233968Y140583D01*
X177988Y177988D01*
X140583Y233968D01*
X125000Y312310D01*
X125000Y5687690D01*
X140583Y5766032D01*
X177988Y5822012D01*
X233968Y5859417D01*
X312310Y5875000D01*
X4363426Y5875000D01*
X4441768Y5859417D01*
G37*
D36*
X94766032Y5859417D02*
X94822012Y5822012D01*
X94859417Y5766032D01*
X94875000Y5687690D01*
X94875000Y312310D01*
X94859417Y233968D01*
X94822012Y177988D01*
X94766032Y140583D01*
X94687690Y125000D01*
X89312310Y125000D01*
X89233968Y140583D01*
X89177988Y177988D01*
X89140583Y233968D01*
X89125000Y312310D01*
X89125000Y4363426D01*
X89140583Y4441768D01*
X89184964Y4508188D01*
X90491812Y5815036D01*
X90558232Y5859417D01*
X90636574Y5875000D01*
X94687690Y5875000D01*
X94766032Y5859417D01*
D37*
G36*
X94766032Y5859417D02*
G01*
X94822012Y5822012D01*
X94859417Y5766032D01*
X94875000Y5687690D01*
X94875000Y312310D01*
X94859417Y233968D01*
X94822012Y177988D01*
X94766032Y140583D01*
X94687690Y125000D01*
X89312310Y125000D01*
X89233968Y140583D01*
X89177988Y177988D01*
X89140583Y233968D01*
X89125000Y312310D01*
X89125000Y4363426D01*
X89140583Y4441768D01*
X89184964Y4508188D01*
X90491812Y5815036D01*
X90558232Y5859417D01*
X90636574Y5875000D01*
X94687690Y5875000D01*
X94766032Y5859417D01*
G37*
D36*
X94766032Y71859417D02*
X94822012Y71822012D01*
X94859417Y71766032D01*
X94875000Y71687690D01*
X94875000Y66312310D01*
X94859417Y66233968D01*
X94822012Y66177988D01*
X94766032Y66140583D01*
X94687690Y66125000D01*
X90636574Y66125000D01*
X90558232Y66140583D01*
X90491812Y66184964D01*
X89184964Y67491812D01*
X89140583Y67558232D01*
X89125000Y67636574D01*
X89125000Y70363426D01*
X89140583Y70441768D01*
X89184964Y70508188D01*
X90491812Y71815036D01*
X90558232Y71859417D01*
X90636574Y71875000D01*
X94687690Y71875000D01*
X94766032Y71859417D01*
D37*
G36*
X94766032Y71859417D02*
G01*
X94822012Y71822012D01*
X94859417Y71766032D01*
X94875000Y71687690D01*
X94875000Y66312310D01*
X94859417Y66233968D01*
X94822012Y66177988D01*
X94766032Y66140583D01*
X94687690Y66125000D01*
X90636574Y66125000D01*
X90558232Y66140583D01*
X90491812Y66184964D01*
X89184964Y67491812D01*
X89140583Y67558232D01*
X89125000Y67636574D01*
X89125000Y70363426D01*
X89140583Y70441768D01*
X89184964Y70508188D01*
X90491812Y71815036D01*
X90558232Y71859417D01*
X90636574Y71875000D01*
X94687690Y71875000D01*
X94766032Y71859417D01*
G37*
D36*
X4441768Y71859417D02*
X4508188Y71815036D01*
X5815036Y70508188D01*
X5859417Y70441768D01*
X5875000Y70363426D01*
X5875000Y67636574D01*
X5859417Y67558232D01*
X5815036Y67491812D01*
X4508188Y66184964D01*
X4441768Y66140583D01*
X4363426Y66125000D01*
X312310Y66125000D01*
X233968Y66140583D01*
X177988Y66177988D01*
X140583Y66233968D01*
X125000Y66312310D01*
X125000Y71687690D01*
X140583Y71766032D01*
X177988Y71822012D01*
X233968Y71859417D01*
X312310Y71875000D01*
X4363426Y71875000D01*
X4441768Y71859417D01*
D37*
G36*
X4441768Y71859417D02*
G01*
X4508188Y71815036D01*
X5815036Y70508188D01*
X5859417Y70441768D01*
X5875000Y70363426D01*
X5875000Y67636574D01*
X5859417Y67558232D01*
X5815036Y67491812D01*
X4508188Y66184964D01*
X4441768Y66140583D01*
X4363426Y66125000D01*
X312310Y66125000D01*
X233968Y66140583D01*
X177988Y66177988D01*
X140583Y66233968D01*
X125000Y66312310D01*
X125000Y71687690D01*
X140583Y71766032D01*
X177988Y71822012D01*
X233968Y71859417D01*
X312310Y71875000D01*
X4363426Y71875000D01*
X4441768Y71859417D01*
G37*
M02*
